%TF.GenerationSoftware,Altium Limited,Altium Designer,19.0.15 (446)*%
G04 Layer_Color=32768*
%FSLAX45Y45*%
%MOMM*%
%TF.FileFunction,Other,Mechanical_15*%
%TF.Part,Single*%
G01*
G75*
%TA.AperFunction,NonConductor*%
%ADD52C,0.10000*%
%ADD82C,0.05000*%
D52*
X11140644Y7203645D02*
X11211355Y7274355D01*
X11140645D02*
X11211356Y7203645D01*
X10110000Y6350000D02*
X10210000D01*
X10160000Y6300000D02*
Y6400000D01*
Y6747000D02*
Y6842000D01*
X10112500Y6794500D02*
X10207500D01*
X12537645Y7203645D02*
X12608356Y7274356D01*
X12537645Y7274355D02*
X12608356Y7203644D01*
X13589000Y7445500D02*
Y7540500D01*
X13541499Y7493000D02*
X13636501D01*
X13398500Y7572500D02*
Y7667500D01*
X13350999Y7620000D02*
X13446001D01*
X11763500Y7937500D02*
X11858500D01*
X11811000Y7890000D02*
Y7985000D01*
X13779500Y7572500D02*
Y7667500D01*
X13732001Y7620000D02*
X13827000D01*
X11646700Y6684200D02*
X11746700D01*
X11696700Y6634200D02*
Y6734200D01*
X12119100Y7785100D02*
X12214100D01*
X12166600Y7737600D02*
Y7832600D01*
X12780712Y6621212D02*
X12847887Y6688387D01*
X12780712Y6688388D02*
X12847888Y6621212D01*
X11404600Y6547800D02*
Y6642800D01*
X11357100Y6595300D02*
X11452100D01*
X12044112Y6627958D02*
X12111288Y6560783D01*
X12044113Y6560783D02*
X12111288Y6627958D01*
X12474700Y6578600D02*
X12569700D01*
X12522200Y6531100D02*
Y6626100D01*
X10110000Y8128000D02*
X10210000D01*
X10160000Y8078000D02*
Y8178000D01*
Y7636000D02*
Y7731000D01*
X10112500Y7683500D02*
X10207500D01*
X10422513Y7069387D02*
X10489688Y7002212D01*
X10422512D02*
X10489688Y7069388D01*
X10160000Y7211000D02*
Y7311000D01*
X10110000Y7261000D02*
X10210000D01*
X11713912Y7522912D02*
X11781087Y7590087D01*
X11713912Y7590088D02*
X11781088Y7522912D01*
X14097000Y7595400D02*
Y7695400D01*
X14047000Y7645400D02*
X14147000D01*
X13149013Y7513887D02*
X13216188Y7446712D01*
X13149013D02*
X13216188Y7513888D01*
X10439400Y7547100D02*
Y7642100D01*
X10391900Y7594600D02*
X10486900D01*
X11510712Y7844088D02*
X11577887Y7776913D01*
X11510712Y7776912D02*
X11577888Y7844088D01*
X10431212Y6701088D02*
X10498388Y6633912D01*
X10431213Y6633913D02*
X10498388Y6701088D01*
X10769600Y7798600D02*
Y7898600D01*
X10719600Y7848600D02*
X10819600D01*
X14465900Y7470900D02*
Y7565900D01*
X14418401Y7518400D02*
X14513399D01*
X11128500Y7975600D02*
X11223500D01*
X11176000Y7928100D02*
Y8023100D01*
X10439400Y7851900D02*
Y7946900D01*
X10391900Y7899400D02*
X10486900D01*
X12055600Y7962900D02*
X12150600D01*
X12103100Y7915400D02*
Y8010400D01*
X14430499Y7772400D02*
X14525500D01*
X14478000Y7724900D02*
Y7819900D01*
X14452600Y7064500D02*
Y7159500D01*
X14405099Y7112000D02*
X14500101D01*
X10837612Y6624888D02*
X10904788Y6557712D01*
X10837612D02*
X10904787Y6624887D01*
X14173199Y7189000D02*
Y7289000D01*
X14123199Y7239000D02*
X14223199D01*
X14532100Y7950200D02*
X14627100D01*
X14579601Y7902700D02*
Y7997700D01*
X12436600Y7950200D02*
X12531600D01*
X12484100Y7902700D02*
Y7997700D01*
X15087601Y6503200D02*
Y6603200D01*
X15037601Y6553200D02*
X15137601D01*
X15063000Y7924800D02*
X15163000D01*
X15113000Y7874800D02*
Y7974800D01*
X14752863Y6531100D02*
Y6626100D01*
X14705360Y6578600D02*
X14800362D01*
X14808200Y7851900D02*
Y7946900D01*
X14760699Y7899400D02*
X14855701D01*
X14087601Y6946900D02*
X14182600D01*
X14135100Y6899400D02*
Y6994400D01*
X14151100Y7950200D02*
X14246100D01*
X14198599Y7902700D02*
Y7997700D01*
X11688512Y7078412D02*
X11755688Y7145588D01*
X11688513Y7145587D02*
X11755688Y7078412D01*
X11345613Y7780588D02*
X11412787Y7713412D01*
X11345613Y7713413D02*
X11412788Y7780587D01*
X11015412Y6675688D02*
X11082588Y6608512D01*
X11015412D02*
X11082587Y6675687D01*
X10596312Y6811433D02*
X10663488Y6744258D01*
X10596313Y6744258D02*
X10663488Y6811433D01*
X13577100Y6858000D02*
X13677100D01*
X13627100Y6808000D02*
Y6908000D01*
X10647113Y7459412D02*
X10714287Y7526588D01*
X10647112Y7526587D02*
X10714287Y7459413D01*
X13031000Y6527800D02*
X13131000D01*
X13081000Y6477800D02*
Y6577800D01*
X14122400Y6579400D02*
Y6679400D01*
X14072400Y6629400D02*
X14172400D01*
X10774112Y6916988D02*
X10841288Y6849812D01*
X10774112D02*
X10841287Y6916987D01*
X10520112Y7234488D02*
X10587288Y7167312D01*
X10520113Y7167313D02*
X10587288Y7234488D01*
X11955212Y7472112D02*
X12022388Y7539288D01*
X11955212D02*
X12022387Y7472113D01*
X13085512Y6910062D02*
X13152689Y6977238D01*
X13085513Y6977237D02*
X13152689Y6910062D01*
X12171112Y6789988D02*
X12238288Y6722812D01*
X12171112D02*
X12238287Y6789987D01*
X12780712Y7907588D02*
X12847888Y7840412D01*
X12780713Y7840413D02*
X12847888Y7907588D01*
X13386600Y7924800D02*
X13486600D01*
X13436600Y7874800D02*
Y7974800D01*
X14379700Y6883400D02*
X14474699D01*
X14427200Y6835900D02*
Y6930900D01*
X13770100Y7950200D02*
X13865100D01*
X13817599Y7902700D02*
Y7997700D01*
X14350999Y6581900D02*
Y6676900D01*
X14303500Y6629400D02*
X14398500D01*
X14528799Y6581900D02*
Y6676900D01*
X14481300Y6629400D02*
X14576300D01*
D82*
X10642134Y7239000D02*
X11176000Y6705134D01*
Y7772866D02*
X11709866Y7239000D01*
X11176000Y6705134D02*
X11709866Y7239000D01*
X10642134D02*
X11176000Y7772866D01*
X10255000Y6159500D02*
Y6540500D01*
X10065000Y6159500D02*
Y6540500D01*
X10255000D01*
X10065000Y6159500D02*
X10255000D01*
X10085000Y6659500D02*
X10235000D01*
X10085000Y6929500D02*
X10235000D01*
X10085000Y6659500D02*
Y6929500D01*
X10235000Y6659500D02*
Y6929500D01*
X11844680Y7239000D02*
X12573000Y6510680D01*
Y7967320D02*
X13301320Y7239000D01*
X11844680D02*
X12573000Y7967320D01*
Y6510680D02*
X13301320Y7239000D01*
X13514000Y7358000D02*
X13664000D01*
X13514000Y7628000D02*
X13664000D01*
X13514000Y7358000D02*
Y7628000D01*
X13664000Y7358000D02*
Y7628000D01*
X13323500Y7485000D02*
X13473500D01*
X13323500Y7755000D02*
X13473500D01*
X13323500Y7485000D02*
Y7755000D01*
X13473500Y7485000D02*
Y7755000D01*
X11946000Y7862500D02*
Y8012500D01*
X11676000Y7862500D02*
Y8012500D01*
Y7862500D02*
X11946000D01*
X11676000Y8012500D02*
X11946000D01*
X13704500Y7485000D02*
X13854500D01*
X13704500Y7755000D02*
X13854500D01*
X13704500Y7485000D02*
Y7755000D01*
X13854500Y7485000D02*
Y7755000D01*
X11506700Y6444200D02*
Y6924200D01*
X11886700Y6444200D02*
Y6924200D01*
X11506700Y6444200D02*
X11886700D01*
X11506700Y6924200D02*
X11886700D01*
X12031600Y7710100D02*
Y7860100D01*
X12301600Y7710100D02*
Y7860100D01*
X12031600D02*
X12301600D01*
X12031600Y7710100D02*
X12301600D01*
X12665807Y6612374D02*
X12771873Y6506308D01*
X12856726Y6803292D02*
X12962791Y6697226D01*
X12665807Y6612374D02*
X12856726Y6803292D01*
X12771873Y6506308D02*
X12962791Y6697226D01*
X11329600Y6460300D02*
X11479600D01*
X11329600Y6730300D02*
X11479600D01*
X11329600Y6460300D02*
Y6730300D01*
X11479600Y6460300D02*
Y6730300D01*
X12120126Y6445878D02*
X12226192Y6551944D01*
X11929208Y6636797D02*
X12035274Y6742863D01*
X11929208Y6636797D02*
X12120126Y6445878D01*
X12035274Y6742863D02*
X12226192Y6551944D01*
X12387200Y6503600D02*
Y6653600D01*
X12657200Y6503600D02*
Y6653600D01*
X12387200D02*
X12657200D01*
X12387200Y6503600D02*
X12657200D01*
X10255000Y7937500D02*
Y8318500D01*
X10065000Y7937500D02*
Y8318500D01*
X10255000D01*
X10065000Y7937500D02*
X10255000D01*
X10085000Y7818500D02*
X10235000D01*
X10085000Y7548500D02*
X10235000D01*
Y7818500D01*
X10085000Y7548500D02*
Y7818500D01*
X10498526Y6887307D02*
X10604592Y6993373D01*
X10307608Y7078226D02*
X10413674Y7184292D01*
X10307608Y7078226D02*
X10498526Y6887307D01*
X10413674Y7184292D02*
X10604592Y6993373D01*
X10065000Y7070500D02*
X10255000D01*
X10065000Y7451500D02*
X10255000D01*
X10065000Y7070500D02*
Y7451500D01*
X10255000Y7070500D02*
Y7451500D01*
X11599007Y7514074D02*
X11705073Y7408008D01*
X11789926Y7704992D02*
X11895992Y7598926D01*
X11599007Y7514074D02*
X11789926Y7704992D01*
X11705073Y7408008D02*
X11895992Y7598926D01*
X13887000Y7465400D02*
X14307001D01*
X13887000Y7825400D02*
X14307001D01*
Y7465400D02*
Y7825400D01*
X13887000Y7465400D02*
Y7825400D01*
X13225026Y7331807D02*
X13331091Y7437873D01*
X13034108Y7522726D02*
X13140173Y7628792D01*
X13034108Y7522726D02*
X13225026Y7331807D01*
X13140173Y7628792D02*
X13331091Y7437873D01*
X10364400Y7729600D02*
X10514400D01*
X10364400Y7459600D02*
X10514400D01*
Y7729600D01*
X10364400Y7459600D02*
Y7729600D01*
X11395808Y7852927D02*
X11501874Y7958993D01*
X11586726Y7662008D02*
X11692792Y7768074D01*
X11501874Y7958993D02*
X11692792Y7768074D01*
X11395808Y7852927D02*
X11586726Y7662008D01*
X10507226Y6519008D02*
X10613292Y6625074D01*
X10316308Y6709926D02*
X10422374Y6815992D01*
X10316308Y6709926D02*
X10507226Y6519008D01*
X10422374Y6815992D02*
X10613292Y6625074D01*
X10529600Y8038600D02*
X11009600D01*
X10529600Y7658600D02*
X11009600D01*
X10529600D02*
Y8038600D01*
X11009600Y7658600D02*
Y8038600D01*
X14390900Y7653400D02*
X14540900D01*
X14390900Y7383400D02*
X14540900D01*
Y7653400D01*
X14390900Y7383400D02*
Y7653400D01*
X11311000Y7900600D02*
Y8050600D01*
X11041000Y7900600D02*
Y8050600D01*
Y7900600D02*
X11311000D01*
X11041000Y8050600D02*
X11311000D01*
X10364400Y8034400D02*
X10514400D01*
X10364400Y7764400D02*
X10514400D01*
Y8034400D01*
X10364400Y7764400D02*
Y8034400D01*
X11968100Y7887900D02*
Y8037900D01*
X12238100Y7887900D02*
Y8037900D01*
X11968100D02*
X12238100D01*
X11968100Y7887900D02*
X12238100D01*
X14342999Y7697400D02*
Y7847400D01*
X14613000Y7697400D02*
Y7847400D01*
X14342999D02*
X14613000D01*
X14342999Y7697400D02*
X14613000D01*
X14377600Y7247000D02*
X14527600D01*
X14377600Y6977000D02*
X14527600D01*
Y7247000D01*
X14377600Y6977000D02*
Y7247000D01*
X10722708Y6633726D02*
X10828774Y6739792D01*
X10913626Y6442808D02*
X11019692Y6548874D01*
X10828774Y6739792D02*
X11019692Y6548874D01*
X10722708Y6633726D02*
X10913626Y6442808D01*
X14003200Y7409000D02*
X14343201D01*
X14003200Y7069000D02*
X14343201D01*
Y7409000D01*
X14003200Y7069000D02*
Y7409000D01*
X14714600Y7875200D02*
Y8025200D01*
X14444600Y7875200D02*
Y8025200D01*
Y7875200D02*
X14714600D01*
X14444600Y8025200D02*
X14714600D01*
X12619100Y7875200D02*
Y8025200D01*
X12349100Y7875200D02*
Y8025200D01*
Y7875200D02*
X12619100D01*
X12349100Y8025200D02*
X12619100D01*
X14897099Y6458200D02*
X15278101D01*
X14897099Y6648200D02*
X15278101D01*
Y6458200D02*
Y6648200D01*
X14897099Y6458200D02*
Y6648200D01*
X14922501Y7829800D02*
Y8019800D01*
X15303500Y7829800D02*
Y8019800D01*
X14922501D02*
X15303500D01*
X14922501Y7829800D02*
X15303500D01*
X14677861Y6443600D02*
X14827861D01*
X14677861Y6713600D02*
X14827861D01*
X14677861Y6443600D02*
Y6713600D01*
X14827861Y6443600D02*
Y6713600D01*
X14733200Y7764400D02*
X14883200D01*
X14733200Y8034400D02*
X14883200D01*
X14733200Y7764400D02*
Y8034400D01*
X14883200Y7764400D02*
Y8034400D01*
X14000101Y6871900D02*
Y7021900D01*
X14270100Y6871900D02*
Y7021900D01*
X14000101D02*
X14270100D01*
X14000101Y6871900D02*
X14270100D01*
X14063600Y7875200D02*
Y8025200D01*
X14333600Y7875200D02*
Y8025200D01*
X14063600D02*
X14333600D01*
X14063600Y7875200D02*
X14333600D01*
X11573608Y7069574D02*
X11679674Y6963508D01*
X11764526Y7260492D02*
X11870592Y7154426D01*
X11573608Y7069574D02*
X11764526Y7260492D01*
X11679674Y6963508D02*
X11870592Y7154426D01*
X11421626Y7598508D02*
X11527692Y7704574D01*
X11230708Y7789426D02*
X11336774Y7895492D01*
X11230708Y7789426D02*
X11421626Y7598508D01*
X11336774Y7895492D02*
X11527692Y7704574D01*
X10900508Y6684526D02*
X11006574Y6790592D01*
X11091426Y6493608D02*
X11197492Y6599674D01*
X11006574Y6790592D02*
X11197492Y6599674D01*
X10900508Y6684526D02*
X11091426Y6493608D01*
X10672326Y6629353D02*
X10778392Y6735419D01*
X10481408Y6820272D02*
X10587474Y6926338D01*
X10481408Y6820272D02*
X10672326Y6629353D01*
X10587474Y6926338D02*
X10778392Y6735419D01*
X13987100Y6433000D02*
Y7283000D01*
X13267101Y6433000D02*
Y7283000D01*
X13987100D01*
X13267101Y6433000D02*
X13987100D01*
X10723126Y7641492D02*
X10829192Y7535427D01*
X10532208Y7450574D02*
X10638273Y7344508D01*
X10829192Y7535427D01*
X10532208Y7450574D02*
X10723126Y7641492D01*
X13250999Y6432800D02*
Y6622800D01*
X12911000Y6432800D02*
Y6622800D01*
Y6432800D02*
X13250999D01*
X12911000Y6622800D02*
X13250999D01*
X14027400Y6459400D02*
X14217400D01*
X14027400Y6799400D02*
X14217400D01*
X14027400Y6459400D02*
Y6799400D01*
X14217400Y6459400D02*
Y6799400D01*
X10659208Y6925826D02*
X10765274Y7031892D01*
X10850126Y6734908D02*
X10956192Y6840974D01*
X10765274Y7031892D02*
X10956192Y6840974D01*
X10659208Y6925826D02*
X10850126Y6734908D01*
X10596126Y7052408D02*
X10702192Y7158474D01*
X10405208Y7243326D02*
X10511274Y7349392D01*
X10405208Y7243326D02*
X10596126Y7052408D01*
X10511274Y7349392D02*
X10702192Y7158474D01*
X12031226Y7654192D02*
X12137292Y7548126D01*
X11840308Y7463274D02*
X11946374Y7357208D01*
X12137292Y7548126D01*
X11840308Y7463274D02*
X12031226Y7654192D01*
X12970609Y6901223D02*
X13076674Y6795157D01*
X13161526Y7092142D02*
X13267592Y6986076D01*
X12970609Y6901223D02*
X13161526Y7092142D01*
X13076674Y6795157D02*
X13267592Y6986076D01*
X12056208Y6798826D02*
X12162274Y6904892D01*
X12247126Y6607908D02*
X12353192Y6713974D01*
X12162274Y6904892D02*
X12353192Y6713974D01*
X12056208Y6798826D02*
X12247126Y6607908D01*
X12856726Y7725508D02*
X12962791Y7831574D01*
X12665808Y7916426D02*
X12771874Y8022492D01*
X12665808Y7916426D02*
X12856726Y7725508D01*
X12771874Y8022492D02*
X12962791Y7831574D01*
X13246100Y7829800D02*
Y8019800D01*
X13627100Y7829800D02*
Y8019800D01*
X13246100D02*
X13627100D01*
X13246100Y7829800D02*
X13627100D01*
X14292200Y6808400D02*
Y6958400D01*
X14562199Y6808400D02*
Y6958400D01*
X14292200D02*
X14562199D01*
X14292200Y6808400D02*
X14562199D01*
X13682600Y7875200D02*
Y8025200D01*
X13952600Y7875200D02*
Y8025200D01*
X13682600D02*
X13952600D01*
X13682600Y7875200D02*
X13952600D01*
X14275999Y6764400D02*
X14425999D01*
X14275999Y6494400D02*
X14425999D01*
Y6764400D01*
X14275999Y6494400D02*
Y6764400D01*
X14453799D02*
X14603799D01*
X14453799Y6494400D02*
X14603799D01*
Y6764400D01*
X14453799Y6494400D02*
Y6764400D01*
%TF.MD5,de3c1b36ef23bbc44453d5c08d0798f0*%
M02*
