%TF.GenerationSoftware,Altium Limited,Altium Designer,19.0.15 (446)*%
G04 Layer_Physical_Order=2*
G04 Layer_Color=5220458*
%FSLAX45Y45*%
%MOMM*%
%TF.FileFunction,Copper,L2,Inr,Signal*%
%TF.Part,Single*%
G01*
G75*
%TA.AperFunction,Conductor*%
%ADD36C,0.15000*%
%TA.AperFunction,ComponentPad*%
%ADD38C,1.80000*%
G04:AMPARAMS|DCode=39|XSize=1mm|YSize=1.8mm|CornerRadius=0.5mm|HoleSize=0mm|Usage=FLASHONLY|Rotation=90.000|XOffset=0mm|YOffset=0mm|HoleType=Round|Shape=RoundedRectangle|*
%AMROUNDEDRECTD39*
21,1,1.00000,0.80000,0,0,90.0*
21,1,0.00000,1.80000,0,0,90.0*
1,1,1.00000,0.40000,0.00000*
1,1,1.00000,0.40000,0.00000*
1,1,1.00000,-0.40000,0.00000*
1,1,1.00000,-0.40000,0.00000*
%
%ADD39ROUNDEDRECTD39*%
G04:AMPARAMS|DCode=40|XSize=1mm|YSize=2.1mm|CornerRadius=0.5mm|HoleSize=0mm|Usage=FLASHONLY|Rotation=90.000|XOffset=0mm|YOffset=0mm|HoleType=Round|Shape=RoundedRectangle|*
%AMROUNDEDRECTD40*
21,1,1.00000,1.10000,0,0,90.0*
21,1,0.00000,2.10000,0,0,90.0*
1,1,1.00000,0.55000,0.00000*
1,1,1.00000,0.55000,0.00000*
1,1,1.00000,-0.55000,0.00000*
1,1,1.00000,-0.55000,0.00000*
%
%ADD40ROUNDEDRECTD40*%
%TA.AperFunction,ViaPad*%
%ADD41C,0.50000*%
G36*
X15367000Y5969000D02*
X9969500D01*
Y8509000D01*
X15367000D01*
Y5969000D01*
D02*
G37*
%LPC*%
G36*
X14492999Y8490974D02*
Y8397000D01*
X14586974D01*
X14585168Y8410716D01*
X14574084Y8437475D01*
X14556453Y8460453D01*
X14533475Y8478085D01*
X14506715Y8489168D01*
X14492999Y8490974D01*
D02*
G37*
G36*
X14239000D02*
Y8397000D01*
X14332974D01*
X14331168Y8410716D01*
X14320085Y8437475D01*
X14302454Y8460453D01*
X14279475Y8478085D01*
X14252716Y8489168D01*
X14239000Y8490974D01*
D02*
G37*
G36*
X14463000D02*
X14449284Y8489168D01*
X14422525Y8478085D01*
X14399547Y8460453D01*
X14381915Y8437475D01*
X14370831Y8410716D01*
X14369026Y8397000D01*
X14463000D01*
Y8490974D01*
D02*
G37*
G36*
X14209000D02*
X14195284Y8489168D01*
X14168526Y8478085D01*
X14145547Y8460453D01*
X14127914Y8437475D01*
X14116832Y8410716D01*
X14115025Y8397000D01*
X14209000D01*
Y8490974D01*
D02*
G37*
G36*
X15239999Y8482863D02*
X15213895Y8479426D01*
X15189569Y8469350D01*
X15168678Y8453321D01*
X15152650Y8432431D01*
X15142574Y8408105D01*
X15139137Y8382000D01*
X15142574Y8355895D01*
X15152650Y8331569D01*
X15168678Y8310679D01*
X15189569Y8294650D01*
X15213895Y8284574D01*
X15239999Y8281137D01*
X15266106Y8284574D01*
X15290431Y8294650D01*
X15311320Y8310679D01*
X15327350Y8331569D01*
X15337427Y8355895D01*
X15340863Y8382000D01*
X15337427Y8408105D01*
X15327350Y8432431D01*
X15311320Y8453321D01*
X15290431Y8469350D01*
X15266106Y8479426D01*
X15239999Y8482863D01*
D02*
G37*
G36*
X14986000D02*
X14959895Y8479426D01*
X14935568Y8469350D01*
X14914679Y8453321D01*
X14898650Y8432431D01*
X14888574Y8408105D01*
X14885136Y8382000D01*
X14888574Y8355895D01*
X14898650Y8331569D01*
X14914679Y8310679D01*
X14935568Y8294650D01*
X14959895Y8284574D01*
X14986000Y8281137D01*
X15012105Y8284574D01*
X15036430Y8294650D01*
X15057321Y8310679D01*
X15073351Y8331569D01*
X15083426Y8355895D01*
X15086864Y8382000D01*
X15083426Y8408105D01*
X15073351Y8432431D01*
X15057321Y8453321D01*
X15036430Y8469350D01*
X15012105Y8479426D01*
X14986000Y8482863D01*
D02*
G37*
G36*
X14732001D02*
X14705894Y8479426D01*
X14681569Y8469350D01*
X14660680Y8453321D01*
X14644650Y8432431D01*
X14634573Y8408105D01*
X14631137Y8382000D01*
X14634573Y8355895D01*
X14644650Y8331569D01*
X14660680Y8310679D01*
X14681569Y8294650D01*
X14705894Y8284574D01*
X14732001Y8281137D01*
X14758105Y8284574D01*
X14782431Y8294650D01*
X14803320Y8310679D01*
X14819350Y8331569D01*
X14829427Y8355895D01*
X14832863Y8382000D01*
X14829427Y8408105D01*
X14819350Y8432431D01*
X14803320Y8453321D01*
X14782431Y8469350D01*
X14758105Y8479426D01*
X14732001Y8482863D01*
D02*
G37*
G36*
X13970000D02*
X13943895Y8479426D01*
X13919569Y8469350D01*
X13898679Y8453321D01*
X13882651Y8432431D01*
X13872574Y8408105D01*
X13869138Y8382000D01*
X13872574Y8355895D01*
X13882651Y8331569D01*
X13898679Y8310679D01*
X13919569Y8294650D01*
X13943895Y8284574D01*
X13970000Y8281137D01*
X13996104Y8284574D01*
X14020432Y8294650D01*
X14041321Y8310679D01*
X14057350Y8331569D01*
X14067426Y8355895D01*
X14070863Y8382000D01*
X14067426Y8408105D01*
X14057350Y8432431D01*
X14041321Y8453321D01*
X14020432Y8469350D01*
X13996104Y8479426D01*
X13970000Y8482863D01*
D02*
G37*
G36*
X13716000D02*
X13689896Y8479426D01*
X13665569Y8469350D01*
X13644679Y8453321D01*
X13628650Y8432431D01*
X13618575Y8408105D01*
X13615137Y8382000D01*
X13618575Y8355895D01*
X13628650Y8331569D01*
X13644679Y8310679D01*
X13665569Y8294650D01*
X13689896Y8284574D01*
X13716000Y8281137D01*
X13742105Y8284574D01*
X13766431Y8294650D01*
X13787321Y8310679D01*
X13803349Y8331569D01*
X13813426Y8355895D01*
X13816862Y8382000D01*
X13813426Y8408105D01*
X13803349Y8432431D01*
X13787321Y8453321D01*
X13766431Y8469350D01*
X13742105Y8479426D01*
X13716000Y8482863D01*
D02*
G37*
G36*
X13462000D02*
X13435895Y8479426D01*
X13411569Y8469350D01*
X13390678Y8453321D01*
X13374651Y8432431D01*
X13364574Y8408105D01*
X13361137Y8382000D01*
X13364574Y8355895D01*
X13374651Y8331569D01*
X13390678Y8310679D01*
X13411569Y8294650D01*
X13435895Y8284574D01*
X13462000Y8281137D01*
X13488104Y8284574D01*
X13512431Y8294650D01*
X13533321Y8310679D01*
X13549350Y8331569D01*
X13559425Y8355895D01*
X13562863Y8382000D01*
X13559425Y8408105D01*
X13549350Y8432431D01*
X13533321Y8453321D01*
X13512431Y8469350D01*
X13488104Y8479426D01*
X13462000Y8482863D01*
D02*
G37*
G36*
X13208000D02*
X13181895Y8479426D01*
X13157568Y8469350D01*
X13136679Y8453321D01*
X13120650Y8432431D01*
X13110574Y8408105D01*
X13107137Y8382000D01*
X13110574Y8355895D01*
X13120650Y8331569D01*
X13136679Y8310679D01*
X13157568Y8294650D01*
X13181895Y8284574D01*
X13208000Y8281137D01*
X13234105Y8284574D01*
X13258430Y8294650D01*
X13279321Y8310679D01*
X13295351Y8331569D01*
X13305426Y8355895D01*
X13308862Y8382000D01*
X13305426Y8408105D01*
X13295351Y8432431D01*
X13279321Y8453321D01*
X13258430Y8469350D01*
X13234105Y8479426D01*
X13208000Y8482863D01*
D02*
G37*
G36*
X12953999D02*
X12927895Y8479426D01*
X12903569Y8469350D01*
X12882680Y8453321D01*
X12866650Y8432431D01*
X12856573Y8408105D01*
X12853137Y8382000D01*
X12856573Y8355895D01*
X12866650Y8331569D01*
X12882680Y8310679D01*
X12903569Y8294650D01*
X12927895Y8284574D01*
X12953999Y8281137D01*
X12980106Y8284574D01*
X13004431Y8294650D01*
X13025320Y8310679D01*
X13041350Y8331569D01*
X13051427Y8355895D01*
X13054863Y8382000D01*
X13051427Y8408105D01*
X13041350Y8432431D01*
X13025320Y8453321D01*
X13004431Y8469350D01*
X12980106Y8479426D01*
X12953999Y8482863D01*
D02*
G37*
G36*
X12700000D02*
X12673895Y8479426D01*
X12649569Y8469350D01*
X12628679Y8453321D01*
X12612650Y8432431D01*
X12602574Y8408105D01*
X12599137Y8382000D01*
X12602574Y8355895D01*
X12612650Y8331569D01*
X12628679Y8310679D01*
X12649569Y8294650D01*
X12673895Y8284574D01*
X12700000Y8281137D01*
X12726105Y8284574D01*
X12750431Y8294650D01*
X12771321Y8310679D01*
X12787350Y8331569D01*
X12797426Y8355895D01*
X12800864Y8382000D01*
X12797426Y8408105D01*
X12787350Y8432431D01*
X12771321Y8453321D01*
X12750431Y8469350D01*
X12726105Y8479426D01*
X12700000Y8482863D01*
D02*
G37*
G36*
X12446000D02*
X12419895Y8479426D01*
X12395569Y8469350D01*
X12374679Y8453321D01*
X12358650Y8432431D01*
X12348574Y8408105D01*
X12345137Y8382000D01*
X12348574Y8355895D01*
X12358650Y8331569D01*
X12374679Y8310679D01*
X12395569Y8294650D01*
X12419895Y8284574D01*
X12446000Y8281137D01*
X12472105Y8284574D01*
X12496431Y8294650D01*
X12517321Y8310679D01*
X12533350Y8331569D01*
X12543426Y8355895D01*
X12546863Y8382000D01*
X12543426Y8408105D01*
X12533350Y8432431D01*
X12517321Y8453321D01*
X12496431Y8469350D01*
X12472105Y8479426D01*
X12446000Y8482863D01*
D02*
G37*
G36*
X12192000D02*
X12165895Y8479426D01*
X12141569Y8469350D01*
X12120679Y8453321D01*
X12104650Y8432431D01*
X12094574Y8408105D01*
X12091137Y8382000D01*
X12094574Y8355895D01*
X12104650Y8331569D01*
X12120679Y8310679D01*
X12141569Y8294650D01*
X12165895Y8284574D01*
X12192000Y8281137D01*
X12218105Y8284574D01*
X12242431Y8294650D01*
X12263321Y8310679D01*
X12279350Y8331569D01*
X12289426Y8355895D01*
X12292863Y8382000D01*
X12289426Y8408105D01*
X12279350Y8432431D01*
X12263321Y8453321D01*
X12242431Y8469350D01*
X12218105Y8479426D01*
X12192000Y8482863D01*
D02*
G37*
G36*
X11938000D02*
X11911895Y8479426D01*
X11887569Y8469350D01*
X11866679Y8453321D01*
X11850650Y8432431D01*
X11840574Y8408105D01*
X11837137Y8382000D01*
X11840574Y8355895D01*
X11850650Y8331569D01*
X11866679Y8310679D01*
X11887569Y8294650D01*
X11911895Y8284574D01*
X11938000Y8281137D01*
X11964105Y8284574D01*
X11988431Y8294650D01*
X12009321Y8310679D01*
X12025350Y8331569D01*
X12035426Y8355895D01*
X12038863Y8382000D01*
X12035426Y8408105D01*
X12025350Y8432431D01*
X12009321Y8453321D01*
X11988431Y8469350D01*
X11964105Y8479426D01*
X11938000Y8482863D01*
D02*
G37*
G36*
X11684000D02*
X11657895Y8479426D01*
X11633569Y8469350D01*
X11612679Y8453321D01*
X11596650Y8432431D01*
X11586574Y8408105D01*
X11583137Y8382000D01*
X11586574Y8355895D01*
X11596650Y8331569D01*
X11612679Y8310679D01*
X11633569Y8294650D01*
X11657895Y8284574D01*
X11684000Y8281137D01*
X11710105Y8284574D01*
X11734431Y8294650D01*
X11755321Y8310679D01*
X11771350Y8331569D01*
X11781426Y8355895D01*
X11784863Y8382000D01*
X11781426Y8408105D01*
X11771350Y8432431D01*
X11755321Y8453321D01*
X11734431Y8469350D01*
X11710105Y8479426D01*
X11684000Y8482863D01*
D02*
G37*
G36*
X11430000D02*
X11403895Y8479426D01*
X11379569Y8469350D01*
X11358679Y8453321D01*
X11342650Y8432431D01*
X11332574Y8408105D01*
X11329137Y8382000D01*
X11332574Y8355895D01*
X11342650Y8331569D01*
X11358679Y8310679D01*
X11379569Y8294650D01*
X11403895Y8284574D01*
X11430000Y8281137D01*
X11456105Y8284574D01*
X11480431Y8294650D01*
X11501321Y8310679D01*
X11517350Y8331569D01*
X11527426Y8355895D01*
X11530863Y8382000D01*
X11527426Y8408105D01*
X11517350Y8432431D01*
X11501321Y8453321D01*
X11480431Y8469350D01*
X11456105Y8479426D01*
X11430000Y8482863D01*
D02*
G37*
G36*
X11176000D02*
X11149895Y8479426D01*
X11125569Y8469350D01*
X11104679Y8453321D01*
X11088650Y8432431D01*
X11078574Y8408105D01*
X11075137Y8382000D01*
X11078574Y8355895D01*
X11088650Y8331569D01*
X11104679Y8310679D01*
X11125569Y8294650D01*
X11149895Y8284574D01*
X11176000Y8281137D01*
X11202105Y8284574D01*
X11226431Y8294650D01*
X11247321Y8310679D01*
X11263350Y8331569D01*
X11273426Y8355895D01*
X11276863Y8382000D01*
X11273426Y8408105D01*
X11263350Y8432431D01*
X11247321Y8453321D01*
X11226431Y8469350D01*
X11202105Y8479426D01*
X11176000Y8482863D01*
D02*
G37*
G36*
X10922000D02*
X10895895Y8479426D01*
X10871569Y8469350D01*
X10850679Y8453321D01*
X10834650Y8432431D01*
X10824574Y8408105D01*
X10821137Y8382000D01*
X10824574Y8355895D01*
X10834650Y8331569D01*
X10850679Y8310679D01*
X10871569Y8294650D01*
X10895895Y8284574D01*
X10922000Y8281137D01*
X10948105Y8284574D01*
X10972431Y8294650D01*
X10993321Y8310679D01*
X11009350Y8331569D01*
X11019426Y8355895D01*
X11022863Y8382000D01*
X11019426Y8408105D01*
X11009350Y8432431D01*
X10993321Y8453321D01*
X10972431Y8469350D01*
X10948105Y8479426D01*
X10922000Y8482863D01*
D02*
G37*
G36*
X10668000D02*
X10641895Y8479426D01*
X10617569Y8469350D01*
X10596679Y8453321D01*
X10580650Y8432431D01*
X10570574Y8408105D01*
X10567137Y8382000D01*
X10570574Y8355895D01*
X10580650Y8331569D01*
X10596679Y8310679D01*
X10617569Y8294650D01*
X10641895Y8284574D01*
X10668000Y8281137D01*
X10694105Y8284574D01*
X10718431Y8294650D01*
X10739321Y8310679D01*
X10755350Y8331569D01*
X10765426Y8355895D01*
X10768863Y8382000D01*
X10765426Y8408105D01*
X10755350Y8432431D01*
X10739321Y8453321D01*
X10718431Y8469350D01*
X10694105Y8479426D01*
X10668000Y8482863D01*
D02*
G37*
G36*
X10414000D02*
X10387895Y8479426D01*
X10363569Y8469350D01*
X10342679Y8453321D01*
X10326650Y8432431D01*
X10316574Y8408105D01*
X10313137Y8382000D01*
X10316574Y8355895D01*
X10326650Y8331569D01*
X10342679Y8310679D01*
X10363569Y8294650D01*
X10387895Y8284574D01*
X10414000Y8281137D01*
X10440105Y8284574D01*
X10464431Y8294650D01*
X10485321Y8310679D01*
X10501350Y8331569D01*
X10511426Y8355895D01*
X10514863Y8382000D01*
X10511426Y8408105D01*
X10501350Y8432431D01*
X10485321Y8453321D01*
X10464431Y8469350D01*
X10440105Y8479426D01*
X10414000Y8482863D01*
D02*
G37*
G36*
X14586974Y8367000D02*
X14492999D01*
Y8273026D01*
X14506715Y8274832D01*
X14533475Y8285915D01*
X14556453Y8303547D01*
X14574084Y8326525D01*
X14585168Y8353284D01*
X14586974Y8367000D01*
D02*
G37*
G36*
X14332974D02*
X14239000D01*
Y8273026D01*
X14252716Y8274832D01*
X14279475Y8285915D01*
X14302454Y8303547D01*
X14320085Y8326525D01*
X14331168Y8353284D01*
X14332974Y8367000D01*
D02*
G37*
G36*
X14463000D02*
X14369026D01*
X14370831Y8353284D01*
X14381915Y8326525D01*
X14399547Y8303547D01*
X14422525Y8285915D01*
X14449284Y8274832D01*
X14463000Y8273026D01*
Y8367000D01*
D02*
G37*
G36*
X14209000D02*
X14115025D01*
X14116832Y8353284D01*
X14127914Y8326525D01*
X14145547Y8303547D01*
X14168526Y8285915D01*
X14195284Y8274832D01*
X14209000Y8273026D01*
Y8367000D01*
D02*
G37*
G36*
X10287000Y8316086D02*
X10273344Y8313369D01*
X10261766Y8305634D01*
X10254031Y8294056D01*
X10251314Y8280400D01*
X10254031Y8266744D01*
X10261766Y8255166D01*
X10273344Y8247431D01*
X10287000Y8244714D01*
X10300656Y8247431D01*
X10312234Y8255166D01*
X10319969Y8266744D01*
X10322686Y8280400D01*
X10319969Y8294056D01*
X10312234Y8305634D01*
X10300656Y8313369D01*
X10287000Y8316086D01*
D02*
G37*
G36*
Y8214486D02*
X10273344Y8211769D01*
X10261766Y8204034D01*
X10254031Y8192456D01*
X10251314Y8178800D01*
X10254031Y8165144D01*
X10261766Y8153566D01*
X10273344Y8145831D01*
X10287000Y8143114D01*
X10300656Y8145831D01*
X10312234Y8153566D01*
X10319969Y8165144D01*
X10322686Y8178800D01*
X10319969Y8192456D01*
X10312234Y8204034D01*
X10300656Y8211769D01*
X10287000Y8214486D01*
D02*
G37*
G36*
X12039600Y8100186D02*
X12025944Y8097469D01*
X12014366Y8089734D01*
X12006631Y8078156D01*
X12003914Y8064500D01*
X12006631Y8050844D01*
X12014366Y8039266D01*
X12025944Y8031531D01*
X12039600Y8028814D01*
X12053256Y8031531D01*
X12064834Y8039266D01*
X12072569Y8050844D01*
X12075286Y8064500D01*
X12072569Y8078156D01*
X12064834Y8089734D01*
X12053256Y8097469D01*
X12039600Y8100186D01*
D02*
G37*
G36*
X12852307Y8036686D02*
X12838651Y8033969D01*
X12827074Y8026234D01*
X12819337Y8014656D01*
X12816621Y8001000D01*
X12819337Y7987344D01*
X12827074Y7975766D01*
X12838651Y7968031D01*
X12852307Y7965314D01*
X12865964Y7968031D01*
X12877541Y7975766D01*
X12885275Y7987344D01*
X12887993Y8001000D01*
X12885275Y8014656D01*
X12877541Y8026234D01*
X12865964Y8033969D01*
X12852307Y8036686D01*
D02*
G37*
G36*
X13208000Y7960486D02*
X13194344Y7957769D01*
X13182767Y7950034D01*
X13175031Y7938456D01*
X13172314Y7924800D01*
X13175031Y7911144D01*
X13182767Y7899566D01*
X13194344Y7891831D01*
X13208000Y7889114D01*
X13221655Y7891831D01*
X13233234Y7899566D01*
X13240968Y7911144D01*
X13243686Y7924800D01*
X13240968Y7938456D01*
X13233234Y7950034D01*
X13221655Y7957769D01*
X13208000Y7960486D01*
D02*
G37*
G36*
X13042900Y7947786D02*
X13029243Y7945069D01*
X13017667Y7937334D01*
X13009930Y7925756D01*
X13007214Y7912100D01*
X13009930Y7898444D01*
X13017667Y7886866D01*
X13029243Y7879131D01*
X13042900Y7876414D01*
X13056557Y7879131D01*
X13068134Y7886866D01*
X13075870Y7898444D01*
X13078586Y7912100D01*
X13075870Y7925756D01*
X13068134Y7937334D01*
X13056557Y7945069D01*
X13042900Y7947786D01*
D02*
G37*
G36*
X12293693Y7935086D02*
X12280037Y7932369D01*
X12268459Y7924634D01*
X12260724Y7913056D01*
X12258007Y7899400D01*
X12260724Y7885744D01*
X12268459Y7874166D01*
X12280037Y7866431D01*
X12293693Y7863714D01*
X12307349Y7866431D01*
X12318927Y7874166D01*
X12326662Y7885744D01*
X12329379Y7899400D01*
X12326662Y7913056D01*
X12318927Y7924634D01*
X12307349Y7932369D01*
X12293693Y7935086D01*
D02*
G37*
G36*
X11379200D02*
X11365544Y7932369D01*
X11353966Y7924634D01*
X11346231Y7913056D01*
X11343514Y7899400D01*
X11346231Y7885744D01*
X11353966Y7874166D01*
X11365544Y7866431D01*
X11379200Y7863714D01*
X11392856Y7866431D01*
X11404434Y7874166D01*
X11412169Y7885744D01*
X11414886Y7899400D01*
X11412169Y7913056D01*
X11404434Y7924634D01*
X11392856Y7932369D01*
X11379200Y7935086D01*
D02*
G37*
G36*
X10274300Y7931735D02*
X10260644Y7929019D01*
X10249066Y7921283D01*
X10241331Y7909706D01*
X10238614Y7896050D01*
X10241331Y7882393D01*
X10249066Y7870816D01*
X10260644Y7863081D01*
X10274300Y7860364D01*
X10287956Y7863081D01*
X10299534Y7870816D01*
X10307269Y7882393D01*
X10309986Y7896050D01*
X10307269Y7909706D01*
X10299534Y7921283D01*
X10287956Y7929019D01*
X10274300Y7931735D01*
D02*
G37*
G36*
X14020799Y7909686D02*
X14007144Y7906969D01*
X13995566Y7899234D01*
X13987831Y7887656D01*
X13985114Y7874000D01*
X13987831Y7860344D01*
X13995566Y7848766D01*
X14007144Y7841031D01*
X14020799Y7838314D01*
X14034456Y7841031D01*
X14046034Y7848766D01*
X14053769Y7860344D01*
X14056487Y7874000D01*
X14053769Y7887656D01*
X14046034Y7899234D01*
X14034456Y7906969D01*
X14020799Y7909686D01*
D02*
G37*
G36*
X14681200Y7871586D02*
X14667545Y7868869D01*
X14655966Y7861134D01*
X14648232Y7849556D01*
X14645514Y7835900D01*
X14648232Y7822244D01*
X14655966Y7810666D01*
X14667545Y7802931D01*
X14681200Y7800214D01*
X14694856Y7802931D01*
X14706435Y7810666D01*
X14714169Y7822244D01*
X14716885Y7835900D01*
X14714169Y7849556D01*
X14706435Y7861134D01*
X14694856Y7868869D01*
X14681200Y7871586D01*
D02*
G37*
G36*
X14296547Y7846186D02*
X14282890Y7843469D01*
X14271313Y7835734D01*
X14263577Y7824156D01*
X14260863Y7810500D01*
X14263577Y7796844D01*
X14271313Y7785266D01*
X14282890Y7777531D01*
X14296547Y7774814D01*
X14310204Y7777531D01*
X14321780Y7785266D01*
X14329517Y7796844D01*
X14332233Y7810500D01*
X14329517Y7824156D01*
X14321780Y7835734D01*
X14310204Y7843469D01*
X14296547Y7846186D01*
D02*
G37*
G36*
X11176000D02*
X11162344Y7843469D01*
X11150766Y7835734D01*
X11143031Y7824156D01*
X11140314Y7810500D01*
X11143031Y7796844D01*
X11150766Y7785266D01*
X11162344Y7777531D01*
X11176000Y7774814D01*
X11189656Y7777531D01*
X11201234Y7785266D01*
X11208969Y7796844D01*
X11211686Y7810500D01*
X11208969Y7824156D01*
X11201234Y7835734D01*
X11189656Y7843469D01*
X11176000Y7846186D01*
D02*
G37*
G36*
X14947900Y7808086D02*
X14934244Y7805369D01*
X14922665Y7797634D01*
X14914931Y7786056D01*
X14912215Y7772400D01*
X14914931Y7758744D01*
X14922665Y7747166D01*
X14934244Y7739431D01*
X14947900Y7736714D01*
X14961555Y7739431D01*
X14973134Y7747166D01*
X14980869Y7758744D01*
X14983586Y7772400D01*
X14980869Y7786056D01*
X14973134Y7797634D01*
X14961555Y7805369D01*
X14947900Y7808086D01*
D02*
G37*
G36*
X13677901Y7790129D02*
X13664244Y7787412D01*
X13652666Y7779677D01*
X13644931Y7768099D01*
X13642213Y7754443D01*
X13644931Y7740787D01*
X13652666Y7729209D01*
X13664244Y7721474D01*
X13677901Y7718757D01*
X13691556Y7721474D01*
X13703134Y7729209D01*
X13710869Y7740787D01*
X13713586Y7754443D01*
X13710869Y7768099D01*
X13703134Y7779677D01*
X13691556Y7787412D01*
X13677901Y7790129D01*
D02*
G37*
G36*
X11087100Y7782686D02*
X11073444Y7779969D01*
X11061866Y7772234D01*
X11054131Y7760656D01*
X11051414Y7747000D01*
X11054131Y7733344D01*
X11061866Y7721766D01*
X11073444Y7714031D01*
X11087100Y7711314D01*
X11100756Y7714031D01*
X11112334Y7721766D01*
X11120069Y7733344D01*
X11122786Y7747000D01*
X11120069Y7760656D01*
X11112334Y7772234D01*
X11100756Y7779969D01*
X11087100Y7782686D01*
D02*
G37*
G36*
X12561256Y7769986D02*
X12547600Y7767269D01*
X12536023Y7759534D01*
X12528287Y7747956D01*
X12525571Y7734300D01*
X12528287Y7720644D01*
X12536023Y7709066D01*
X12547600Y7701331D01*
X12561256Y7698614D01*
X12574913Y7701331D01*
X12586490Y7709066D01*
X12594226Y7720644D01*
X12596942Y7734300D01*
X12594226Y7747956D01*
X12586490Y7759534D01*
X12574913Y7767269D01*
X12561256Y7769986D01*
D02*
G37*
G36*
X13247800Y7766125D02*
X13234145Y7763408D01*
X13222566Y7755673D01*
X13214832Y7744096D01*
X13212114Y7730439D01*
X13214832Y7716783D01*
X13222566Y7705206D01*
X13234145Y7697470D01*
X13247800Y7694753D01*
X13261456Y7697470D01*
X13273035Y7705206D01*
X13280769Y7716783D01*
X13283485Y7730439D01*
X13280769Y7744096D01*
X13273035Y7755673D01*
X13261456Y7763408D01*
X13247800Y7766125D01*
D02*
G37*
G36*
X14797250Y7741604D02*
X14757249D01*
Y7686001D01*
X14865878D01*
X14865448Y7689273D01*
X14858395Y7706302D01*
X14847176Y7720924D01*
X14832552Y7732145D01*
X14815524Y7739198D01*
X14797250Y7741604D01*
D02*
G37*
G36*
X14727251D02*
X14687250D01*
X14668976Y7739198D01*
X14651949Y7732145D01*
X14637325Y7720924D01*
X14626105Y7706302D01*
X14619052Y7689273D01*
X14618620Y7686001D01*
X14727251D01*
Y7741604D01*
D02*
G37*
G36*
X15200250D02*
X15175250D01*
Y7686000D01*
X15268880D01*
X15268448Y7689273D01*
X15261394Y7706302D01*
X15250174Y7720924D01*
X15235551Y7732145D01*
X15218523Y7739198D01*
X15200250Y7741604D01*
D02*
G37*
G36*
X15145250D02*
X15120250D01*
X15101976Y7739198D01*
X15084949Y7732145D01*
X15070325Y7720924D01*
X15059105Y7706302D01*
X15052052Y7689273D01*
X15051620Y7686000D01*
X15145250D01*
Y7741604D01*
D02*
G37*
G36*
X13512801Y7745798D02*
X13499144Y7743081D01*
X13487566Y7735346D01*
X13479831Y7723768D01*
X13477113Y7710112D01*
X13479831Y7696456D01*
X13487566Y7684878D01*
X13499144Y7677143D01*
X13512801Y7674426D01*
X13526456Y7677143D01*
X13538034Y7684878D01*
X13545769Y7696456D01*
X13548486Y7710112D01*
X13545769Y7723768D01*
X13538034Y7735346D01*
X13526456Y7743081D01*
X13512801Y7745798D01*
D02*
G37*
G36*
X13627100Y7720686D02*
X13613445Y7717969D01*
X13601866Y7710233D01*
X13594131Y7698656D01*
X13591414Y7685000D01*
X13594131Y7671344D01*
X13601866Y7659766D01*
X13613445Y7652031D01*
X13627100Y7649314D01*
X13640756Y7652031D01*
X13652335Y7659766D01*
X13660069Y7671344D01*
X13662785Y7685000D01*
X13660069Y7698656D01*
X13652335Y7710233D01*
X13640756Y7717969D01*
X13627100Y7720686D01*
D02*
G37*
G36*
X14363699Y7693786D02*
X14350044Y7691069D01*
X14338466Y7683334D01*
X14330731Y7671756D01*
X14328014Y7658100D01*
X14330731Y7644444D01*
X14338466Y7632866D01*
X14350044Y7625131D01*
X14363699Y7622414D01*
X14377356Y7625131D01*
X14388934Y7632866D01*
X14396669Y7644444D01*
X14399387Y7658100D01*
X14396669Y7671756D01*
X14388934Y7683334D01*
X14377356Y7691069D01*
X14363699Y7693786D01*
D02*
G37*
G36*
X11658600D02*
X11644944Y7691069D01*
X11633366Y7683334D01*
X11625631Y7671756D01*
X11622914Y7658100D01*
X11625631Y7644444D01*
X11633366Y7632866D01*
X11644944Y7625131D01*
X11658600Y7622414D01*
X11672256Y7625131D01*
X11683834Y7632866D01*
X11691569Y7644444D01*
X11694286Y7658100D01*
X11691569Y7671756D01*
X11683834Y7683334D01*
X11672256Y7691069D01*
X11658600Y7693786D01*
D02*
G37*
G36*
X15268880Y7656000D02*
X15175250D01*
Y7600396D01*
X15200250D01*
X15218523Y7602802D01*
X15235551Y7609855D01*
X15250174Y7621075D01*
X15261394Y7635698D01*
X15268448Y7652726D01*
X15268880Y7656000D01*
D02*
G37*
G36*
X15145250D02*
X15051620D01*
X15052052Y7652726D01*
X15059105Y7635698D01*
X15070325Y7621075D01*
X15084949Y7609855D01*
X15101976Y7602802D01*
X15120250Y7600396D01*
X15145250D01*
Y7656000D01*
D02*
G37*
G36*
X14865878Y7656001D02*
X14757249D01*
Y7600396D01*
X14797250D01*
X14815524Y7602802D01*
X14832552Y7609855D01*
X14847176Y7621075D01*
X14858395Y7635698D01*
X14865448Y7652726D01*
X14865878Y7656001D01*
D02*
G37*
G36*
X14727251D02*
X14618620D01*
X14619052Y7652726D01*
X14626105Y7635698D01*
X14637325Y7621075D01*
X14651949Y7609855D01*
X14668976Y7602802D01*
X14687250Y7600396D01*
X14727251D01*
Y7656001D01*
D02*
G37*
G36*
X11010900Y7731886D02*
X10997244Y7729169D01*
X10985666Y7721434D01*
X10977931Y7709856D01*
X10975214Y7696200D01*
X10977931Y7682544D01*
X10979649Y7679972D01*
X10972800Y7668386D01*
X10959144Y7665669D01*
X10947566Y7657934D01*
X10939831Y7646356D01*
X10937114Y7632700D01*
X10939831Y7619044D01*
X10947566Y7607466D01*
X10959144Y7599731D01*
X10972800Y7597014D01*
X10986456Y7599731D01*
X10998034Y7607466D01*
X11005769Y7619044D01*
X11008486Y7632700D01*
X11005769Y7646356D01*
X11004051Y7648928D01*
X11010900Y7660514D01*
X11024556Y7663231D01*
X11036134Y7670966D01*
X11043869Y7682544D01*
X11046586Y7696200D01*
X11043869Y7709856D01*
X11036134Y7721434D01*
X11024556Y7729169D01*
X11010900Y7731886D01*
D02*
G37*
G36*
X12611100Y7660059D02*
X12597444Y7657343D01*
X12585866Y7649607D01*
X12578131Y7638030D01*
X12575414Y7624373D01*
X12578131Y7610717D01*
X12585866Y7599140D01*
X12597444Y7591404D01*
X12611100Y7588688D01*
X12624756Y7591404D01*
X12636334Y7599140D01*
X12644069Y7610717D01*
X12646786Y7624373D01*
X12644069Y7638030D01*
X12636334Y7649607D01*
X12624756Y7657343D01*
X12611100Y7660059D01*
D02*
G37*
G36*
X11345985Y7695693D02*
X11332329Y7692976D01*
X11320752Y7685240D01*
X11313016Y7673663D01*
X11310300Y7660007D01*
X11313016Y7646350D01*
X11320752Y7634773D01*
X11332329Y7627038D01*
X11345985Y7624321D01*
X11346577Y7612240D01*
X11346376Y7611231D01*
X11349092Y7597574D01*
X11356828Y7585997D01*
X11368405Y7578261D01*
X11382062Y7575545D01*
X11395718Y7578261D01*
X11407295Y7585997D01*
X11415031Y7597574D01*
X11417747Y7611231D01*
X11415031Y7624887D01*
X11407295Y7636464D01*
X11395718Y7644200D01*
X11382062Y7646917D01*
X11381470Y7658997D01*
X11381671Y7660007D01*
X11378955Y7673663D01*
X11371219Y7685240D01*
X11359642Y7692976D01*
X11345985Y7695693D01*
D02*
G37*
G36*
X10274300Y7630286D02*
X10260644Y7627569D01*
X10249066Y7619834D01*
X10241331Y7608256D01*
X10238614Y7594600D01*
X10241331Y7580944D01*
X10249066Y7569366D01*
X10260644Y7561631D01*
X10274300Y7558914D01*
X10287956Y7561631D01*
X10299534Y7569366D01*
X10307269Y7580944D01*
X10309986Y7594600D01*
X10307269Y7608256D01*
X10299534Y7619834D01*
X10287956Y7627569D01*
X10274300Y7630286D01*
D02*
G37*
G36*
X11582400Y7579486D02*
X11568744Y7576769D01*
X11557166Y7569034D01*
X11549431Y7557456D01*
X11548159Y7551062D01*
X11534676Y7548380D01*
X11531434Y7553234D01*
X11519856Y7560969D01*
X11506200Y7563686D01*
X11492544Y7560969D01*
X11480966Y7553234D01*
X11473231Y7541656D01*
X11470514Y7528000D01*
X11473231Y7514344D01*
X11480966Y7502766D01*
X11492544Y7495031D01*
X11506200Y7492314D01*
X11519856Y7495031D01*
X11531434Y7502766D01*
X11539169Y7514344D01*
X11540441Y7520738D01*
X11553924Y7523420D01*
X11557166Y7518566D01*
X11565863Y7512756D01*
X11566781Y7508870D01*
Y7502530D01*
X11565863Y7498644D01*
X11557166Y7492834D01*
X11549431Y7481256D01*
X11546714Y7467600D01*
X11549431Y7453944D01*
X11557166Y7442366D01*
X11568744Y7434631D01*
X11582400Y7431914D01*
X11596056Y7434631D01*
X11607634Y7442366D01*
X11615369Y7453944D01*
X11618086Y7467600D01*
X11615369Y7481256D01*
X11607634Y7492834D01*
X11598937Y7498644D01*
X11598019Y7502530D01*
Y7508870D01*
X11598937Y7512756D01*
X11607634Y7518566D01*
X11615369Y7530144D01*
X11618086Y7543800D01*
X11615369Y7557456D01*
X11607634Y7569034D01*
X11596056Y7576769D01*
X11582400Y7579486D01*
D02*
G37*
G36*
X13284200Y7604886D02*
X13270544Y7602169D01*
X13258966Y7594434D01*
X13251231Y7582856D01*
X13248514Y7569200D01*
X13251231Y7555544D01*
X13258966Y7543966D01*
X13270544Y7536231D01*
X13284200Y7533514D01*
X13297856Y7536231D01*
X13309435Y7543966D01*
X13317169Y7555544D01*
X13319885Y7569200D01*
X13317169Y7582856D01*
X13309435Y7594434D01*
X13297856Y7602169D01*
X13284200Y7604886D01*
D02*
G37*
G36*
X10864873Y7566786D02*
X10851217Y7564069D01*
X10839639Y7556334D01*
X10831904Y7544756D01*
X10829187Y7531100D01*
X10831904Y7517444D01*
X10839639Y7505866D01*
X10851217Y7498131D01*
X10864873Y7495414D01*
X10878529Y7498131D01*
X10890106Y7505866D01*
X10897842Y7517444D01*
X10900559Y7531100D01*
X10897842Y7544756D01*
X10890106Y7556334D01*
X10878529Y7564069D01*
X10864873Y7566786D01*
D02*
G37*
G36*
X14792250Y7571333D02*
X14775667Y7568034D01*
X14761609Y7558641D01*
X14752216Y7544583D01*
X14748917Y7528000D01*
X14752216Y7511417D01*
X14761609Y7497359D01*
X14775667Y7487966D01*
X14792250Y7484667D01*
X14808832Y7487966D01*
X14822891Y7497359D01*
X14832285Y7511417D01*
X14835582Y7528000D01*
X14832285Y7544583D01*
X14822891Y7558641D01*
X14808832Y7568034D01*
X14792250Y7571333D01*
D02*
G37*
G36*
X10565563Y7546224D02*
X10551907Y7543507D01*
X10540329Y7535772D01*
X10532594Y7524194D01*
X10529877Y7510538D01*
X10532594Y7496882D01*
X10540329Y7485304D01*
X10551907Y7477569D01*
X10565563Y7474852D01*
X10579219Y7477569D01*
X10590796Y7485304D01*
X10598532Y7496882D01*
X10601249Y7510538D01*
X10598532Y7524194D01*
X10590796Y7535772D01*
X10579219Y7543507D01*
X10565563Y7546224D01*
D02*
G37*
G36*
X13893800Y7477886D02*
X13880144Y7475169D01*
X13868565Y7467434D01*
X13860831Y7455856D01*
X13858115Y7442200D01*
X13860831Y7428544D01*
X13868565Y7416966D01*
X13880144Y7409231D01*
X13893800Y7406514D01*
X13907455Y7409231D01*
X13919034Y7416966D01*
X13926768Y7428544D01*
X13929486Y7442200D01*
X13926768Y7455856D01*
X13919034Y7467434D01*
X13907455Y7475169D01*
X13893800Y7477886D01*
D02*
G37*
G36*
X10325100D02*
X10311444Y7475169D01*
X10299866Y7467434D01*
X10292131Y7455856D01*
X10289414Y7442200D01*
X10292131Y7428544D01*
X10299866Y7416966D01*
X10311444Y7409231D01*
X10325100Y7406514D01*
X10338756Y7409231D01*
X10350334Y7416966D01*
X10358069Y7428544D01*
X10360786Y7442200D01*
X10358069Y7455856D01*
X10350334Y7467434D01*
X10338756Y7475169D01*
X10325100Y7477886D01*
D02*
G37*
G36*
X10744200Y7439786D02*
X10730544Y7437069D01*
X10718966Y7429334D01*
X10711231Y7417756D01*
X10708514Y7404100D01*
X10709591Y7398687D01*
X10698813Y7387909D01*
X10693400Y7388986D01*
X10679744Y7386269D01*
X10668166Y7378534D01*
X10660431Y7366956D01*
X10657714Y7353300D01*
X10660431Y7339644D01*
X10668166Y7328066D01*
X10679744Y7320331D01*
X10693400Y7317614D01*
X10707056Y7320331D01*
X10718634Y7328066D01*
X10726369Y7339644D01*
X10729086Y7353300D01*
X10728009Y7358713D01*
X10738787Y7369491D01*
X10744200Y7368414D01*
X10757856Y7371131D01*
X10769434Y7378866D01*
X10777169Y7390444D01*
X10779886Y7404100D01*
X10777169Y7417756D01*
X10769434Y7429334D01*
X10757856Y7437069D01*
X10744200Y7439786D01*
D02*
G37*
G36*
X11836400Y7452486D02*
X11822744Y7449769D01*
X11811166Y7442034D01*
X11803431Y7430456D01*
X11800714Y7416800D01*
X11803431Y7403144D01*
X11811166Y7391566D01*
X11822744Y7383831D01*
X11836400Y7381114D01*
X11850056Y7383831D01*
X11861634Y7391566D01*
X11869369Y7403144D01*
X11872086Y7416800D01*
X11869369Y7430456D01*
X11861634Y7442034D01*
X11850056Y7449769D01*
X11836400Y7452486D01*
D02*
G37*
G36*
X11633200Y7414386D02*
X11619544Y7411669D01*
X11607966Y7403934D01*
X11600231Y7392356D01*
X11597514Y7378700D01*
X11600231Y7365044D01*
X11607966Y7353466D01*
X11619544Y7345731D01*
X11633200Y7343014D01*
X11646856Y7345731D01*
X11658434Y7353466D01*
X11666169Y7365044D01*
X11668886Y7378700D01*
X11666169Y7392356D01*
X11658434Y7403934D01*
X11646856Y7411669D01*
X11633200Y7414386D01*
D02*
G37*
G36*
X14792250Y7401686D02*
X14778593Y7398969D01*
X14767017Y7391234D01*
X14759280Y7379656D01*
X14756564Y7366000D01*
X14759280Y7352344D01*
X14767017Y7340766D01*
X14778593Y7333031D01*
X14792250Y7330314D01*
X14805907Y7333031D01*
X14817484Y7340766D01*
X14825220Y7352344D01*
X14827936Y7366000D01*
X14825220Y7379656D01*
X14817484Y7391234D01*
X14805907Y7398969D01*
X14792250Y7401686D01*
D02*
G37*
G36*
X14158212Y7374686D02*
X14144556Y7371969D01*
X14132979Y7364234D01*
X14125244Y7352656D01*
X14122527Y7339000D01*
X14125244Y7325344D01*
X14132979Y7313766D01*
X14144556Y7306031D01*
X14158212Y7303314D01*
X14171869Y7306031D01*
X14183446Y7313766D01*
X14191182Y7325344D01*
X14193898Y7339000D01*
X14191182Y7352656D01*
X14183446Y7364234D01*
X14171869Y7371969D01*
X14158212Y7374686D01*
D02*
G37*
G36*
X12319000Y7363586D02*
X12305344Y7360869D01*
X12293766Y7353134D01*
X12286031Y7341556D01*
X12283314Y7327900D01*
X12286031Y7314244D01*
X12293766Y7302666D01*
X12305344Y7294931D01*
X12319000Y7292214D01*
X12332656Y7294931D01*
X12344234Y7302666D01*
X12351969Y7314244D01*
X12354686Y7327900D01*
X12351969Y7341556D01*
X12344234Y7353134D01*
X12332656Y7360869D01*
X12319000Y7363586D01*
D02*
G37*
G36*
X10591800D02*
X10578144Y7360869D01*
X10566566Y7353134D01*
X10558831Y7341556D01*
X10556114Y7327900D01*
X10558831Y7314244D01*
X10566566Y7302666D01*
X10578144Y7294931D01*
X10591800Y7292214D01*
X10605456Y7294931D01*
X10617034Y7302666D01*
X10624769Y7314244D01*
X10627486Y7327900D01*
X10624769Y7341556D01*
X10617034Y7353134D01*
X10605456Y7360869D01*
X10591800Y7363586D01*
D02*
G37*
G36*
X12776200Y7361171D02*
X12762544Y7358455D01*
X12750966Y7350719D01*
X12743231Y7339142D01*
X12740514Y7325486D01*
X12743231Y7311829D01*
X12750966Y7300252D01*
X12762544Y7292517D01*
X12776200Y7289800D01*
X12789856Y7292517D01*
X12801434Y7300252D01*
X12809169Y7311829D01*
X12811887Y7325486D01*
X12809169Y7339142D01*
X12801434Y7350719D01*
X12789856Y7358455D01*
X12776200Y7361171D01*
D02*
G37*
G36*
X10439400Y7354235D02*
X10425744Y7351519D01*
X10414166Y7343783D01*
X10406431Y7332206D01*
X10403714Y7318549D01*
X10406431Y7304893D01*
X10414166Y7293316D01*
X10425744Y7285580D01*
X10439400Y7282864D01*
X10453056Y7285580D01*
X10464634Y7293316D01*
X10472369Y7304893D01*
X10475086Y7318549D01*
X10472369Y7332206D01*
X10464634Y7343783D01*
X10453056Y7351519D01*
X10439400Y7354235D01*
D02*
G37*
G36*
X12001500Y7352468D02*
X11987844Y7349751D01*
X11976266Y7342016D01*
X11968531Y7330438D01*
X11965814Y7316782D01*
X11968531Y7303126D01*
X11976266Y7291548D01*
X11987844Y7283813D01*
X12001500Y7281096D01*
X12015156Y7283813D01*
X12026734Y7291548D01*
X12034469Y7303126D01*
X12037186Y7316782D01*
X12034469Y7330438D01*
X12026734Y7342016D01*
X12015156Y7349751D01*
X12001500Y7352468D01*
D02*
G37*
G36*
X12687300Y7350886D02*
X12673644Y7348169D01*
X12662066Y7340434D01*
X12654331Y7328856D01*
X12651614Y7315200D01*
X12654331Y7301544D01*
X12662066Y7289966D01*
X12673644Y7282231D01*
X12687300Y7279514D01*
X12700956Y7282231D01*
X12712534Y7289966D01*
X12720269Y7301544D01*
X12722986Y7315200D01*
X12720269Y7328856D01*
X12712534Y7340434D01*
X12700956Y7348169D01*
X12687300Y7350886D01*
D02*
G37*
G36*
X12547600Y7325486D02*
X12533944Y7322769D01*
X12522366Y7315034D01*
X12514631Y7303456D01*
X12511914Y7289800D01*
X12514631Y7276144D01*
X12522366Y7264566D01*
X12533944Y7256831D01*
X12547600Y7254114D01*
X12561256Y7256831D01*
X12572834Y7264566D01*
X12580569Y7276144D01*
X12583286Y7289800D01*
X12580569Y7303456D01*
X12572834Y7315034D01*
X12561256Y7322769D01*
X12547600Y7325486D01*
D02*
G37*
G36*
X11747500Y7456886D02*
X11733844Y7454169D01*
X11722266Y7446434D01*
X11714531Y7434856D01*
X11711814Y7421200D01*
X11714531Y7407544D01*
X11722266Y7395966D01*
X11733844Y7388231D01*
X11742357Y7386537D01*
Y7368414D01*
X11743715Y7361586D01*
X11747583Y7355798D01*
X11815149Y7288232D01*
X11813414Y7279514D01*
X11816131Y7265858D01*
X11823866Y7254281D01*
X11835444Y7246545D01*
X11849100Y7243829D01*
X11862756Y7246545D01*
X11874334Y7254281D01*
X11882069Y7265858D01*
X11884786Y7279514D01*
X11882069Y7293171D01*
X11874334Y7304748D01*
X11862756Y7312483D01*
X11849100Y7315200D01*
X11840382Y7313466D01*
X11778043Y7375805D01*
Y7403912D01*
X11780469Y7407544D01*
X11783186Y7421200D01*
X11780469Y7434856D01*
X11772734Y7446434D01*
X11761156Y7454169D01*
X11747500Y7456886D01*
D02*
G37*
G36*
X13233400Y7312786D02*
X13219743Y7310069D01*
X13208167Y7302334D01*
X13200430Y7290756D01*
X13197714Y7277100D01*
X13200430Y7263444D01*
X13208167Y7251866D01*
X13219743Y7244131D01*
X13233400Y7241414D01*
X13247057Y7244131D01*
X13258633Y7251866D01*
X13266370Y7263444D01*
X13269086Y7277100D01*
X13266370Y7290756D01*
X13258633Y7302334D01*
X13247057Y7310069D01*
X13233400Y7312786D01*
D02*
G37*
G36*
X11734800Y7287386D02*
X11721144Y7284669D01*
X11709566Y7276934D01*
X11701831Y7265356D01*
X11699114Y7251700D01*
X11701831Y7238044D01*
X11709566Y7226466D01*
X11721144Y7218731D01*
X11734800Y7216014D01*
X11748456Y7218731D01*
X11760034Y7226466D01*
X11767769Y7238044D01*
X11770486Y7251700D01*
X11767769Y7265356D01*
X11760034Y7276934D01*
X11748456Y7284669D01*
X11734800Y7287386D01*
D02*
G37*
G36*
X15024100Y7249286D02*
X15010445Y7246569D01*
X14998866Y7238834D01*
X14991132Y7227256D01*
X14988414Y7213600D01*
X14991132Y7199944D01*
X14998866Y7188366D01*
X15010445Y7180631D01*
X15024100Y7177914D01*
X15037756Y7180631D01*
X15049335Y7188366D01*
X15057069Y7199944D01*
X15059785Y7213600D01*
X15057069Y7227256D01*
X15049335Y7238834D01*
X15037756Y7246569D01*
X15024100Y7249286D01*
D02*
G37*
G36*
X12712700D02*
X12699044Y7246569D01*
X12687466Y7238834D01*
X12679731Y7227256D01*
X12677014Y7213600D01*
X12679731Y7199944D01*
X12687466Y7188366D01*
X12699044Y7180631D01*
X12712700Y7177914D01*
X12726356Y7180631D01*
X12737934Y7188366D01*
X12745669Y7199944D01*
X12748386Y7213600D01*
X12745669Y7227256D01*
X12737934Y7238834D01*
X12726356Y7246569D01*
X12712700Y7249286D01*
D02*
G37*
G36*
X10337800Y7288342D02*
X10324144Y7285626D01*
X10312566Y7277890D01*
X10304831Y7266313D01*
X10302114Y7252656D01*
X10304831Y7239000D01*
X10312566Y7227423D01*
X10324144Y7219687D01*
X10337800Y7216971D01*
X10351456Y7219687D01*
X10355028Y7222073D01*
X10363366Y7213433D01*
X10361533Y7210690D01*
X10355631Y7201856D01*
X10352914Y7188200D01*
X10355631Y7174544D01*
X10363366Y7162966D01*
X10374944Y7155231D01*
X10388600Y7152514D01*
X10402256Y7155231D01*
X10413834Y7162966D01*
X10421569Y7174544D01*
X10424286Y7188200D01*
X10421569Y7201856D01*
X10413834Y7213434D01*
X10402256Y7221169D01*
X10388600Y7223886D01*
X10374944Y7221169D01*
X10371372Y7218783D01*
X10363034Y7227423D01*
X10364867Y7230166D01*
X10370769Y7239000D01*
X10373486Y7252656D01*
X10370769Y7266313D01*
X10363034Y7277890D01*
X10351456Y7285626D01*
X10337800Y7288342D01*
D02*
G37*
G36*
X11938000Y7183452D02*
X11924344Y7180736D01*
X11912766Y7173000D01*
X11905031Y7161423D01*
X11902314Y7147767D01*
X11905031Y7134110D01*
X11912766Y7122533D01*
X11924344Y7114797D01*
X11938000Y7112081D01*
X11951656Y7114797D01*
X11963234Y7122533D01*
X11970969Y7134110D01*
X11973686Y7147767D01*
X11970969Y7161423D01*
X11963234Y7173000D01*
X11951656Y7180736D01*
X11938000Y7183452D01*
D02*
G37*
G36*
X14300200Y7114956D02*
X14286543Y7112240D01*
X14274966Y7104504D01*
X14268633Y7095023D01*
X14267168Y7092917D01*
X14253856Y7090784D01*
X14250356Y7093122D01*
X14236700Y7095839D01*
X14223044Y7093122D01*
X14211465Y7085387D01*
X14210126Y7083381D01*
X14198033Y7078618D01*
X14186456Y7086354D01*
X14172800Y7089070D01*
X14159145Y7086354D01*
X14147566Y7078618D01*
X14139832Y7067041D01*
X14137114Y7053384D01*
X14139832Y7039728D01*
X14147566Y7028151D01*
X14159145Y7020415D01*
X14172800Y7017699D01*
X14186456Y7020415D01*
X14198035Y7028151D01*
X14199374Y7030157D01*
X14211467Y7034920D01*
X14223044Y7027184D01*
X14236700Y7024468D01*
X14250356Y7027184D01*
X14261934Y7034920D01*
X14268268Y7044400D01*
X14269733Y7046507D01*
X14283044Y7048639D01*
X14286543Y7046301D01*
X14300200Y7043585D01*
X14313857Y7046301D01*
X14325433Y7054037D01*
X14333170Y7065614D01*
X14335886Y7079270D01*
X14333170Y7092927D01*
X14325433Y7104504D01*
X14313857Y7112240D01*
X14300200Y7114956D01*
D02*
G37*
G36*
X13931900Y7128645D02*
X13918243Y7125928D01*
X13906667Y7118193D01*
X13898930Y7106615D01*
X13896214Y7092959D01*
X13898930Y7079303D01*
X13906667Y7067725D01*
X13918243Y7059990D01*
X13931900Y7057273D01*
X13945557Y7059990D01*
X13957133Y7067725D01*
X13964870Y7079303D01*
X13967586Y7092959D01*
X13964870Y7106615D01*
X13957133Y7118193D01*
X13945557Y7125928D01*
X13931900Y7128645D01*
D02*
G37*
G36*
X14566901Y7122286D02*
X14553244Y7119569D01*
X14541666Y7111834D01*
X14533931Y7100256D01*
X14531213Y7086600D01*
X14533931Y7072944D01*
X14541666Y7061366D01*
X14553244Y7053631D01*
X14566901Y7050914D01*
X14580556Y7053631D01*
X14592134Y7061366D01*
X14599869Y7072944D01*
X14602586Y7086600D01*
X14599869Y7100256D01*
X14592134Y7111834D01*
X14580556Y7119569D01*
X14566901Y7122286D01*
D02*
G37*
G36*
X13839500Y7261386D02*
X13825844Y7258670D01*
X13814265Y7250934D01*
X13806531Y7239357D01*
X13803815Y7225700D01*
X13806531Y7212044D01*
X13814265Y7200467D01*
X13822514Y7194956D01*
X13823190Y7192544D01*
Y7183256D01*
X13822514Y7180844D01*
X13814265Y7175334D01*
X13806531Y7163756D01*
X13803815Y7150100D01*
X13806531Y7136444D01*
X13814265Y7124866D01*
X13822961Y7119056D01*
X13823882Y7115170D01*
Y7108830D01*
X13822961Y7104944D01*
X13814265Y7099134D01*
X13806531Y7087556D01*
X13803815Y7073900D01*
X13806531Y7060244D01*
X13814265Y7048666D01*
X13825844Y7040931D01*
X13839500Y7038214D01*
X13853156Y7040931D01*
X13864734Y7048666D01*
X13872469Y7060244D01*
X13875186Y7073900D01*
X13872469Y7087556D01*
X13864734Y7099134D01*
X13856036Y7104944D01*
X13855119Y7108830D01*
Y7115170D01*
X13856036Y7119056D01*
X13864734Y7124866D01*
X13872469Y7136444D01*
X13875186Y7150100D01*
X13872469Y7163756D01*
X13864734Y7175334D01*
X13856487Y7180844D01*
X13855811Y7183256D01*
Y7192544D01*
X13856487Y7194956D01*
X13864734Y7200467D01*
X13872469Y7212044D01*
X13875186Y7225700D01*
X13872469Y7239357D01*
X13864734Y7250934D01*
X13853156Y7258670D01*
X13839500Y7261386D01*
D02*
G37*
G36*
X13246100Y7101445D02*
X13232443Y7098728D01*
X13220866Y7090992D01*
X13213132Y7079415D01*
X13210414Y7065759D01*
X13213132Y7052102D01*
X13220866Y7040525D01*
X13232443Y7032790D01*
X13246100Y7030073D01*
X13259756Y7032790D01*
X13271333Y7040525D01*
X13279070Y7052102D01*
X13281786Y7065759D01*
X13279070Y7079415D01*
X13271333Y7090992D01*
X13259756Y7098728D01*
X13246100Y7101445D01*
D02*
G37*
G36*
X13436600Y7249686D02*
X13422945Y7246969D01*
X13411366Y7239234D01*
X13403632Y7227656D01*
X13400914Y7214000D01*
X13403632Y7200344D01*
X13411366Y7188766D01*
X13419165Y7183556D01*
X13419597Y7182229D01*
Y7170771D01*
X13419165Y7169444D01*
X13411366Y7164234D01*
X13403632Y7152656D01*
X13400914Y7139000D01*
X13403632Y7125344D01*
X13411366Y7113766D01*
X13418962Y7108691D01*
X13419286Y7107762D01*
Y7095509D01*
X13418962Y7094579D01*
X13411366Y7089504D01*
X13403632Y7077927D01*
X13400914Y7064270D01*
X13403632Y7050614D01*
X13411366Y7039037D01*
X13422945Y7031301D01*
X13436600Y7028585D01*
X13450256Y7031301D01*
X13461835Y7039037D01*
X13469569Y7050614D01*
X13472285Y7064270D01*
X13469569Y7077927D01*
X13461835Y7089504D01*
X13454237Y7094579D01*
X13453915Y7095509D01*
Y7107762D01*
X13454237Y7108691D01*
X13461835Y7113766D01*
X13469569Y7125344D01*
X13472285Y7139000D01*
X13469569Y7152656D01*
X13461835Y7164234D01*
X13454034Y7169444D01*
X13453603Y7170771D01*
Y7182229D01*
X13454034Y7183556D01*
X13461835Y7188766D01*
X13469569Y7200344D01*
X13472285Y7214000D01*
X13469569Y7227656D01*
X13461835Y7239234D01*
X13450256Y7246969D01*
X13436600Y7249686D01*
D02*
G37*
G36*
X11976600Y7082686D02*
X11962944Y7079969D01*
X11951366Y7072234D01*
X11943631Y7060656D01*
X11940914Y7047000D01*
X11943631Y7033344D01*
X11951366Y7021766D01*
X11962944Y7014031D01*
X11976600Y7011314D01*
X11990256Y7014031D01*
X12001834Y7021766D01*
X12009569Y7033344D01*
X12012286Y7047000D01*
X12009569Y7060656D01*
X12001834Y7072234D01*
X11990256Y7079969D01*
X11976600Y7082686D01*
D02*
G37*
G36*
X13665199Y7018360D02*
X13651544Y7015643D01*
X13639966Y7007907D01*
X13634155Y6999211D01*
X13630270Y6998293D01*
X13623930D01*
X13620044Y6999211D01*
X13614233Y7007907D01*
X13602657Y7015643D01*
X13589000Y7018360D01*
X13575343Y7015643D01*
X13563766Y7007907D01*
X13556030Y6996330D01*
X13553314Y6982674D01*
X13556030Y6969018D01*
X13563766Y6957440D01*
X13575343Y6949705D01*
X13589000Y6946988D01*
X13602657Y6949705D01*
X13614233Y6957440D01*
X13620044Y6966136D01*
X13623930Y6967055D01*
X13630270D01*
X13634155Y6966136D01*
X13639966Y6957440D01*
X13651544Y6949705D01*
X13665199Y6946988D01*
X13678856Y6949705D01*
X13690434Y6957440D01*
X13698169Y6969018D01*
X13700887Y6982674D01*
X13698169Y6996330D01*
X13690434Y7007907D01*
X13678856Y7015643D01*
X13665199Y7018360D01*
D02*
G37*
G36*
X10287000Y7058786D02*
X10273344Y7056069D01*
X10261766Y7048334D01*
X10254031Y7036756D01*
X10251314Y7023100D01*
X10254031Y7009444D01*
X10261766Y6997866D01*
X10273344Y6990131D01*
X10287000Y6987414D01*
X10300656Y6990131D01*
X10312234Y6997866D01*
X10319969Y7009444D01*
X10322686Y7023100D01*
X10319969Y7036756D01*
X10312234Y7048334D01*
X10300656Y7056069D01*
X10287000Y7058786D01*
D02*
G37*
G36*
X10682596Y7156885D02*
X10668939Y7154169D01*
X10657362Y7146433D01*
X10649626Y7134856D01*
X10646910Y7121200D01*
X10649626Y7107543D01*
X10657362Y7095966D01*
X10668939Y7088230D01*
X10682595Y7085514D01*
X10684101Y7084008D01*
X10687649Y7073570D01*
X10690230Y7060595D01*
X10697966Y7049018D01*
X10709543Y7041283D01*
X10723200Y7038566D01*
X10729829Y7039885D01*
X10733914Y7035800D01*
X10736631Y7022144D01*
X10744366Y7010566D01*
X10755944Y7002831D01*
X10769600Y7000114D01*
X10781213Y6989475D01*
X10782704Y6981979D01*
X10790439Y6970401D01*
X10802017Y6962666D01*
X10815673Y6959949D01*
X10829329Y6962666D01*
X10840907Y6970401D01*
X10848642Y6981979D01*
X10851359Y6995635D01*
X10848642Y7009291D01*
X10840907Y7020869D01*
X10829329Y7028604D01*
X10815673Y7031321D01*
X10804060Y7041960D01*
X10802569Y7049456D01*
X10794834Y7061034D01*
X10783256Y7068769D01*
X10769600Y7071486D01*
X10762970Y7070167D01*
X10758885Y7074252D01*
X10756169Y7087908D01*
X10748433Y7099485D01*
X10736856Y7107221D01*
X10723200Y7109938D01*
X10721694Y7111443D01*
X10718146Y7121881D01*
X10715565Y7134856D01*
X10707829Y7146433D01*
X10696252Y7154169D01*
X10682596Y7156885D01*
D02*
G37*
G36*
X11518900Y7028315D02*
X11505244Y7025598D01*
X11493666Y7017863D01*
X11485931Y7006285D01*
X11483214Y6992629D01*
X11485931Y6978973D01*
X11493666Y6967396D01*
X11505244Y6959660D01*
X11518900Y6956943D01*
X11532556Y6959660D01*
X11544134Y6967396D01*
X11551869Y6978973D01*
X11554586Y6992629D01*
X11551869Y7006285D01*
X11544134Y7017863D01*
X11532556Y7025598D01*
X11518900Y7028315D01*
D02*
G37*
G36*
X13752600Y7020686D02*
X13738943Y7017969D01*
X13727367Y7010234D01*
X13719630Y6998656D01*
X13716914Y6985000D01*
X13719630Y6971344D01*
X13727367Y6959766D01*
X13738943Y6952031D01*
X13752600Y6949314D01*
X13766257Y6952031D01*
X13777834Y6959766D01*
X13785568Y6971344D01*
X13788286Y6985000D01*
X13785568Y6998656D01*
X13777834Y7010234D01*
X13766257Y7017969D01*
X13752600Y7020686D01*
D02*
G37*
G36*
X13500101D02*
X13486444Y7017969D01*
X13474866Y7010234D01*
X13467131Y6998656D01*
X13464413Y6985000D01*
X13467131Y6971344D01*
X13474866Y6959766D01*
X13486444Y6952031D01*
X13500101Y6949314D01*
X13513756Y6952031D01*
X13525334Y6959766D01*
X13533069Y6971344D01*
X13535786Y6985000D01*
X13533069Y6998656D01*
X13525334Y7010234D01*
X13513756Y7017969D01*
X13500101Y7020686D01*
D02*
G37*
G36*
X11772900D02*
X11759244Y7017969D01*
X11747666Y7010234D01*
X11739931Y6998656D01*
X11737214Y6985000D01*
X11739931Y6971344D01*
X11747666Y6959766D01*
X11759244Y6952031D01*
X11772900Y6949314D01*
X11786556Y6952031D01*
X11798134Y6959766D01*
X11805869Y6971344D01*
X11808586Y6985000D01*
X11805869Y6998656D01*
X11798134Y7010234D01*
X11786556Y7017969D01*
X11772900Y7020686D01*
D02*
G37*
G36*
X14792250Y6993333D02*
X14775667Y6990034D01*
X14761609Y6980641D01*
X14752216Y6966583D01*
X14748917Y6950000D01*
X14752216Y6933417D01*
X14761609Y6919359D01*
X14775667Y6909966D01*
X14792250Y6906667D01*
X14808832Y6909966D01*
X14822891Y6919359D01*
X14832285Y6933417D01*
X14835582Y6950000D01*
X14832285Y6966583D01*
X14822891Y6980641D01*
X14808832Y6990034D01*
X14792250Y6993333D01*
D02*
G37*
G36*
X11506200Y6906386D02*
X11492544Y6903669D01*
X11480966Y6895934D01*
X11473231Y6884356D01*
X11470514Y6870700D01*
X11473231Y6857044D01*
X11477315Y6850931D01*
X11469678Y6839501D01*
X11468100Y6839815D01*
X11454444Y6837099D01*
X11442866Y6829363D01*
X11435131Y6817786D01*
X11432414Y6804130D01*
X11435131Y6790473D01*
X11442866Y6778896D01*
X11454444Y6771160D01*
X11468100Y6768444D01*
X11481756Y6771160D01*
X11493334Y6778896D01*
X11501069Y6790473D01*
X11503786Y6804130D01*
X11501069Y6817786D01*
X11496985Y6823898D01*
X11504622Y6835328D01*
X11506200Y6835014D01*
X11519856Y6837731D01*
X11531434Y6845466D01*
X11539169Y6857044D01*
X11541886Y6870700D01*
X11539169Y6884356D01*
X11531434Y6895934D01*
X11519856Y6903669D01*
X11506200Y6906386D01*
D02*
G37*
G36*
X10477500D02*
X10463844Y6903669D01*
X10452266Y6895934D01*
X10444531Y6884356D01*
X10441814Y6870700D01*
X10444531Y6857044D01*
X10452266Y6845466D01*
X10463844Y6837731D01*
X10477500Y6835014D01*
X10491156Y6837731D01*
X10502734Y6845466D01*
X10510469Y6857044D01*
X10513186Y6870700D01*
X10510469Y6884356D01*
X10502734Y6895934D01*
X10491156Y6903669D01*
X10477500Y6906386D01*
D02*
G37*
G36*
X14797250Y6877604D02*
X14757249D01*
Y6822000D01*
X14865878D01*
X14865448Y6825274D01*
X14858395Y6842302D01*
X14847176Y6856925D01*
X14832552Y6868145D01*
X14815524Y6875198D01*
X14797250Y6877604D01*
D02*
G37*
G36*
X14727249D02*
X14687250D01*
X14668976Y6875198D01*
X14651949Y6868145D01*
X14637325Y6856925D01*
X14626105Y6842302D01*
X14619052Y6825274D01*
X14618620Y6822000D01*
X14727249D01*
Y6877604D01*
D02*
G37*
G36*
X15200250D02*
X15175250D01*
Y6822000D01*
X15268880D01*
X15268448Y6825274D01*
X15261394Y6842302D01*
X15250174Y6856925D01*
X15235551Y6868145D01*
X15218523Y6875198D01*
X15200250Y6877604D01*
D02*
G37*
G36*
X15145250D02*
X15120250D01*
X15101976Y6875198D01*
X15084949Y6868145D01*
X15070325Y6856925D01*
X15059105Y6842302D01*
X15052052Y6825274D01*
X15051620Y6822000D01*
X15145250D01*
Y6877604D01*
D02*
G37*
G36*
X10887145Y6981783D02*
X10873489Y6979067D01*
X10861912Y6971331D01*
X10854176Y6959754D01*
X10851460Y6946098D01*
X10854176Y6932441D01*
X10861912Y6920864D01*
X10873489Y6913128D01*
X10877577Y6912315D01*
X10887138Y6910179D01*
X10886795Y6898518D01*
X10886314Y6896100D01*
X10889031Y6882444D01*
X10896766Y6870866D01*
X10908344Y6863131D01*
X10915707Y6861666D01*
X10922061Y6860159D01*
X10924962Y6848055D01*
X10924414Y6845300D01*
X10927131Y6831644D01*
X10934866Y6820066D01*
X10946444Y6812331D01*
X10960100Y6809614D01*
X10973756Y6812331D01*
X10985334Y6820066D01*
X10993069Y6831644D01*
X10995786Y6845300D01*
X10993069Y6858956D01*
X10985334Y6870534D01*
X10973756Y6878269D01*
X10966393Y6879734D01*
X10960039Y6881241D01*
X10957138Y6893345D01*
X10957686Y6896100D01*
X10954969Y6909756D01*
X10947234Y6921334D01*
X10935656Y6929069D01*
X10931569Y6929882D01*
X10922007Y6932019D01*
X10922350Y6943679D01*
X10922831Y6946098D01*
X10920115Y6959754D01*
X10912379Y6971331D01*
X10900802Y6979067D01*
X10887145Y6981783D01*
D02*
G37*
G36*
X14119641Y6865783D02*
X14105984Y6863066D01*
X14094408Y6855331D01*
X14086671Y6843753D01*
X14083955Y6830097D01*
X14086671Y6816441D01*
X14094408Y6804863D01*
X14105984Y6797128D01*
X14119641Y6794411D01*
X14133298Y6797128D01*
X14144875Y6804863D01*
X14152609Y6816441D01*
X14155327Y6830097D01*
X14152609Y6843753D01*
X14144875Y6855331D01*
X14133298Y6863066D01*
X14119641Y6865783D01*
D02*
G37*
G36*
X11417300Y6919086D02*
X11403644Y6916369D01*
X11392066Y6908634D01*
X11384331Y6897056D01*
X11381614Y6883400D01*
X11384331Y6869744D01*
X11386049Y6867172D01*
X11379200Y6855586D01*
X11365544Y6852869D01*
X11353966Y6845134D01*
X11346231Y6833556D01*
X11343514Y6819900D01*
X11346231Y6806244D01*
X11349901Y6800751D01*
X11343650Y6792757D01*
X11341219Y6790885D01*
X11328400Y6793435D01*
X11314744Y6790718D01*
X11303166Y6782983D01*
X11295431Y6771406D01*
X11292714Y6757749D01*
X11294101Y6750781D01*
X11284053Y6740002D01*
X11277600Y6741286D01*
X11263944Y6738569D01*
X11258979Y6735252D01*
X11249945Y6732752D01*
X11242704Y6738489D01*
X11239334Y6743534D01*
X11227756Y6751269D01*
X11214100Y6753986D01*
X11200444Y6751269D01*
X11188866Y6743534D01*
X11181131Y6731956D01*
X11178414Y6718300D01*
X11181131Y6704644D01*
X11182849Y6702072D01*
X11176000Y6690486D01*
X11162344Y6687769D01*
X11150766Y6680034D01*
X11143031Y6668456D01*
X11140314Y6654800D01*
X11143031Y6641144D01*
X11150766Y6629566D01*
X11162344Y6621831D01*
X11176000Y6619114D01*
X11189656Y6621831D01*
X11201234Y6629566D01*
X11208969Y6641144D01*
X11211686Y6654800D01*
X11208969Y6668456D01*
X11207251Y6671028D01*
X11214100Y6682614D01*
X11227756Y6685331D01*
X11232721Y6688648D01*
X11241755Y6691148D01*
X11248996Y6685411D01*
X11252366Y6680366D01*
X11263944Y6672631D01*
X11277600Y6669914D01*
X11291256Y6672631D01*
X11302834Y6680366D01*
X11310569Y6691944D01*
X11313286Y6705600D01*
X11311899Y6712569D01*
X11321947Y6723347D01*
X11328400Y6722064D01*
X11342056Y6724780D01*
X11353634Y6732516D01*
X11361369Y6744093D01*
X11364086Y6757749D01*
X11361369Y6771406D01*
X11357699Y6776898D01*
X11363950Y6784892D01*
X11366381Y6786764D01*
X11379200Y6784214D01*
X11392856Y6786931D01*
X11404434Y6794666D01*
X11412169Y6806244D01*
X11414886Y6819900D01*
X11412169Y6833556D01*
X11410451Y6836128D01*
X11417300Y6847714D01*
X11430956Y6850431D01*
X11442534Y6858166D01*
X11450269Y6869744D01*
X11452986Y6883400D01*
X11450269Y6897056D01*
X11442534Y6908634D01*
X11430956Y6916369D01*
X11417300Y6919086D01*
D02*
G37*
G36*
X14439900Y6818602D02*
X14426244Y6815885D01*
X14414667Y6808150D01*
X14406931Y6796572D01*
X14404214Y6782916D01*
X14406931Y6769260D01*
X14414667Y6757682D01*
X14426244Y6749947D01*
X14439900Y6747230D01*
X14453555Y6749947D01*
X14465134Y6757682D01*
X14472868Y6769260D01*
X14475586Y6782916D01*
X14472868Y6796572D01*
X14465134Y6808150D01*
X14453555Y6815885D01*
X14439900Y6818602D01*
D02*
G37*
G36*
X14249400D02*
X14235744Y6815885D01*
X14224165Y6808150D01*
X14216431Y6796572D01*
X14213715Y6782916D01*
X14216431Y6769260D01*
X14224165Y6757682D01*
X14235744Y6749947D01*
X14249400Y6747230D01*
X14263055Y6749947D01*
X14274634Y6757682D01*
X14282368Y6769260D01*
X14285086Y6782916D01*
X14282368Y6796572D01*
X14274634Y6808150D01*
X14263055Y6815885D01*
X14249400Y6818602D01*
D02*
G37*
G36*
X13665199Y6758161D02*
X13651544Y6755444D01*
X13639966Y6747709D01*
X13634155Y6739012D01*
X13630270Y6738094D01*
X13623930D01*
X13620044Y6739012D01*
X13614233Y6747709D01*
X13602657Y6755444D01*
X13589000Y6758161D01*
X13575343Y6755444D01*
X13563766Y6747709D01*
X13556030Y6736131D01*
X13553314Y6722475D01*
X13556030Y6708819D01*
X13563766Y6697241D01*
X13575330Y6689515D01*
X13575343Y6689445D01*
Y6676630D01*
X13575330Y6676560D01*
X13563766Y6668833D01*
X13556030Y6657256D01*
X13553314Y6643600D01*
X13556030Y6629944D01*
X13563766Y6618366D01*
X13575343Y6610631D01*
X13589000Y6607914D01*
X13602657Y6610631D01*
X13614233Y6618366D01*
X13620044Y6627062D01*
X13623930Y6627981D01*
X13630270D01*
X13634155Y6627062D01*
X13639966Y6618366D01*
X13651544Y6610631D01*
X13665199Y6607914D01*
X13678856Y6610631D01*
X13690434Y6618366D01*
X13698169Y6629944D01*
X13700887Y6643600D01*
X13698169Y6657256D01*
X13690434Y6668833D01*
X13678870Y6676560D01*
X13678857Y6676630D01*
Y6689445D01*
X13678870Y6689515D01*
X13690434Y6697241D01*
X13698169Y6708819D01*
X13700887Y6722475D01*
X13698169Y6736131D01*
X13690434Y6747709D01*
X13678856Y6755444D01*
X13665199Y6758161D01*
D02*
G37*
G36*
X15268880Y6792000D02*
X15175250D01*
Y6736396D01*
X15200250D01*
X15218523Y6738802D01*
X15235551Y6745855D01*
X15250174Y6757076D01*
X15261394Y6771698D01*
X15268448Y6788727D01*
X15268880Y6792000D01*
D02*
G37*
G36*
X15145250D02*
X15051620D01*
X15052052Y6788727D01*
X15059105Y6771698D01*
X15070325Y6757076D01*
X15084949Y6745855D01*
X15101976Y6738802D01*
X15120250Y6736396D01*
X15145250D01*
Y6792000D01*
D02*
G37*
G36*
X14865878Y6792000D02*
X14757249D01*
Y6736396D01*
X14797250D01*
X14815524Y6738802D01*
X14832552Y6745855D01*
X14847176Y6757076D01*
X14858395Y6771698D01*
X14865448Y6788727D01*
X14865878Y6792000D01*
D02*
G37*
G36*
X14727249D02*
X14618620D01*
X14619052Y6788727D01*
X14626105Y6771698D01*
X14637325Y6757076D01*
X14651949Y6745855D01*
X14668976Y6738802D01*
X14687250Y6736396D01*
X14727249D01*
Y6792000D01*
D02*
G37*
G36*
X10744200Y6855586D02*
X10730544Y6852869D01*
X10718966Y6845134D01*
X10711231Y6833556D01*
X10708514Y6819900D01*
X10711231Y6806244D01*
X10718966Y6794666D01*
X10730544Y6786931D01*
X10742801Y6784493D01*
X10746696Y6779147D01*
X10750009Y6772421D01*
X10749331Y6771406D01*
X10746614Y6757749D01*
X10749331Y6744093D01*
X10757066Y6732516D01*
X10768644Y6724780D01*
X10782300Y6722064D01*
X10795956Y6724780D01*
X10807534Y6732516D01*
X10815269Y6744093D01*
X10817986Y6757749D01*
X10815269Y6771406D01*
X10807534Y6782983D01*
X10795956Y6790718D01*
X10783699Y6793157D01*
X10779804Y6798502D01*
X10776491Y6805228D01*
X10777169Y6806244D01*
X10779886Y6819900D01*
X10777169Y6833556D01*
X10769434Y6845134D01*
X10757856Y6852869D01*
X10744200Y6855586D01*
D02*
G37*
G36*
X12993729Y6685686D02*
X12980072Y6682969D01*
X12968495Y6675234D01*
X12960759Y6663656D01*
X12958043Y6650000D01*
X12960759Y6636344D01*
X12968495Y6624766D01*
X12980072Y6617031D01*
X12993729Y6614314D01*
X13007385Y6617031D01*
X13018962Y6624766D01*
X13026698Y6636344D01*
X13029414Y6650000D01*
X13026698Y6663656D01*
X13018962Y6675234D01*
X13007385Y6682969D01*
X12993729Y6685686D01*
D02*
G37*
G36*
X12331700Y6665086D02*
X12318044Y6662369D01*
X12306466Y6654634D01*
X12298731Y6643056D01*
X12296014Y6629400D01*
X12298731Y6615744D01*
X12306466Y6604166D01*
X12318044Y6596431D01*
X12331700Y6593714D01*
X12345356Y6596431D01*
X12356934Y6604166D01*
X12364669Y6615744D01*
X12367386Y6629400D01*
X12364669Y6643056D01*
X12356934Y6654634D01*
X12345356Y6662369D01*
X12331700Y6665086D01*
D02*
G37*
G36*
X12877800Y6563486D02*
X12864143Y6560769D01*
X12852567Y6553034D01*
X12844830Y6541456D01*
X12842114Y6527800D01*
X12844830Y6514144D01*
X12852567Y6502566D01*
X12864143Y6494831D01*
X12877800Y6492114D01*
X12891457Y6494831D01*
X12903033Y6502566D01*
X12910770Y6514144D01*
X12913486Y6527800D01*
X12910770Y6541456D01*
X12903033Y6553034D01*
X12891457Y6560769D01*
X12877800Y6563486D01*
D02*
G37*
G36*
X14635915Y6499986D02*
X14622260Y6497269D01*
X14610683Y6489534D01*
X14602946Y6477956D01*
X14600230Y6464300D01*
X14602946Y6450644D01*
X14610683Y6439066D01*
X14622260Y6431331D01*
X14635915Y6428614D01*
X14649573Y6431331D01*
X14661150Y6439066D01*
X14668884Y6450644D01*
X14671600Y6464300D01*
X14668884Y6477956D01*
X14661150Y6489534D01*
X14649573Y6497269D01*
X14635915Y6499986D01*
D02*
G37*
G36*
X15000999Y6204974D02*
Y6111000D01*
X15094974D01*
X15093169Y6124716D01*
X15082085Y6151475D01*
X15064453Y6174453D01*
X15041475Y6192085D01*
X15014716Y6203168D01*
X15000999Y6204974D01*
D02*
G37*
G36*
X14971001D02*
X14957285Y6203168D01*
X14930525Y6192085D01*
X14907547Y6174453D01*
X14889915Y6151475D01*
X14878831Y6124716D01*
X14877026Y6111000D01*
X14971001D01*
Y6204974D01*
D02*
G37*
G36*
X15239999Y6196863D02*
X15213895Y6193426D01*
X15189569Y6183350D01*
X15168678Y6167321D01*
X15152650Y6146431D01*
X15142574Y6122105D01*
X15139137Y6096000D01*
X15142574Y6069895D01*
X15152650Y6045569D01*
X15168678Y6024679D01*
X15189569Y6008650D01*
X15213895Y5998574D01*
X15239999Y5995137D01*
X15266106Y5998574D01*
X15290431Y6008650D01*
X15311320Y6024679D01*
X15327350Y6045569D01*
X15337427Y6069895D01*
X15340863Y6096000D01*
X15337427Y6122105D01*
X15327350Y6146431D01*
X15311320Y6167321D01*
X15290431Y6183350D01*
X15266106Y6193426D01*
X15239999Y6196863D01*
D02*
G37*
G36*
X14732001D02*
X14705894Y6193426D01*
X14681569Y6183350D01*
X14660680Y6167321D01*
X14644650Y6146431D01*
X14634573Y6122105D01*
X14631137Y6096000D01*
X14634573Y6069895D01*
X14644650Y6045569D01*
X14660680Y6024679D01*
X14681569Y6008650D01*
X14705894Y5998574D01*
X14732001Y5995137D01*
X14758105Y5998574D01*
X14782431Y6008650D01*
X14803320Y6024679D01*
X14819350Y6045569D01*
X14829427Y6069895D01*
X14832863Y6096000D01*
X14829427Y6122105D01*
X14819350Y6146431D01*
X14803320Y6167321D01*
X14782431Y6183350D01*
X14758105Y6193426D01*
X14732001Y6196863D01*
D02*
G37*
G36*
X14478000D02*
X14451895Y6193426D01*
X14427570Y6183350D01*
X14406679Y6167321D01*
X14390649Y6146431D01*
X14380574Y6122105D01*
X14377138Y6096000D01*
X14380574Y6069895D01*
X14390649Y6045569D01*
X14406679Y6024679D01*
X14427570Y6008650D01*
X14451895Y5998574D01*
X14478000Y5995137D01*
X14504105Y5998574D01*
X14528432Y6008650D01*
X14549321Y6024679D01*
X14565350Y6045569D01*
X14575426Y6069895D01*
X14578864Y6096000D01*
X14575426Y6122105D01*
X14565350Y6146431D01*
X14549321Y6167321D01*
X14528432Y6183350D01*
X14504105Y6193426D01*
X14478000Y6196863D01*
D02*
G37*
G36*
X14224001D02*
X14197894Y6193426D01*
X14173569Y6183350D01*
X14152679Y6167321D01*
X14136650Y6146431D01*
X14126575Y6122105D01*
X14123137Y6096000D01*
X14126575Y6069895D01*
X14136650Y6045569D01*
X14152679Y6024679D01*
X14173569Y6008650D01*
X14197894Y5998574D01*
X14224001Y5995137D01*
X14250105Y5998574D01*
X14274431Y6008650D01*
X14295322Y6024679D01*
X14311349Y6045569D01*
X14321426Y6069895D01*
X14324863Y6096000D01*
X14321426Y6122105D01*
X14311349Y6146431D01*
X14295322Y6167321D01*
X14274431Y6183350D01*
X14250105Y6193426D01*
X14224001Y6196863D01*
D02*
G37*
G36*
X13970000D02*
X13943895Y6193426D01*
X13919569Y6183350D01*
X13898679Y6167321D01*
X13882651Y6146431D01*
X13872574Y6122105D01*
X13869138Y6096000D01*
X13872574Y6069895D01*
X13882651Y6045569D01*
X13898679Y6024679D01*
X13919569Y6008650D01*
X13943895Y5998574D01*
X13970000Y5995137D01*
X13996104Y5998574D01*
X14020432Y6008650D01*
X14041321Y6024679D01*
X14057350Y6045569D01*
X14067426Y6069895D01*
X14070863Y6096000D01*
X14067426Y6122105D01*
X14057350Y6146431D01*
X14041321Y6167321D01*
X14020432Y6183350D01*
X13996104Y6193426D01*
X13970000Y6196863D01*
D02*
G37*
G36*
X13716000D02*
X13689896Y6193426D01*
X13665569Y6183350D01*
X13644679Y6167321D01*
X13628650Y6146431D01*
X13618575Y6122105D01*
X13615137Y6096000D01*
X13618575Y6069895D01*
X13628650Y6045569D01*
X13644679Y6024679D01*
X13665569Y6008650D01*
X13689896Y5998574D01*
X13716000Y5995137D01*
X13742105Y5998574D01*
X13766431Y6008650D01*
X13787321Y6024679D01*
X13803349Y6045569D01*
X13813426Y6069895D01*
X13816862Y6096000D01*
X13813426Y6122105D01*
X13803349Y6146431D01*
X13787321Y6167321D01*
X13766431Y6183350D01*
X13742105Y6193426D01*
X13716000Y6196863D01*
D02*
G37*
G36*
X13462000D02*
X13435895Y6193426D01*
X13411569Y6183350D01*
X13390678Y6167321D01*
X13374651Y6146431D01*
X13364574Y6122105D01*
X13361137Y6096000D01*
X13364574Y6069895D01*
X13374651Y6045569D01*
X13390678Y6024679D01*
X13411569Y6008650D01*
X13435895Y5998574D01*
X13462000Y5995137D01*
X13488104Y5998574D01*
X13512431Y6008650D01*
X13533321Y6024679D01*
X13549350Y6045569D01*
X13559425Y6069895D01*
X13562863Y6096000D01*
X13559425Y6122105D01*
X13549350Y6146431D01*
X13533321Y6167321D01*
X13512431Y6183350D01*
X13488104Y6193426D01*
X13462000Y6196863D01*
D02*
G37*
G36*
X13208000D02*
X13181895Y6193426D01*
X13157568Y6183350D01*
X13136679Y6167321D01*
X13120650Y6146431D01*
X13110574Y6122105D01*
X13107137Y6096000D01*
X13110574Y6069895D01*
X13120650Y6045569D01*
X13136679Y6024679D01*
X13157568Y6008650D01*
X13181895Y5998574D01*
X13208000Y5995137D01*
X13234105Y5998574D01*
X13258430Y6008650D01*
X13279321Y6024679D01*
X13295351Y6045569D01*
X13305426Y6069895D01*
X13308862Y6096000D01*
X13305426Y6122105D01*
X13295351Y6146431D01*
X13279321Y6167321D01*
X13258430Y6183350D01*
X13234105Y6193426D01*
X13208000Y6196863D01*
D02*
G37*
G36*
X12953999D02*
X12927895Y6193426D01*
X12903569Y6183350D01*
X12882680Y6167321D01*
X12866650Y6146431D01*
X12856573Y6122105D01*
X12853137Y6096000D01*
X12856573Y6069895D01*
X12866650Y6045569D01*
X12882680Y6024679D01*
X12903569Y6008650D01*
X12927895Y5998574D01*
X12953999Y5995137D01*
X12980106Y5998574D01*
X13004431Y6008650D01*
X13025320Y6024679D01*
X13041350Y6045569D01*
X13051427Y6069895D01*
X13054863Y6096000D01*
X13051427Y6122105D01*
X13041350Y6146431D01*
X13025320Y6167321D01*
X13004431Y6183350D01*
X12980106Y6193426D01*
X12953999Y6196863D01*
D02*
G37*
G36*
X12700000D02*
X12673895Y6193426D01*
X12649569Y6183350D01*
X12628679Y6167321D01*
X12612650Y6146431D01*
X12602574Y6122105D01*
X12599137Y6096000D01*
X12602574Y6069895D01*
X12612650Y6045569D01*
X12628679Y6024679D01*
X12649569Y6008650D01*
X12673895Y5998574D01*
X12700000Y5995137D01*
X12726105Y5998574D01*
X12750431Y6008650D01*
X12771321Y6024679D01*
X12787350Y6045569D01*
X12797426Y6069895D01*
X12800864Y6096000D01*
X12797426Y6122105D01*
X12787350Y6146431D01*
X12771321Y6167321D01*
X12750431Y6183350D01*
X12726105Y6193426D01*
X12700000Y6196863D01*
D02*
G37*
G36*
X12446000D02*
X12419895Y6193426D01*
X12395569Y6183350D01*
X12374679Y6167321D01*
X12358650Y6146431D01*
X12348574Y6122105D01*
X12345137Y6096000D01*
X12348574Y6069895D01*
X12358650Y6045569D01*
X12374679Y6024679D01*
X12395569Y6008650D01*
X12419895Y5998574D01*
X12446000Y5995137D01*
X12472105Y5998574D01*
X12496431Y6008650D01*
X12517321Y6024679D01*
X12533350Y6045569D01*
X12543426Y6069895D01*
X12546863Y6096000D01*
X12543426Y6122105D01*
X12533350Y6146431D01*
X12517321Y6167321D01*
X12496431Y6183350D01*
X12472105Y6193426D01*
X12446000Y6196863D01*
D02*
G37*
G36*
X12192000D02*
X12165895Y6193426D01*
X12141569Y6183350D01*
X12120679Y6167321D01*
X12104650Y6146431D01*
X12094574Y6122105D01*
X12091137Y6096000D01*
X12094574Y6069895D01*
X12104650Y6045569D01*
X12120679Y6024679D01*
X12141569Y6008650D01*
X12165895Y5998574D01*
X12192000Y5995137D01*
X12218105Y5998574D01*
X12242431Y6008650D01*
X12263321Y6024679D01*
X12279350Y6045569D01*
X12289426Y6069895D01*
X12292863Y6096000D01*
X12289426Y6122105D01*
X12279350Y6146431D01*
X12263321Y6167321D01*
X12242431Y6183350D01*
X12218105Y6193426D01*
X12192000Y6196863D01*
D02*
G37*
G36*
X11938000D02*
X11911895Y6193426D01*
X11887569Y6183350D01*
X11866679Y6167321D01*
X11850650Y6146431D01*
X11840574Y6122105D01*
X11837137Y6096000D01*
X11840574Y6069895D01*
X11850650Y6045569D01*
X11866679Y6024679D01*
X11887569Y6008650D01*
X11911895Y5998574D01*
X11938000Y5995137D01*
X11964105Y5998574D01*
X11988431Y6008650D01*
X12009321Y6024679D01*
X12025350Y6045569D01*
X12035426Y6069895D01*
X12038863Y6096000D01*
X12035426Y6122105D01*
X12025350Y6146431D01*
X12009321Y6167321D01*
X11988431Y6183350D01*
X11964105Y6193426D01*
X11938000Y6196863D01*
D02*
G37*
G36*
X11684000D02*
X11657895Y6193426D01*
X11633569Y6183350D01*
X11612679Y6167321D01*
X11596650Y6146431D01*
X11586574Y6122105D01*
X11583137Y6096000D01*
X11586574Y6069895D01*
X11596650Y6045569D01*
X11612679Y6024679D01*
X11633569Y6008650D01*
X11657895Y5998574D01*
X11684000Y5995137D01*
X11710105Y5998574D01*
X11734431Y6008650D01*
X11755321Y6024679D01*
X11771350Y6045569D01*
X11781426Y6069895D01*
X11784863Y6096000D01*
X11781426Y6122105D01*
X11771350Y6146431D01*
X11755321Y6167321D01*
X11734431Y6183350D01*
X11710105Y6193426D01*
X11684000Y6196863D01*
D02*
G37*
G36*
X11430000D02*
X11403895Y6193426D01*
X11379569Y6183350D01*
X11358679Y6167321D01*
X11342650Y6146431D01*
X11332574Y6122105D01*
X11329137Y6096000D01*
X11332574Y6069895D01*
X11342650Y6045569D01*
X11358679Y6024679D01*
X11379569Y6008650D01*
X11403895Y5998574D01*
X11430000Y5995137D01*
X11456105Y5998574D01*
X11480431Y6008650D01*
X11501321Y6024679D01*
X11517350Y6045569D01*
X11527426Y6069895D01*
X11530863Y6096000D01*
X11527426Y6122105D01*
X11517350Y6146431D01*
X11501321Y6167321D01*
X11480431Y6183350D01*
X11456105Y6193426D01*
X11430000Y6196863D01*
D02*
G37*
G36*
X11176000D02*
X11149895Y6193426D01*
X11125569Y6183350D01*
X11104679Y6167321D01*
X11088650Y6146431D01*
X11078574Y6122105D01*
X11075137Y6096000D01*
X11078574Y6069895D01*
X11088650Y6045569D01*
X11104679Y6024679D01*
X11125569Y6008650D01*
X11149895Y5998574D01*
X11176000Y5995137D01*
X11202105Y5998574D01*
X11226431Y6008650D01*
X11247321Y6024679D01*
X11263350Y6045569D01*
X11273426Y6069895D01*
X11276863Y6096000D01*
X11273426Y6122105D01*
X11263350Y6146431D01*
X11247321Y6167321D01*
X11226431Y6183350D01*
X11202105Y6193426D01*
X11176000Y6196863D01*
D02*
G37*
G36*
X10922000D02*
X10895895Y6193426D01*
X10871569Y6183350D01*
X10850679Y6167321D01*
X10834650Y6146431D01*
X10824574Y6122105D01*
X10821137Y6096000D01*
X10824574Y6069895D01*
X10834650Y6045569D01*
X10850679Y6024679D01*
X10871569Y6008650D01*
X10895895Y5998574D01*
X10922000Y5995137D01*
X10948105Y5998574D01*
X10972431Y6008650D01*
X10993321Y6024679D01*
X11009350Y6045569D01*
X11019426Y6069895D01*
X11022863Y6096000D01*
X11019426Y6122105D01*
X11009350Y6146431D01*
X10993321Y6167321D01*
X10972431Y6183350D01*
X10948105Y6193426D01*
X10922000Y6196863D01*
D02*
G37*
G36*
X10668000D02*
X10641895Y6193426D01*
X10617569Y6183350D01*
X10596679Y6167321D01*
X10580650Y6146431D01*
X10570574Y6122105D01*
X10567137Y6096000D01*
X10570574Y6069895D01*
X10580650Y6045569D01*
X10596679Y6024679D01*
X10617569Y6008650D01*
X10641895Y5998574D01*
X10668000Y5995137D01*
X10694105Y5998574D01*
X10718431Y6008650D01*
X10739321Y6024679D01*
X10755350Y6045569D01*
X10765426Y6069895D01*
X10768863Y6096000D01*
X10765426Y6122105D01*
X10755350Y6146431D01*
X10739321Y6167321D01*
X10718431Y6183350D01*
X10694105Y6193426D01*
X10668000Y6196863D01*
D02*
G37*
G36*
X10414000D02*
X10387895Y6193426D01*
X10363569Y6183350D01*
X10342679Y6167321D01*
X10326650Y6146431D01*
X10316574Y6122105D01*
X10313137Y6096000D01*
X10316574Y6069895D01*
X10326650Y6045569D01*
X10342679Y6024679D01*
X10363569Y6008650D01*
X10387895Y5998574D01*
X10414000Y5995137D01*
X10440105Y5998574D01*
X10464431Y6008650D01*
X10485321Y6024679D01*
X10501350Y6045569D01*
X10511426Y6069895D01*
X10514863Y6096000D01*
X10511426Y6122105D01*
X10501350Y6146431D01*
X10485321Y6167321D01*
X10464431Y6183350D01*
X10440105Y6193426D01*
X10414000Y6196863D01*
D02*
G37*
G36*
X15094974Y6081000D02*
X15000999D01*
Y5987026D01*
X15014716Y5988832D01*
X15041475Y5999915D01*
X15064453Y6017547D01*
X15082085Y6040525D01*
X15093169Y6067284D01*
X15094974Y6081000D01*
D02*
G37*
G36*
X14971001D02*
X14877026D01*
X14878831Y6067284D01*
X14889915Y6040525D01*
X14907547Y6017547D01*
X14930525Y5999915D01*
X14957285Y5988832D01*
X14971001Y5987026D01*
Y6081000D01*
D02*
G37*
%LPD*%
D36*
X11747500Y7421200D02*
X11751413D01*
X11760200Y7412413D01*
Y7368414D02*
Y7412413D01*
Y7368414D02*
X11849100Y7279514D01*
D38*
X14732001Y6096000D02*
D03*
X14478000D02*
D03*
X14986000D02*
D03*
X15239999D02*
D03*
X14224001D02*
D03*
X13970000D02*
D03*
X13462000D02*
D03*
X13716000D02*
D03*
X13208000D02*
D03*
X10922000D02*
D03*
X11430000D02*
D03*
X11176000D02*
D03*
X11684000D02*
D03*
X11938000D02*
D03*
X12953999D02*
D03*
X12700000D02*
D03*
X12192000D02*
D03*
X12446000D02*
D03*
X10414000D02*
D03*
X10668000D02*
D03*
X14732001Y8382000D02*
D03*
X14478000D02*
D03*
X14986000D02*
D03*
X15239999D02*
D03*
X14224001D02*
D03*
X13970000D02*
D03*
X13462000D02*
D03*
X13716000D02*
D03*
X13208000D02*
D03*
X10922000D02*
D03*
X11430000D02*
D03*
X11176000D02*
D03*
X11684000D02*
D03*
X11938000D02*
D03*
X12953999D02*
D03*
X12700000D02*
D03*
X12192000D02*
D03*
X12446000D02*
D03*
X10414000D02*
D03*
X10668000D02*
D03*
D39*
X15160249Y7671000D02*
D03*
Y6807000D02*
D03*
D40*
X14742250Y7671000D02*
D03*
Y6807000D02*
D03*
D41*
X14630400Y7768600D02*
D03*
X14592300Y6853627D02*
D03*
X10287000Y8280400D02*
D03*
X10274300Y7594600D02*
D03*
X10337800Y7252656D02*
D03*
X10287000Y8178800D02*
D03*
Y7023100D02*
D03*
X10160000Y6959600D02*
D03*
X10274300Y7896050D02*
D03*
X10325100Y7442200D02*
D03*
X10160000Y7531100D02*
D03*
X11658600Y7658100D02*
D03*
X11747500Y7421200D02*
D03*
X11849100Y7279514D02*
D03*
X11938000Y7147767D02*
D03*
X13512801Y7710112D02*
D03*
X13284200Y7569200D02*
D03*
X12712700Y7213600D02*
D03*
X12687300Y7315200D02*
D03*
X14020799Y7874000D02*
D03*
X13677901Y7754443D02*
D03*
X12561256Y7734300D02*
D03*
X13233400Y7277100D02*
D03*
X13839500Y7150100D02*
D03*
Y7073900D02*
D03*
X13931900Y7092959D02*
D03*
X14158212Y7339000D02*
D03*
X14172800Y7053384D02*
D03*
X14236700Y7060153D02*
D03*
X14635915Y6464300D02*
D03*
X12611100Y7624373D02*
D03*
X12776200Y7325486D02*
D03*
X14300200Y7079270D02*
D03*
X14439900Y6782916D02*
D03*
X10887145Y6946098D02*
D03*
X10815673Y6995635D02*
D03*
X10922000Y6896100D02*
D03*
X10388600Y7188200D02*
D03*
X10723200Y7074252D02*
D03*
X10682596Y7121200D02*
D03*
X10693400Y6997700D02*
D03*
X10769600Y7035800D02*
D03*
X10960100Y6845300D02*
D03*
X10942655Y6756400D02*
D03*
X10782300Y6757749D02*
D03*
X10744200Y6819900D02*
D03*
X11176000Y6654800D02*
D03*
X11214100Y6718300D02*
D03*
X11277600Y6705600D02*
D03*
X11328400Y6757749D02*
D03*
X13208000Y6662800D02*
D03*
X13131799D02*
D03*
X11468100Y6804130D02*
D03*
X11379200Y6819900D02*
D03*
X11417300Y6883400D02*
D03*
X11506200Y6870700D02*
D03*
X13436600Y7139000D02*
D03*
X13839500Y7225700D02*
D03*
X11976600Y7047000D02*
D03*
X11518900Y6992629D02*
D03*
X11633200D02*
D03*
X13436600Y7214000D02*
D03*
Y7064270D02*
D03*
X13665199Y6982674D02*
D03*
X13589000D02*
D03*
X11772900Y6985000D02*
D03*
X10591800Y7327900D02*
D03*
X10693400Y7353300D02*
D03*
X10744200Y7404100D02*
D03*
X10565563Y7510538D02*
D03*
X10795000Y7594600D02*
D03*
X11379200Y7899400D02*
D03*
X10864873Y7531100D02*
D03*
X10972800Y7632700D02*
D03*
X11010900Y7696200D02*
D03*
X11087100Y7747000D02*
D03*
X10879600Y7670800D02*
D03*
X11176000Y7810500D02*
D03*
X11345985Y7660007D02*
D03*
X11382062Y7611231D02*
D03*
X11518900Y7658100D02*
D03*
X11506200Y7528000D02*
D03*
X11582400Y7467600D02*
D03*
X11633200Y7378700D02*
D03*
X11582400Y7543800D02*
D03*
X11836400Y7416800D02*
D03*
X13042900Y7912100D02*
D03*
X12953999Y7899400D02*
D03*
X10439400Y7318549D02*
D03*
X10477500Y6870700D02*
D03*
X10848963Y6477000D02*
D03*
X10528300Y7950200D02*
D03*
X11734800Y7251700D02*
D03*
X11912600Y6804130D02*
D03*
X11494802Y6535072D02*
D03*
X11301837Y6527800D02*
D03*
X11353800Y7988300D02*
D03*
X15024100Y7213600D02*
D03*
X14119641Y6830097D02*
D03*
X13893800Y7442200D02*
D03*
X13627100Y7685000D02*
D03*
X13247800Y7730439D02*
D03*
X12039600Y8064500D02*
D03*
X12293693Y7899400D02*
D03*
X11983496Y7831900D02*
D03*
X12103100Y7618500D02*
D03*
X12458700Y6464300D02*
D03*
X12101600Y6722475D02*
D03*
X12331700Y6629400D02*
D03*
X12877800Y6527800D02*
D03*
X12993729Y6650000D02*
D03*
X13144501Y6818271D02*
D03*
X13246100Y7065759D02*
D03*
X12852307Y8001000D02*
D03*
X14249400Y6782916D02*
D03*
X14947900Y7772400D02*
D03*
X13208000Y7924800D02*
D03*
X13970000Y6947319D02*
D03*
X13665199Y6722475D02*
D03*
X13589000D02*
D03*
X13665199Y6643600D02*
D03*
X13589000D02*
D03*
X13752600Y6985000D02*
D03*
X13500101D02*
D03*
X13347701Y6388100D02*
D03*
X13436600Y6689830D02*
D03*
X13347701D02*
D03*
X13970000Y7950200D02*
D03*
X13397099Y7470900D02*
D03*
X13779500Y7442600D02*
D03*
X14579601Y7607300D02*
D03*
X14122400Y6438900D02*
D03*
X14008099Y6546641D02*
D03*
X14350999Y6464300D02*
D03*
X14528799D02*
D03*
X14296547Y7810500D02*
D03*
X14792250Y7366000D02*
D03*
X14681200Y7835900D02*
D03*
X14363699Y7658100D02*
D03*
X14566901Y7086600D02*
D03*
X12319000Y7327900D02*
D03*
X12001500Y7316782D02*
D03*
X12547600Y7289800D02*
D03*
X10942655Y7316782D02*
D03*
X11098218Y7161218D02*
D03*
X11253782Y7005655D02*
D03*
X11020436Y7239000D02*
D03*
X11176000Y7083436D02*
D03*
X11098218Y7472345D02*
D03*
X11253782Y7316782D02*
D03*
X11409345Y7161218D02*
D03*
X11176000Y7394564D02*
D03*
X11331564Y7239000D02*
D03*
X11409345Y7316782D02*
D03*
X11253782Y7161218D02*
D03*
X11098218Y7005655D02*
D03*
X11253782Y7472345D02*
D03*
X11098218Y7316782D02*
D03*
X10942655Y7161218D02*
D03*
X11176000Y6927873D02*
D03*
X11020436Y7083436D02*
D03*
X10864873Y7239000D02*
D03*
X11331564Y7083436D02*
D03*
X11176000Y7239000D02*
D03*
X11020436Y7394564D02*
D03*
X11487127Y7239000D02*
D03*
X11331564Y7394564D02*
D03*
X11176000Y7550127D02*
D03*
%TF.MD5,b91bcd3305b54b314f370f209c5d06db*%
M02*
