%TF.GenerationSoftware,Altium Limited,Altium Designer,19.0.15 (446)*%
G04 Layer_Color=16711935*
%FSLAX45Y45*%
%MOMM*%
%TF.FileFunction,Soldermask,Bot*%
%TF.Part,Single*%
G01*
G75*
%TA.AperFunction,SMDPad,CuDef*%
%ADD44O,1.07600X1.60000*%
%TA.AperFunction,ComponentPad*%
%ADD45C,1.87600*%
G04:AMPARAMS|DCode=46|XSize=1.076mm|YSize=1.876mm|CornerRadius=0.538mm|HoleSize=0mm|Usage=FLASHONLY|Rotation=90.000|XOffset=0mm|YOffset=0mm|HoleType=Round|Shape=RoundedRectangle|*
%AMROUNDEDRECTD46*
21,1,1.07600,0.80000,0,0,90.0*
21,1,0.00000,1.87600,0,0,90.0*
1,1,1.07600,0.40000,0.00000*
1,1,1.07600,0.40000,0.00000*
1,1,1.07600,-0.40000,0.00000*
1,1,1.07600,-0.40000,0.00000*
%
%ADD46ROUNDEDRECTD46*%
G04:AMPARAMS|DCode=47|XSize=1.076mm|YSize=2.176mm|CornerRadius=0.538mm|HoleSize=0mm|Usage=FLASHONLY|Rotation=90.000|XOffset=0mm|YOffset=0mm|HoleType=Round|Shape=RoundedRectangle|*
%AMROUNDEDRECTD47*
21,1,1.07600,1.10000,0,0,90.0*
21,1,0.00000,2.17600,0,0,90.0*
1,1,1.07600,0.55000,0.00000*
1,1,1.07600,0.55000,0.00000*
1,1,1.07600,-0.55000,0.00000*
1,1,1.07600,-0.55000,0.00000*
%
%ADD47ROUNDEDRECTD47*%
%ADD48C,0.07600*%
%TA.AperFunction,ViaPad*%
%ADD49C,0.57600*%
D44*
X12446000Y7874000D02*
D03*
X14986000Y6604000D02*
D03*
X14732001D02*
D03*
X14478000D02*
D03*
X14224001D02*
D03*
D45*
X14732001Y6096000D02*
D03*
X14478000D02*
D03*
X14986000D02*
D03*
X15239999D02*
D03*
X14224001D02*
D03*
X13970000D02*
D03*
X13462000D02*
D03*
X13716000D02*
D03*
X13208000D02*
D03*
X10922000D02*
D03*
X11430000D02*
D03*
X11176000D02*
D03*
X11684000D02*
D03*
X11938000D02*
D03*
X12953999D02*
D03*
X12700000D02*
D03*
X12192000D02*
D03*
X12446000D02*
D03*
X10414000D02*
D03*
X10668000D02*
D03*
X14732001Y8382000D02*
D03*
X14478000D02*
D03*
X14986000D02*
D03*
X15239999D02*
D03*
X14224001D02*
D03*
X13970000D02*
D03*
X13462000D02*
D03*
X13716000D02*
D03*
X13208000D02*
D03*
X10922000D02*
D03*
X11430000D02*
D03*
X11176000D02*
D03*
X11684000D02*
D03*
X11938000D02*
D03*
X12953999D02*
D03*
X12700000D02*
D03*
X12192000D02*
D03*
X12446000D02*
D03*
X10414000D02*
D03*
X10668000D02*
D03*
D46*
X15160249Y7671000D02*
D03*
Y6807000D02*
D03*
D47*
X14742250Y7671000D02*
D03*
Y6807000D02*
D03*
D48*
X14792250Y6950000D02*
D03*
Y7528000D02*
D03*
D49*
X14630400Y7768600D02*
D03*
X14592300Y6853627D02*
D03*
X10287000Y8280400D02*
D03*
X10274300Y7594600D02*
D03*
X10337800Y7252656D02*
D03*
X10287000Y8178800D02*
D03*
Y7023100D02*
D03*
X10160000Y6959600D02*
D03*
X10274300Y7896050D02*
D03*
X10325100Y7442200D02*
D03*
X10160000Y7531100D02*
D03*
X11658600Y7658100D02*
D03*
X11747500Y7421200D02*
D03*
X11849100Y7279514D02*
D03*
X11938000Y7147767D02*
D03*
X13512801Y7710112D02*
D03*
X13284200Y7569200D02*
D03*
X12712700Y7213600D02*
D03*
X12687300Y7315200D02*
D03*
X14020799Y7874000D02*
D03*
X13677901Y7754443D02*
D03*
X12561256Y7734300D02*
D03*
X13233400Y7277100D02*
D03*
X13839500Y7150100D02*
D03*
Y7073900D02*
D03*
X13931900Y7092959D02*
D03*
X14158212Y7339000D02*
D03*
X14172800Y7053384D02*
D03*
X14236700Y7060153D02*
D03*
X14635915Y6464300D02*
D03*
X12611100Y7624373D02*
D03*
X12776200Y7325486D02*
D03*
X14300200Y7079270D02*
D03*
X14439900Y6782916D02*
D03*
X10887145Y6946098D02*
D03*
X10815673Y6995635D02*
D03*
X10922000Y6896100D02*
D03*
X10388600Y7188200D02*
D03*
X10723200Y7074252D02*
D03*
X10682596Y7121200D02*
D03*
X10693400Y6997700D02*
D03*
X10769600Y7035800D02*
D03*
X10960100Y6845300D02*
D03*
X10942655Y6756400D02*
D03*
X10782300Y6757749D02*
D03*
X10744200Y6819900D02*
D03*
X11176000Y6654800D02*
D03*
X11214100Y6718300D02*
D03*
X11277600Y6705600D02*
D03*
X11328400Y6757749D02*
D03*
X13208000Y6662800D02*
D03*
X13131799D02*
D03*
X11468100Y6804130D02*
D03*
X11379200Y6819900D02*
D03*
X11417300Y6883400D02*
D03*
X11506200Y6870700D02*
D03*
X13436600Y7139000D02*
D03*
X13839500Y7225700D02*
D03*
X11976600Y7047000D02*
D03*
X11518900Y6992629D02*
D03*
X11633200D02*
D03*
X13436600Y7214000D02*
D03*
Y7064270D02*
D03*
X13665199Y6982674D02*
D03*
X13589000D02*
D03*
X11772900Y6985000D02*
D03*
X10591800Y7327900D02*
D03*
X10693400Y7353300D02*
D03*
X10744200Y7404100D02*
D03*
X10565563Y7510538D02*
D03*
X10795000Y7594600D02*
D03*
X11379200Y7899400D02*
D03*
X10864873Y7531100D02*
D03*
X10972800Y7632700D02*
D03*
X11010900Y7696200D02*
D03*
X11087100Y7747000D02*
D03*
X10879600Y7670800D02*
D03*
X11176000Y7810500D02*
D03*
X11345985Y7660007D02*
D03*
X11382062Y7611231D02*
D03*
X11518900Y7658100D02*
D03*
X11506200Y7528000D02*
D03*
X11582400Y7467600D02*
D03*
X11633200Y7378700D02*
D03*
X11582400Y7543800D02*
D03*
X11836400Y7416800D02*
D03*
X13042900Y7912100D02*
D03*
X12953999Y7899400D02*
D03*
X10439400Y7318549D02*
D03*
X10477500Y6870700D02*
D03*
X10848963Y6477000D02*
D03*
X10528300Y7950200D02*
D03*
X11734800Y7251700D02*
D03*
X11912600Y6804130D02*
D03*
X11494802Y6535072D02*
D03*
X11301837Y6527800D02*
D03*
X11353800Y7988300D02*
D03*
X15024100Y7213600D02*
D03*
X14119641Y6830097D02*
D03*
X13893800Y7442200D02*
D03*
X13627100Y7685000D02*
D03*
X13247800Y7730439D02*
D03*
X12039600Y8064500D02*
D03*
X12293693Y7899400D02*
D03*
X11983496Y7831900D02*
D03*
X12103100Y7618500D02*
D03*
X12458700Y6464300D02*
D03*
X12101600Y6722475D02*
D03*
X12331700Y6629400D02*
D03*
X12877800Y6527800D02*
D03*
X12993729Y6650000D02*
D03*
X13144501Y6818271D02*
D03*
X13246100Y7065759D02*
D03*
X12852307Y8001000D02*
D03*
X14249400Y6782916D02*
D03*
X14947900Y7772400D02*
D03*
X13208000Y7924800D02*
D03*
X13970000Y6947319D02*
D03*
X13665199Y6722475D02*
D03*
X13589000D02*
D03*
X13665199Y6643600D02*
D03*
X13589000D02*
D03*
X13752600Y6985000D02*
D03*
X13500101D02*
D03*
X13347701Y6388100D02*
D03*
X13436600Y6689830D02*
D03*
X13347701D02*
D03*
X13970000Y7950200D02*
D03*
X13397099Y7470900D02*
D03*
X13779500Y7442600D02*
D03*
X14579601Y7607300D02*
D03*
X14122400Y6438900D02*
D03*
X14008099Y6546641D02*
D03*
X14350999Y6464300D02*
D03*
X14528799D02*
D03*
X14296547Y7810500D02*
D03*
X14792250Y7366000D02*
D03*
X14681200Y7835900D02*
D03*
X14363699Y7658100D02*
D03*
X14566901Y7086600D02*
D03*
X12319000Y7327900D02*
D03*
X12001500Y7316782D02*
D03*
X12547600Y7289800D02*
D03*
X10942655Y7316782D02*
D03*
X11098218Y7161218D02*
D03*
X11253782Y7005655D02*
D03*
X11020436Y7239000D02*
D03*
X11176000Y7083436D02*
D03*
X11098218Y7472345D02*
D03*
X11253782Y7316782D02*
D03*
X11409345Y7161218D02*
D03*
X11176000Y7394564D02*
D03*
X11331564Y7239000D02*
D03*
X11409345Y7316782D02*
D03*
X11253782Y7161218D02*
D03*
X11098218Y7005655D02*
D03*
X11253782Y7472345D02*
D03*
X11098218Y7316782D02*
D03*
X10942655Y7161218D02*
D03*
X11176000Y6927873D02*
D03*
X11020436Y7083436D02*
D03*
X10864873Y7239000D02*
D03*
X11331564Y7083436D02*
D03*
X11176000Y7239000D02*
D03*
X11020436Y7394564D02*
D03*
X11487127Y7239000D02*
D03*
X11331564Y7394564D02*
D03*
X11176000Y7550127D02*
D03*
%TF.MD5,8b2877f525be26e6555b01eb03f21ed9*%
M02*
