%TF.GenerationSoftware,Altium Limited,Altium Designer,19.0.15 (446)*%
G04 Layer_Color=2752767*
%FSLAX45Y45*%
%MOMM*%
%TF.FileFunction,Drawing*%
%TF.Part,Single*%
G01*
G75*
%TA.AperFunction,NonConductor*%
%ADD90C,0.12700*%
%ADD91C,0.16933*%
D90*
X14681200Y6045200D02*
Y6146800D01*
X14782800D01*
Y6045200D01*
X14681200D01*
X14427200D02*
Y6146800D01*
X14528799D01*
Y6045200D01*
X14427200D01*
X14935201D02*
Y6146800D01*
X15036800D01*
Y6045200D01*
X14935201D01*
X15189200D02*
Y6146800D01*
X15290800D01*
Y6045200D01*
X15189200D01*
X14173199D02*
Y6146800D01*
X14274800D01*
Y6045200D01*
X14173199D01*
X13919200D02*
Y6146800D01*
X14020799D01*
Y6045200D01*
X13919200D01*
X13411200D02*
Y6146800D01*
X13512801D01*
Y6045200D01*
X13411200D01*
X13665199D02*
Y6146800D01*
X13766800D01*
Y6045200D01*
X13665199D01*
X13157201D02*
Y6146800D01*
X13258800D01*
Y6045200D01*
X13157201D01*
X10871200D02*
Y6146800D01*
X10972800D01*
Y6045200D01*
X10871200D01*
X11379200D02*
Y6146800D01*
X11480800D01*
Y6045200D01*
X11379200D01*
X11125200D02*
Y6146800D01*
X11226800D01*
Y6045200D01*
X11125200D01*
X11633200D02*
Y6146800D01*
X11734800D01*
Y6045200D01*
X11633200D01*
X11887200D02*
Y6146800D01*
X11988800D01*
Y6045200D01*
X11887200D01*
X12903200D02*
Y6146800D01*
X13004800D01*
Y6045200D01*
X12903200D01*
X12649200D02*
Y6146800D01*
X12750800D01*
Y6045200D01*
X12649200D01*
X12141200D02*
Y6146800D01*
X12242800D01*
Y6045200D01*
X12141200D01*
X12395200D02*
Y6146800D01*
X12496800D01*
Y6045200D01*
X12395200D01*
X10363200D02*
Y6146800D01*
X10464800D01*
Y6045200D01*
X10363200D01*
X10617200D02*
Y6146800D01*
X10718800D01*
Y6045200D01*
X10617200D01*
X14681200Y8331200D02*
Y8432800D01*
X14782800D01*
Y8331200D01*
X14681200D01*
X14427200D02*
Y8432800D01*
X14528799D01*
Y8331200D01*
X14427200D01*
X14935201D02*
Y8432800D01*
X15036800D01*
Y8331200D01*
X14935201D01*
X15189200D02*
Y8432800D01*
X15290800D01*
Y8331200D01*
X15189200D01*
X14173199D02*
Y8432800D01*
X14274800D01*
Y8331200D01*
X14173199D01*
X13919200D02*
Y8432800D01*
X14020799D01*
Y8331200D01*
X13919200D01*
X13411200D02*
Y8432800D01*
X13512801D01*
Y8331200D01*
X13411200D01*
X13665199D02*
Y8432800D01*
X13766800D01*
Y8331200D01*
X13665199D01*
X13157201D02*
Y8432800D01*
X13258800D01*
Y8331200D01*
X13157201D01*
X10871200D02*
Y8432800D01*
X10972800D01*
Y8331200D01*
X10871200D01*
X11379200D02*
Y8432800D01*
X11480800D01*
Y8331200D01*
X11379200D01*
X11125200D02*
Y8432800D01*
X11226800D01*
Y8331200D01*
X11125200D01*
X11633200D02*
Y8432800D01*
X11734800D01*
Y8331200D01*
X11633200D01*
X11887200D02*
Y8432800D01*
X11988800D01*
Y8331200D01*
X11887200D01*
X12903200D02*
Y8432800D01*
X13004800D01*
Y8331200D01*
X12903200D01*
X12649200D02*
Y8432800D01*
X12750800D01*
Y8331200D01*
X12649200D01*
X12141200D02*
Y8432800D01*
X12242800D01*
Y8331200D01*
X12141200D01*
X12395200D02*
Y8432800D01*
X12496800D01*
Y8331200D01*
X12395200D01*
X10363200D02*
Y8432800D01*
X10464800D01*
Y8331200D01*
X10363200D01*
X10617200D02*
Y8432800D01*
X10718800D01*
Y8331200D01*
X10617200D01*
X14742250Y7620200D02*
X14691451Y7721800D01*
X14793050D01*
X14742250Y7620200D01*
Y6756200D02*
X14691451Y6857800D01*
X14793050D01*
X14742250Y6756200D01*
X14792250Y6899200D02*
X14817650Y6924600D01*
X14843050D01*
X14817650Y6950000D01*
X14843050Y6975400D01*
X14817650D01*
X14792250Y7000800D01*
X14766850Y6975400D01*
X14741451D01*
X14766850Y6950000D01*
X14741451Y6924600D01*
X14766850D01*
X14792250Y6899200D01*
Y7477200D02*
X14817650Y7502600D01*
X14843050D01*
X14817650Y7528000D01*
X14843050Y7553400D01*
X14817650D01*
X14792250Y7578800D01*
X14766850Y7553400D01*
X14741451D01*
X14766850Y7528000D01*
X14741451Y7502600D01*
X14766850D01*
X14792250Y7477200D01*
X14579601Y7717800D02*
X14605000Y7768600D01*
X14579601Y7819400D01*
X14630400Y7794000D01*
X14681200Y7819400D01*
X14655800Y7768600D01*
X14681200Y7717800D01*
X14630400Y7743200D01*
X14579601Y7717800D01*
X14541499Y6802827D02*
X14566901Y6853627D01*
X14541499Y6904427D01*
X14592300Y6879027D01*
X14643100Y6904427D01*
X14617700Y6853627D01*
X14643100Y6802827D01*
X14592300Y6828227D01*
X14541499Y6802827D01*
X10236200Y8229600D02*
X10261600Y8280400D01*
X10236200Y8331200D01*
X10287000Y8305800D01*
X10337800Y8331200D01*
X10312400Y8280400D01*
X10337800Y8229600D01*
X10287000Y8255000D01*
X10236200Y8229600D01*
X10223500Y7543800D02*
X10248900Y7594600D01*
X10223500Y7645400D01*
X10274300Y7620000D01*
X10325100Y7645400D01*
X10299700Y7594600D01*
X10325100Y7543800D01*
X10274300Y7569200D01*
X10223500Y7543800D01*
X10287000Y7201856D02*
X10312400Y7252656D01*
X10287000Y7303456D01*
X10337800Y7278056D01*
X10388600Y7303456D01*
X10363200Y7252656D01*
X10388600Y7201856D01*
X10337800Y7227256D01*
X10287000Y7201856D01*
X10236200Y8128000D02*
X10261600Y8178800D01*
X10236200Y8229600D01*
X10287000Y8204200D01*
X10337800Y8229600D01*
X10312400Y8178800D01*
X10337800Y8128000D01*
X10287000Y8153400D01*
X10236200Y8128000D01*
Y6972300D02*
X10261600Y7023100D01*
X10236200Y7073900D01*
X10287000Y7048500D01*
X10337800Y7073900D01*
X10312400Y7023100D01*
X10337800Y6972300D01*
X10287000Y6997700D01*
X10236200Y6972300D01*
X10109200Y6908800D02*
X10134600Y6959600D01*
X10109200Y7010400D01*
X10160000Y6985000D01*
X10210800Y7010400D01*
X10185400Y6959600D01*
X10210800Y6908800D01*
X10160000Y6934200D01*
X10109200Y6908800D01*
X10223500Y7845250D02*
X10248900Y7896050D01*
X10223500Y7946850D01*
X10274300Y7921450D01*
X10325100Y7946850D01*
X10299700Y7896050D01*
X10325100Y7845250D01*
X10274300Y7870650D01*
X10223500Y7845250D01*
X10274300Y7391400D02*
X10299700Y7442200D01*
X10274300Y7493000D01*
X10325100Y7467600D01*
X10375900Y7493000D01*
X10350500Y7442200D01*
X10375900Y7391400D01*
X10325100Y7416800D01*
X10274300Y7391400D01*
X10109200Y7480300D02*
X10134600Y7531100D01*
X10109200Y7581900D01*
X10160000Y7556500D01*
X10210800Y7581900D01*
X10185400Y7531100D01*
X10210800Y7480300D01*
X10160000Y7505700D01*
X10109200Y7480300D01*
X11607800Y7607300D02*
X11633200Y7658100D01*
X11607800Y7708900D01*
X11658600Y7683500D01*
X11709400Y7708900D01*
X11684000Y7658100D01*
X11709400Y7607300D01*
X11658600Y7632700D01*
X11607800Y7607300D01*
X11696700Y7370400D02*
X11722100Y7421200D01*
X11696700Y7472000D01*
X11747500Y7446600D01*
X11798300Y7472000D01*
X11772900Y7421200D01*
X11798300Y7370400D01*
X11747500Y7395800D01*
X11696700Y7370400D01*
X11798300Y7228714D02*
X11823700Y7279514D01*
X11798300Y7330314D01*
X11849100Y7304914D01*
X11899900Y7330314D01*
X11874500Y7279514D01*
X11899900Y7228714D01*
X11849100Y7254114D01*
X11798300Y7228714D01*
X11887200Y7096967D02*
X11912600Y7147767D01*
X11887200Y7198567D01*
X11938000Y7173167D01*
X11988800Y7198567D01*
X11963400Y7147767D01*
X11988800Y7096967D01*
X11938000Y7122367D01*
X11887200Y7096967D01*
X13462000Y7659312D02*
X13487399Y7710112D01*
X13462000Y7760912D01*
X13512801Y7735512D01*
X13563600Y7760912D01*
X13538200Y7710112D01*
X13563600Y7659312D01*
X13512801Y7684712D01*
X13462000Y7659312D01*
X13233400Y7518400D02*
X13258800Y7569200D01*
X13233400Y7620000D01*
X13284200Y7594600D01*
X13335001Y7620000D01*
X13309599Y7569200D01*
X13335001Y7518400D01*
X13284200Y7543800D01*
X13233400Y7518400D01*
X12661900Y7162800D02*
X12687300Y7213600D01*
X12661900Y7264400D01*
X12712700Y7239000D01*
X12763500Y7264400D01*
X12738100Y7213600D01*
X12763500Y7162800D01*
X12712700Y7188200D01*
X12661900Y7162800D01*
X12636500Y7264400D02*
X12661900Y7315200D01*
X12636500Y7366000D01*
X12687300Y7340600D01*
X12738100Y7366000D01*
X12712700Y7315200D01*
X12738100Y7264400D01*
X12687300Y7289800D01*
X12636500Y7264400D01*
X13970000Y7823200D02*
X13995399Y7874000D01*
X13970000Y7924800D01*
X14020799Y7899400D01*
X14071600Y7924800D01*
X14046201Y7874000D01*
X14071600Y7823200D01*
X14020799Y7848600D01*
X13970000Y7823200D01*
X13627100Y7703643D02*
X13652499Y7754443D01*
X13627100Y7805243D01*
X13677901Y7779843D01*
X13728700Y7805243D01*
X13703300Y7754443D01*
X13728700Y7703643D01*
X13677901Y7729043D01*
X13627100Y7703643D01*
X12510456Y7683500D02*
X12535856Y7734300D01*
X12510456Y7785100D01*
X12561256Y7759700D01*
X12612056Y7785100D01*
X12586656Y7734300D01*
X12612056Y7683500D01*
X12561256Y7708900D01*
X12510456Y7683500D01*
X13182600Y7226300D02*
X13208000Y7277100D01*
X13182600Y7327900D01*
X13233400Y7302500D01*
X13284200Y7327900D01*
X13258800Y7277100D01*
X13284200Y7226300D01*
X13233400Y7251700D01*
X13182600Y7226300D01*
X13788699Y7099300D02*
X13814101Y7150100D01*
X13788699Y7200900D01*
X13839500Y7175500D01*
X13890300Y7200900D01*
X13864900Y7150100D01*
X13890300Y7099300D01*
X13839500Y7124700D01*
X13788699Y7099300D01*
Y7023100D02*
X13814101Y7073900D01*
X13788699Y7124700D01*
X13839500Y7099300D01*
X13890300Y7124700D01*
X13864900Y7073900D01*
X13890300Y7023100D01*
X13839500Y7048500D01*
X13788699Y7023100D01*
X13881100Y7042159D02*
X13906500Y7092959D01*
X13881100Y7143759D01*
X13931900Y7118359D01*
X13982700Y7143759D01*
X13957300Y7092959D01*
X13982700Y7042159D01*
X13931900Y7067559D01*
X13881100Y7042159D01*
X14107413Y7288200D02*
X14132812Y7339000D01*
X14107413Y7389800D01*
X14158212Y7364400D01*
X14209013Y7389800D01*
X14183614Y7339000D01*
X14209013Y7288200D01*
X14158212Y7313600D01*
X14107413Y7288200D01*
X14122000Y7002584D02*
X14147400Y7053384D01*
X14122000Y7104184D01*
X14172800Y7078784D01*
X14223599Y7104184D01*
X14198199Y7053384D01*
X14223599Y7002584D01*
X14172800Y7027984D01*
X14122000Y7002584D01*
X14185899Y7009353D02*
X14211301Y7060153D01*
X14185899Y7110953D01*
X14236700Y7085553D01*
X14287500Y7110953D01*
X14262100Y7060153D01*
X14287500Y7009353D01*
X14236700Y7034753D01*
X14185899Y7009353D01*
X14585115Y6413500D02*
X14610515Y6464300D01*
X14585115Y6515100D01*
X14635915Y6489700D01*
X14686716Y6515100D01*
X14661314Y6464300D01*
X14686716Y6413500D01*
X14635915Y6438900D01*
X14585115Y6413500D01*
X12560300Y7573573D02*
X12585700Y7624373D01*
X12560300Y7675173D01*
X12611100Y7649773D01*
X12661900Y7675173D01*
X12636500Y7624373D01*
X12661900Y7573573D01*
X12611100Y7598973D01*
X12560300Y7573573D01*
X12725400Y7274686D02*
X12750800Y7325486D01*
X12725400Y7376286D01*
X12776200Y7350886D01*
X12827000Y7376286D01*
X12801601Y7325486D01*
X12827000Y7274686D01*
X12776200Y7300086D01*
X12725400Y7274686D01*
X14249400Y7028470D02*
X14274800Y7079270D01*
X14249400Y7130070D01*
X14300200Y7104670D01*
X14350999Y7130070D01*
X14325600Y7079270D01*
X14350999Y7028470D01*
X14300200Y7053870D01*
X14249400Y7028470D01*
X14389101Y6732116D02*
X14414500Y6782916D01*
X14389101Y6833716D01*
X14439900Y6808316D01*
X14490700Y6833716D01*
X14465300Y6782916D01*
X14490700Y6732116D01*
X14439900Y6757516D01*
X14389101Y6732116D01*
X10836345Y6895298D02*
X10861745Y6946098D01*
X10836345Y6996898D01*
X10887145Y6971498D01*
X10937945Y6996898D01*
X10912545Y6946098D01*
X10937945Y6895298D01*
X10887145Y6920698D01*
X10836345Y6895298D01*
X10764873Y6944835D02*
X10790273Y6995635D01*
X10764873Y7046435D01*
X10815673Y7021035D01*
X10866473Y7046435D01*
X10841073Y6995635D01*
X10866473Y6944835D01*
X10815673Y6970235D01*
X10764873Y6944835D01*
X10871200Y6845300D02*
X10896600Y6896100D01*
X10871200Y6946900D01*
X10922000Y6921500D01*
X10972800Y6946900D01*
X10947400Y6896100D01*
X10972800Y6845300D01*
X10922000Y6870700D01*
X10871200Y6845300D01*
X10337800Y7137400D02*
X10363200Y7188200D01*
X10337800Y7239000D01*
X10388600Y7213600D01*
X10439400Y7239000D01*
X10414000Y7188200D01*
X10439400Y7137400D01*
X10388600Y7162800D01*
X10337800Y7137400D01*
X10672400Y7023452D02*
X10697800Y7074252D01*
X10672400Y7125052D01*
X10723200Y7099652D01*
X10774000Y7125052D01*
X10748600Y7074252D01*
X10774000Y7023452D01*
X10723200Y7048852D01*
X10672400Y7023452D01*
X10631796Y7070400D02*
X10657196Y7121200D01*
X10631796Y7172000D01*
X10682596Y7146600D01*
X10733396Y7172000D01*
X10707996Y7121200D01*
X10733396Y7070400D01*
X10682596Y7095800D01*
X10631796Y7070400D01*
X10642600Y6946900D02*
X10668000Y6997700D01*
X10642600Y7048500D01*
X10693400Y7023100D01*
X10744200Y7048500D01*
X10718800Y6997700D01*
X10744200Y6946900D01*
X10693400Y6972300D01*
X10642600Y6946900D01*
X10718800Y6985000D02*
X10744200Y7035800D01*
X10718800Y7086600D01*
X10769600Y7061200D01*
X10820400Y7086600D01*
X10795000Y7035800D01*
X10820400Y6985000D01*
X10769600Y7010400D01*
X10718800Y6985000D01*
X10909300Y6794500D02*
X10934700Y6845300D01*
X10909300Y6896100D01*
X10960100Y6870700D01*
X11010900Y6896100D01*
X10985500Y6845300D01*
X11010900Y6794500D01*
X10960100Y6819900D01*
X10909300Y6794500D01*
X10891855Y6705600D02*
X10917255Y6756400D01*
X10891855Y6807200D01*
X10942655Y6781800D01*
X10993455Y6807200D01*
X10968055Y6756400D01*
X10993455Y6705600D01*
X10942655Y6731000D01*
X10891855Y6705600D01*
X10731500Y6706949D02*
X10756900Y6757749D01*
X10731500Y6808549D01*
X10782300Y6783149D01*
X10833100Y6808549D01*
X10807700Y6757749D01*
X10833100Y6706949D01*
X10782300Y6732349D01*
X10731500Y6706949D01*
X10693400Y6769100D02*
X10718800Y6819900D01*
X10693400Y6870700D01*
X10744200Y6845300D01*
X10795000Y6870700D01*
X10769600Y6819900D01*
X10795000Y6769100D01*
X10744200Y6794500D01*
X10693400Y6769100D01*
X11125200Y6604000D02*
X11150600Y6654800D01*
X11125200Y6705600D01*
X11176000Y6680200D01*
X11226800Y6705600D01*
X11201400Y6654800D01*
X11226800Y6604000D01*
X11176000Y6629400D01*
X11125200Y6604000D01*
X11163300Y6667500D02*
X11188700Y6718300D01*
X11163300Y6769100D01*
X11214100Y6743700D01*
X11264900Y6769100D01*
X11239500Y6718300D01*
X11264900Y6667500D01*
X11214100Y6692900D01*
X11163300Y6667500D01*
X11226800Y6654800D02*
X11252200Y6705600D01*
X11226800Y6756400D01*
X11277600Y6731000D01*
X11328400Y6756400D01*
X11303000Y6705600D01*
X11328400Y6654800D01*
X11277600Y6680200D01*
X11226800Y6654800D01*
X11277600Y6706949D02*
X11303000Y6757749D01*
X11277600Y6808549D01*
X11328400Y6783149D01*
X11379200Y6808549D01*
X11353800Y6757749D01*
X11379200Y6706949D01*
X11328400Y6732349D01*
X11277600Y6706949D01*
X13157201Y6612000D02*
X13182600Y6662800D01*
X13157201Y6713600D01*
X13208000Y6688200D01*
X13258800Y6713600D01*
X13233400Y6662800D01*
X13258800Y6612000D01*
X13208000Y6637400D01*
X13157201Y6612000D01*
X13081000D02*
X13106400Y6662800D01*
X13081000Y6713600D01*
X13131799Y6688200D01*
X13182600Y6713600D01*
X13157201Y6662800D01*
X13182600Y6612000D01*
X13131799Y6637400D01*
X13081000Y6612000D01*
X11417300Y6753330D02*
X11442700Y6804130D01*
X11417300Y6854930D01*
X11468100Y6829530D01*
X11518900Y6854930D01*
X11493500Y6804130D01*
X11518900Y6753330D01*
X11468100Y6778730D01*
X11417300Y6753330D01*
X11328400Y6769100D02*
X11353800Y6819900D01*
X11328400Y6870700D01*
X11379200Y6845300D01*
X11430000Y6870700D01*
X11404600Y6819900D01*
X11430000Y6769100D01*
X11379200Y6794500D01*
X11328400Y6769100D01*
X11366500Y6832600D02*
X11391900Y6883400D01*
X11366500Y6934200D01*
X11417300Y6908800D01*
X11468100Y6934200D01*
X11442700Y6883400D01*
X11468100Y6832600D01*
X11417300Y6858000D01*
X11366500Y6832600D01*
X11455400Y6819900D02*
X11480800Y6870700D01*
X11455400Y6921500D01*
X11506200Y6896100D01*
X11557000Y6921500D01*
X11531600Y6870700D01*
X11557000Y6819900D01*
X11506200Y6845300D01*
X11455400Y6819900D01*
X13385800Y7088200D02*
X13411200Y7139000D01*
X13385800Y7189800D01*
X13436600Y7164400D01*
X13487399Y7189800D01*
X13462000Y7139000D01*
X13487399Y7088200D01*
X13436600Y7113600D01*
X13385800Y7088200D01*
X13788699Y7174900D02*
X13814101Y7225700D01*
X13788699Y7276500D01*
X13839500Y7251100D01*
X13890300Y7276500D01*
X13864900Y7225700D01*
X13890300Y7174900D01*
X13839500Y7200300D01*
X13788699Y7174900D01*
X11925800Y6996200D02*
X11951200Y7047000D01*
X11925800Y7097800D01*
X11976600Y7072400D01*
X12027400Y7097800D01*
X12002000Y7047000D01*
X12027400Y6996200D01*
X11976600Y7021600D01*
X11925800Y6996200D01*
X11468100Y6941829D02*
X11493500Y6992629D01*
X11468100Y7043429D01*
X11518900Y7018029D01*
X11569700Y7043429D01*
X11544300Y6992629D01*
X11569700Y6941829D01*
X11518900Y6967229D01*
X11468100Y6941829D01*
X11582400D02*
X11607800Y6992629D01*
X11582400Y7043429D01*
X11633200Y7018029D01*
X11684000Y7043429D01*
X11658600Y6992629D01*
X11684000Y6941829D01*
X11633200Y6967229D01*
X11582400Y6941829D01*
X13385800Y7163200D02*
X13411200Y7214000D01*
X13385800Y7264800D01*
X13436600Y7239400D01*
X13487399Y7264800D01*
X13462000Y7214000D01*
X13487399Y7163200D01*
X13436600Y7188600D01*
X13385800Y7163200D01*
Y7013470D02*
X13411200Y7064270D01*
X13385800Y7115070D01*
X13436600Y7089670D01*
X13487399Y7115070D01*
X13462000Y7064270D01*
X13487399Y7013470D01*
X13436600Y7038870D01*
X13385800Y7013470D01*
X13614400Y6931874D02*
X13639799Y6982674D01*
X13614400Y7033474D01*
X13665199Y7008074D01*
X13716000Y7033474D01*
X13690601Y6982674D01*
X13716000Y6931874D01*
X13665199Y6957274D01*
X13614400Y6931874D01*
X13538200D02*
X13563600Y6982674D01*
X13538200Y7033474D01*
X13589000Y7008074D01*
X13639799Y7033474D01*
X13614400Y6982674D01*
X13639799Y6931874D01*
X13589000Y6957274D01*
X13538200Y6931874D01*
X11722100Y6934200D02*
X11747500Y6985000D01*
X11722100Y7035800D01*
X11772900Y7010400D01*
X11823700Y7035800D01*
X11798300Y6985000D01*
X11823700Y6934200D01*
X11772900Y6959600D01*
X11722100Y6934200D01*
X10541000Y7277100D02*
X10566400Y7327900D01*
X10541000Y7378700D01*
X10591800Y7353300D01*
X10642600Y7378700D01*
X10617200Y7327900D01*
X10642600Y7277100D01*
X10591800Y7302500D01*
X10541000Y7277100D01*
X10642600Y7302500D02*
X10668000Y7353300D01*
X10642600Y7404100D01*
X10693400Y7378700D01*
X10744200Y7404100D01*
X10718800Y7353300D01*
X10744200Y7302500D01*
X10693400Y7327900D01*
X10642600Y7302500D01*
X10693400Y7353300D02*
X10718800Y7404100D01*
X10693400Y7454900D01*
X10744200Y7429500D01*
X10795000Y7454900D01*
X10769600Y7404100D01*
X10795000Y7353300D01*
X10744200Y7378700D01*
X10693400Y7353300D01*
X10514763Y7459738D02*
X10540163Y7510538D01*
X10514763Y7561338D01*
X10565563Y7535938D01*
X10616363Y7561338D01*
X10590963Y7510538D01*
X10616363Y7459738D01*
X10565563Y7485138D01*
X10514763Y7459738D01*
X10744200Y7543800D02*
X10769600Y7594600D01*
X10744200Y7645400D01*
X10795000Y7620000D01*
X10845800Y7645400D01*
X10820400Y7594600D01*
X10845800Y7543800D01*
X10795000Y7569200D01*
X10744200Y7543800D01*
X11328400Y7848600D02*
X11353800Y7899400D01*
X11328400Y7950200D01*
X11379200Y7924800D01*
X11430000Y7950200D01*
X11404600Y7899400D01*
X11430000Y7848600D01*
X11379200Y7874000D01*
X11328400Y7848600D01*
X10814073Y7480300D02*
X10839473Y7531100D01*
X10814073Y7581900D01*
X10864873Y7556500D01*
X10915673Y7581900D01*
X10890273Y7531100D01*
X10915673Y7480300D01*
X10864873Y7505700D01*
X10814073Y7480300D01*
X10922000Y7581900D02*
X10947400Y7632700D01*
X10922000Y7683500D01*
X10972800Y7658100D01*
X11023600Y7683500D01*
X10998200Y7632700D01*
X11023600Y7581900D01*
X10972800Y7607300D01*
X10922000Y7581900D01*
X10960100Y7645400D02*
X10985500Y7696200D01*
X10960100Y7747000D01*
X11010900Y7721600D01*
X11061700Y7747000D01*
X11036300Y7696200D01*
X11061700Y7645400D01*
X11010900Y7670800D01*
X10960100Y7645400D01*
X11036300Y7696200D02*
X11061700Y7747000D01*
X11036300Y7797800D01*
X11087100Y7772400D01*
X11137900Y7797800D01*
X11112500Y7747000D01*
X11137900Y7696200D01*
X11087100Y7721600D01*
X11036300Y7696200D01*
X10828800Y7620000D02*
X10854200Y7670800D01*
X10828800Y7721600D01*
X10879600Y7696200D01*
X10930400Y7721600D01*
X10905000Y7670800D01*
X10930400Y7620000D01*
X10879600Y7645400D01*
X10828800Y7620000D01*
X11125200Y7759700D02*
X11150600Y7810500D01*
X11125200Y7861300D01*
X11176000Y7835900D01*
X11226800Y7861300D01*
X11201400Y7810500D01*
X11226800Y7759700D01*
X11176000Y7785100D01*
X11125200Y7759700D01*
X11295185Y7609207D02*
X11320585Y7660007D01*
X11295185Y7710807D01*
X11345985Y7685407D01*
X11396785Y7710807D01*
X11371385Y7660007D01*
X11396785Y7609207D01*
X11345985Y7634607D01*
X11295185Y7609207D01*
X11331262Y7560431D02*
X11356662Y7611231D01*
X11331262Y7662031D01*
X11382062Y7636631D01*
X11432862Y7662031D01*
X11407462Y7611231D01*
X11432862Y7560431D01*
X11382062Y7585831D01*
X11331262Y7560431D01*
X11468100Y7607300D02*
X11493500Y7658100D01*
X11468100Y7708900D01*
X11518900Y7683500D01*
X11569700Y7708900D01*
X11544300Y7658100D01*
X11569700Y7607300D01*
X11518900Y7632700D01*
X11468100Y7607300D01*
X11455400Y7477200D02*
X11480800Y7528000D01*
X11455400Y7578800D01*
X11506200Y7553400D01*
X11557000Y7578800D01*
X11531600Y7528000D01*
X11557000Y7477200D01*
X11506200Y7502600D01*
X11455400Y7477200D01*
X11531600Y7416800D02*
X11557000Y7467600D01*
X11531600Y7518400D01*
X11582400Y7493000D01*
X11633200Y7518400D01*
X11607800Y7467600D01*
X11633200Y7416800D01*
X11582400Y7442200D01*
X11531600Y7416800D01*
X11582400Y7327900D02*
X11607800Y7378700D01*
X11582400Y7429500D01*
X11633200Y7404100D01*
X11684000Y7429500D01*
X11658600Y7378700D01*
X11684000Y7327900D01*
X11633200Y7353300D01*
X11582400Y7327900D01*
X11531600Y7493000D02*
X11557000Y7543800D01*
X11531600Y7594600D01*
X11582400Y7569200D01*
X11633200Y7594600D01*
X11607800Y7543800D01*
X11633200Y7493000D01*
X11582400Y7518400D01*
X11531600Y7493000D01*
X11785600Y7366000D02*
X11811000Y7416800D01*
X11785600Y7467600D01*
X11836400Y7442200D01*
X11887200Y7467600D01*
X11861800Y7416800D01*
X11887200Y7366000D01*
X11836400Y7391400D01*
X11785600Y7366000D01*
X12992101Y7861300D02*
X13017500Y7912100D01*
X12992101Y7962900D01*
X13042900Y7937500D01*
X13093700Y7962900D01*
X13068300Y7912100D01*
X13093700Y7861300D01*
X13042900Y7886700D01*
X12992101Y7861300D01*
X12903200Y7848600D02*
X12928600Y7899400D01*
X12903200Y7950200D01*
X12953999Y7924800D01*
X13004800Y7950200D01*
X12979401Y7899400D01*
X13004800Y7848600D01*
X12953999Y7874000D01*
X12903200Y7848600D01*
X10388600Y7267749D02*
X10414000Y7318549D01*
X10388600Y7369349D01*
X10439400Y7343949D01*
X10490200Y7369349D01*
X10464800Y7318549D01*
X10490200Y7267749D01*
X10439400Y7293149D01*
X10388600Y7267749D01*
X10426700Y6819900D02*
X10452100Y6870700D01*
X10426700Y6921500D01*
X10477500Y6896100D01*
X10528300Y6921500D01*
X10502900Y6870700D01*
X10528300Y6819900D01*
X10477500Y6845300D01*
X10426700Y6819900D01*
X10798163Y6426200D02*
X10823563Y6477000D01*
X10798163Y6527800D01*
X10848963Y6502400D01*
X10899763Y6527800D01*
X10874363Y6477000D01*
X10899763Y6426200D01*
X10848963Y6451600D01*
X10798163Y6426200D01*
X10477500Y7899400D02*
X10502900Y7950200D01*
X10477500Y8001000D01*
X10528300Y7975600D01*
X10579100Y8001000D01*
X10553700Y7950200D01*
X10579100Y7899400D01*
X10528300Y7924800D01*
X10477500Y7899400D01*
X11684000Y7200900D02*
X11709400Y7251700D01*
X11684000Y7302500D01*
X11734800Y7277100D01*
X11785600Y7302500D01*
X11760200Y7251700D01*
X11785600Y7200900D01*
X11734800Y7226300D01*
X11684000Y7200900D01*
X11861800Y6753330D02*
X11887200Y6804130D01*
X11861800Y6854930D01*
X11912600Y6829530D01*
X11963400Y6854930D01*
X11938000Y6804130D01*
X11963400Y6753330D01*
X11912600Y6778730D01*
X11861800Y6753330D01*
X11444002Y6484272D02*
X11469402Y6535072D01*
X11444002Y6585872D01*
X11494802Y6560472D01*
X11545602Y6585872D01*
X11520202Y6535072D01*
X11545602Y6484272D01*
X11494802Y6509672D01*
X11444002Y6484272D01*
X11251037Y6477000D02*
X11276437Y6527800D01*
X11251037Y6578600D01*
X11301837Y6553200D01*
X11352637Y6578600D01*
X11327237Y6527800D01*
X11352637Y6477000D01*
X11301837Y6502400D01*
X11251037Y6477000D01*
X11303000Y7937500D02*
X11328400Y7988300D01*
X11303000Y8039100D01*
X11353800Y8013700D01*
X11404600Y8039100D01*
X11379200Y7988300D01*
X11404600Y7937500D01*
X11353800Y7962900D01*
X11303000Y7937500D01*
X14973300Y7162800D02*
X14998700Y7213600D01*
X14973300Y7264400D01*
X15024100Y7239000D01*
X15074899Y7264400D01*
X15049500Y7213600D01*
X15074899Y7162800D01*
X15024100Y7188200D01*
X14973300Y7162800D01*
X14068842Y6779297D02*
X14094241Y6830097D01*
X14068842Y6880897D01*
X14119641Y6855497D01*
X14170441Y6880897D01*
X14145041Y6830097D01*
X14170441Y6779297D01*
X14119641Y6804697D01*
X14068842Y6779297D01*
X13842999Y7391400D02*
X13868401Y7442200D01*
X13842999Y7493000D01*
X13893800Y7467600D01*
X13944600Y7493000D01*
X13919200Y7442200D01*
X13944600Y7391400D01*
X13893800Y7416800D01*
X13842999Y7391400D01*
X13576300Y7634200D02*
X13601700Y7685000D01*
X13576300Y7735800D01*
X13627100Y7710400D01*
X13677901Y7735800D01*
X13652499Y7685000D01*
X13677901Y7634200D01*
X13627100Y7659600D01*
X13576300Y7634200D01*
X13197000Y7679639D02*
X13222400Y7730439D01*
X13197000Y7781239D01*
X13247800Y7755839D01*
X13298599Y7781239D01*
X13273199Y7730439D01*
X13298599Y7679639D01*
X13247800Y7705039D01*
X13197000Y7679639D01*
X11988800Y8013700D02*
X12014200Y8064500D01*
X11988800Y8115300D01*
X12039600Y8089900D01*
X12090400Y8115300D01*
X12065000Y8064500D01*
X12090400Y8013700D01*
X12039600Y8039100D01*
X11988800Y8013700D01*
X12242893Y7848600D02*
X12268293Y7899400D01*
X12242893Y7950200D01*
X12293693Y7924800D01*
X12344493Y7950200D01*
X12319093Y7899400D01*
X12344493Y7848600D01*
X12293693Y7874000D01*
X12242893Y7848600D01*
X11932696Y7781100D02*
X11958096Y7831900D01*
X11932696Y7882700D01*
X11983496Y7857300D01*
X12034296Y7882700D01*
X12008896Y7831900D01*
X12034296Y7781100D01*
X11983496Y7806500D01*
X11932696Y7781100D01*
X12052300Y7567700D02*
X12077700Y7618500D01*
X12052300Y7669300D01*
X12103100Y7643900D01*
X12153900Y7669300D01*
X12128500Y7618500D01*
X12153900Y7567700D01*
X12103100Y7593100D01*
X12052300Y7567700D01*
X12407900Y6413500D02*
X12433300Y6464300D01*
X12407900Y6515100D01*
X12458700Y6489700D01*
X12509500Y6515100D01*
X12484100Y6464300D01*
X12509500Y6413500D01*
X12458700Y6438900D01*
X12407900Y6413500D01*
X12050800Y6671675D02*
X12076200Y6722475D01*
X12050800Y6773275D01*
X12101600Y6747875D01*
X12152400Y6773275D01*
X12127000Y6722475D01*
X12152400Y6671675D01*
X12101600Y6697075D01*
X12050800Y6671675D01*
X12280900Y6578600D02*
X12306300Y6629400D01*
X12280900Y6680200D01*
X12331700Y6654800D01*
X12382500Y6680200D01*
X12357100Y6629400D01*
X12382500Y6578600D01*
X12331700Y6604000D01*
X12280900Y6578600D01*
X12827000Y6477000D02*
X12852400Y6527800D01*
X12827000Y6578600D01*
X12877800Y6553200D01*
X12928600Y6578600D01*
X12903200Y6527800D01*
X12928600Y6477000D01*
X12877800Y6502400D01*
X12827000Y6477000D01*
X12942929Y6599200D02*
X12968329Y6650000D01*
X12942929Y6700800D01*
X12993729Y6675400D01*
X13044530Y6700800D01*
X13019128Y6650000D01*
X13044530Y6599200D01*
X12993729Y6624600D01*
X12942929Y6599200D01*
X13093700Y6767471D02*
X13119099Y6818271D01*
X13093700Y6869071D01*
X13144501Y6843671D01*
X13195300Y6869071D01*
X13169901Y6818271D01*
X13195300Y6767471D01*
X13144501Y6792871D01*
X13093700Y6767471D01*
X13195300Y7014959D02*
X13220700Y7065759D01*
X13195300Y7116559D01*
X13246100Y7091159D01*
X13296899Y7116559D01*
X13271500Y7065759D01*
X13296899Y7014959D01*
X13246100Y7040359D01*
X13195300Y7014959D01*
X12801508Y7950200D02*
X12826907Y8001000D01*
X12801508Y8051800D01*
X12852307Y8026400D01*
X12903107Y8051800D01*
X12877707Y8001000D01*
X12903107Y7950200D01*
X12852307Y7975600D01*
X12801508Y7950200D01*
X14198599Y6732116D02*
X14224001Y6782916D01*
X14198599Y6833716D01*
X14249400Y6808316D01*
X14300200Y6833716D01*
X14274800Y6782916D01*
X14300200Y6732116D01*
X14249400Y6757516D01*
X14198599Y6732116D01*
X14897099Y7721600D02*
X14922501Y7772400D01*
X14897099Y7823200D01*
X14947900Y7797800D01*
X14998700Y7823200D01*
X14973300Y7772400D01*
X14998700Y7721600D01*
X14947900Y7747000D01*
X14897099Y7721600D01*
X13157201Y7874000D02*
X13182600Y7924800D01*
X13157201Y7975600D01*
X13208000Y7950200D01*
X13258800Y7975600D01*
X13233400Y7924800D01*
X13258800Y7874000D01*
X13208000Y7899400D01*
X13157201Y7874000D01*
X13919200Y6896519D02*
X13944600Y6947319D01*
X13919200Y6998119D01*
X13970000Y6972719D01*
X14020799Y6998119D01*
X13995399Y6947319D01*
X14020799Y6896519D01*
X13970000Y6921919D01*
X13919200Y6896519D01*
X13614400Y6671675D02*
X13639799Y6722475D01*
X13614400Y6773275D01*
X13665199Y6747875D01*
X13716000Y6773275D01*
X13690601Y6722475D01*
X13716000Y6671675D01*
X13665199Y6697075D01*
X13614400Y6671675D01*
X13538200D02*
X13563600Y6722475D01*
X13538200Y6773275D01*
X13589000Y6747875D01*
X13639799Y6773275D01*
X13614400Y6722475D01*
X13639799Y6671675D01*
X13589000Y6697075D01*
X13538200Y6671675D01*
X13614400Y6592800D02*
X13639799Y6643600D01*
X13614400Y6694400D01*
X13665199Y6669000D01*
X13716000Y6694400D01*
X13690601Y6643600D01*
X13716000Y6592800D01*
X13665199Y6618200D01*
X13614400Y6592800D01*
X13538200D02*
X13563600Y6643600D01*
X13538200Y6694400D01*
X13589000Y6669000D01*
X13639799Y6694400D01*
X13614400Y6643600D01*
X13639799Y6592800D01*
X13589000Y6618200D01*
X13538200Y6592800D01*
X13701801Y6934200D02*
X13727200Y6985000D01*
X13701801Y7035800D01*
X13752600Y7010400D01*
X13803400Y7035800D01*
X13778000Y6985000D01*
X13803400Y6934200D01*
X13752600Y6959600D01*
X13701801Y6934200D01*
X13449300D02*
X13474699Y6985000D01*
X13449300Y7035800D01*
X13500101Y7010400D01*
X13550900Y7035800D01*
X13525500Y6985000D01*
X13550900Y6934200D01*
X13500101Y6959600D01*
X13449300Y6934200D01*
X13296899Y6337300D02*
X13322301Y6388100D01*
X13296899Y6438900D01*
X13347701Y6413500D01*
X13398500Y6438900D01*
X13373100Y6388100D01*
X13398500Y6337300D01*
X13347701Y6362700D01*
X13296899Y6337300D01*
X13385800Y6639030D02*
X13411200Y6689830D01*
X13385800Y6740630D01*
X13436600Y6715230D01*
X13487399Y6740630D01*
X13462000Y6689830D01*
X13487399Y6639030D01*
X13436600Y6664430D01*
X13385800Y6639030D01*
X13296899D02*
X13322301Y6689830D01*
X13296899Y6740630D01*
X13347701Y6715230D01*
X13398500Y6740630D01*
X13373100Y6689830D01*
X13398500Y6639030D01*
X13347701Y6664430D01*
X13296899Y6639030D01*
X13919200Y7899400D02*
X13944600Y7950200D01*
X13919200Y8001000D01*
X13970000Y7975600D01*
X14020799Y8001000D01*
X13995399Y7950200D01*
X14020799Y7899400D01*
X13970000Y7924800D01*
X13919200Y7899400D01*
X13346300Y7420100D02*
X13371700Y7470900D01*
X13346300Y7521700D01*
X13397099Y7496300D01*
X13447900Y7521700D01*
X13422501Y7470900D01*
X13447900Y7420100D01*
X13397099Y7445500D01*
X13346300Y7420100D01*
X13728700Y7391800D02*
X13754100Y7442600D01*
X13728700Y7493400D01*
X13779500Y7468000D01*
X13830299Y7493400D01*
X13804900Y7442600D01*
X13830299Y7391800D01*
X13779500Y7417200D01*
X13728700Y7391800D01*
X14528799Y7556500D02*
X14554201Y7607300D01*
X14528799Y7658100D01*
X14579601Y7632700D01*
X14630400Y7658100D01*
X14605000Y7607300D01*
X14630400Y7556500D01*
X14579601Y7581900D01*
X14528799Y7556500D01*
X14071600Y6388100D02*
X14097000Y6438900D01*
X14071600Y6489700D01*
X14122400Y6464300D01*
X14173199Y6489700D01*
X14147800Y6438900D01*
X14173199Y6388100D01*
X14122400Y6413500D01*
X14071600Y6388100D01*
X13957300Y6495841D02*
X13982700Y6546641D01*
X13957300Y6597441D01*
X14008099Y6572041D01*
X14058900Y6597441D01*
X14033501Y6546641D01*
X14058900Y6495841D01*
X14008099Y6521241D01*
X13957300Y6495841D01*
X14300200Y6413500D02*
X14325600Y6464300D01*
X14300200Y6515100D01*
X14350999Y6489700D01*
X14401801Y6515100D01*
X14376401Y6464300D01*
X14401801Y6413500D01*
X14350999Y6438900D01*
X14300200Y6413500D01*
X14478000D02*
X14503400Y6464300D01*
X14478000Y6515100D01*
X14528799Y6489700D01*
X14579601Y6515100D01*
X14554201Y6464300D01*
X14579601Y6413500D01*
X14528799Y6438900D01*
X14478000Y6413500D01*
X14245747Y7759700D02*
X14271147Y7810500D01*
X14245747Y7861300D01*
X14296547Y7835900D01*
X14347346Y7861300D01*
X14321947Y7810500D01*
X14347346Y7759700D01*
X14296547Y7785100D01*
X14245747Y7759700D01*
X14741451Y7315200D02*
X14766850Y7366000D01*
X14741451Y7416800D01*
X14792250Y7391400D01*
X14843050Y7416800D01*
X14817650Y7366000D01*
X14843050Y7315200D01*
X14792250Y7340600D01*
X14741451Y7315200D01*
X14630400Y7785100D02*
X14655800Y7835900D01*
X14630400Y7886700D01*
X14681200Y7861300D01*
X14732001Y7886700D01*
X14706599Y7835900D01*
X14732001Y7785100D01*
X14681200Y7810500D01*
X14630400Y7785100D01*
X14312900Y7607300D02*
X14338300Y7658100D01*
X14312900Y7708900D01*
X14363699Y7683500D01*
X14414500Y7708900D01*
X14389101Y7658100D01*
X14414500Y7607300D01*
X14363699Y7632700D01*
X14312900Y7607300D01*
X14516100Y7035800D02*
X14541499Y7086600D01*
X14516100Y7137400D01*
X14566901Y7112000D01*
X14617700Y7137400D01*
X14592300Y7086600D01*
X14617700Y7035800D01*
X14566901Y7061200D01*
X14516100Y7035800D01*
X12268200Y7277100D02*
X12293600Y7327900D01*
X12268200Y7378700D01*
X12319000Y7353300D01*
X12369800Y7378700D01*
X12344400Y7327900D01*
X12369800Y7277100D01*
X12319000Y7302500D01*
X12268200Y7277100D01*
X11950700Y7265982D02*
X11976100Y7316782D01*
X11950700Y7367582D01*
X12001500Y7342182D01*
X12052300Y7367582D01*
X12026900Y7316782D01*
X12052300Y7265982D01*
X12001500Y7291382D01*
X11950700Y7265982D01*
X12496800Y7239000D02*
X12522200Y7289800D01*
X12496800Y7340600D01*
X12547600Y7315200D01*
X12598400Y7340600D01*
X12573000Y7289800D01*
X12598400Y7239000D01*
X12547600Y7264400D01*
X12496800Y7239000D01*
X10891855Y7265982D02*
X10917255Y7316782D01*
X10891855Y7367582D01*
X10942655Y7342182D01*
X10993455Y7367582D01*
X10968055Y7316782D01*
X10993455Y7265982D01*
X10942655Y7291382D01*
X10891855Y7265982D01*
X11047418Y7110418D02*
X11072818Y7161218D01*
X11047418Y7212018D01*
X11098218Y7186618D01*
X11149018Y7212018D01*
X11123618Y7161218D01*
X11149018Y7110418D01*
X11098218Y7135818D01*
X11047418Y7110418D01*
X11202982Y6954855D02*
X11228382Y7005655D01*
X11202982Y7056455D01*
X11253782Y7031055D01*
X11304582Y7056455D01*
X11279182Y7005655D01*
X11304582Y6954855D01*
X11253782Y6980255D01*
X11202982Y6954855D01*
X10969636Y7188200D02*
X10995036Y7239000D01*
X10969636Y7289800D01*
X11020436Y7264400D01*
X11071236Y7289800D01*
X11045836Y7239000D01*
X11071236Y7188200D01*
X11020436Y7213600D01*
X10969636Y7188200D01*
X11125200Y7032636D02*
X11150600Y7083436D01*
X11125200Y7134236D01*
X11176000Y7108836D01*
X11226800Y7134236D01*
X11201400Y7083436D01*
X11226800Y7032636D01*
X11176000Y7058036D01*
X11125200Y7032636D01*
X11047418Y7421545D02*
X11072818Y7472345D01*
X11047418Y7523145D01*
X11098218Y7497745D01*
X11149018Y7523145D01*
X11123618Y7472345D01*
X11149018Y7421545D01*
X11098218Y7446945D01*
X11047418Y7421545D01*
X11202982Y7265982D02*
X11228382Y7316782D01*
X11202982Y7367582D01*
X11253782Y7342182D01*
X11304582Y7367582D01*
X11279182Y7316782D01*
X11304582Y7265982D01*
X11253782Y7291382D01*
X11202982Y7265982D01*
X11358545Y7110418D02*
X11383945Y7161218D01*
X11358545Y7212018D01*
X11409345Y7186618D01*
X11460145Y7212018D01*
X11434745Y7161218D01*
X11460145Y7110418D01*
X11409345Y7135818D01*
X11358545Y7110418D01*
X11125200Y7343764D02*
X11150600Y7394564D01*
X11125200Y7445364D01*
X11176000Y7419964D01*
X11226800Y7445364D01*
X11201400Y7394564D01*
X11226800Y7343764D01*
X11176000Y7369164D01*
X11125200Y7343764D01*
X11280764Y7188200D02*
X11306164Y7239000D01*
X11280764Y7289800D01*
X11331564Y7264400D01*
X11382364Y7289800D01*
X11356964Y7239000D01*
X11382364Y7188200D01*
X11331564Y7213600D01*
X11280764Y7188200D01*
X11358545Y7265982D02*
X11383945Y7316782D01*
X11358545Y7367582D01*
X11409345Y7342182D01*
X11460145Y7367582D01*
X11434745Y7316782D01*
X11460145Y7265982D01*
X11409345Y7291382D01*
X11358545Y7265982D01*
X11202982Y7110418D02*
X11228382Y7161218D01*
X11202982Y7212018D01*
X11253782Y7186618D01*
X11304582Y7212018D01*
X11279182Y7161218D01*
X11304582Y7110418D01*
X11253782Y7135818D01*
X11202982Y7110418D01*
X11047418Y6954855D02*
X11072818Y7005655D01*
X11047418Y7056455D01*
X11098218Y7031055D01*
X11149018Y7056455D01*
X11123618Y7005655D01*
X11149018Y6954855D01*
X11098218Y6980255D01*
X11047418Y6954855D01*
X11202982Y7421545D02*
X11228382Y7472345D01*
X11202982Y7523145D01*
X11253782Y7497745D01*
X11304582Y7523145D01*
X11279182Y7472345D01*
X11304582Y7421545D01*
X11253782Y7446945D01*
X11202982Y7421545D01*
X11047418Y7265982D02*
X11072818Y7316782D01*
X11047418Y7367582D01*
X11098218Y7342182D01*
X11149018Y7367582D01*
X11123618Y7316782D01*
X11149018Y7265982D01*
X11098218Y7291382D01*
X11047418Y7265982D01*
X10891855Y7110418D02*
X10917255Y7161218D01*
X10891855Y7212018D01*
X10942655Y7186618D01*
X10993455Y7212018D01*
X10968055Y7161218D01*
X10993455Y7110418D01*
X10942655Y7135818D01*
X10891855Y7110418D01*
X11125200Y6877073D02*
X11150600Y6927873D01*
X11125200Y6978673D01*
X11176000Y6953273D01*
X11226800Y6978673D01*
X11201400Y6927873D01*
X11226800Y6877073D01*
X11176000Y6902473D01*
X11125200Y6877073D01*
X10969636Y7032636D02*
X10995036Y7083436D01*
X10969636Y7134236D01*
X11020436Y7108836D01*
X11071236Y7134236D01*
X11045836Y7083436D01*
X11071236Y7032636D01*
X11020436Y7058036D01*
X10969636Y7032636D01*
X10814073Y7188200D02*
X10839473Y7239000D01*
X10814073Y7289800D01*
X10864873Y7264400D01*
X10915673Y7289800D01*
X10890273Y7239000D01*
X10915673Y7188200D01*
X10864873Y7213600D01*
X10814073Y7188200D01*
X11280764Y7032636D02*
X11306164Y7083436D01*
X11280764Y7134236D01*
X11331564Y7108836D01*
X11382364Y7134236D01*
X11356964Y7083436D01*
X11382364Y7032636D01*
X11331564Y7058036D01*
X11280764Y7032636D01*
X11125200Y7188200D02*
X11150600Y7239000D01*
X11125200Y7289800D01*
X11176000Y7264400D01*
X11226800Y7289800D01*
X11201400Y7239000D01*
X11226800Y7188200D01*
X11176000Y7213600D01*
X11125200Y7188200D01*
X10969636Y7343764D02*
X10995036Y7394564D01*
X10969636Y7445364D01*
X11020436Y7419964D01*
X11071236Y7445364D01*
X11045836Y7394564D01*
X11071236Y7343764D01*
X11020436Y7369164D01*
X10969636Y7343764D01*
X11436327Y7188200D02*
X11461727Y7239000D01*
X11436327Y7289800D01*
X11487127Y7264400D01*
X11537927Y7289800D01*
X11512527Y7239000D01*
X11537927Y7188200D01*
X11487127Y7213600D01*
X11436327Y7188200D01*
X11280764Y7343764D02*
X11306164Y7394564D01*
X11280764Y7445364D01*
X11331564Y7419964D01*
X11382364Y7445364D01*
X11356964Y7394564D01*
X11382364Y7343764D01*
X11331564Y7369164D01*
X11280764Y7343764D01*
X11125200Y7499327D02*
X11150600Y7550127D01*
X11125200Y7600927D01*
X11176000Y7575527D01*
X11226800Y7600927D01*
X11201400Y7550127D01*
X11226800Y7499327D01*
X11176000Y7524727D01*
X11125200Y7499327D01*
D91*
X15211050Y7671000D02*
G03*
X15211050Y7671000I-50800J0D01*
G01*
Y6807000D02*
G03*
X15211050Y6807000I-50800J0D01*
G01*
%TF.MD5,eaecb080ea25262960b9b0900c8da7c5*%
M02*
