%TF.GenerationSoftware,Altium Limited,Altium Designer,19.0.15 (446)*%
G04 Layer_Physical_Order=4*
G04 Layer_Color=16711680*
%FSLAX45Y45*%
%MOMM*%
%TF.FileFunction,Copper,L4,Bot,Signal*%
%TF.Part,Single*%
G01*
G75*
%TA.AperFunction,Conductor*%
%ADD35C,0.50000*%
%ADD36C,0.15000*%
%TA.AperFunction,ComponentPad*%
%ADD38C,1.80000*%
G04:AMPARAMS|DCode=39|XSize=1mm|YSize=1.8mm|CornerRadius=0.5mm|HoleSize=0mm|Usage=FLASHONLY|Rotation=90.000|XOffset=0mm|YOffset=0mm|HoleType=Round|Shape=RoundedRectangle|*
%AMROUNDEDRECTD39*
21,1,1.00000,0.80000,0,0,90.0*
21,1,0.00000,1.80000,0,0,90.0*
1,1,1.00000,0.40000,0.00000*
1,1,1.00000,0.40000,0.00000*
1,1,1.00000,-0.40000,0.00000*
1,1,1.00000,-0.40000,0.00000*
%
%ADD39ROUNDEDRECTD39*%
G04:AMPARAMS|DCode=40|XSize=1mm|YSize=2.1mm|CornerRadius=0.5mm|HoleSize=0mm|Usage=FLASHONLY|Rotation=90.000|XOffset=0mm|YOffset=0mm|HoleType=Round|Shape=RoundedRectangle|*
%AMROUNDEDRECTD40*
21,1,1.00000,1.10000,0,0,90.0*
21,1,0.00000,2.10000,0,0,90.0*
1,1,1.00000,0.55000,0.00000*
1,1,1.00000,0.55000,0.00000*
1,1,1.00000,-0.55000,0.00000*
1,1,1.00000,-0.55000,0.00000*
%
%ADD40ROUNDEDRECTD40*%
%TA.AperFunction,ViaPad*%
%ADD41C,0.50000*%
%TA.AperFunction,SMDPad,CuDef*%
%ADD42O,1.00000X1.52400*%
G36*
X15367000Y5969000D02*
X9969500D01*
Y8509000D01*
X15367000D01*
Y5969000D01*
D02*
G37*
%LPC*%
G36*
X14492999Y8490974D02*
Y8397000D01*
X14586974D01*
X14585168Y8410716D01*
X14574084Y8437475D01*
X14556453Y8460453D01*
X14533475Y8478085D01*
X14506715Y8489168D01*
X14492999Y8490974D01*
D02*
G37*
G36*
X14239000D02*
Y8397000D01*
X14332974D01*
X14331168Y8410716D01*
X14320085Y8437475D01*
X14302454Y8460453D01*
X14279475Y8478085D01*
X14252716Y8489168D01*
X14239000Y8490974D01*
D02*
G37*
G36*
X14463000D02*
X14449284Y8489168D01*
X14422525Y8478085D01*
X14399547Y8460453D01*
X14381915Y8437475D01*
X14370831Y8410716D01*
X14369026Y8397000D01*
X14463000D01*
Y8490974D01*
D02*
G37*
G36*
X14209000D02*
X14195284Y8489168D01*
X14168526Y8478085D01*
X14145547Y8460453D01*
X14127914Y8437475D01*
X14116832Y8410716D01*
X14115025Y8397000D01*
X14209000D01*
Y8490974D01*
D02*
G37*
G36*
X15239999Y8482863D02*
X15213895Y8479426D01*
X15189569Y8469350D01*
X15168678Y8453321D01*
X15152650Y8432431D01*
X15142574Y8408105D01*
X15139137Y8382000D01*
X15142574Y8355895D01*
X15152650Y8331569D01*
X15168678Y8310679D01*
X15189569Y8294650D01*
X15213895Y8284574D01*
X15239999Y8281137D01*
X15266106Y8284574D01*
X15290431Y8294650D01*
X15311320Y8310679D01*
X15327350Y8331569D01*
X15337427Y8355895D01*
X15340863Y8382000D01*
X15337427Y8408105D01*
X15327350Y8432431D01*
X15311320Y8453321D01*
X15290431Y8469350D01*
X15266106Y8479426D01*
X15239999Y8482863D01*
D02*
G37*
G36*
X14986000D02*
X14959895Y8479426D01*
X14935568Y8469350D01*
X14914679Y8453321D01*
X14898650Y8432431D01*
X14888574Y8408105D01*
X14885136Y8382000D01*
X14888574Y8355895D01*
X14898650Y8331569D01*
X14914679Y8310679D01*
X14935568Y8294650D01*
X14959895Y8284574D01*
X14986000Y8281137D01*
X15012105Y8284574D01*
X15036430Y8294650D01*
X15057321Y8310679D01*
X15073351Y8331569D01*
X15083426Y8355895D01*
X15086864Y8382000D01*
X15083426Y8408105D01*
X15073351Y8432431D01*
X15057321Y8453321D01*
X15036430Y8469350D01*
X15012105Y8479426D01*
X14986000Y8482863D01*
D02*
G37*
G36*
X14732001D02*
X14705894Y8479426D01*
X14681569Y8469350D01*
X14660680Y8453321D01*
X14644650Y8432431D01*
X14634573Y8408105D01*
X14631137Y8382000D01*
X14634573Y8355895D01*
X14644650Y8331569D01*
X14660680Y8310679D01*
X14681569Y8294650D01*
X14705894Y8284574D01*
X14732001Y8281137D01*
X14758105Y8284574D01*
X14782431Y8294650D01*
X14803320Y8310679D01*
X14819350Y8331569D01*
X14829427Y8355895D01*
X14832863Y8382000D01*
X14829427Y8408105D01*
X14819350Y8432431D01*
X14803320Y8453321D01*
X14782431Y8469350D01*
X14758105Y8479426D01*
X14732001Y8482863D01*
D02*
G37*
G36*
X12192000D02*
X12165895Y8479426D01*
X12141569Y8469350D01*
X12120679Y8453321D01*
X12104650Y8432431D01*
X12094574Y8408105D01*
X12091137Y8382000D01*
X12094574Y8355895D01*
X12104650Y8331569D01*
X12120679Y8310679D01*
X12141569Y8294650D01*
X12165895Y8284574D01*
X12192000Y8281137D01*
X12218105Y8284574D01*
X12242431Y8294650D01*
X12263321Y8310679D01*
X12279350Y8331569D01*
X12289426Y8355895D01*
X12292863Y8382000D01*
X12289426Y8408105D01*
X12279350Y8432431D01*
X12263321Y8453321D01*
X12242431Y8469350D01*
X12218105Y8479426D01*
X12192000Y8482863D01*
D02*
G37*
G36*
X14586974Y8367000D02*
X14492999D01*
Y8273026D01*
X14506715Y8274832D01*
X14533475Y8285915D01*
X14556453Y8303547D01*
X14574084Y8326525D01*
X14585168Y8353284D01*
X14586974Y8367000D01*
D02*
G37*
G36*
X14332974D02*
X14239000D01*
Y8273026D01*
X14252716Y8274832D01*
X14279475Y8285915D01*
X14302454Y8303547D01*
X14320085Y8326525D01*
X14331168Y8353284D01*
X14332974Y8367000D01*
D02*
G37*
G36*
X14463000D02*
X14369026D01*
X14370831Y8353284D01*
X14381915Y8326525D01*
X14399547Y8303547D01*
X14422525Y8285915D01*
X14449284Y8274832D01*
X14463000Y8273026D01*
Y8367000D01*
D02*
G37*
G36*
X14209000D02*
X14115025D01*
X14116832Y8353284D01*
X14127914Y8326525D01*
X14145547Y8303547D01*
X14168526Y8285915D01*
X14195284Y8274832D01*
X14209000Y8273026D01*
Y8367000D01*
D02*
G37*
G36*
X12039600Y8100186D02*
X12025944Y8097469D01*
X12014366Y8089734D01*
X12006631Y8078156D01*
X12003914Y8064500D01*
X12006631Y8050844D01*
X12014366Y8039266D01*
X12025944Y8031531D01*
X12039600Y8028814D01*
X12053256Y8031531D01*
X12064834Y8039266D01*
X12072569Y8050844D01*
X12075286Y8064500D01*
X12072569Y8078156D01*
X12064834Y8089734D01*
X12053256Y8097469D01*
X12039600Y8100186D01*
D02*
G37*
G36*
X12852307Y8036686D02*
X12838651Y8033969D01*
X12827074Y8026234D01*
X12819337Y8014656D01*
X12816621Y8001000D01*
X12819337Y7987344D01*
X12827074Y7975766D01*
X12838651Y7968031D01*
X12852307Y7965314D01*
X12865964Y7968031D01*
X12877541Y7975766D01*
X12885275Y7987344D01*
X12887993Y8001000D01*
X12885275Y8014656D01*
X12877541Y8026234D01*
X12865964Y8033969D01*
X12852307Y8036686D01*
D02*
G37*
G36*
X13970000Y8482863D02*
X13943895Y8479426D01*
X13919569Y8469350D01*
X13898679Y8453321D01*
X13882651Y8432431D01*
X13872574Y8408105D01*
X13869138Y8382000D01*
X13872574Y8355895D01*
X13882651Y8331569D01*
X13898679Y8310679D01*
X13898767Y8310612D01*
X13952158Y8234217D01*
Y8166100D01*
X13953516Y8159272D01*
X13957384Y8153483D01*
X14053757Y8057109D01*
Y7908794D01*
X14041057Y7902559D01*
X14034456Y7906969D01*
X14020799Y7909686D01*
X14007144Y7906969D01*
X13995566Y7899234D01*
X13987831Y7887656D01*
X13985837Y7877631D01*
X13985600Y7877369D01*
X13978268Y7856702D01*
X13893852Y7772286D01*
X13720204D01*
X13700407Y7781715D01*
X13700056Y7781733D01*
X13692661Y7786675D01*
X13690633Y7789739D01*
X13687637Y7799612D01*
X13728616Y7840591D01*
X13732484Y7846380D01*
X13733842Y7853208D01*
Y8234217D01*
X13787231Y8310612D01*
X13787321Y8310679D01*
X13803349Y8331569D01*
X13813426Y8355895D01*
X13816862Y8382000D01*
X13813426Y8408105D01*
X13803349Y8432431D01*
X13787321Y8453321D01*
X13766431Y8469350D01*
X13742105Y8479426D01*
X13716000Y8482863D01*
X13689896Y8479426D01*
X13665569Y8469350D01*
X13644679Y8453321D01*
X13628650Y8432431D01*
X13618575Y8408105D01*
X13615137Y8382000D01*
X13618575Y8355895D01*
X13628650Y8331569D01*
X13644679Y8310679D01*
X13644768Y8310612D01*
X13698157Y8234217D01*
Y7860599D01*
X13557706Y7720148D01*
X13551427Y7722052D01*
X13544807Y7725209D01*
X13538034Y7735346D01*
X13526456Y7743081D01*
X13512801Y7745798D01*
X13499144Y7743081D01*
X13490645Y7737403D01*
X13490292Y7737384D01*
X13470496Y7727955D01*
X13426045D01*
X13424200Y7730091D01*
X13420020Y7739891D01*
X13474617Y7794487D01*
X13478485Y7800276D01*
X13479843Y7807104D01*
Y8234217D01*
X13533232Y8310612D01*
X13533321Y8310679D01*
X13549350Y8331569D01*
X13559425Y8355895D01*
X13562863Y8382000D01*
X13559425Y8408105D01*
X13549350Y8432431D01*
X13533321Y8453321D01*
X13512431Y8469350D01*
X13488104Y8479426D01*
X13462000Y8482863D01*
X13435895Y8479426D01*
X13411569Y8469350D01*
X13390678Y8453321D01*
X13374651Y8432431D01*
X13364574Y8408105D01*
X13361137Y8382000D01*
X13364574Y8355895D01*
X13374651Y8331569D01*
X13390678Y8310679D01*
X13390767Y8310612D01*
X13444157Y8234217D01*
Y7814495D01*
X13194035Y7564372D01*
X13186050Y7565391D01*
X13181154Y7578456D01*
X13360316Y7757618D01*
X13364185Y7763407D01*
X13365543Y7770235D01*
Y7950200D01*
X13364185Y7957028D01*
X13360316Y7962817D01*
X13225842Y8097291D01*
Y8234217D01*
X13279231Y8310612D01*
X13279321Y8310679D01*
X13295351Y8331569D01*
X13305426Y8355895D01*
X13308862Y8382000D01*
X13305426Y8408105D01*
X13295351Y8432431D01*
X13279321Y8453321D01*
X13258430Y8469350D01*
X13234105Y8479426D01*
X13208000Y8482863D01*
X13181895Y8479426D01*
X13157568Y8469350D01*
X13136679Y8453321D01*
X13120650Y8432431D01*
X13110574Y8408105D01*
X13107137Y8382000D01*
X13110574Y8355895D01*
X13120650Y8331569D01*
X13136679Y8310679D01*
X13136768Y8310612D01*
X13190157Y8234217D01*
Y8089900D01*
X13191515Y8083072D01*
X13195383Y8077283D01*
X13329857Y7942809D01*
Y7777626D01*
X13292706Y7740475D01*
X13286427Y7742379D01*
X13279807Y7745536D01*
X13273035Y7755673D01*
X13261456Y7763408D01*
X13251431Y7765403D01*
X13251169Y7765639D01*
X13230502Y7772970D01*
X13085452Y7918020D01*
X13079665Y7921888D01*
X13076514Y7922515D01*
X13075870Y7925756D01*
X13068134Y7937334D01*
X13056557Y7945069D01*
X13042900Y7947786D01*
X13029243Y7945069D01*
X13027043Y7943599D01*
X13014343Y7950387D01*
Y8085500D01*
X13012985Y8092328D01*
X13009117Y8098117D01*
X12984543Y8122691D01*
Y8236528D01*
X13034766Y8321766D01*
X13034975Y8323262D01*
X13041350Y8331569D01*
X13051427Y8355895D01*
X13054863Y8382000D01*
X13051427Y8408105D01*
X13041350Y8432431D01*
X13025320Y8453321D01*
X13004431Y8469350D01*
X12980106Y8479426D01*
X12953999Y8482863D01*
X12927895Y8479426D01*
X12903569Y8469350D01*
X12882680Y8453321D01*
X12866650Y8432431D01*
X12856573Y8408105D01*
X12853137Y8382000D01*
X12856573Y8355895D01*
X12866650Y8331569D01*
X12882680Y8310679D01*
X12892072Y8303473D01*
X12892331Y8302616D01*
X12948857Y8233693D01*
Y8115300D01*
X12950215Y8108472D01*
X12954083Y8102683D01*
X12978658Y8078109D01*
Y7860391D01*
X12819609Y7701343D01*
X12596050D01*
X12589815Y7714043D01*
X12594226Y7720644D01*
X12596942Y7734300D01*
X12594226Y7747956D01*
X12586490Y7759534D01*
X12576353Y7766307D01*
X12573197Y7772927D01*
X12571292Y7779206D01*
X12712617Y7920531D01*
X12716485Y7926319D01*
X12717843Y7933148D01*
Y8234217D01*
X12771232Y8310612D01*
X12771321Y8310679D01*
X12787350Y8331569D01*
X12797426Y8355895D01*
X12800864Y8382000D01*
X12797426Y8408105D01*
X12787350Y8432431D01*
X12771321Y8453321D01*
X12750431Y8469350D01*
X12726105Y8479426D01*
X12700000Y8482863D01*
X12673895Y8479426D01*
X12649569Y8469350D01*
X12628679Y8453321D01*
X12612650Y8432431D01*
X12602574Y8408105D01*
X12599137Y8382000D01*
X12602574Y8355895D01*
X12612650Y8331569D01*
X12628679Y8310679D01*
X12628767Y8310612D01*
X12682157Y8234217D01*
Y7940538D01*
X12519162Y7777543D01*
X12465442D01*
X12464191Y7790243D01*
X12469411Y7791281D01*
X12489257Y7804542D01*
X12502519Y7824389D01*
X12507175Y7847800D01*
Y7900200D01*
X12502519Y7923611D01*
X12489257Y7943458D01*
X12469411Y7956719D01*
X12446000Y7961375D01*
X12422589Y7956719D01*
X12402743Y7943458D01*
X12389481Y7923611D01*
X12388514Y7918751D01*
X12377906Y7913892D01*
X12337003D01*
X12319761Y7923385D01*
X12318927Y7924634D01*
X12307349Y7932369D01*
X12293693Y7935086D01*
X12280037Y7932369D01*
X12268459Y7924634D01*
X12260724Y7913056D01*
X12258007Y7899400D01*
X12260724Y7885744D01*
X12268459Y7874166D01*
X12280037Y7866431D01*
X12293693Y7863714D01*
X12307349Y7866431D01*
X12312135Y7869629D01*
X12313066Y7869618D01*
X12334504Y7878207D01*
X12377385D01*
X12384825Y7874561D01*
Y7847800D01*
X12389481Y7824389D01*
X12402743Y7804542D01*
X12422589Y7791281D01*
X12427809Y7790243D01*
X12426558Y7777543D01*
X11734800D01*
X11727972Y7776185D01*
X11722183Y7772317D01*
X11676609Y7726743D01*
X11629804D01*
X11622976Y7725385D01*
X11617187Y7721517D01*
X11524744Y7629073D01*
X11436478D01*
X11436166Y7629464D01*
X11436878Y7634061D01*
X11441706Y7642875D01*
X11444960Y7643522D01*
X11450748Y7647390D01*
X11557916Y7754557D01*
X11633200D01*
X11640028Y7755915D01*
X11645817Y7759783D01*
X11754891Y7868857D01*
X12172200D01*
X12179028Y7870215D01*
X12184817Y7874083D01*
X12281191Y7970457D01*
X12344400D01*
X12351228Y7971815D01*
X12357017Y7975683D01*
X12458617Y8077283D01*
X12462485Y8083072D01*
X12463843Y8089900D01*
Y8234217D01*
X12517232Y8310612D01*
X12517321Y8310679D01*
X12533350Y8331569D01*
X12543426Y8355895D01*
X12546863Y8382000D01*
X12543426Y8408105D01*
X12533350Y8432431D01*
X12517321Y8453321D01*
X12496431Y8469350D01*
X12472105Y8479426D01*
X12446000Y8482863D01*
X12419895Y8479426D01*
X12395569Y8469350D01*
X12374679Y8453321D01*
X12358650Y8432431D01*
X12348574Y8408105D01*
X12345137Y8382000D01*
X12348574Y8355895D01*
X12358650Y8331569D01*
X12374679Y8310679D01*
X12374767Y8310612D01*
X12428157Y8234217D01*
Y8097291D01*
X12337009Y8006143D01*
X12273800D01*
X12266972Y8004785D01*
X12261184Y8000917D01*
X12164810Y7904543D01*
X11747500D01*
X11740672Y7903185D01*
X11734883Y7899317D01*
X11625809Y7790243D01*
X11592637D01*
X11587376Y7802943D01*
X11780291Y7995857D01*
X11879902D01*
X11886730Y7997215D01*
X11892519Y8001083D01*
X11950617Y8059181D01*
X11954485Y8064970D01*
X11955843Y8071798D01*
Y8234217D01*
X12009232Y8310612D01*
X12009321Y8310679D01*
X12025350Y8331569D01*
X12035426Y8355895D01*
X12038863Y8382000D01*
X12035426Y8408105D01*
X12025350Y8432431D01*
X12009321Y8453321D01*
X11988431Y8469350D01*
X11964105Y8479426D01*
X11938000Y8482863D01*
X11911895Y8479426D01*
X11887569Y8469350D01*
X11866679Y8453321D01*
X11850650Y8432431D01*
X11840574Y8408105D01*
X11837137Y8382000D01*
X11840574Y8355895D01*
X11850650Y8331569D01*
X11866679Y8310679D01*
X11866767Y8310612D01*
X11920157Y8234217D01*
Y8079189D01*
X11872511Y8031543D01*
X11772900D01*
X11766072Y8030185D01*
X11760283Y8026317D01*
X11562309Y7828343D01*
X11466422D01*
X11458659Y7840123D01*
X11458767Y7841043D01*
X11463617Y7844283D01*
X11696617Y8077283D01*
X11700485Y8083072D01*
X11701843Y8089900D01*
Y8234217D01*
X11755232Y8310612D01*
X11755321Y8310679D01*
X11771350Y8331569D01*
X11781426Y8355895D01*
X11784863Y8382000D01*
X11781426Y8408105D01*
X11771350Y8432431D01*
X11755321Y8453321D01*
X11734431Y8469350D01*
X11710105Y8479426D01*
X11684000Y8482863D01*
X11657895Y8479426D01*
X11633569Y8469350D01*
X11612679Y8453321D01*
X11596650Y8432431D01*
X11586574Y8408105D01*
X11583137Y8382000D01*
X11586574Y8355895D01*
X11596650Y8331569D01*
X11612679Y8310679D01*
X11612767Y8310612D01*
X11666157Y8234217D01*
Y8097291D01*
X11443609Y7874743D01*
X11418050D01*
X11414956Y7880530D01*
X11412507Y7887443D01*
X11414886Y7899400D01*
X11412169Y7913056D01*
X11404434Y7924633D01*
X11403280Y7936347D01*
X11442617Y7975683D01*
X11446485Y7981472D01*
X11447843Y7988300D01*
Y8234217D01*
X11501232Y8310612D01*
X11501321Y8310679D01*
X11517350Y8331569D01*
X11527426Y8355895D01*
X11530863Y8382000D01*
X11527426Y8408105D01*
X11517350Y8432431D01*
X11501321Y8453321D01*
X11480431Y8469350D01*
X11456105Y8479426D01*
X11430000Y8482863D01*
X11403895Y8479426D01*
X11379569Y8469350D01*
X11358679Y8453321D01*
X11342650Y8432431D01*
X11332574Y8408105D01*
X11329137Y8382000D01*
X11332574Y8355895D01*
X11342650Y8331569D01*
X11358679Y8310679D01*
X11358767Y8310612D01*
X11412157Y8234217D01*
Y7995691D01*
X11376209Y7959743D01*
X11145650D01*
X11141260Y7958870D01*
X11135288Y7966056D01*
X11133774Y7969344D01*
X11188617Y8024187D01*
X11192485Y8029975D01*
X11193843Y8036803D01*
Y8234217D01*
X11247232Y8310612D01*
X11247321Y8310679D01*
X11263350Y8331569D01*
X11273426Y8355895D01*
X11276863Y8382000D01*
X11273426Y8408105D01*
X11263350Y8432431D01*
X11247321Y8453321D01*
X11226431Y8469350D01*
X11202105Y8479426D01*
X11176000Y8482863D01*
X11149895Y8479426D01*
X11125569Y8469350D01*
X11104679Y8453321D01*
X11088650Y8432431D01*
X11078574Y8408105D01*
X11075137Y8382000D01*
X11078574Y8355895D01*
X11088650Y8331569D01*
X11104679Y8310679D01*
X11104767Y8310612D01*
X11158157Y8234217D01*
Y8044194D01*
X10824483Y7710520D01*
X10820615Y7704732D01*
X10819257Y7697903D01*
Y7628374D01*
X10820615Y7621546D01*
X10824483Y7615757D01*
X10847030Y7593211D01*
Y7573405D01*
X10837601Y7553608D01*
X10837582Y7553255D01*
X10831904Y7544756D01*
X10829187Y7531100D01*
X10831904Y7517444D01*
X10839639Y7505866D01*
X10851217Y7498131D01*
X10864873Y7495414D01*
X10878529Y7498131D01*
X10890106Y7505866D01*
X10897842Y7517444D01*
X10900559Y7531100D01*
X10897842Y7544756D01*
X10892163Y7553255D01*
X10892145Y7553608D01*
X10882716Y7573405D01*
Y7600601D01*
X10881357Y7607430D01*
X10877490Y7613218D01*
X10854943Y7635765D01*
Y7690513D01*
X10940956Y7776526D01*
X10944244Y7775012D01*
X10951430Y7769040D01*
X10950557Y7764650D01*
Y7672934D01*
X10942301Y7651009D01*
X10942331Y7650098D01*
X10939831Y7646356D01*
X10937114Y7632700D01*
X10939831Y7619044D01*
X10947566Y7607466D01*
X10959144Y7599731D01*
X10972800Y7597014D01*
X10986456Y7599731D01*
X10998034Y7607466D01*
X11005769Y7619044D01*
X11008486Y7632700D01*
X11005769Y7646356D01*
X11004051Y7648928D01*
X11010900Y7660514D01*
X11024556Y7663231D01*
X11036134Y7670966D01*
X11043869Y7682544D01*
X11045863Y7692569D01*
X11046100Y7692831D01*
X11053431Y7713498D01*
X11061867Y7721766D01*
X11073444Y7714031D01*
X11087100Y7711314D01*
X11100756Y7714031D01*
X11112334Y7721766D01*
X11120069Y7733344D01*
X11122786Y7747000D01*
X11120069Y7760656D01*
X11112334Y7772234D01*
X11102197Y7779007D01*
X11099040Y7785627D01*
X11097136Y7791906D01*
X11130255Y7825025D01*
X11141959Y7818769D01*
X11140314Y7810500D01*
X11143031Y7796844D01*
X11150766Y7785266D01*
X11162344Y7777531D01*
X11176000Y7774814D01*
X11189656Y7777531D01*
X11198155Y7783209D01*
X11198508Y7783228D01*
X11218305Y7792657D01*
X11527588D01*
X11532849Y7779957D01*
X11430741Y7677850D01*
X11388290D01*
X11368494Y7687279D01*
X11368141Y7687297D01*
X11359642Y7692976D01*
X11345985Y7695693D01*
X11332329Y7692976D01*
X11320752Y7685240D01*
X11313016Y7673663D01*
X11310300Y7660007D01*
X11313016Y7646350D01*
X11320752Y7634773D01*
X11332329Y7627038D01*
X11345985Y7624321D01*
X11346577Y7612240D01*
X11346376Y7611231D01*
X11349092Y7597574D01*
X11356828Y7585997D01*
X11368405Y7578261D01*
X11382062Y7575545D01*
X11395718Y7578261D01*
X11404217Y7583940D01*
X11404570Y7583959D01*
X11424366Y7593388D01*
X11528394D01*
X11533589Y7583855D01*
X11534017Y7581050D01*
X11523498Y7570531D01*
X11502831Y7563200D01*
X11502569Y7562963D01*
X11492544Y7560969D01*
X11480966Y7553234D01*
X11473231Y7541656D01*
X11470514Y7528000D01*
X11473231Y7514344D01*
X11480966Y7502766D01*
X11492544Y7495031D01*
X11506200Y7492314D01*
X11519856Y7495031D01*
X11531434Y7502766D01*
X11539169Y7514344D01*
X11540441Y7520738D01*
X11549395Y7523561D01*
X11554265Y7522909D01*
X11557166Y7518566D01*
X11565863Y7512756D01*
X11566781Y7508870D01*
Y7502530D01*
X11565863Y7498644D01*
X11557166Y7492834D01*
X11549431Y7481256D01*
X11546714Y7467600D01*
X11549431Y7453944D01*
X11557166Y7442366D01*
X11568744Y7434631D01*
X11582400Y7431914D01*
X11596056Y7434631D01*
X11604555Y7440309D01*
X11604908Y7440328D01*
X11624705Y7449757D01*
X11709213D01*
X11716001Y7437057D01*
X11714531Y7434856D01*
X11711814Y7421200D01*
X11714531Y7407544D01*
X11716335Y7404843D01*
X11709547Y7392143D01*
X11676729D01*
X11659839Y7401830D01*
X11658434Y7403934D01*
X11646856Y7411669D01*
X11633200Y7414386D01*
X11619544Y7411669D01*
X11607966Y7403934D01*
X11600231Y7392356D01*
X11597514Y7378700D01*
X11600231Y7365044D01*
X11607966Y7353466D01*
X11619544Y7345731D01*
X11633200Y7343014D01*
X11646856Y7345731D01*
X11650598Y7348231D01*
X11651509Y7348201D01*
X11673434Y7356457D01*
X11975021D01*
X11978873Y7343757D01*
X11976266Y7342016D01*
X11968531Y7330438D01*
X11965814Y7316782D01*
X11968531Y7303126D01*
X11976266Y7291548D01*
X11987844Y7283813D01*
X12001500Y7281096D01*
X12015156Y7283813D01*
X12023655Y7289491D01*
X12024008Y7289510D01*
X12043805Y7298939D01*
X12284166D01*
X12284192Y7298918D01*
X12284402Y7298939D01*
X12284728D01*
X12285096Y7298688D01*
X12308064Y7293875D01*
X12309394Y7294125D01*
X12319000Y7292214D01*
X12332656Y7294931D01*
X12344234Y7302666D01*
X12351969Y7314244D01*
X12354686Y7327900D01*
X12351969Y7341556D01*
X12350499Y7343757D01*
X12357287Y7356457D01*
X12663188D01*
X12667040Y7343757D01*
X12662066Y7340434D01*
X12654331Y7328856D01*
X12651614Y7315200D01*
X12650435Y7313932D01*
X12640320Y7306883D01*
X12636500Y7307643D01*
X12589905D01*
X12570108Y7317072D01*
X12569755Y7317091D01*
X12561256Y7322769D01*
X12547600Y7325486D01*
X12533944Y7322769D01*
X12522366Y7315034D01*
X12514631Y7303456D01*
X12511914Y7289800D01*
X12514631Y7276144D01*
X12522366Y7264566D01*
X12533944Y7256831D01*
X12547600Y7254114D01*
X12561256Y7256831D01*
X12569755Y7262509D01*
X12570108Y7262528D01*
X12589905Y7271957D01*
X12629109D01*
X12670169Y7230898D01*
X12677500Y7210231D01*
X12677737Y7209969D01*
X12679731Y7199944D01*
X12687466Y7188366D01*
X12699044Y7180631D01*
X12712700Y7177914D01*
X12726356Y7180631D01*
X12737934Y7188366D01*
X12745669Y7199944D01*
X12748386Y7213600D01*
X12745898Y7226108D01*
X12746474Y7226829D01*
X12760370Y7229597D01*
X12814383Y7175583D01*
X12820172Y7171715D01*
X12827000Y7170357D01*
X12989355D01*
X12996182Y7171715D01*
X13001971Y7175583D01*
X13085646Y7259257D01*
X13191095D01*
X13210892Y7249828D01*
X13211246Y7249809D01*
X13219743Y7244131D01*
X13233400Y7241414D01*
X13245908Y7243902D01*
X13246629Y7243326D01*
X13249397Y7229430D01*
X13162509Y7142543D01*
X12293693D01*
X12286865Y7141185D01*
X12281076Y7137317D01*
X12146602Y7002843D01*
X11994632D01*
X11993918Y7004668D01*
X11992519Y7015543D01*
X12001834Y7021766D01*
X12009569Y7033344D01*
X12012286Y7047000D01*
X12009569Y7060656D01*
X12001834Y7072234D01*
X11990256Y7079969D01*
X11976600Y7082686D01*
X11962944Y7079969D01*
X11951366Y7072234D01*
X11943631Y7060656D01*
X11940914Y7047000D01*
X11943631Y7033344D01*
X11951366Y7021766D01*
X11960681Y7015543D01*
X11959282Y7004668D01*
X11958569Y7002843D01*
X11815205D01*
X11795408Y7012272D01*
X11795055Y7012291D01*
X11786556Y7017969D01*
X11772900Y7020686D01*
X11759244Y7017969D01*
X11747666Y7010234D01*
X11739931Y6998656D01*
X11737214Y6985000D01*
X11739931Y6971344D01*
X11744341Y6964743D01*
X11738106Y6952043D01*
X11584720D01*
X11561431Y6975331D01*
X11554100Y6995998D01*
X11553863Y6996260D01*
X11551869Y7006285D01*
X11544134Y7017863D01*
X11532556Y7025598D01*
X11518900Y7028315D01*
X11505244Y7025598D01*
X11493666Y7017863D01*
X11485931Y7006285D01*
X11483214Y6992629D01*
X11485931Y6978973D01*
X11493666Y6967396D01*
X11505244Y6959660D01*
X11515269Y6957666D01*
X11515531Y6957429D01*
X11536198Y6950098D01*
X11564712Y6921583D01*
X11570501Y6917715D01*
X11577329Y6916357D01*
X12170043D01*
X12176872Y6917715D01*
X12182660Y6921583D01*
X12304434Y7043357D01*
X13169901D01*
X13176727Y7044715D01*
X13182516Y7048583D01*
X13198143Y7064210D01*
X13211615Y7059721D01*
X13213132Y7052102D01*
X13220866Y7040525D01*
X13232443Y7032790D01*
X13246100Y7030073D01*
X13259756Y7032790D01*
X13271333Y7040525D01*
X13279070Y7052102D01*
X13281786Y7065759D01*
X13279070Y7079415D01*
X13271333Y7090992D01*
X13259756Y7098728D01*
X13252138Y7100244D01*
X13247649Y7113716D01*
X13393192Y7259257D01*
X13417708D01*
X13422495Y7247501D01*
X13422327Y7246557D01*
X13411366Y7239234D01*
X13403632Y7227656D01*
X13400914Y7214000D01*
X13403632Y7200344D01*
X13411366Y7188766D01*
X13419165Y7183556D01*
X13419597Y7182229D01*
Y7170771D01*
X13419165Y7169444D01*
X13411366Y7164234D01*
X13403632Y7152656D01*
X13400914Y7139000D01*
X13403632Y7125344D01*
X13411366Y7113766D01*
X13418962Y7108691D01*
X13419286Y7107762D01*
Y7095509D01*
X13418962Y7094579D01*
X13411366Y7089504D01*
X13403632Y7077927D01*
X13400914Y7064270D01*
X13403632Y7050614D01*
X13411366Y7039037D01*
X13422945Y7031301D01*
X13436600Y7028585D01*
X13450256Y7031301D01*
X13461835Y7039037D01*
X13469569Y7050614D01*
X13472285Y7064270D01*
X13469569Y7077927D01*
X13461835Y7089504D01*
X13454237Y7094579D01*
X13453915Y7095509D01*
Y7107762D01*
X13454237Y7108691D01*
X13461835Y7113766D01*
X13469569Y7125344D01*
X13472285Y7139000D01*
X13469569Y7152656D01*
X13461835Y7164234D01*
X13454034Y7169444D01*
X13453603Y7170771D01*
Y7182229D01*
X13454034Y7183556D01*
X13461835Y7188766D01*
X13469569Y7200344D01*
X13472285Y7214000D01*
X13469569Y7227656D01*
X13461835Y7239234D01*
X13450873Y7246557D01*
X13450706Y7247501D01*
X13455492Y7259257D01*
X13805605D01*
X13811342Y7246557D01*
X13806531Y7239357D01*
X13803815Y7225700D01*
X13806531Y7212044D01*
X13814265Y7200467D01*
X13822514Y7194956D01*
X13823190Y7192544D01*
Y7183256D01*
X13822514Y7180844D01*
X13814265Y7175334D01*
X13806531Y7163756D01*
X13803815Y7150100D01*
X13806531Y7136444D01*
X13814265Y7124866D01*
X13822961Y7119056D01*
X13823882Y7115170D01*
Y7108830D01*
X13822961Y7104944D01*
X13814265Y7099134D01*
X13806531Y7087556D01*
X13803815Y7073900D01*
X13806531Y7060244D01*
X13814265Y7048666D01*
X13825844Y7040931D01*
X13839500Y7038214D01*
X13853156Y7040931D01*
X13864734Y7048666D01*
X13872469Y7060244D01*
X13875186Y7073900D01*
X13872469Y7087556D01*
X13864734Y7099134D01*
X13856036Y7104944D01*
X13855119Y7108830D01*
Y7115170D01*
X13856036Y7119056D01*
X13864734Y7124866D01*
X13872469Y7136444D01*
X13875186Y7150100D01*
X13872469Y7163756D01*
X13864734Y7175334D01*
X13856487Y7180844D01*
X13855811Y7183256D01*
Y7192544D01*
X13856487Y7194956D01*
X13864734Y7200467D01*
X13872469Y7212044D01*
X13875186Y7225700D01*
X13874834Y7227473D01*
X13886537Y7233729D01*
X14002957Y7117309D01*
Y6619445D01*
X14004315Y6612617D01*
X14008183Y6606828D01*
X14264928Y6350083D01*
X14270717Y6346215D01*
X14277545Y6344857D01*
X14369009D01*
X14460156Y6253709D01*
Y6243783D01*
X14406767Y6167388D01*
X14406679Y6167321D01*
X14390649Y6146431D01*
X14380574Y6122105D01*
X14377138Y6096000D01*
X14380574Y6069895D01*
X14390649Y6045569D01*
X14406679Y6024679D01*
X14427570Y6008650D01*
X14451895Y5998574D01*
X14478000Y5995137D01*
X14504105Y5998574D01*
X14528432Y6008650D01*
X14549321Y6024679D01*
X14565350Y6045569D01*
X14575426Y6069895D01*
X14578864Y6096000D01*
X14575426Y6122105D01*
X14565350Y6146431D01*
X14549321Y6167321D01*
X14549232Y6167388D01*
X14495844Y6243783D01*
Y6261100D01*
X14494485Y6267928D01*
X14490617Y6273717D01*
X14389017Y6375317D01*
X14383228Y6379185D01*
X14376401Y6380543D01*
X14284937D01*
X14273254Y6392224D01*
X14278114Y6403957D01*
X14593208D01*
X14714157Y6283009D01*
Y6243783D01*
X14660768Y6167388D01*
X14660680Y6167321D01*
X14644650Y6146431D01*
X14634573Y6122105D01*
X14631137Y6096000D01*
X14634573Y6069895D01*
X14644650Y6045569D01*
X14660680Y6024679D01*
X14681569Y6008650D01*
X14705894Y5998574D01*
X14732001Y5995137D01*
X14758105Y5998574D01*
X14782431Y6008650D01*
X14803320Y6024679D01*
X14819350Y6045569D01*
X14829427Y6069895D01*
X14832863Y6096000D01*
X14829427Y6122105D01*
X14819350Y6146431D01*
X14803320Y6167321D01*
X14803233Y6167388D01*
X14749843Y6243783D01*
Y6290400D01*
X14748485Y6297228D01*
X14744617Y6303017D01*
X14630988Y6416646D01*
X14634554Y6425305D01*
X14636803Y6428791D01*
X14649573Y6431331D01*
X14661150Y6439066D01*
X14668884Y6450644D01*
X14670879Y6460669D01*
X14671115Y6460931D01*
X14678445Y6481598D01*
X14708183Y6511334D01*
X14723705Y6518274D01*
X14732001Y6516625D01*
X14755411Y6521281D01*
X14775256Y6534542D01*
X14788519Y6554389D01*
X14793175Y6577800D01*
Y6630200D01*
X14788519Y6653611D01*
X14775256Y6673458D01*
X14755411Y6686719D01*
X14732001Y6691375D01*
X14708589Y6686719D01*
X14688744Y6673458D01*
X14675481Y6653611D01*
X14670825Y6630200D01*
Y6577800D01*
X14675481Y6554389D01*
X14683138Y6542931D01*
X14680008Y6533627D01*
X14653214Y6506831D01*
X14632547Y6499500D01*
X14632285Y6499263D01*
X14622260Y6497269D01*
X14610683Y6489534D01*
X14602946Y6477956D01*
X14600230Y6464300D01*
X14602673Y6452018D01*
X14602419Y6450506D01*
X14601895Y6449184D01*
X14595023Y6439643D01*
X14261191D01*
X14183221Y6517611D01*
X14191318Y6527476D01*
X14200589Y6521281D01*
X14224001Y6516625D01*
X14247411Y6521281D01*
X14267258Y6534542D01*
X14280519Y6554389D01*
X14285175Y6577800D01*
Y6630200D01*
X14280519Y6653611D01*
X14267258Y6673458D01*
X14247411Y6686719D01*
X14246587Y6686883D01*
X14241843Y6697703D01*
Y6702626D01*
X14262016Y6722800D01*
X14265884Y6728588D01*
X14267242Y6735416D01*
Y6740611D01*
X14276672Y6760408D01*
X14276691Y6760761D01*
X14282368Y6769260D01*
X14285086Y6782916D01*
X14282368Y6796572D01*
X14274634Y6808150D01*
X14264787Y6814728D01*
X14260161Y6828062D01*
X14418262Y6986163D01*
X14750024D01*
X14756813Y6973463D01*
X14752216Y6966583D01*
X14748917Y6950000D01*
X14752216Y6933417D01*
X14761609Y6919359D01*
X14775667Y6909966D01*
X14792250Y6906667D01*
X14808832Y6909966D01*
X14822891Y6919359D01*
X14832285Y6933417D01*
X14835582Y6950000D01*
X14832285Y6966583D01*
X14827687Y6973463D01*
X14830576Y6981329D01*
X14834225Y6986536D01*
X14846005Y6988880D01*
X14857582Y6996615D01*
X15049335Y7188366D01*
X15057069Y7199944D01*
X15059785Y7213600D01*
X15057069Y7227256D01*
X15049335Y7238834D01*
X15037756Y7246569D01*
X15024100Y7249286D01*
X15010445Y7246569D01*
X14998866Y7238834D01*
X14817567Y7057535D01*
X14604848D01*
X14598059Y7070235D01*
X14599869Y7072944D01*
X14602586Y7086600D01*
X14599869Y7100256D01*
X14594191Y7108755D01*
X14594173Y7109108D01*
X14584743Y7128905D01*
Y7454900D01*
X14583385Y7461728D01*
X14579517Y7467517D01*
X14406232Y7640802D01*
X14398900Y7661469D01*
X14398663Y7661731D01*
X14396669Y7671756D01*
X14388934Y7683334D01*
X14377356Y7691069D01*
X14363699Y7693786D01*
X14350044Y7691069D01*
X14338466Y7683334D01*
X14330731Y7671757D01*
X14318044Y7673067D01*
Y7769849D01*
X14326540Y7791429D01*
X14326523Y7792363D01*
X14329517Y7796844D01*
X14332233Y7810500D01*
X14329517Y7824156D01*
X14321780Y7835734D01*
X14310204Y7843469D01*
X14296547Y7846186D01*
X14282890Y7843469D01*
X14271313Y7835734D01*
X14263577Y7824156D01*
X14260863Y7810500D01*
X14263577Y7796844D01*
X14271313Y7785266D01*
X14272801Y7784273D01*
X14282356Y7767122D01*
Y7488378D01*
X14175510Y7381531D01*
X14154845Y7374200D01*
X14154582Y7373963D01*
X14144556Y7371969D01*
X14132979Y7364234D01*
X14125244Y7352656D01*
X14122527Y7339000D01*
X14125244Y7325344D01*
X14132979Y7313766D01*
X14144556Y7306031D01*
X14158212Y7303314D01*
X14171869Y7306031D01*
X14183446Y7313766D01*
X14191182Y7325344D01*
X14193176Y7335369D01*
X14193413Y7335631D01*
X14200745Y7356298D01*
X14312817Y7468371D01*
X14316685Y7474159D01*
X14318044Y7480987D01*
Y7643133D01*
X14330731Y7644443D01*
X14338466Y7632866D01*
X14350044Y7625131D01*
X14360069Y7623137D01*
X14360332Y7622900D01*
X14380998Y7615569D01*
X14549057Y7447509D01*
Y7128905D01*
X14539629Y7109108D01*
X14539609Y7108755D01*
X14533931Y7100256D01*
X14531213Y7086600D01*
X14533931Y7072944D01*
X14535741Y7070235D01*
X14528952Y7057535D01*
X14403481D01*
X14389824Y7054818D01*
X14378247Y7047082D01*
X14196947Y6865783D01*
X14119641D01*
X14105984Y6863066D01*
X14094408Y6855331D01*
X14089442Y6847901D01*
X14076743Y6851753D01*
Y7150100D01*
X14075385Y7156928D01*
X14071516Y7162717D01*
X13923608Y7310624D01*
X13928470Y7322357D01*
X14031880D01*
X14247621Y7106615D01*
X14241365Y7094911D01*
X14236700Y7095839D01*
X14223044Y7093122D01*
X14211465Y7085387D01*
X14210126Y7083381D01*
X14198033Y7078618D01*
X14186456Y7086354D01*
X14172800Y7089070D01*
X14159145Y7086354D01*
X14147566Y7078618D01*
X14139832Y7067041D01*
X14137114Y7053384D01*
X14139832Y7039728D01*
X14147566Y7028151D01*
X14159145Y7020415D01*
X14172800Y7017699D01*
X14186456Y7020415D01*
X14198035Y7028151D01*
X14199374Y7030157D01*
X14211467Y7034920D01*
X14223044Y7027184D01*
X14236700Y7024468D01*
X14250356Y7027184D01*
X14261934Y7034920D01*
X14268268Y7044400D01*
X14269733Y7046507D01*
X14283044Y7048639D01*
X14286543Y7046301D01*
X14300200Y7043585D01*
X14313857Y7046301D01*
X14325433Y7054037D01*
X14333170Y7065614D01*
X14335886Y7079270D01*
X14333170Y7092927D01*
X14325433Y7104504D01*
X14313857Y7112240D01*
X14303831Y7114234D01*
X14303569Y7114470D01*
X14282903Y7121801D01*
X14051888Y7352817D01*
X14046098Y7356685D01*
X14039270Y7358043D01*
X13954437D01*
X13949176Y7370743D01*
X14084216Y7505783D01*
X14088084Y7511572D01*
X14089442Y7518400D01*
Y8064500D01*
X14088084Y8071328D01*
X14084216Y8077117D01*
X13987843Y8173491D01*
Y8234217D01*
X14041232Y8310612D01*
X14041321Y8310679D01*
X14057350Y8331569D01*
X14067426Y8355895D01*
X14070863Y8382000D01*
X14067426Y8408105D01*
X14057350Y8432431D01*
X14041321Y8453321D01*
X14020432Y8469350D01*
X13996104Y8479426D01*
X13970000Y8482863D01*
D02*
G37*
G36*
X13208000Y7960486D02*
X13194344Y7957769D01*
X13182767Y7950034D01*
X13175031Y7938456D01*
X13172314Y7924800D01*
X13175031Y7911144D01*
X13182767Y7899566D01*
X13194344Y7891831D01*
X13208000Y7889114D01*
X13221655Y7891831D01*
X13233234Y7899566D01*
X13240968Y7911144D01*
X13243686Y7924800D01*
X13240968Y7938456D01*
X13233234Y7950034D01*
X13221655Y7957769D01*
X13208000Y7960486D01*
D02*
G37*
G36*
X14947900Y7808086D02*
X14934244Y7805369D01*
X14922665Y7797634D01*
X14914931Y7786056D01*
X14912215Y7772400D01*
X14914931Y7758744D01*
X14922665Y7747166D01*
X14934244Y7739431D01*
X14947900Y7736714D01*
X14961555Y7739431D01*
X14973134Y7747166D01*
X14980869Y7758744D01*
X14983586Y7772400D01*
X14980869Y7786056D01*
X14973134Y7797634D01*
X14961555Y7805369D01*
X14947900Y7808086D01*
D02*
G37*
G36*
X14797250Y7741604D02*
X14757249D01*
Y7686001D01*
X14865878D01*
X14865448Y7689273D01*
X14858395Y7706302D01*
X14847176Y7720924D01*
X14832552Y7732145D01*
X14815524Y7739198D01*
X14797250Y7741604D01*
D02*
G37*
G36*
X14727251D02*
X14687250D01*
X14668976Y7739198D01*
X14651949Y7732145D01*
X14637325Y7720924D01*
X14626105Y7706302D01*
X14619052Y7689273D01*
X14618620Y7686001D01*
X14727251D01*
Y7741604D01*
D02*
G37*
G36*
X15200250D02*
X15175250D01*
Y7686000D01*
X15268880D01*
X15268448Y7689273D01*
X15261394Y7706302D01*
X15250174Y7720924D01*
X15235551Y7732145D01*
X15218523Y7739198D01*
X15200250Y7741604D01*
D02*
G37*
G36*
X15145250D02*
X15120250D01*
X15101976Y7739198D01*
X15084949Y7732145D01*
X15070325Y7720924D01*
X15059105Y7706302D01*
X15052052Y7689273D01*
X15051620Y7686000D01*
X15145250D01*
Y7741604D01*
D02*
G37*
G36*
X10414000Y8482863D02*
X10387895Y8479426D01*
X10363569Y8469350D01*
X10342679Y8453321D01*
X10326650Y8432431D01*
X10316574Y8408105D01*
X10313137Y8382000D01*
X10316574Y8355895D01*
X10326650Y8331569D01*
X10342679Y8310679D01*
X10342767Y8310612D01*
X10396157Y8234217D01*
Y7685407D01*
X10397515Y7678578D01*
X10401383Y7672790D01*
X10421557Y7652616D01*
Y7623538D01*
X10408857Y7618277D01*
X10368343Y7658792D01*
Y8128000D01*
X10366985Y8134828D01*
X10363117Y8140617D01*
X10331948Y8171785D01*
X10331924Y8171970D01*
X10319791Y8192963D01*
X10319462Y8193215D01*
X10312234Y8204034D01*
X10300656Y8211769D01*
X10287000Y8214486D01*
X10273344Y8211769D01*
X10261766Y8204034D01*
X10254031Y8192456D01*
X10251314Y8178800D01*
X10254031Y8165144D01*
X10261766Y8153566D01*
X10273344Y8145831D01*
X10287000Y8143114D01*
X10295152Y8144736D01*
X10311822Y8141445D01*
X10332657Y8120609D01*
Y7889969D01*
X10319957Y7882219D01*
X10314629Y7884958D01*
X10309500Y7899419D01*
X10309263Y7899681D01*
X10307269Y7909706D01*
X10299534Y7921283D01*
X10287956Y7929019D01*
X10274300Y7931735D01*
X10260644Y7929019D01*
X10249066Y7921283D01*
X10241331Y7909706D01*
X10238614Y7896050D01*
X10240671Y7885708D01*
X10229623Y7878796D01*
X10190543Y7917876D01*
Y8158709D01*
X10269702Y8237869D01*
X10290369Y8245200D01*
X10290631Y8245437D01*
X10300656Y8247431D01*
X10312234Y8255166D01*
X10319969Y8266744D01*
X10322686Y8280400D01*
X10319969Y8294056D01*
X10312234Y8305634D01*
X10300656Y8313369D01*
X10287000Y8316086D01*
X10273344Y8313369D01*
X10261766Y8305634D01*
X10254031Y8294056D01*
X10252037Y8284031D01*
X10251800Y8283769D01*
X10244469Y8263102D01*
X10160083Y8178717D01*
X10156215Y8172928D01*
X10154857Y8166100D01*
Y7910486D01*
X10156215Y7903657D01*
X10160083Y7897869D01*
X10256457Y7801495D01*
Y7636905D01*
X10247028Y7617108D01*
X10247009Y7616755D01*
X10241331Y7608256D01*
X10238614Y7594600D01*
X10241331Y7580944D01*
X10249066Y7569366D01*
X10260644Y7561631D01*
X10274300Y7558914D01*
X10287956Y7561631D01*
X10294557Y7566041D01*
X10307257Y7559806D01*
Y7484505D01*
X10297828Y7464708D01*
X10297809Y7464355D01*
X10292131Y7455856D01*
X10289414Y7442200D01*
X10292131Y7428544D01*
X10299866Y7416966D01*
X10311444Y7409231D01*
X10325100Y7406514D01*
X10338756Y7409231D01*
X10350334Y7416966D01*
X10358069Y7428544D01*
X10360786Y7442200D01*
X10358069Y7455856D01*
X10352391Y7464355D01*
X10352372Y7464708D01*
X10342943Y7484505D01*
Y7617132D01*
X10354676Y7621992D01*
X10383457Y7593211D01*
Y7383651D01*
X10274383Y7274577D01*
X10270515Y7268789D01*
X10269157Y7261960D01*
Y7065405D01*
X10259728Y7045608D01*
X10259709Y7045255D01*
X10254031Y7036756D01*
X10251314Y7023100D01*
X10254031Y7009444D01*
X10261766Y6997866D01*
X10273344Y6990131D01*
X10287000Y6987414D01*
X10300656Y6990131D01*
X10312234Y6997866D01*
X10319969Y7009444D01*
X10322686Y7023100D01*
X10319969Y7036756D01*
X10314291Y7045255D01*
X10314272Y7045608D01*
X10304843Y7065405D01*
Y7217862D01*
X10317543Y7224098D01*
X10324144Y7219687D01*
X10337800Y7216971D01*
X10351456Y7219687D01*
X10355028Y7222073D01*
X10363366Y7213433D01*
X10361533Y7210690D01*
X10355631Y7201856D01*
X10352914Y7188200D01*
X10355631Y7174544D01*
X10361309Y7166045D01*
X10361328Y7165692D01*
X10370757Y7145895D01*
Y6868197D01*
X10372115Y6861369D01*
X10375983Y6855580D01*
X10396157Y6835406D01*
Y6243783D01*
X10342768Y6167388D01*
X10342679Y6167321D01*
X10326650Y6146431D01*
X10316574Y6122105D01*
X10313137Y6096000D01*
X10316574Y6069895D01*
X10326650Y6045569D01*
X10342679Y6024679D01*
X10363569Y6008650D01*
X10387895Y5998574D01*
X10414000Y5995137D01*
X10440105Y5998574D01*
X10464431Y6008650D01*
X10485321Y6024679D01*
X10501350Y6045569D01*
X10511426Y6069895D01*
X10514863Y6096000D01*
X10511426Y6122105D01*
X10501350Y6146431D01*
X10485321Y6167321D01*
X10485233Y6167388D01*
X10431843Y6243783D01*
Y6842797D01*
X10430485Y6849625D01*
X10426617Y6855414D01*
X10406443Y6875588D01*
Y7145895D01*
X10415872Y7165692D01*
X10415891Y7166045D01*
X10421569Y7174544D01*
X10424286Y7188200D01*
X10421569Y7201856D01*
X10413834Y7213434D01*
X10402256Y7221169D01*
X10388600Y7223886D01*
X10374944Y7221169D01*
X10371372Y7218783D01*
X10363034Y7227423D01*
X10364867Y7230166D01*
X10370769Y7239000D01*
X10373486Y7252656D01*
X10370769Y7266313D01*
X10363034Y7277890D01*
X10352897Y7284663D01*
X10349740Y7291283D01*
X10347836Y7297562D01*
X10413917Y7363644D01*
X10417785Y7369432D01*
X10419143Y7376260D01*
Y7457363D01*
X10431843Y7462624D01*
X10549269Y7345198D01*
X10556600Y7324531D01*
X10556837Y7324269D01*
X10558831Y7314244D01*
X10566566Y7302666D01*
X10578144Y7294931D01*
X10591800Y7292214D01*
X10605456Y7294931D01*
X10617034Y7302666D01*
X10624769Y7314244D01*
X10627486Y7327900D01*
X10624769Y7341556D01*
X10617034Y7353134D01*
X10605456Y7360869D01*
X10595431Y7362863D01*
X10595169Y7363100D01*
X10574502Y7370431D01*
X10457243Y7487691D01*
Y7660007D01*
X10455885Y7666835D01*
X10452017Y7672623D01*
X10431843Y7692797D01*
Y8234217D01*
X10485232Y8310612D01*
X10485321Y8310679D01*
X10501350Y8331569D01*
X10511426Y8355895D01*
X10514863Y8382000D01*
X10511426Y8408105D01*
X10501350Y8432431D01*
X10485321Y8453321D01*
X10464431Y8469350D01*
X10440105Y8479426D01*
X10414000Y8482863D01*
D02*
G37*
G36*
X15268880Y7656000D02*
X15175250D01*
Y7600396D01*
X15200250D01*
X15218523Y7602802D01*
X15235551Y7609855D01*
X15250174Y7621075D01*
X15261394Y7635698D01*
X15268448Y7652726D01*
X15268880Y7656000D01*
D02*
G37*
G36*
X15145250D02*
X15051620D01*
X15052052Y7652726D01*
X15059105Y7635698D01*
X15070325Y7621075D01*
X15084949Y7609855D01*
X15101976Y7602802D01*
X15120250Y7600396D01*
X15145250D01*
Y7656000D01*
D02*
G37*
G36*
X14865878Y7656001D02*
X14757249D01*
Y7600396D01*
X14797250D01*
X14815524Y7602802D01*
X14832552Y7609855D01*
X14847176Y7621075D01*
X14858395Y7635698D01*
X14865448Y7652726D01*
X14865878Y7656001D01*
D02*
G37*
G36*
X14727251D02*
X14618620D01*
X14619052Y7652726D01*
X14626105Y7635698D01*
X14637325Y7621075D01*
X14651949Y7609855D01*
X14668976Y7602802D01*
X14687250Y7600396D01*
X14727251D01*
Y7656001D01*
D02*
G37*
G36*
X14792250Y7571333D02*
X14775667Y7568034D01*
X14761609Y7558641D01*
X14752216Y7544583D01*
X14748917Y7528000D01*
X14752216Y7511417D01*
X14761609Y7497359D01*
X14775667Y7487966D01*
X14792250Y7484667D01*
X14808832Y7487966D01*
X14822891Y7497359D01*
X14832285Y7511417D01*
X14835582Y7528000D01*
X14832285Y7544583D01*
X14822891Y7558641D01*
X14808832Y7568034D01*
X14792250Y7571333D01*
D02*
G37*
G36*
X10565563Y7546224D02*
X10551907Y7543507D01*
X10540329Y7535772D01*
X10532594Y7524194D01*
X10529877Y7510538D01*
X10532594Y7496882D01*
X10540329Y7485304D01*
X10551907Y7477569D01*
X10565563Y7474852D01*
X10579219Y7477569D01*
X10590796Y7485304D01*
X10598532Y7496882D01*
X10601249Y7510538D01*
X10598532Y7524194D01*
X10590796Y7535772D01*
X10579219Y7543507D01*
X10565563Y7546224D01*
D02*
G37*
G36*
X10922000Y8482863D02*
X10895895Y8479426D01*
X10871569Y8469350D01*
X10850679Y8453321D01*
X10834650Y8432431D01*
X10824574Y8408105D01*
X10821137Y8382000D01*
X10824574Y8355895D01*
X10834650Y8331569D01*
X10850679Y8310679D01*
X10850767Y8310612D01*
X10904157Y8234217D01*
Y7912794D01*
X10731583Y7740220D01*
X10727715Y7734432D01*
X10726357Y7727603D01*
Y7453811D01*
X10723943Y7451610D01*
X10711243Y7457218D01*
Y7880003D01*
X10709885Y7886831D01*
X10706017Y7892620D01*
X10685843Y7912794D01*
Y8234217D01*
X10739232Y8310612D01*
X10739321Y8310679D01*
X10755350Y8331569D01*
X10765426Y8355895D01*
X10768863Y8382000D01*
X10765426Y8408105D01*
X10755350Y8432431D01*
X10739321Y8453321D01*
X10718431Y8469350D01*
X10694105Y8479426D01*
X10668000Y8482863D01*
X10641895Y8479426D01*
X10617569Y8469350D01*
X10596679Y8453321D01*
X10580650Y8432431D01*
X10570574Y8408105D01*
X10567137Y8382000D01*
X10570574Y8355895D01*
X10580650Y8331569D01*
X10596679Y8310679D01*
X10596767Y8310612D01*
X10650157Y8234217D01*
Y7905403D01*
X10651515Y7898575D01*
X10655383Y7892787D01*
X10675557Y7872613D01*
Y7395605D01*
X10666128Y7375808D01*
X10666109Y7375455D01*
X10660431Y7366956D01*
X10657714Y7353300D01*
X10660431Y7339644D01*
X10668166Y7328066D01*
X10679744Y7320331D01*
X10693400Y7317614D01*
X10707056Y7320331D01*
X10718634Y7328066D01*
X10726369Y7339644D01*
X10729086Y7353300D01*
X10728009Y7358713D01*
X10738787Y7369491D01*
X10744200Y7368414D01*
X10757856Y7371131D01*
X10769434Y7378866D01*
X10777169Y7390444D01*
X10779886Y7404100D01*
X10777169Y7417756D01*
X10771491Y7426255D01*
X10771472Y7426608D01*
X10762043Y7446405D01*
Y7720213D01*
X10934617Y7892787D01*
X10938485Y7898575D01*
X10939843Y7905403D01*
Y8234217D01*
X10993232Y8310612D01*
X10993321Y8310679D01*
X11009350Y8331569D01*
X11019426Y8355895D01*
X11022863Y8382000D01*
X11019426Y8408105D01*
X11009350Y8432431D01*
X10993321Y8453321D01*
X10972431Y8469350D01*
X10948105Y8479426D01*
X10922000Y8482863D01*
D02*
G37*
G36*
X14681200Y7871586D02*
X14667545Y7868869D01*
X14655966Y7861134D01*
X14648232Y7849556D01*
X14645514Y7835900D01*
X14648232Y7822244D01*
X14655966Y7810666D01*
X14667545Y7802931D01*
X14677570Y7800937D01*
X14677831Y7800700D01*
X14698499Y7793369D01*
X14730983Y7760883D01*
X14736772Y7757015D01*
X14743600Y7755657D01*
X14832317D01*
X14881908Y7706066D01*
Y7490340D01*
X14802332Y7410765D01*
X14780881Y7399792D01*
X14780502Y7399349D01*
X14778593Y7398969D01*
X14767017Y7391234D01*
X14759280Y7379656D01*
X14756564Y7366000D01*
X14759280Y7352344D01*
X14767017Y7340766D01*
X14778593Y7333031D01*
X14792250Y7330314D01*
X14805907Y7333031D01*
X14817484Y7340766D01*
X14825220Y7352344D01*
X14827936Y7366000D01*
X14826939Y7371007D01*
X14831151Y7389118D01*
X14912366Y7470333D01*
X14916234Y7476121D01*
X14917592Y7482950D01*
Y7713457D01*
X14916234Y7720285D01*
X14912366Y7726073D01*
X14852322Y7786117D01*
X14846535Y7789984D01*
X14839706Y7791343D01*
X14750990D01*
X14723730Y7818602D01*
X14716400Y7839269D01*
X14716164Y7839531D01*
X14714169Y7849556D01*
X14706435Y7861134D01*
X14694856Y7868869D01*
X14681200Y7871586D01*
D02*
G37*
G36*
X10439400Y7354235D02*
X10425744Y7351519D01*
X10414166Y7343783D01*
X10406431Y7332206D01*
X10403714Y7318549D01*
X10406431Y7304893D01*
X10414166Y7293316D01*
X10425744Y7285580D01*
X10439400Y7282864D01*
X10453056Y7285580D01*
X10464634Y7293316D01*
X10472369Y7304893D01*
X10475086Y7318549D01*
X10472369Y7332206D01*
X10464634Y7343783D01*
X10453056Y7351519D01*
X10439400Y7354235D01*
D02*
G37*
G36*
X11734800Y7287386D02*
X11721144Y7284669D01*
X11709566Y7276934D01*
X11701831Y7265356D01*
X11699114Y7251700D01*
X11701831Y7238044D01*
X11709566Y7226466D01*
X11721144Y7218731D01*
X11734800Y7216014D01*
X11748456Y7218731D01*
X11760034Y7226466D01*
X11767769Y7238044D01*
X11770486Y7251700D01*
X11767769Y7265356D01*
X11760034Y7276934D01*
X11748456Y7284669D01*
X11734800Y7287386D01*
D02*
G37*
G36*
X11849100Y7315200D02*
X11835444Y7312483D01*
X11823866Y7304748D01*
X11816131Y7293171D01*
X11813414Y7279514D01*
X11816131Y7265858D01*
X11823866Y7254281D01*
X11835444Y7246545D01*
X11843142Y7245014D01*
X11843702Y7244475D01*
X11864697Y7236269D01*
X11913461Y7187506D01*
Y7186538D01*
X11906057Y7163605D01*
X11906103Y7163028D01*
X11905031Y7161423D01*
X11902314Y7147767D01*
X11905031Y7134110D01*
X11912766Y7122533D01*
X11924344Y7114797D01*
X11938000Y7112081D01*
X11951656Y7114797D01*
X11963234Y7122533D01*
X11970969Y7134110D01*
X11973686Y7147767D01*
X11970969Y7161423D01*
X11963234Y7173000D01*
X11958973Y7175847D01*
X11949146Y7191621D01*
Y7194897D01*
X11947788Y7201725D01*
X11943920Y7207513D01*
X11890827Y7260606D01*
X11884777Y7279470D01*
X11884786Y7279514D01*
X11882069Y7293171D01*
X11874334Y7304748D01*
X11862756Y7312483D01*
X11849100Y7315200D01*
D02*
G37*
G36*
X13931900Y7128645D02*
X13918243Y7125928D01*
X13906667Y7118193D01*
X13898930Y7106615D01*
X13896214Y7092959D01*
X13898930Y7079303D01*
X13906667Y7067725D01*
X13918243Y7059990D01*
X13931900Y7057273D01*
X13945557Y7059990D01*
X13957133Y7067725D01*
X13964870Y7079303D01*
X13967586Y7092959D01*
X13964870Y7106615D01*
X13957133Y7118193D01*
X13945557Y7125928D01*
X13931900Y7128645D01*
D02*
G37*
G36*
X13665199Y7018360D02*
X13651544Y7015643D01*
X13639966Y7007907D01*
X13634155Y6999211D01*
X13630270Y6998293D01*
X13623930D01*
X13620044Y6999211D01*
X13614233Y7007907D01*
X13602657Y7015643D01*
X13589000Y7018360D01*
X13575343Y7015643D01*
X13563766Y7007907D01*
X13556030Y6996330D01*
X13553314Y6982674D01*
X13556030Y6969018D01*
X13563766Y6957440D01*
X13575343Y6949705D01*
X13589000Y6946988D01*
X13602657Y6949705D01*
X13614233Y6957440D01*
X13620044Y6966136D01*
X13623930Y6967055D01*
X13630270D01*
X13634155Y6966136D01*
X13639966Y6957440D01*
X13651544Y6949705D01*
X13665199Y6946988D01*
X13678856Y6949705D01*
X13690434Y6957440D01*
X13698169Y6969018D01*
X13700887Y6982674D01*
X13698169Y6996330D01*
X13690434Y7007907D01*
X13678856Y7015643D01*
X13665199Y7018360D01*
D02*
G37*
G36*
X13752600Y7020686D02*
X13738943Y7017969D01*
X13727367Y7010234D01*
X13719630Y6998656D01*
X13716914Y6985000D01*
X13719630Y6971344D01*
X13727367Y6959766D01*
X13738943Y6952031D01*
X13752600Y6949314D01*
X13766257Y6952031D01*
X13777834Y6959766D01*
X13785568Y6971344D01*
X13788286Y6985000D01*
X13785568Y6998656D01*
X13777834Y7010234D01*
X13766257Y7017969D01*
X13752600Y7020686D01*
D02*
G37*
G36*
X13500101D02*
X13486444Y7017969D01*
X13474866Y7010234D01*
X13467131Y6998656D01*
X13464413Y6985000D01*
X13467131Y6971344D01*
X13474866Y6959766D01*
X13486444Y6952031D01*
X13500101Y6949314D01*
X13513756Y6952031D01*
X13525334Y6959766D01*
X13533069Y6971344D01*
X13535786Y6985000D01*
X13533069Y6998656D01*
X13525334Y7010234D01*
X13513756Y7017969D01*
X13500101Y7020686D01*
D02*
G37*
G36*
X10477500Y6906386D02*
X10463844Y6903669D01*
X10452266Y6895934D01*
X10444531Y6884356D01*
X10441814Y6870700D01*
X10444531Y6857044D01*
X10452266Y6845466D01*
X10463844Y6837731D01*
X10477500Y6835014D01*
X10491156Y6837731D01*
X10502734Y6845466D01*
X10510469Y6857044D01*
X10513186Y6870700D01*
X10510469Y6884356D01*
X10502734Y6895934D01*
X10491156Y6903669D01*
X10477500Y6906386D01*
D02*
G37*
G36*
X14797250Y6877604D02*
X14757249D01*
Y6822000D01*
X14865878D01*
X14865448Y6825274D01*
X14858395Y6842302D01*
X14847176Y6856925D01*
X14832552Y6868145D01*
X14815524Y6875198D01*
X14797250Y6877604D01*
D02*
G37*
G36*
X14727249D02*
X14687250D01*
X14668976Y6875198D01*
X14651949Y6868145D01*
X14637325Y6856925D01*
X14626105Y6842302D01*
X14619052Y6825274D01*
X14618620Y6822000D01*
X14727249D01*
Y6877604D01*
D02*
G37*
G36*
X15200250D02*
X15175250D01*
Y6822000D01*
X15268880D01*
X15268448Y6825274D01*
X15261394Y6842302D01*
X15250174Y6856925D01*
X15235551Y6868145D01*
X15218523Y6875198D01*
X15200250Y6877604D01*
D02*
G37*
G36*
X15145250D02*
X15120250D01*
X15101976Y6875198D01*
X15084949Y6868145D01*
X15070325Y6856925D01*
X15059105Y6842302D01*
X15052052Y6825274D01*
X15051620Y6822000D01*
X15145250D01*
Y6877604D01*
D02*
G37*
G36*
X15268880Y6792000D02*
X15175250D01*
Y6736396D01*
X15200250D01*
X15218523Y6738802D01*
X15235551Y6745855D01*
X15250174Y6757076D01*
X15261394Y6771698D01*
X15268448Y6788727D01*
X15268880Y6792000D01*
D02*
G37*
G36*
X15145250D02*
X15051620D01*
X15052052Y6788727D01*
X15059105Y6771698D01*
X15070325Y6757076D01*
X15084949Y6745855D01*
X15101976Y6738802D01*
X15120250Y6736396D01*
X15145250D01*
Y6792000D01*
D02*
G37*
G36*
X14865878Y6792000D02*
X14757249D01*
Y6736396D01*
X14797250D01*
X14815524Y6738802D01*
X14832552Y6745855D01*
X14847176Y6757076D01*
X14858395Y6771698D01*
X14865448Y6788727D01*
X14865878Y6792000D01*
D02*
G37*
G36*
X14727249D02*
X14618620D01*
X14619052Y6788727D01*
X14626105Y6771698D01*
X14637325Y6757076D01*
X14651949Y6745855D01*
X14668976Y6738802D01*
X14687250Y6736396D01*
X14727249D01*
Y6792000D01*
D02*
G37*
G36*
X15000999Y6698829D02*
Y6619000D01*
X15056604D01*
Y6630200D01*
X15054198Y6648474D01*
X15047145Y6665502D01*
X15035924Y6680125D01*
X15021301Y6691345D01*
X15004274Y6698398D01*
X15000999Y6698829D01*
D02*
G37*
G36*
X14971001D02*
X14967726Y6698398D01*
X14950697Y6691345D01*
X14936076Y6680125D01*
X14924855Y6665502D01*
X14917802Y6648474D01*
X14915396Y6630200D01*
Y6619000D01*
X14971001D01*
Y6698829D01*
D02*
G37*
G36*
X14439900Y6818602D02*
X14426244Y6815885D01*
X14414667Y6808150D01*
X14406931Y6796572D01*
X14404214Y6782916D01*
X14406931Y6769260D01*
X14412608Y6760761D01*
X14412628Y6760408D01*
X14422057Y6740611D01*
Y6691301D01*
X14423415Y6684473D01*
X14427283Y6678684D01*
X14429112Y6676856D01*
X14431616Y6668778D01*
X14421481Y6653611D01*
X14416824Y6630200D01*
Y6577800D01*
X14421481Y6554389D01*
X14434743Y6534542D01*
X14454588Y6521281D01*
X14478000Y6516625D01*
X14501411Y6521281D01*
X14521257Y6534542D01*
X14534518Y6554389D01*
X14539175Y6577800D01*
Y6630200D01*
X14534518Y6653611D01*
X14521257Y6673458D01*
X14501411Y6686719D01*
X14478000Y6691375D01*
X14474258Y6690632D01*
X14458157Y6698276D01*
X14457742Y6698691D01*
Y6740611D01*
X14467172Y6760408D01*
X14467191Y6760761D01*
X14472868Y6769260D01*
X14475586Y6782916D01*
X14472868Y6796572D01*
X14465134Y6808150D01*
X14453555Y6815885D01*
X14439900Y6818602D01*
D02*
G37*
G36*
X15056604Y6589000D02*
X14915396D01*
Y6577800D01*
X14917802Y6559526D01*
X14924855Y6542498D01*
X14936076Y6527875D01*
X14950697Y6516655D01*
X14967726Y6509602D01*
X14968156Y6509545D01*
Y6243783D01*
X14932639Y6192960D01*
X14930525Y6192085D01*
X14907547Y6174453D01*
X14889915Y6151475D01*
X14878831Y6124716D01*
X14877026Y6111000D01*
X14986000D01*
X15094974D01*
X15093169Y6124716D01*
X15082085Y6151475D01*
X15064453Y6174453D01*
X15041475Y6192085D01*
X15039362Y6192960D01*
X15003844Y6243783D01*
Y6509545D01*
X15004274Y6509602D01*
X15021301Y6516655D01*
X15035924Y6527875D01*
X15047145Y6542498D01*
X15054198Y6559526D01*
X15056604Y6577800D01*
Y6589000D01*
D02*
G37*
G36*
X15239999Y6196863D02*
X15213895Y6193426D01*
X15189569Y6183350D01*
X15168678Y6167321D01*
X15152650Y6146431D01*
X15142574Y6122105D01*
X15139137Y6096000D01*
X15142574Y6069895D01*
X15152650Y6045569D01*
X15168678Y6024679D01*
X15189569Y6008650D01*
X15213895Y5998574D01*
X15239999Y5995137D01*
X15266106Y5998574D01*
X15290431Y6008650D01*
X15311320Y6024679D01*
X15327350Y6045569D01*
X15337427Y6069895D01*
X15340863Y6096000D01*
X15337427Y6122105D01*
X15327350Y6146431D01*
X15311320Y6167321D01*
X15290431Y6183350D01*
X15266106Y6193426D01*
X15239999Y6196863D01*
D02*
G37*
G36*
X10682596Y7156885D02*
X10668939Y7154169D01*
X10657362Y7146433D01*
X10649626Y7134856D01*
X10647632Y7124831D01*
X10647396Y7124568D01*
X10640065Y7103902D01*
X10592683Y7056521D01*
X10588815Y7050732D01*
X10587457Y7043904D01*
Y6645700D01*
X10588815Y6638872D01*
X10592683Y6633083D01*
X10650157Y6575609D01*
Y6243783D01*
X10596768Y6167388D01*
X10596679Y6167321D01*
X10580650Y6146431D01*
X10570574Y6122105D01*
X10567137Y6096000D01*
X10570574Y6069895D01*
X10580650Y6045569D01*
X10596679Y6024679D01*
X10617569Y6008650D01*
X10641895Y5998574D01*
X10668000Y5995137D01*
X10694105Y5998574D01*
X10718431Y6008650D01*
X10739321Y6024679D01*
X10755350Y6045569D01*
X10765426Y6069895D01*
X10768863Y6096000D01*
X10765426Y6122105D01*
X10755350Y6146431D01*
X10739321Y6167321D01*
X10739233Y6167388D01*
X10685843Y6243783D01*
Y6583000D01*
X10684485Y6589828D01*
X10680617Y6595617D01*
X10623143Y6653091D01*
Y6674930D01*
X10634876Y6679791D01*
X10751757Y6562909D01*
Y6464300D01*
X10753115Y6457472D01*
X10756983Y6451683D01*
X10904157Y6304509D01*
Y6243783D01*
X10850768Y6167388D01*
X10850679Y6167321D01*
X10834650Y6146431D01*
X10824574Y6122105D01*
X10821137Y6096000D01*
X10824574Y6069895D01*
X10834650Y6045569D01*
X10850679Y6024679D01*
X10871569Y6008650D01*
X10895895Y5998574D01*
X10922000Y5995137D01*
X10948105Y5998574D01*
X10972431Y6008650D01*
X10993321Y6024679D01*
X11009350Y6045569D01*
X11019426Y6069895D01*
X11022863Y6096000D01*
X11019426Y6122105D01*
X11009350Y6146431D01*
X10993321Y6167321D01*
X10993233Y6167388D01*
X10939843Y6243783D01*
Y6311900D01*
X10938485Y6318728D01*
X10934617Y6324517D01*
X10787443Y6471691D01*
Y6570300D01*
X10786085Y6577128D01*
X10782217Y6582917D01*
X10648143Y6716991D01*
Y6749624D01*
X10660843Y6754885D01*
X10910174Y6505554D01*
X10915962Y6501686D01*
X10922791Y6500328D01*
X10950918D01*
X11158157Y6293089D01*
Y6243783D01*
X11104768Y6167388D01*
X11104679Y6167321D01*
X11088650Y6146431D01*
X11078574Y6122105D01*
X11075137Y6096000D01*
X11078574Y6069895D01*
X11088650Y6045569D01*
X11104679Y6024679D01*
X11125569Y6008650D01*
X11149895Y5998574D01*
X11176000Y5995137D01*
X11202105Y5998574D01*
X11226431Y6008650D01*
X11247321Y6024679D01*
X11263350Y6045569D01*
X11273426Y6069895D01*
X11276863Y6096000D01*
X11273426Y6122105D01*
X11263350Y6146431D01*
X11247321Y6167321D01*
X11247233Y6167388D01*
X11193843Y6243783D01*
Y6300479D01*
X11192485Y6307307D01*
X11188617Y6313096D01*
X10970925Y6530787D01*
X10965137Y6534655D01*
X10958309Y6536013D01*
X10930181D01*
X10868199Y6597995D01*
X10873059Y6609729D01*
X10914609D01*
X11237755Y6286583D01*
X11243543Y6282715D01*
X11250371Y6281357D01*
X11364180D01*
X11407878Y6237659D01*
X11358768Y6167388D01*
X11358679Y6167321D01*
X11342650Y6146431D01*
X11332574Y6122105D01*
X11329137Y6096000D01*
X11332574Y6069895D01*
X11342650Y6045569D01*
X11358679Y6024679D01*
X11379569Y6008650D01*
X11403895Y5998574D01*
X11430000Y5995137D01*
X11456105Y5998574D01*
X11480431Y6008650D01*
X11501321Y6024679D01*
X11517350Y6045569D01*
X11527426Y6069895D01*
X11530863Y6096000D01*
X11527426Y6122105D01*
X11517350Y6146431D01*
X11501321Y6167321D01*
X11501233Y6167388D01*
X11447005Y6244981D01*
X11446485Y6247599D01*
X11442617Y6253387D01*
X11384187Y6311817D01*
X11378399Y6315685D01*
X11371570Y6317043D01*
X11268094D01*
X11266481Y6319457D01*
X11273269Y6332157D01*
X11575009D01*
X11665016Y6242150D01*
X11612768Y6167388D01*
X11612679Y6167321D01*
X11596650Y6146431D01*
X11586574Y6122105D01*
X11583137Y6096000D01*
X11586574Y6069895D01*
X11596650Y6045569D01*
X11612679Y6024679D01*
X11633569Y6008650D01*
X11657895Y5998574D01*
X11684000Y5995137D01*
X11710105Y5998574D01*
X11734431Y6008650D01*
X11755321Y6024679D01*
X11771350Y6045569D01*
X11781426Y6069895D01*
X11784863Y6096000D01*
X11781426Y6122105D01*
X11771350Y6146431D01*
X11755321Y6167321D01*
X11755233Y6167388D01*
X11701843Y6243783D01*
Y6248400D01*
X11700485Y6255228D01*
X11696617Y6261017D01*
X11600076Y6357557D01*
X11605337Y6370257D01*
X11853912D01*
X11920157Y6304012D01*
Y6243783D01*
X11866768Y6167388D01*
X11866679Y6167321D01*
X11850650Y6146431D01*
X11840574Y6122105D01*
X11837137Y6096000D01*
X11840574Y6069895D01*
X11850650Y6045569D01*
X11866679Y6024679D01*
X11887569Y6008650D01*
X11911895Y5998574D01*
X11938000Y5995137D01*
X11964105Y5998574D01*
X11988431Y6008650D01*
X12009321Y6024679D01*
X12025350Y6045569D01*
X12035426Y6069895D01*
X12038863Y6096000D01*
X12035426Y6122105D01*
X12025350Y6146431D01*
X12009321Y6167321D01*
X12009233Y6167388D01*
X11955843Y6243783D01*
Y6311402D01*
X11954485Y6318230D01*
X11950617Y6324019D01*
X11873919Y6400717D01*
X11868130Y6404585D01*
X11861302Y6405943D01*
X11296701D01*
X11295087Y6408357D01*
X11301876Y6421057D01*
X12077879D01*
X12174157Y6324779D01*
Y6243783D01*
X12120768Y6167388D01*
X12120679Y6167321D01*
X12104650Y6146431D01*
X12094574Y6122105D01*
X12091137Y6096000D01*
X12094574Y6069895D01*
X12104650Y6045569D01*
X12120679Y6024679D01*
X12141569Y6008650D01*
X12165895Y5998574D01*
X12192000Y5995137D01*
X12218105Y5998574D01*
X12242431Y6008650D01*
X12263321Y6024679D01*
X12279350Y6045569D01*
X12289426Y6069895D01*
X12292863Y6096000D01*
X12289426Y6122105D01*
X12279350Y6146431D01*
X12263321Y6167321D01*
X12263233Y6167388D01*
X12209843Y6243783D01*
Y6332169D01*
X12208485Y6338997D01*
X12204617Y6344786D01*
X12102945Y6446457D01*
X12108206Y6459157D01*
X12260809D01*
X12428157Y6291809D01*
Y6243783D01*
X12374768Y6167388D01*
X12374679Y6167321D01*
X12358650Y6146431D01*
X12348574Y6122105D01*
X12345137Y6096000D01*
X12348574Y6069895D01*
X12358650Y6045569D01*
X12374679Y6024679D01*
X12395569Y6008650D01*
X12419895Y5998574D01*
X12446000Y5995137D01*
X12472105Y5998574D01*
X12496431Y6008650D01*
X12517321Y6024679D01*
X12533350Y6045569D01*
X12543426Y6069895D01*
X12546863Y6096000D01*
X12543426Y6122105D01*
X12533350Y6146431D01*
X12517321Y6167321D01*
X12517233Y6167388D01*
X12463843Y6243783D01*
Y6299200D01*
X12462485Y6306028D01*
X12458617Y6311817D01*
X12282806Y6487628D01*
X12284540Y6495455D01*
X12287646Y6500328D01*
X12586967D01*
X12682157Y6405137D01*
Y6243783D01*
X12628768Y6167388D01*
X12628679Y6167321D01*
X12612650Y6146431D01*
X12602574Y6122105D01*
X12599137Y6096000D01*
X12602574Y6069895D01*
X12612650Y6045569D01*
X12628679Y6024679D01*
X12649569Y6008650D01*
X12673895Y5998574D01*
X12700000Y5995137D01*
X12726105Y5998574D01*
X12750431Y6008650D01*
X12771321Y6024679D01*
X12787350Y6045569D01*
X12797426Y6069895D01*
X12800864Y6096000D01*
X12797426Y6122105D01*
X12787350Y6146431D01*
X12771321Y6167321D01*
X12771233Y6167388D01*
X12717843Y6243783D01*
Y6412528D01*
X12716485Y6419356D01*
X12712617Y6425144D01*
X12616780Y6520981D01*
X12615859Y6524579D01*
X12617569Y6538153D01*
X12631873Y6552457D01*
X12838950D01*
X12842044Y6546670D01*
X12844493Y6539757D01*
X12842114Y6527800D01*
X12844830Y6514144D01*
X12852567Y6502566D01*
X12864143Y6494831D01*
X12877800Y6492114D01*
X12891457Y6494831D01*
X12903033Y6502566D01*
X12909807Y6512703D01*
X12916428Y6515860D01*
X12922707Y6517764D01*
X12936157Y6504313D01*
Y6243783D01*
X12882768Y6167388D01*
X12882680Y6167321D01*
X12866650Y6146431D01*
X12856573Y6122105D01*
X12853137Y6096000D01*
X12856573Y6069895D01*
X12866650Y6045569D01*
X12882680Y6024679D01*
X12903569Y6008650D01*
X12927895Y5998574D01*
X12953999Y5995137D01*
X12980106Y5998574D01*
X13004431Y6008650D01*
X13025320Y6024679D01*
X13041350Y6045569D01*
X13051427Y6069895D01*
X13054863Y6096000D01*
X13051427Y6122105D01*
X13041350Y6146431D01*
X13025320Y6167321D01*
X13025233Y6167388D01*
X12971843Y6243783D01*
Y6511704D01*
X12970485Y6518532D01*
X12966617Y6524321D01*
X12917480Y6573457D01*
X12922742Y6586157D01*
X12984709D01*
X13190157Y6380709D01*
Y6243783D01*
X13136768Y6167388D01*
X13136679Y6167321D01*
X13120650Y6146431D01*
X13110574Y6122105D01*
X13107137Y6096000D01*
X13110574Y6069895D01*
X13120650Y6045569D01*
X13136679Y6024679D01*
X13157568Y6008650D01*
X13181895Y5998574D01*
X13208000Y5995137D01*
X13234105Y5998574D01*
X13258430Y6008650D01*
X13279321Y6024679D01*
X13295351Y6045569D01*
X13305426Y6069895D01*
X13308862Y6096000D01*
X13305426Y6122105D01*
X13295351Y6146431D01*
X13279321Y6167321D01*
X13279233Y6167388D01*
X13225842Y6243783D01*
Y6388100D01*
X13224484Y6394928D01*
X13220618Y6400717D01*
X13014694Y6606640D01*
X13016304Y6622990D01*
X13018962Y6624766D01*
X13026698Y6636344D01*
X13028139Y6643581D01*
X13041798Y6647880D01*
X13225296Y6464383D01*
X13231084Y6460515D01*
X13237912Y6459157D01*
X13314909D01*
X13444157Y6329909D01*
Y6243783D01*
X13390768Y6167388D01*
X13390678Y6167321D01*
X13374651Y6146431D01*
X13364574Y6122105D01*
X13361137Y6096000D01*
X13364574Y6069895D01*
X13374651Y6045569D01*
X13390678Y6024679D01*
X13411569Y6008650D01*
X13435895Y5998574D01*
X13462000Y5995137D01*
X13488104Y5998574D01*
X13512431Y6008650D01*
X13533321Y6024679D01*
X13549350Y6045569D01*
X13559425Y6069895D01*
X13562863Y6096000D01*
X13559425Y6122105D01*
X13549350Y6146431D01*
X13533321Y6167321D01*
X13533234Y6167388D01*
X13479843Y6243783D01*
Y6337300D01*
X13478485Y6344128D01*
X13474617Y6349917D01*
X13334917Y6489617D01*
X13329128Y6493485D01*
X13322301Y6494843D01*
X13245303D01*
X13035030Y6705117D01*
X13029240Y6708985D01*
X13022412Y6710343D01*
X12647451D01*
X12640623Y6708985D01*
X12638660Y6707672D01*
X12280900D01*
X12274072Y6706314D01*
X12268283Y6702446D01*
X12263655Y6697818D01*
X11488022D01*
X11459983Y6725857D01*
X11465244Y6738557D01*
X11924974D01*
X11931803Y6739915D01*
X11937591Y6743783D01*
X11957765Y6763957D01*
X12527509D01*
X12560383Y6731083D01*
X12566172Y6727215D01*
X12573000Y6725857D01*
X13060909D01*
X13068382Y6718383D01*
X13074171Y6714515D01*
X13081000Y6713157D01*
X13266937D01*
X13273622Y6714487D01*
X13462909D01*
X13494957Y6682439D01*
Y6616700D01*
X13496315Y6609872D01*
X13500183Y6604083D01*
X13550983Y6553283D01*
X13556772Y6549415D01*
X13563600Y6548057D01*
X13607008D01*
X13698157Y6456909D01*
Y6243783D01*
X13644768Y6167388D01*
X13644679Y6167321D01*
X13628650Y6146431D01*
X13618575Y6122105D01*
X13615137Y6096000D01*
X13618575Y6069895D01*
X13628650Y6045569D01*
X13644679Y6024679D01*
X13665569Y6008650D01*
X13689896Y5998574D01*
X13716000Y5995137D01*
X13742105Y5998574D01*
X13766431Y6008650D01*
X13787321Y6024679D01*
X13803349Y6045569D01*
X13813426Y6069895D01*
X13816862Y6096000D01*
X13813426Y6122105D01*
X13803349Y6146431D01*
X13787321Y6167321D01*
X13787233Y6167388D01*
X13733842Y6243783D01*
Y6464300D01*
X13732484Y6471128D01*
X13728616Y6476917D01*
X13627017Y6578517D01*
X13621228Y6582385D01*
X13614400Y6583743D01*
X13570992D01*
X13530643Y6624091D01*
Y6689830D01*
X13529285Y6696658D01*
X13525417Y6702446D01*
X13493431Y6734432D01*
X13498691Y6747132D01*
X13550150D01*
X13553244Y6741345D01*
X13555693Y6734432D01*
X13553314Y6722475D01*
X13556030Y6708819D01*
X13563766Y6697241D01*
X13575330Y6689515D01*
X13575343Y6689445D01*
Y6676630D01*
X13575330Y6676560D01*
X13563766Y6668833D01*
X13556030Y6657256D01*
X13553314Y6643600D01*
X13556030Y6629944D01*
X13563766Y6618366D01*
X13575343Y6610631D01*
X13589000Y6607914D01*
X13602657Y6610631D01*
X13614233Y6618366D01*
X13620044Y6627062D01*
X13623930Y6627981D01*
X13630270D01*
X13634155Y6627062D01*
X13639966Y6618366D01*
X13651544Y6610631D01*
X13665199Y6607914D01*
X13678856Y6610631D01*
X13690434Y6618366D01*
X13698169Y6629944D01*
X13700887Y6643600D01*
X13698169Y6657256D01*
X13690434Y6668833D01*
X13678870Y6676560D01*
X13678857Y6676630D01*
Y6689445D01*
X13678870Y6689515D01*
X13690434Y6697241D01*
X13698169Y6708819D01*
X13700887Y6722475D01*
X13698508Y6734432D01*
X13700957Y6741345D01*
X13704050Y6747132D01*
X13728178D01*
X13901357Y6573954D01*
Y6413500D01*
X13902715Y6406672D01*
X13906583Y6400883D01*
X13952158Y6355309D01*
Y6243783D01*
X13898769Y6167388D01*
X13898679Y6167321D01*
X13882651Y6146431D01*
X13872574Y6122105D01*
X13869138Y6096000D01*
X13872574Y6069895D01*
X13882651Y6045569D01*
X13898679Y6024679D01*
X13919569Y6008650D01*
X13943895Y5998574D01*
X13970000Y5995137D01*
X13996104Y5998574D01*
X14020432Y6008650D01*
X14041321Y6024679D01*
X14057350Y6045569D01*
X14067426Y6069895D01*
X14070863Y6096000D01*
X14067426Y6122105D01*
X14057350Y6146431D01*
X14041321Y6167321D01*
X14041232Y6167388D01*
X13987843Y6243783D01*
Y6362700D01*
X13986485Y6369528D01*
X13982617Y6375317D01*
X13937044Y6420891D01*
Y6453278D01*
X13948824Y6461041D01*
X13949744Y6460933D01*
X13952983Y6456083D01*
X14071683Y6337383D01*
X14077472Y6333515D01*
X14084300Y6332157D01*
X14140408D01*
X14206157Y6266409D01*
Y6243783D01*
X14152768Y6167388D01*
X14152679Y6167321D01*
X14136650Y6146431D01*
X14126575Y6122105D01*
X14123137Y6096000D01*
X14126575Y6069895D01*
X14136650Y6045569D01*
X14152679Y6024679D01*
X14173569Y6008650D01*
X14197894Y5998574D01*
X14224001Y5995137D01*
X14250105Y5998574D01*
X14274431Y6008650D01*
X14295322Y6024679D01*
X14311349Y6045569D01*
X14321426Y6069895D01*
X14324863Y6096000D01*
X14321426Y6122105D01*
X14311349Y6146431D01*
X14295322Y6167321D01*
X14295233Y6167388D01*
X14241843Y6243783D01*
Y6273800D01*
X14240485Y6280628D01*
X14236617Y6286417D01*
X14160417Y6362617D01*
X14154628Y6366485D01*
X14147800Y6367843D01*
X14091692D01*
X13983443Y6476091D01*
Y6595700D01*
X13982085Y6602528D01*
X13978217Y6608317D01*
X13690517Y6896017D01*
X13684727Y6899885D01*
X13677901Y6901243D01*
X13101091D01*
X13030116Y6972217D01*
X13024329Y6976085D01*
X13017500Y6977443D01*
X12471400D01*
X12464572Y6976085D01*
X12458783Y6972217D01*
X12376039Y6889472D01*
X11548141D01*
X11527877Y6898702D01*
X11527258Y6898724D01*
X11519856Y6903669D01*
X11506200Y6906386D01*
X11492544Y6903669D01*
X11480966Y6895934D01*
X11473231Y6884356D01*
X11470514Y6870700D01*
X11473231Y6857044D01*
X11477315Y6850931D01*
X11469678Y6839501D01*
X11468100Y6839815D01*
X11454444Y6837099D01*
X11452243Y6835628D01*
X11439543Y6842417D01*
Y6843166D01*
X11447799Y6865091D01*
X11447769Y6866002D01*
X11450269Y6869744D01*
X11452986Y6883400D01*
X11450269Y6897056D01*
X11442534Y6908634D01*
X11430956Y6916369D01*
X11417300Y6919086D01*
X11403644Y6916369D01*
X11392066Y6908634D01*
X11384331Y6897056D01*
X11381614Y6883400D01*
X11384331Y6869744D01*
X11386049Y6867172D01*
X11379200Y6855586D01*
X11365544Y6852869D01*
X11353966Y6845134D01*
X11346231Y6833556D01*
X11343514Y6819900D01*
X11346231Y6806244D01*
X11349901Y6800751D01*
X11343650Y6792757D01*
X11341219Y6790885D01*
X11328400Y6793435D01*
X11314744Y6790718D01*
X11303166Y6782983D01*
X11295431Y6771406D01*
X11292714Y6757749D01*
X11294101Y6750781D01*
X11284053Y6740002D01*
X11277600Y6741286D01*
X11263944Y6738569D01*
X11258979Y6735252D01*
X11249945Y6732752D01*
X11242704Y6738489D01*
X11239334Y6743534D01*
X11227756Y6751269D01*
X11214100Y6753986D01*
X11200444Y6751269D01*
X11188866Y6743534D01*
X11181131Y6731956D01*
X11178414Y6718300D01*
X11181131Y6704644D01*
X11182849Y6702072D01*
X11176000Y6690486D01*
X11162344Y6687769D01*
X11150766Y6680034D01*
X11143993Y6669897D01*
X11137373Y6666740D01*
X11131094Y6664836D01*
X11080439Y6715490D01*
Y6742803D01*
X11079081Y6749632D01*
X11075213Y6755420D01*
X11002631Y6828002D01*
X10995300Y6848669D01*
X10995063Y6848931D01*
X10993069Y6858956D01*
X10985334Y6870534D01*
X10973756Y6878269D01*
X10966393Y6879734D01*
X10960039Y6881241D01*
X10957138Y6893345D01*
X10957686Y6896100D01*
X10954969Y6909756D01*
X10947234Y6921334D01*
X10935656Y6929069D01*
X10931569Y6929882D01*
X10922007Y6932019D01*
X10922350Y6943679D01*
X10922831Y6946098D01*
X10920115Y6959754D01*
X10912379Y6971331D01*
X10900802Y6979067D01*
X10887145Y6981783D01*
X10873489Y6979067D01*
X10861912Y6971331D01*
X10854176Y6959754D01*
X10851460Y6946098D01*
X10854176Y6932441D01*
X10861912Y6920864D01*
X10861916Y6920861D01*
X10862080Y6915831D01*
X10861657Y6913704D01*
Y6783765D01*
X10849924Y6778905D01*
X10803009Y6825820D01*
X10797221Y6829688D01*
X10790392Y6831046D01*
X10788055D01*
X10772280Y6840873D01*
X10769434Y6845134D01*
X10757856Y6852869D01*
X10744200Y6855586D01*
X10730544Y6852869D01*
X10727490Y6850829D01*
X10715286Y6856623D01*
X10714196Y6866263D01*
X10718717Y6870783D01*
X10722585Y6876572D01*
X10722769Y6877497D01*
X10798375Y6953104D01*
X10819042Y6960435D01*
X10819304Y6960672D01*
X10829329Y6962666D01*
X10840907Y6970401D01*
X10848642Y6981979D01*
X10851359Y6995635D01*
X10848642Y7009291D01*
X10840907Y7020869D01*
X10829329Y7028604D01*
X10815673Y7031321D01*
X10804060Y7041960D01*
X10802569Y7049456D01*
X10794834Y7061034D01*
X10783256Y7068769D01*
X10769600Y7071486D01*
X10762970Y7070167D01*
X10758885Y7074252D01*
X10756169Y7087908D01*
X10748433Y7099485D01*
X10736856Y7107221D01*
X10723200Y7109938D01*
X10721694Y7111443D01*
X10718146Y7121881D01*
X10715565Y7134856D01*
X10707829Y7146433D01*
X10696252Y7154169D01*
X10682596Y7156885D01*
D02*
G37*
G36*
X15094974Y6081000D02*
X15000999D01*
Y5987026D01*
X15014716Y5988832D01*
X15041475Y5999915D01*
X15064453Y6017547D01*
X15082085Y6040525D01*
X15093169Y6067284D01*
X15094974Y6081000D01*
D02*
G37*
G36*
X14971001D02*
X14877026D01*
X14878831Y6067284D01*
X14889915Y6040525D01*
X14907547Y6017547D01*
X14930525Y5999915D01*
X14957285Y5988832D01*
X14971001Y5987026D01*
Y6081000D01*
D02*
G37*
%LPD*%
G36*
X13977499Y8238313D02*
X13962500D01*
X13907001Y8317727D01*
X14033000D01*
X13977499Y8238313D01*
D02*
G37*
G36*
X13723500D02*
X13708501D01*
X13653000Y8317727D01*
X13778999D01*
X13723500Y8238313D01*
D02*
G37*
G36*
X13469501D02*
X13454500D01*
X13399001Y8317727D01*
X13525000D01*
X13469501Y8238313D01*
D02*
G37*
G36*
X13215500D02*
X13200500D01*
X13145000Y8317727D01*
X13271001D01*
X13215500Y8238313D01*
D02*
G37*
G36*
X12707500D02*
X12692500D01*
X12637000Y8317727D01*
X12763000D01*
X12707500Y8238313D01*
D02*
G37*
G36*
X12453500D02*
X12438500D01*
X12383000Y8317727D01*
X12509000D01*
X12453500Y8238313D01*
D02*
G37*
G36*
X11945500D02*
X11930500D01*
X11875000Y8317727D01*
X12001000D01*
X11945500Y8238313D01*
D02*
G37*
G36*
X11691500D02*
X11676500D01*
X11621000Y8317727D01*
X11747000D01*
X11691500Y8238313D01*
D02*
G37*
G36*
X11437500D02*
X11422500D01*
X11367000Y8317727D01*
X11493000D01*
X11437500Y8238313D01*
D02*
G37*
G36*
X11183500D02*
X11168500D01*
X11113000Y8317727D01*
X11239000D01*
X11183500Y8238313D01*
D02*
G37*
G36*
X12974200Y8240296D02*
X12959200Y8238150D01*
X12900700Y8309480D01*
X13025439Y8327260D01*
X12974200Y8240296D01*
D02*
G37*
G36*
X12396181Y7881050D02*
X12380876Y7888550D01*
X12381317Y7903550D01*
X12397607Y7911010D01*
X12396181Y7881050D01*
D02*
G37*
G36*
X12333346Y7903550D02*
X12331216Y7888550D01*
X12309040Y7879665D01*
X12313731Y7914349D01*
X12333346Y7903550D01*
D02*
G37*
G36*
X13205269Y7747737D02*
X13212601Y7727070D01*
X13212837Y7726808D01*
X13214832Y7716783D01*
X13222566Y7705206D01*
X13232703Y7698432D01*
X13235860Y7691812D01*
X13237764Y7685533D01*
X13146074Y7593843D01*
X12648069D01*
X12641280Y7606543D01*
X12644069Y7610717D01*
X12646786Y7624373D01*
X12644069Y7638030D01*
X12636334Y7649607D01*
X12631320Y7652957D01*
X12635172Y7665657D01*
X12827000D01*
X12833829Y7667015D01*
X12839616Y7670883D01*
X13009117Y7840383D01*
X13012985Y7846172D01*
X13014343Y7853000D01*
Y7873813D01*
X13027043Y7880601D01*
X13029243Y7879131D01*
X13042900Y7876414D01*
X13056557Y7879131D01*
X13066937Y7886068D01*
X13205269Y7747737D01*
D02*
G37*
G36*
X14020551Y7849001D02*
X13998633Y7841227D01*
X13988026Y7851833D01*
X13995801Y7873750D01*
X14020551Y7849001D01*
D02*
G37*
G36*
X11214848Y7818000D02*
Y7803000D01*
X11193854Y7793000D01*
Y7828000D01*
X11214848Y7818000D01*
D02*
G37*
G36*
X14307700Y7773125D02*
X14292700Y7770798D01*
X14281844Y7790281D01*
X14316467Y7795395D01*
X14307700Y7773125D01*
D02*
G37*
G36*
X13716748Y7761943D02*
Y7746943D01*
X13695753Y7736943D01*
Y7771943D01*
X13716748Y7761943D01*
D02*
G37*
G36*
X13247549Y7755438D02*
X13222801Y7730689D01*
X13215027Y7752606D01*
X13225633Y7763213D01*
X13247549Y7755438D01*
D02*
G37*
G36*
X14053757Y7839206D02*
Y7525791D01*
X13920110Y7392143D01*
X11875250D01*
X11872156Y7397930D01*
X11869707Y7404843D01*
X11872086Y7416800D01*
X11869369Y7430456D01*
X11864959Y7437057D01*
X11871194Y7449757D01*
X13330392D01*
X13337219Y7451115D01*
X13343008Y7454983D01*
X13579816Y7691791D01*
X13591521Y7685535D01*
X13591414Y7685000D01*
X13594131Y7671344D01*
X13601866Y7659766D01*
X13613445Y7652031D01*
X13623470Y7650037D01*
X13623730Y7649800D01*
X13644398Y7642469D01*
X13850586Y7436280D01*
X13856375Y7432412D01*
X13860213Y7431649D01*
X13860831Y7428544D01*
X13868565Y7416966D01*
X13880144Y7409231D01*
X13893800Y7406514D01*
X13907455Y7409231D01*
X13919034Y7416966D01*
X13926768Y7428544D01*
X13929486Y7442200D01*
X13926768Y7455856D01*
X13919034Y7467434D01*
X13907455Y7475169D01*
X13893800Y7477886D01*
X13880144Y7475169D01*
X13869366Y7467968D01*
X13669630Y7667702D01*
X13662300Y7688369D01*
X13662064Y7688631D01*
X13660069Y7698656D01*
X13652335Y7710233D01*
X13640756Y7717969D01*
X13627100Y7720686D01*
X13626566Y7720579D01*
X13620309Y7732284D01*
X13632732Y7744706D01*
X13642604Y7741711D01*
X13645668Y7739683D01*
X13652666Y7729209D01*
X13664244Y7721474D01*
X13677901Y7718757D01*
X13691556Y7721474D01*
X13700056Y7727153D01*
X13700407Y7727171D01*
X13720204Y7736600D01*
X13901244D01*
X13908070Y7737958D01*
X13913860Y7741826D01*
X14003502Y7831469D01*
X14024168Y7838800D01*
X14024431Y7839037D01*
X14034456Y7841031D01*
X14041057Y7845441D01*
X14053757Y7839206D01*
D02*
G37*
G36*
X11043673Y7718367D02*
X11035899Y7696450D01*
X11011150Y7721199D01*
X11033067Y7728973D01*
X11043673Y7718367D01*
D02*
G37*
G36*
X13494946Y7692612D02*
X13473952Y7702612D01*
Y7717612D01*
X13494946Y7727612D01*
Y7692612D01*
D02*
G37*
G36*
X12525571Y7734300D02*
X12528287Y7720644D01*
X12532698Y7714043D01*
X12526462Y7701343D01*
X12107996D01*
X12101168Y7699985D01*
X12095379Y7696117D01*
X12075205Y7675943D01*
X11700905D01*
X11692718Y7679842D01*
X11691874Y7685457D01*
X11692920Y7693813D01*
X11696617Y7696283D01*
X11742191Y7741857D01*
X12514125D01*
X12525571Y7734300D01*
D02*
G37*
G36*
X13659872Y7662833D02*
X13649268Y7652227D01*
X13627350Y7660001D01*
X13652100Y7684750D01*
X13659872Y7662833D01*
D02*
G37*
G36*
X10986885Y7653355D02*
X10952431Y7647195D01*
X10960900Y7669686D01*
X10975900Y7672507D01*
X10986885Y7653355D01*
D02*
G37*
G36*
X11384834Y7667507D02*
Y7652507D01*
X11363839Y7642507D01*
Y7677507D01*
X11384834Y7667507D01*
D02*
G37*
G36*
X11697448Y7665600D02*
Y7650600D01*
X11676454Y7640600D01*
Y7675600D01*
X11697448Y7665600D01*
D02*
G37*
G36*
X14396474Y7635933D02*
X14385867Y7625327D01*
X14363950Y7633101D01*
X14388699Y7657850D01*
X14396474Y7635933D01*
D02*
G37*
G36*
X12590880Y7652957D02*
X12585866Y7649607D01*
X12578131Y7638030D01*
X12575414Y7624373D01*
X12578131Y7610717D01*
X12580920Y7606543D01*
X12574131Y7593843D01*
X11887293D01*
X11873919Y7607217D01*
X11868130Y7611085D01*
X11861302Y7612443D01*
X11681384D01*
X11676103Y7625143D01*
X11681108Y7630828D01*
X11700905Y7640257D01*
X12082596D01*
X12089424Y7641615D01*
X12095213Y7645483D01*
X12115386Y7665657D01*
X12587028D01*
X12590880Y7652957D01*
D02*
G37*
G36*
X11420910Y7618731D02*
Y7603731D01*
X11399915Y7593731D01*
Y7628730D01*
X11420910Y7618731D01*
D02*
G37*
G36*
X13316972Y7591367D02*
X13309200Y7569450D01*
X13284450Y7594199D01*
X13306367Y7601973D01*
X13316972Y7591367D01*
D02*
G37*
G36*
X10882373Y7548954D02*
X10847373D01*
X10857373Y7569948D01*
X10872373D01*
X10882373Y7548954D01*
D02*
G37*
G36*
X13490292Y7682840D02*
X13490645Y7682822D01*
X13497704Y7678105D01*
X13500861Y7671485D01*
X13502763Y7665206D01*
X13323001Y7485443D01*
X11624705D01*
X11604908Y7494872D01*
X11604555Y7494891D01*
X11598937Y7498644D01*
X11598019Y7502530D01*
Y7508870D01*
X11598937Y7512756D01*
X11604555Y7516509D01*
X11604908Y7516528D01*
X11624705Y7525957D01*
X13198695D01*
X13205524Y7527315D01*
X13211313Y7531183D01*
X13239294Y7559164D01*
X13245573Y7557260D01*
X13252193Y7554103D01*
X13258966Y7543966D01*
X13270544Y7536231D01*
X13284200Y7533514D01*
X13297856Y7536231D01*
X13309435Y7543966D01*
X13317169Y7555544D01*
X13319164Y7565569D01*
X13319400Y7565831D01*
X13326730Y7586498D01*
X13432503Y7692269D01*
X13470496D01*
X13490292Y7682840D01*
D02*
G37*
G36*
X11538973Y7550167D02*
X11531199Y7528250D01*
X11506450Y7552999D01*
X11528367Y7560773D01*
X11538973Y7550167D01*
D02*
G37*
G36*
X11621248Y7551300D02*
Y7536300D01*
X11600254Y7526300D01*
Y7561300D01*
X11621248Y7551300D01*
D02*
G37*
G36*
Y7475100D02*
Y7460100D01*
X11600254Y7450100D01*
Y7485100D01*
X11621248Y7475100D01*
D02*
G37*
G36*
X13872887Y7455898D02*
X13868819Y7441262D01*
X13863203Y7441397D01*
Y7456397D01*
X13872887Y7455898D01*
D02*
G37*
G36*
X11673007Y7381800D02*
X11670186Y7366800D01*
X11647695Y7358331D01*
X11653855Y7392785D01*
X11673007Y7381800D01*
D02*
G37*
G36*
X14190987Y7361167D02*
X14183211Y7339250D01*
X14158463Y7363999D01*
X14180379Y7371773D01*
X14190987Y7361167D01*
D02*
G37*
G36*
X12310284Y7304469D02*
X12287316Y7309282D01*
X12279263Y7324282D01*
X12295227Y7335634D01*
X12310284Y7304469D01*
D02*
G37*
G36*
X12040348Y7324282D02*
Y7309282D01*
X12019354Y7299282D01*
Y7334282D01*
X12040348Y7324282D01*
D02*
G37*
G36*
X12811790Y7314015D02*
X12805878Y7298715D01*
X12785987Y7302481D01*
X12799396Y7334810D01*
X12811790Y7314015D01*
D02*
G37*
G36*
X12722853Y7302954D02*
X12716600Y7287994D01*
X12696513Y7291960D01*
X12710720Y7323946D01*
X12722853Y7302954D01*
D02*
G37*
G36*
X12586448Y7297300D02*
Y7282300D01*
X12565454Y7272300D01*
Y7307300D01*
X12586448Y7297300D01*
D02*
G37*
G36*
X13215546Y7259600D02*
X13194553Y7269600D01*
Y7284600D01*
X13215546Y7294600D01*
Y7259600D01*
D02*
G37*
G36*
X13084325Y7343757D02*
X12997409Y7256843D01*
X12883591D01*
X12821124Y7319308D01*
X12821089Y7319557D01*
X12808693Y7340352D01*
X12808031Y7340846D01*
X12806087Y7343757D01*
X12812874Y7356457D01*
X13079063D01*
X13084325Y7343757D01*
D02*
G37*
G36*
X12712450Y7238599D02*
X12687701Y7213850D01*
X12679927Y7235767D01*
X12690533Y7246373D01*
X12712450Y7238599D01*
D02*
G37*
G36*
X14584399Y7104454D02*
X14549400D01*
X14559399Y7125448D01*
X14574400D01*
X14584399Y7104454D01*
D02*
G37*
G36*
X14299950Y7104269D02*
X14275201Y7079520D01*
X14267427Y7101437D01*
X14278033Y7112044D01*
X14299950Y7104269D01*
D02*
G37*
G36*
X13179266Y7095800D02*
X13162509Y7079043D01*
X12297043D01*
X12290215Y7077685D01*
X12289180Y7076993D01*
X12281084Y7086858D01*
X12301084Y7106857D01*
X13169901D01*
X13172975Y7107469D01*
X13179266Y7095800D01*
D02*
G37*
G36*
X11811748Y6992500D02*
Y6977500D01*
X11790754Y6967500D01*
Y7002500D01*
X11811748Y6992500D01*
D02*
G37*
G36*
X11551673Y6970463D02*
X11541067Y6959856D01*
X11519150Y6967630D01*
X11543899Y6992379D01*
X11551673Y6970463D01*
D02*
G37*
G36*
X14256900Y6744068D02*
X14241901D01*
X14231900Y6765062D01*
X14266901D01*
X14256900Y6744068D01*
D02*
G37*
G36*
X14238882Y6677495D02*
X14209117D01*
X14216499Y6694337D01*
X14231500D01*
X14238882Y6677495D01*
D02*
G37*
G36*
X14094408Y6804863D02*
X14105984Y6797128D01*
X14119641Y6794411D01*
X14203052D01*
X14213715Y6782916D01*
X14216431Y6769260D01*
X14222108Y6760761D01*
X14222128Y6760408D01*
X14230849Y6742099D01*
X14211383Y6722633D01*
X14207515Y6716845D01*
X14206157Y6710016D01*
Y6697703D01*
X14201414Y6686883D01*
X14200589Y6686719D01*
X14180743Y6673458D01*
X14167480Y6653611D01*
X14162825Y6630200D01*
Y6577800D01*
X14167480Y6554389D01*
X14173676Y6545118D01*
X14163811Y6537022D01*
X14076743Y6624091D01*
Y6808441D01*
X14089442Y6812293D01*
X14094408Y6804863D01*
D02*
G37*
G36*
X14721883Y6529316D02*
X14703172Y6520951D01*
X14689803Y6528794D01*
X14695151Y6544692D01*
X14721883Y6529316D01*
D02*
G37*
G36*
X14668689Y6486467D02*
X14660915Y6464550D01*
X14636165Y6489299D01*
X14658083Y6497073D01*
X14668689Y6486467D01*
D02*
G37*
G36*
X14795000Y6160273D02*
X14669000D01*
X14724500Y6239687D01*
X14739500D01*
X14795000Y6160273D01*
D02*
G37*
G36*
X14541000D02*
X14414999D01*
X14470500Y6239687D01*
X14485500D01*
X14541000Y6160273D01*
D02*
G37*
G36*
X10286750Y8255401D02*
X10264833Y8247627D01*
X10254227Y8258233D01*
X10262001Y8280150D01*
X10286750Y8255401D01*
D02*
G37*
G36*
X10421500Y8238313D02*
X10406500D01*
X10351000Y8317727D01*
X10477000D01*
X10421500Y8238313D01*
D02*
G37*
G36*
X10322553Y8166554D02*
X10316300Y8151594D01*
X10296213Y8155560D01*
X10310420Y8187546D01*
X10322553Y8166554D01*
D02*
G37*
G36*
X10307073Y7873883D02*
X10296467Y7863276D01*
X10274550Y7871051D01*
X10299299Y7895800D01*
X10307073Y7873883D01*
D02*
G37*
G36*
X10291800Y7612454D02*
X10256800D01*
X10266800Y7633448D01*
X10281800D01*
X10291800Y7612454D01*
D02*
G37*
G36*
X10342600Y7460054D02*
X10307600D01*
X10317600Y7481048D01*
X10332600D01*
X10342600Y7460054D01*
D02*
G37*
G36*
X10591550Y7352899D02*
X10566801Y7328150D01*
X10559027Y7350067D01*
X10569633Y7360673D01*
X10591550Y7352899D01*
D02*
G37*
G36*
X10396100Y7149352D02*
X10381100D01*
X10371100Y7170346D01*
X10406100D01*
X10396100Y7149352D01*
D02*
G37*
G36*
X10304500Y7040954D02*
X10269500D01*
X10279500Y7061948D01*
X10294500D01*
X10304500Y7040954D01*
D02*
G37*
G36*
X10477000Y6160273D02*
X10351000D01*
X10406500Y6239687D01*
X10421500D01*
X10477000Y6160273D01*
D02*
G37*
G36*
X10929500Y8238313D02*
X10914500D01*
X10859000Y8317727D01*
X10985000D01*
X10929500Y8238313D01*
D02*
G37*
G36*
X10675500D02*
X10660500D01*
X10605000Y8317727D01*
X10731000D01*
X10675500Y8238313D01*
D02*
G37*
G36*
X10761700Y7421954D02*
X10726700D01*
X10736700Y7442948D01*
X10751700D01*
X10761700Y7421954D01*
D02*
G37*
G36*
X10710900Y7371154D02*
X10675900D01*
X10685900Y7392148D01*
X10700900D01*
X10710900Y7371154D01*
D02*
G37*
G36*
X14713972Y7813733D02*
X14703368Y7803127D01*
X14681450Y7810901D01*
X14706200Y7835650D01*
X14713972Y7813733D01*
D02*
G37*
G36*
X14821103Y7393696D02*
X14816272Y7372923D01*
X14785809Y7390156D01*
X14807385Y7401193D01*
X14821103Y7393696D01*
D02*
G37*
G36*
X11880999Y7255807D02*
X11869631Y7245962D01*
X11847642Y7254557D01*
X11874023Y7277558D01*
X11880999Y7255807D01*
D02*
G37*
G36*
X11950078Y7169655D02*
X11916357Y7160280D01*
X11923803Y7183344D01*
X11938803Y7187753D01*
X11950078Y7169655D01*
D02*
G37*
G36*
X14447400Y6744068D02*
X14432401D01*
X14422400Y6765062D01*
X14457401D01*
X14447400Y6744068D01*
D02*
G37*
G36*
X14472816Y6679334D02*
X14443755Y6666177D01*
X14438963Y6681631D01*
X14453122Y6688685D01*
X14472816Y6679334D01*
D02*
G37*
G36*
X14993500Y6513663D02*
X14978500D01*
X14971117Y6530505D01*
X15000883D01*
X14993500Y6513663D01*
D02*
G37*
G36*
X15049001Y6160273D02*
X14923000D01*
X14978500Y6239687D01*
X14993500D01*
X15049001Y6160273D01*
D02*
G37*
G36*
X10682346Y7096201D02*
X10660429Y7088426D01*
X10649822Y7099033D01*
X10657597Y7120950D01*
X10682346Y7096201D01*
D02*
G37*
G36*
X10783462Y7014995D02*
X10772436Y6995961D01*
X10757436Y6998959D01*
X10749076Y7021525D01*
X10783462Y7014995D01*
D02*
G37*
G36*
X10815423Y6970636D02*
X10793506Y6962862D01*
X10782900Y6973468D01*
X10790674Y6995385D01*
X10815423Y6970636D01*
D02*
G37*
G36*
X10889127Y6921176D02*
X10887949Y6914653D01*
X10872949D01*
X10872585Y6925776D01*
X10889127Y6921176D01*
D02*
G37*
G36*
X10936085Y6875445D02*
X10925100Y6856293D01*
X10910100Y6859114D01*
X10901631Y6881605D01*
X10936085Y6875445D01*
D02*
G37*
G36*
X11544736Y6879130D02*
X11545321Y6864130D01*
X11524692Y6853876D01*
X11523390Y6888852D01*
X11544736Y6879130D01*
D02*
G37*
G36*
X11429200Y6846414D02*
X11414200Y6843593D01*
X11403215Y6862745D01*
X11437669Y6868905D01*
X11429200Y6846414D01*
D02*
G37*
G36*
X10992873Y6823133D02*
X10982267Y6812527D01*
X10960350Y6820301D01*
X10985099Y6845050D01*
X10992873Y6823133D01*
D02*
G37*
G36*
X10784187Y6820703D02*
X10779778Y6805703D01*
X10756713Y6798257D01*
X10766089Y6831978D01*
X10784187Y6820703D01*
D02*
G37*
G36*
X11506948Y6811630D02*
Y6796630D01*
X11485954Y6786630D01*
Y6821630D01*
X11506948Y6811630D01*
D02*
G37*
G36*
X13081084Y6870783D02*
X13086871Y6866915D01*
X13093700Y6865557D01*
X13670509D01*
X13741473Y6794592D01*
X13735880Y6783437D01*
X13735287Y6782818D01*
X13145084D01*
X13108084Y6819817D01*
X13102296Y6823685D01*
X13095467Y6825043D01*
X12402591D01*
X12386237Y6841396D01*
X12390258Y6855145D01*
X12396046Y6859013D01*
X12478791Y6941757D01*
X13010109D01*
X13081084Y6870783D01*
D02*
G37*
G36*
X11393397Y6784322D02*
X11378397Y6779913D01*
X11367122Y6798011D01*
X11400843Y6807387D01*
X11393397Y6784322D01*
D02*
G37*
G36*
X12365791Y6811376D02*
X12360930Y6799643D01*
X11950374D01*
X11943546Y6798285D01*
X11937758Y6794417D01*
X11917584Y6774243D01*
X11687186D01*
X11685935Y6786943D01*
X11689466Y6787645D01*
X11695254Y6791513D01*
X11732528Y6828787D01*
X12348380D01*
X12365791Y6811376D01*
D02*
G37*
G36*
X11361173Y6735583D02*
X11350567Y6724976D01*
X11328650Y6732751D01*
X11353399Y6757499D01*
X11361173Y6735583D01*
D02*
G37*
G36*
X11243023Y6690679D02*
X11229359Y6683130D01*
X11207763Y6694117D01*
X11238152Y6711480D01*
X11243023Y6690679D01*
D02*
G37*
G36*
X11310373Y6683433D02*
X11299767Y6672827D01*
X11277850Y6680601D01*
X11302599Y6705350D01*
X11310373Y6683433D01*
D02*
G37*
G36*
X11468015Y6667358D02*
X11473804Y6663490D01*
X11480632Y6662132D01*
X12271045D01*
X12277874Y6663490D01*
X12283662Y6667358D01*
X12288291Y6671987D01*
X12309578D01*
X12313431Y6659287D01*
X12306466Y6654634D01*
X12299693Y6644497D01*
X12293073Y6641340D01*
X12286794Y6639436D01*
X12286041Y6640188D01*
X12280253Y6644056D01*
X12273425Y6645414D01*
X11465968D01*
X11372629Y6738754D01*
X11372408Y6745005D01*
X11384924Y6750450D01*
X11468015Y6667358D01*
D02*
G37*
G36*
X12957973Y6668870D02*
X12960422Y6661957D01*
X12958043Y6650000D01*
X12960759Y6636344D01*
X12961963Y6634543D01*
X12955174Y6621843D01*
X12622828D01*
X12615999Y6620485D01*
X12610211Y6616617D01*
X12598337Y6604743D01*
X12370550D01*
X12367456Y6610530D01*
X12365007Y6617443D01*
X12367386Y6629400D01*
X12364669Y6643056D01*
X12356934Y6654634D01*
X12349969Y6659287D01*
X12353822Y6671987D01*
X12644781D01*
X12651609Y6673345D01*
X12653573Y6674657D01*
X12954880D01*
X12957973Y6668870D01*
D02*
G37*
G36*
X11811083Y6534024D02*
X11816872Y6530156D01*
X11823700Y6528798D01*
X12098454D01*
X12119710Y6507543D01*
X12117976Y6499715D01*
X12114869Y6494843D01*
X11500160D01*
X11464216Y6530787D01*
X11458428Y6534655D01*
X11451599Y6536013D01*
X11378961D01*
X11366979Y6547996D01*
X11371839Y6559729D01*
X11785379D01*
X11811083Y6534024D01*
D02*
G37*
G36*
X11193568Y6553815D02*
X11200396Y6552457D01*
X11312050D01*
X11358954Y6505554D01*
X11364742Y6501686D01*
X11371570Y6500328D01*
X11444209D01*
X11475094Y6469443D01*
X11469833Y6456743D01*
X11272291D01*
X11184299Y6544735D01*
X11192395Y6554599D01*
X11193568Y6553815D01*
D02*
G37*
G36*
X14287000Y6160273D02*
X14161000D01*
X14216499Y6239687D01*
X14231500D01*
X14287000Y6160273D01*
D02*
G37*
G36*
X14033000D02*
X13907001D01*
X13962500Y6239687D01*
X13977499D01*
X14033000Y6160273D01*
D02*
G37*
G36*
X13778999D02*
X13653000D01*
X13708501Y6239687D01*
X13723500D01*
X13778999Y6160273D01*
D02*
G37*
G36*
X13525000D02*
X13399001D01*
X13454500Y6239687D01*
X13469501D01*
X13525000Y6160273D01*
D02*
G37*
G36*
X13271001D02*
X13145000D01*
X13200500Y6239687D01*
X13215500D01*
X13271001Y6160273D01*
D02*
G37*
G36*
X13017000D02*
X12891000D01*
X12946500Y6239687D01*
X12961501D01*
X13017000Y6160273D01*
D02*
G37*
G36*
X12763000D02*
X12637000D01*
X12692500Y6239687D01*
X12707500D01*
X12763000Y6160273D01*
D02*
G37*
G36*
X12509000D02*
X12383000D01*
X12438500Y6239687D01*
X12453500D01*
X12509000Y6160273D01*
D02*
G37*
G36*
X12255000D02*
X12129000D01*
X12184500Y6239687D01*
X12199500D01*
X12255000Y6160273D01*
D02*
G37*
G36*
X12001000D02*
X11875000D01*
X11930500Y6239687D01*
X11945500D01*
X12001000Y6160273D01*
D02*
G37*
G36*
X11747000D02*
X11621000D01*
X11676500Y6239687D01*
X11691500D01*
X11747000Y6160273D01*
D02*
G37*
G36*
X11493000D02*
X11367000D01*
X11422500Y6239687D01*
X11437500D01*
X11493000Y6160273D01*
D02*
G37*
G36*
X11239000D02*
X11113000D01*
X11168500Y6239687D01*
X11183500D01*
X11239000Y6160273D01*
D02*
G37*
G36*
X10985000D02*
X10859000D01*
X10914500Y6239687D01*
X10929500D01*
X10985000Y6160273D01*
D02*
G37*
G36*
X10731000D02*
X10605000D01*
X10660500Y6239687D01*
X10675500D01*
X10731000Y6160273D01*
D02*
G37*
D35*
X14211728Y6830097D02*
X14403481Y7021849D01*
X14119641Y6830097D02*
X14211728D01*
X14403481Y7021849D02*
X14832349D01*
X15024100Y7213600D01*
D36*
X10172700Y8166100D02*
X10287000Y8280400D01*
X10172700Y7910486D02*
Y8166100D01*
Y7910486D02*
X10274300Y7808886D01*
Y7594600D02*
Y7808886D01*
X10287000Y7023100D02*
Y7261960D01*
X10401300Y7376260D01*
Y7600601D01*
X10287000Y8178800D02*
X10299700D01*
X10350500Y8128000D01*
Y7651401D02*
Y8128000D01*
Y7651401D02*
X10401300Y7600601D01*
X10274300Y7896050D02*
X10325100Y7845250D01*
Y7442200D02*
Y7845250D01*
X12082596Y7658100D02*
X12107996Y7683500D01*
X11658600Y7658100D02*
X12082596D01*
X11582400Y7467600D02*
X13330392D01*
X13716000Y7853208D01*
X11849100Y7277100D02*
Y7279514D01*
Y7277100D02*
X11931303Y7194897D01*
Y7154463D02*
Y7194897D01*
Y7154463D02*
X11938000Y7147767D01*
X13716000Y7853208D02*
Y8382000D01*
X13425111Y7710112D02*
X13512801D01*
X13284200Y7569200D02*
X13425111Y7710112D01*
X13198695Y7543800D02*
X13462000Y7807104D01*
X11582400Y7543800D02*
X13198695D01*
X13462000Y7807104D02*
Y8382000D01*
X12636500Y7289800D02*
X12712700Y7213600D01*
X12687300Y7315200D02*
X12700000D01*
X12827000Y7188200D01*
X13901244Y7754443D02*
X14020799Y7874000D01*
X13677901Y7754443D02*
X13901244D01*
X12526552Y7759700D02*
X12700000Y7933148D01*
Y8382000D01*
X11734800Y7759700D02*
X12526552D01*
X12827000Y7188200D02*
X12989355D01*
X13078255Y7277100D01*
X13233400D01*
X14158212Y7339000D02*
X14300200Y7480987D01*
X14635915Y6464300D02*
X14732001Y6560385D01*
Y6604000D01*
X11879902Y7576000D02*
X13153465D01*
X11572800Y7594600D02*
X11861302D01*
X11506200Y7528000D02*
X11572800Y7594600D01*
X11861302D02*
X11879902Y7576000D01*
X13153465D02*
X13347701Y7770235D01*
X12776200Y7325486D02*
X12776744Y7326030D01*
X12789170D01*
X12876199Y7239000D01*
X11637600Y7374300D02*
X13927499D01*
X14071600Y7518400D01*
X12876199Y7239000D02*
X13004800D01*
X13106000Y7340200D01*
X14039270D01*
X14300200Y7079270D01*
X14439900Y6691301D02*
Y6782916D01*
Y6691301D02*
X14478000Y6653201D01*
Y6604000D02*
Y6653201D01*
X10879500Y6759451D02*
Y6913704D01*
X10880449Y6914653D01*
Y6939401D01*
X10887145Y6946098D01*
X10706100Y6886062D02*
X10815673Y6995635D01*
X10706100Y6883400D02*
Y6886062D01*
X10693400Y6870700D02*
X10706100Y6883400D01*
X10693400Y6782916D02*
Y6870700D01*
Y6782916D02*
X10848745Y6627571D01*
X10922000D01*
X10917600Y6891700D02*
X10922000Y6896100D01*
X10917600Y6827696D02*
Y6891700D01*
X10879500Y6759451D02*
X11174651Y6464300D01*
X10414000Y6096000D02*
Y6842797D01*
X10388600Y6868197D02*
X10414000Y6842797D01*
X10388600Y6868197D02*
Y7188200D01*
X10605300Y6645700D02*
X10668000Y6583000D01*
Y6096000D02*
Y6583000D01*
X10605300Y6645700D02*
Y7043904D01*
X10682596Y7121200D01*
X10696796Y7061200D02*
X10700677D01*
X10713729Y7074252D01*
X10723200D01*
X10642600Y7007004D02*
X10696796Y7061200D01*
X10764936Y7031136D02*
X10769600Y7035800D01*
X10642600Y6901319D02*
Y7007004D01*
X10630300Y6889019D02*
X10642600Y6901319D01*
X10922000Y6096000D02*
Y6311900D01*
X10769600Y6464300D02*
X10922000Y6311900D01*
X10769600Y6464300D02*
Y6570300D01*
X10630300Y6709600D02*
X10769600Y6570300D01*
X10630300Y6709600D02*
Y6889019D01*
X10960100Y6845300D02*
X11062597Y6742803D01*
X10790392Y6813203D02*
X11253596Y6350000D01*
X10944446Y6800850D02*
X10958309D01*
X11023600Y6735559D01*
X10764936Y6988300D02*
Y7031136D01*
X11176000Y6096000D02*
Y6300479D01*
X10958309Y6518170D02*
X11176000Y6300479D01*
X10922791Y6518170D02*
X10958309D01*
X10668400Y6772561D02*
X10922791Y6518170D01*
X10668400Y6772561D02*
Y6832200D01*
X10655300Y6845300D02*
X10668400Y6832200D01*
X10655300Y6845300D02*
Y6878664D01*
X10764936Y6988300D01*
X11430000Y6096000D02*
Y6240770D01*
X11371570Y6299200D02*
X11430000Y6240770D01*
X11250371Y6299200D02*
X11371570D01*
X10922000Y6627571D02*
X11250371Y6299200D01*
X11684000Y6096000D02*
Y6248400D01*
X11582400Y6350000D02*
X11684000Y6248400D01*
X11253596Y6350000D02*
X11582400D01*
X10750897Y6813203D02*
X10790392D01*
X10744200Y6819900D02*
X10750897Y6813203D01*
X11938000Y6096000D02*
Y6311402D01*
X11861302Y6388100D02*
X11938000Y6311402D01*
X11280345Y6388100D02*
X11861302D01*
X11204145Y6464300D02*
X11280345Y6388100D01*
X11174651Y6464300D02*
X11204145D01*
X10917600Y6827696D02*
X10944446Y6800850D01*
X11023600Y6680200D02*
Y6735559D01*
X12192000Y6096000D02*
Y6332169D01*
X12085269Y6438900D02*
X12192000Y6332169D01*
X11264900Y6438900D02*
X12085269D01*
X11023600Y6680200D02*
X11264900Y6438900D01*
X12268200Y6477000D02*
X12446000Y6299200D01*
Y6096000D02*
Y6299200D01*
X11492770Y6477000D02*
X12268200D01*
X11451599Y6518170D02*
X11492770Y6477000D01*
X11371570Y6518170D02*
X11451599D01*
X11319441Y6570300D02*
X11371570Y6518170D01*
X11200396Y6570300D02*
X11319441D01*
X11062597Y6708099D02*
X11200396Y6570300D01*
X11062597Y6708099D02*
Y6742803D01*
X11285202Y6639894D02*
X11347524Y6577572D01*
X11283202Y6639894D02*
X11285202D01*
X11214100Y6708996D02*
X11283202Y6639894D01*
X11347524Y6577572D02*
X11792769D01*
X11380628Y6602572D02*
X12085269D01*
X11458578Y6627571D02*
X12273425D01*
X11328400Y6757749D02*
X11458578Y6627571D01*
X12085269Y6602572D02*
X12141200Y6546641D01*
X11792769Y6577572D02*
X11823700Y6546641D01*
X11277600Y6705600D02*
X11380628Y6602572D01*
X12273425Y6627571D02*
X12314096Y6586900D01*
X11214100Y6708996D02*
Y6718300D01*
X12700000Y6096000D02*
Y6412528D01*
X12594357Y6518170D02*
X12700000Y6412528D01*
X12134315Y6518170D02*
X12594357D01*
X12105845Y6546641D02*
X12134315Y6518170D01*
X11823700Y6546641D02*
X12105845D01*
X12992101Y6604000D02*
X13208000Y6388100D01*
X12622828Y6604000D02*
X12992101D01*
X12605728Y6586900D02*
X12622828Y6604000D01*
X12895404Y6570300D02*
X12953999Y6511704D01*
Y6096000D02*
Y6511704D01*
X12624483Y6570300D02*
X12895404D01*
X12600823Y6546641D02*
X12624483Y6570300D01*
X12141200Y6546641D02*
X12600823D01*
X12314096Y6586900D02*
X12605728D01*
X13208000Y6096000D02*
Y6388100D01*
X11385897Y6774710D02*
X11480632Y6679975D01*
X11385897Y6774710D02*
Y6813203D01*
X11480632Y6679975D02*
X12271045D01*
X13322301Y6477000D02*
X13462000Y6337300D01*
Y6096000D02*
Y6337300D01*
X13237912Y6477000D02*
X13322301D01*
X13022412Y6692500D02*
X13237912Y6477000D01*
X12647451Y6692500D02*
X13022412D01*
X12644781Y6689830D02*
X12647451Y6692500D01*
X12280900Y6689830D02*
X12644781D01*
X13081000Y6731000D02*
X13266937D01*
X13068300Y6743700D02*
X13081000Y6731000D01*
X13266937D02*
X13268266Y6732330D01*
X12271045Y6679975D02*
X12280900Y6689830D01*
X11379200Y6819900D02*
X11385897Y6813203D01*
X11468100Y6804130D02*
X11682638D01*
X11421700Y6790426D02*
Y6879000D01*
X11417300Y6883400D02*
X11421700Y6879000D01*
Y6790426D02*
X11455726Y6756400D01*
X13716000Y6096000D02*
Y6464300D01*
X13614400Y6565900D02*
X13716000Y6464300D01*
X13563600Y6565900D02*
X13614400D01*
X13512801Y6616700D02*
X13563600Y6565900D01*
X13512801Y6616700D02*
Y6689830D01*
X13470300Y6732330D02*
X13512801Y6689830D01*
X13268266Y6732330D02*
X13470300D01*
X12573000Y6743700D02*
X13068300D01*
X12534900Y6781800D02*
X12573000Y6743700D01*
X11950374Y6781800D02*
X12534900D01*
X11924974Y6756400D02*
X11950374Y6781800D01*
X11455726Y6756400D02*
X11924974D01*
X11506200Y6871630D02*
X12383430D01*
X13970000Y6096000D02*
Y6362700D01*
X13919200Y6413500D02*
X13970000Y6362700D01*
X13919200Y6413500D02*
Y6581345D01*
X13735570Y6764975D02*
X13919200Y6581345D01*
X13137692Y6764975D02*
X13735570D01*
X13095467Y6807200D02*
X13137692Y6764975D01*
X12395200Y6807200D02*
X13095467D01*
X12355770Y6846630D02*
X12395200Y6807200D01*
X11725138Y6846630D02*
X12355770D01*
X11682638Y6804130D02*
X11725138Y6846630D01*
X12383430Y6871630D02*
X12471400Y6959600D01*
X11518900Y6992629D02*
X11577329Y6934200D01*
X14224001Y6096000D02*
Y6273800D01*
X14147800Y6350000D02*
X14224001Y6273800D01*
X14084300Y6350000D02*
X14147800D01*
X13965601Y6468700D02*
X14084300Y6350000D01*
X13965601Y6468700D02*
Y6595700D01*
X14020799Y6619445D02*
X14277545Y6362700D01*
X14058900Y6616700D02*
X14253799Y6421800D01*
X14058900Y6616700D02*
Y7150100D01*
X14253799Y6421800D02*
X14600600D01*
X14020799Y6619445D02*
Y7124700D01*
X14277545Y6362700D02*
X14376401D01*
X13677901Y6883400D02*
X13965601Y6595700D01*
X13093700Y6883400D02*
X13677901D01*
X13017500Y6959600D02*
X13093700Y6883400D01*
X12471400Y6959600D02*
X13017500D01*
X14478000Y6096000D02*
Y6261100D01*
X14376401Y6362700D02*
X14478000Y6261100D01*
X13868401Y7277100D02*
X14020799Y7124700D01*
X13385800Y7277100D02*
X13868401D01*
X13169901Y7061200D02*
X13385800Y7277100D01*
X12297043Y7061200D02*
X13169901D01*
X12170043Y6934200D02*
X12297043Y7061200D01*
X11577329Y6934200D02*
X12170043D01*
X14732001Y6096000D02*
Y6290400D01*
X14600600Y6421800D02*
X14732001Y6290400D01*
X13893800Y7315200D02*
X14058900Y7150100D01*
X13360400Y7315200D02*
X13893800D01*
X13169901Y7124700D02*
X13360400Y7315200D01*
X12293693Y7124700D02*
X13169901D01*
X12153993Y6985000D02*
X12293693Y7124700D01*
X11772900Y6985000D02*
X12153993D01*
X10414000Y7685407D02*
Y8382000D01*
Y7685407D02*
X10439400Y7660007D01*
Y7480300D02*
Y7660007D01*
Y7480300D02*
X10591800Y7327900D01*
X10668000Y7905403D02*
Y8382000D01*
Y7905403D02*
X10693400Y7880003D01*
Y7353300D02*
Y7880003D01*
X10922000Y7905403D02*
Y8382000D01*
X10744200Y7727603D02*
X10922000Y7905403D01*
X10744200Y7404100D02*
Y7727603D01*
X10837100Y7697903D02*
X11176000Y8036803D01*
Y8382000D01*
X11145650Y7941900D02*
X11383600D01*
X10968400Y7764650D02*
X11145650Y7941900D01*
X11136896Y7856900D02*
X11451000D01*
X11044600Y7764604D02*
X11136896Y7856900D01*
X11383600Y7941900D02*
X11430000Y7988300D01*
X11451000Y7856900D02*
X11684000Y8089900D01*
X10837100Y7628374D02*
Y7697903D01*
Y7628374D02*
X10864873Y7600601D01*
Y7531100D02*
Y7600601D01*
X11430000Y7988300D02*
Y8382000D01*
X10968400Y7637100D02*
Y7764650D01*
Y7637100D02*
X10972800Y7632700D01*
X11010900Y7696200D02*
X11044600Y7729900D01*
Y7764604D01*
X11176000Y7810500D02*
X11569700D01*
X11684000Y8089900D02*
Y8382000D01*
X11879902Y8013700D02*
X11938000Y8071798D01*
Y8382000D01*
X11772900Y8013700D02*
X11879902D01*
X11569700Y7810500D02*
X11772900Y8013700D01*
X12344400Y7988300D02*
X12446000Y8089900D01*
Y8382000D01*
X12273800Y7988300D02*
X12344400D01*
X12172200Y7886700D02*
X12273800Y7988300D01*
X11747500Y7886700D02*
X12172200D01*
X11633200Y7772400D02*
X11747500Y7886700D01*
X11550525Y7772400D02*
X11633200D01*
X11438132Y7660007D02*
X11550525Y7772400D01*
X11345985Y7660007D02*
X11438132D01*
X11382062Y7611231D02*
X11532135D01*
X11629804Y7708900D01*
X11633200Y7378700D02*
X11637600Y7374300D01*
X11684000Y7708900D02*
X11734800Y7759700D01*
X11629804Y7708900D02*
X11684000D01*
X12966701Y8115300D02*
Y8369300D01*
X12953999Y8382000D02*
X12966701Y8369300D01*
Y8115300D02*
X12996500Y8085500D01*
Y7853000D02*
Y8085500D01*
X12827000Y7683500D02*
X12996500Y7853000D01*
X13042900Y7912100D02*
X13049597Y7905403D01*
X13072836D01*
X13247800Y7730439D01*
X12107996Y7683500D02*
X12827000D01*
X13208000Y8089900D02*
Y8382000D01*
Y8089900D02*
X13347701Y7950200D01*
Y7770235D02*
Y7950200D01*
X13970000Y8166100D02*
Y8382000D01*
Y8166100D02*
X14071600Y8064500D01*
Y7518400D02*
Y8064500D01*
X13627100Y7685000D02*
X13863203Y7448897D01*
X13887103D01*
X13893800Y7442200D01*
X12293693Y7899400D02*
X12297043Y7896050D01*
X12423950D01*
X12446000Y7874000D01*
X14224001Y6710016D02*
X14249400Y6735416D01*
X14224001Y6604000D02*
Y6710016D01*
X14249400Y6735416D02*
Y6782916D01*
X14986000Y6096000D02*
Y6604000D01*
X14296547Y7810500D02*
X14300200Y7806847D01*
Y7480987D02*
Y7806847D01*
X14839706Y7773500D02*
X14899750Y7713457D01*
X14743600Y7773500D02*
X14839706D01*
X14681200Y7835900D02*
X14743600Y7773500D01*
X14899750Y7482950D02*
Y7713457D01*
X14792250Y7366000D02*
Y7375450D01*
X14899750Y7482950D01*
X14363699Y7658100D02*
X14566901Y7454900D01*
Y7086600D02*
Y7454900D01*
X12307882Y7316782D02*
X12319000Y7327900D01*
X12001500Y7316782D02*
X12307882D01*
X12547600Y7289800D02*
X12636500D01*
D38*
X14732001Y6096000D02*
D03*
X14478000D02*
D03*
X14986000D02*
D03*
X15239999D02*
D03*
X14224001D02*
D03*
X13970000D02*
D03*
X13462000D02*
D03*
X13716000D02*
D03*
X13208000D02*
D03*
X10922000D02*
D03*
X11430000D02*
D03*
X11176000D02*
D03*
X11684000D02*
D03*
X11938000D02*
D03*
X12953999D02*
D03*
X12700000D02*
D03*
X12192000D02*
D03*
X12446000D02*
D03*
X10414000D02*
D03*
X10668000D02*
D03*
X14732001Y8382000D02*
D03*
X14478000D02*
D03*
X14986000D02*
D03*
X15239999D02*
D03*
X14224001D02*
D03*
X13970000D02*
D03*
X13462000D02*
D03*
X13716000D02*
D03*
X13208000D02*
D03*
X10922000D02*
D03*
X11430000D02*
D03*
X11176000D02*
D03*
X11684000D02*
D03*
X11938000D02*
D03*
X12953999D02*
D03*
X12700000D02*
D03*
X12192000D02*
D03*
X12446000D02*
D03*
X10414000D02*
D03*
X10668000D02*
D03*
D39*
X15160249Y7671000D02*
D03*
Y6807000D02*
D03*
D40*
X14742250Y7671000D02*
D03*
Y6807000D02*
D03*
D41*
X14630400Y7768600D02*
D03*
X14592300Y6853627D02*
D03*
X10287000Y8280400D02*
D03*
X10274300Y7594600D02*
D03*
X10337800Y7252656D02*
D03*
X10287000Y8178800D02*
D03*
Y7023100D02*
D03*
X10160000Y6959600D02*
D03*
X10274300Y7896050D02*
D03*
X10325100Y7442200D02*
D03*
X10160000Y7531100D02*
D03*
X11658600Y7658100D02*
D03*
X11747500Y7421200D02*
D03*
X11849100Y7279514D02*
D03*
X11938000Y7147767D02*
D03*
X13512801Y7710112D02*
D03*
X13284200Y7569200D02*
D03*
X12712700Y7213600D02*
D03*
X12687300Y7315200D02*
D03*
X14020799Y7874000D02*
D03*
X13677901Y7754443D02*
D03*
X12561256Y7734300D02*
D03*
X13233400Y7277100D02*
D03*
X13839500Y7150100D02*
D03*
Y7073900D02*
D03*
X13931900Y7092959D02*
D03*
X14158212Y7339000D02*
D03*
X14172800Y7053384D02*
D03*
X14236700Y7060153D02*
D03*
X14635915Y6464300D02*
D03*
X12611100Y7624373D02*
D03*
X12776200Y7325486D02*
D03*
X14300200Y7079270D02*
D03*
X14439900Y6782916D02*
D03*
X10887145Y6946098D02*
D03*
X10815673Y6995635D02*
D03*
X10922000Y6896100D02*
D03*
X10388600Y7188200D02*
D03*
X10723200Y7074252D02*
D03*
X10682596Y7121200D02*
D03*
X10693400Y6997700D02*
D03*
X10769600Y7035800D02*
D03*
X10960100Y6845300D02*
D03*
X10942655Y6756400D02*
D03*
X10782300Y6757749D02*
D03*
X10744200Y6819900D02*
D03*
X11176000Y6654800D02*
D03*
X11214100Y6718300D02*
D03*
X11277600Y6705600D02*
D03*
X11328400Y6757749D02*
D03*
X13208000Y6662800D02*
D03*
X13131799D02*
D03*
X11468100Y6804130D02*
D03*
X11379200Y6819900D02*
D03*
X11417300Y6883400D02*
D03*
X11506200Y6870700D02*
D03*
X13436600Y7139000D02*
D03*
X13839500Y7225700D02*
D03*
X11976600Y7047000D02*
D03*
X11518900Y6992629D02*
D03*
X11633200D02*
D03*
X13436600Y7214000D02*
D03*
Y7064270D02*
D03*
X13665199Y6982674D02*
D03*
X13589000D02*
D03*
X11772900Y6985000D02*
D03*
X10591800Y7327900D02*
D03*
X10693400Y7353300D02*
D03*
X10744200Y7404100D02*
D03*
X10565563Y7510538D02*
D03*
X10795000Y7594600D02*
D03*
X11379200Y7899400D02*
D03*
X10864873Y7531100D02*
D03*
X10972800Y7632700D02*
D03*
X11010900Y7696200D02*
D03*
X11087100Y7747000D02*
D03*
X10879600Y7670800D02*
D03*
X11176000Y7810500D02*
D03*
X11345985Y7660007D02*
D03*
X11382062Y7611231D02*
D03*
X11518900Y7658100D02*
D03*
X11506200Y7528000D02*
D03*
X11582400Y7467600D02*
D03*
X11633200Y7378700D02*
D03*
X11582400Y7543800D02*
D03*
X11836400Y7416800D02*
D03*
X13042900Y7912100D02*
D03*
X12953999Y7899400D02*
D03*
X10439400Y7318549D02*
D03*
X10477500Y6870700D02*
D03*
X10848963Y6477000D02*
D03*
X10528300Y7950200D02*
D03*
X11734800Y7251700D02*
D03*
X11912600Y6804130D02*
D03*
X11494802Y6535072D02*
D03*
X11301837Y6527800D02*
D03*
X11353800Y7988300D02*
D03*
X15024100Y7213600D02*
D03*
X14119641Y6830097D02*
D03*
X13893800Y7442200D02*
D03*
X13627100Y7685000D02*
D03*
X13247800Y7730439D02*
D03*
X12039600Y8064500D02*
D03*
X12293693Y7899400D02*
D03*
X11983496Y7831900D02*
D03*
X12103100Y7618500D02*
D03*
X12458700Y6464300D02*
D03*
X12101600Y6722475D02*
D03*
X12331700Y6629400D02*
D03*
X12877800Y6527800D02*
D03*
X12993729Y6650000D02*
D03*
X13144501Y6818271D02*
D03*
X13246100Y7065759D02*
D03*
X12852307Y8001000D02*
D03*
X14249400Y6782916D02*
D03*
X14947900Y7772400D02*
D03*
X13208000Y7924800D02*
D03*
X13970000Y6947319D02*
D03*
X13665199Y6722475D02*
D03*
X13589000D02*
D03*
X13665199Y6643600D02*
D03*
X13589000D02*
D03*
X13752600Y6985000D02*
D03*
X13500101D02*
D03*
X13347701Y6388100D02*
D03*
X13436600Y6689830D02*
D03*
X13347701D02*
D03*
X13970000Y7950200D02*
D03*
X13397099Y7470900D02*
D03*
X13779500Y7442600D02*
D03*
X14579601Y7607300D02*
D03*
X14122400Y6438900D02*
D03*
X14008099Y6546641D02*
D03*
X14350999Y6464300D02*
D03*
X14528799D02*
D03*
X14296547Y7810500D02*
D03*
X14792250Y7366000D02*
D03*
X14681200Y7835900D02*
D03*
X14363699Y7658100D02*
D03*
X14566901Y7086600D02*
D03*
X12319000Y7327900D02*
D03*
X12001500Y7316782D02*
D03*
X12547600Y7289800D02*
D03*
X10942655Y7316782D02*
D03*
X11098218Y7161218D02*
D03*
X11253782Y7005655D02*
D03*
X11020436Y7239000D02*
D03*
X11176000Y7083436D02*
D03*
X11098218Y7472345D02*
D03*
X11253782Y7316782D02*
D03*
X11409345Y7161218D02*
D03*
X11176000Y7394564D02*
D03*
X11331564Y7239000D02*
D03*
X11409345Y7316782D02*
D03*
X11253782Y7161218D02*
D03*
X11098218Y7005655D02*
D03*
X11253782Y7472345D02*
D03*
X11098218Y7316782D02*
D03*
X10942655Y7161218D02*
D03*
X11176000Y6927873D02*
D03*
X11020436Y7083436D02*
D03*
X10864873Y7239000D02*
D03*
X11331564Y7083436D02*
D03*
X11176000Y7239000D02*
D03*
X11020436Y7394564D02*
D03*
X11487127Y7239000D02*
D03*
X11331564Y7394564D02*
D03*
X11176000Y7550127D02*
D03*
D42*
X12446000Y7874000D02*
D03*
X14986000Y6604000D02*
D03*
X14732001D02*
D03*
X14478000D02*
D03*
X14224001D02*
D03*
%TF.MD5,63d11ea60b5120bf3a9152986492db54*%
M02*
