%TF.GenerationSoftware,Altium Limited,Altium Designer,19.0.15 (446)*%
G04 Layer_Color=128*
%FSLAX45Y45*%
%MOMM*%
%TF.FileFunction,Drillmap*%
%TF.Part,Single*%
G01*
G75*
%TA.AperFunction,NonConductor*%
%ADD90C,0.12700*%
D90*
X14687000Y6096000D02*
X14777000D01*
X14732001Y6051000D02*
Y6141000D01*
X14433000Y6096000D02*
X14523000D01*
X14478000Y6051000D02*
Y6141000D01*
X14941000Y6096000D02*
X15031000D01*
X14986000Y6051000D02*
Y6141000D01*
X15195000Y6096000D02*
X15285001D01*
X15239999Y6051000D02*
Y6141000D01*
X14178999Y6096000D02*
X14269000D01*
X14224001Y6051000D02*
Y6141000D01*
X13925000Y6096000D02*
X14014999D01*
X13970000Y6051000D02*
Y6141000D01*
X13417000Y6096000D02*
X13507001D01*
X13462000Y6051000D02*
Y6141000D01*
X13671001Y6096000D02*
X13761000D01*
X13716000Y6051000D02*
Y6141000D01*
X13163000Y6096000D02*
X13253000D01*
X13208000Y6051000D02*
Y6141000D01*
X10877000Y6096000D02*
X10967000D01*
X10922000Y6051000D02*
Y6141000D01*
X11385000Y6096000D02*
X11475000D01*
X11430000Y6051000D02*
Y6141000D01*
X11131000Y6096000D02*
X11221000D01*
X11176000Y6051000D02*
Y6141000D01*
X11639000Y6096000D02*
X11729000D01*
X11684000Y6051000D02*
Y6141000D01*
X11893000Y6096000D02*
X11983000D01*
X11938000Y6051000D02*
Y6141000D01*
X12909000Y6096000D02*
X12999001D01*
X12953999Y6051000D02*
Y6141000D01*
X12655000Y6096000D02*
X12745000D01*
X12700000Y6051000D02*
Y6141000D01*
X12147000Y6096000D02*
X12237000D01*
X12192000Y6051000D02*
Y6141000D01*
X12401000Y6096000D02*
X12491000D01*
X12446000Y6051000D02*
Y6141000D01*
X10369000Y6096000D02*
X10459000D01*
X10414000Y6051000D02*
Y6141000D01*
X10623000Y6096000D02*
X10713000D01*
X10668000Y6051000D02*
Y6141000D01*
X14687000Y8382000D02*
X14777000D01*
X14732001Y8337000D02*
Y8427000D01*
X14433000Y8382000D02*
X14523000D01*
X14478000Y8337000D02*
Y8427000D01*
X14941000Y8382000D02*
X15031000D01*
X14986000Y8337000D02*
Y8427000D01*
X15195000Y8382000D02*
X15285001D01*
X15239999Y8337000D02*
Y8427000D01*
X14178999Y8382000D02*
X14269000D01*
X14224001Y8337000D02*
Y8427000D01*
X13925000Y8382000D02*
X14014999D01*
X13970000Y8337000D02*
Y8427000D01*
X13417000Y8382000D02*
X13507001D01*
X13462000Y8337000D02*
Y8427000D01*
X13671001Y8382000D02*
X13761000D01*
X13716000Y8337000D02*
Y8427000D01*
X13163000Y8382000D02*
X13253000D01*
X13208000Y8337000D02*
Y8427000D01*
X10877000Y8382000D02*
X10967000D01*
X10922000Y8337000D02*
Y8427000D01*
X11385000Y8382000D02*
X11475000D01*
X11430000Y8337000D02*
Y8427000D01*
X11131000Y8382000D02*
X11221000D01*
X11176000Y8337000D02*
Y8427000D01*
X11639000Y8382000D02*
X11729000D01*
X11684000Y8337000D02*
Y8427000D01*
X11893000Y8382000D02*
X11983000D01*
X11938000Y8337000D02*
Y8427000D01*
X12909000Y8382000D02*
X12999001D01*
X12953999Y8337000D02*
Y8427000D01*
X12655000Y8382000D02*
X12745000D01*
X12700000Y8337000D02*
Y8427000D01*
X12147000Y8382000D02*
X12237000D01*
X12192000Y8337000D02*
Y8427000D01*
X12401000Y8382000D02*
X12491000D01*
X12446000Y8337000D02*
Y8427000D01*
X10369000Y8382000D02*
X10459000D01*
X10414000Y8337000D02*
Y8427000D01*
X10623000Y8382000D02*
X10713000D01*
X10668000Y8337000D02*
Y8427000D01*
X15090250Y7671000D02*
X15230251D01*
X15160249Y7601000D02*
Y7741000D01*
X15090250Y6807000D02*
X15230251D01*
X15160249Y6737000D02*
Y6877000D01*
X14657249Y7671000D02*
X14827251D01*
X14742250Y7586000D02*
Y7756000D01*
X14657249Y6807000D02*
X14827251D01*
X14742250Y6722000D02*
Y6892000D01*
X14759750Y6950000D02*
X14824750D01*
X14792250Y6917500D02*
Y6982500D01*
X14759750Y7528000D02*
X14824750D01*
X14792250Y7495500D02*
Y7560500D01*
X14615401Y7768600D02*
X14645399D01*
X14630400Y7753600D02*
Y7783600D01*
X14577299Y6853627D02*
X14607300D01*
X14592300Y6838627D02*
Y6868627D01*
X10272000Y8280400D02*
X10302000D01*
X10287000Y8265400D02*
Y8295400D01*
X10259300Y7594600D02*
X10289300D01*
X10274300Y7579600D02*
Y7609600D01*
X10322800Y7252656D02*
X10352800D01*
X10337800Y7237656D02*
Y7267656D01*
X10272000Y8178800D02*
X10302000D01*
X10287000Y8163800D02*
Y8193800D01*
X10272000Y7023100D02*
X10302000D01*
X10287000Y7008100D02*
Y7038100D01*
X10145000Y6959600D02*
X10175000D01*
X10160000Y6944600D02*
Y6974600D01*
X10259300Y7896050D02*
X10289300D01*
X10274300Y7881050D02*
Y7911050D01*
X10310100Y7442200D02*
X10340100D01*
X10325100Y7427200D02*
Y7457200D01*
X10145000Y7531100D02*
X10175000D01*
X10160000Y7516100D02*
Y7546100D01*
X11643600Y7658100D02*
X11673600D01*
X11658600Y7643100D02*
Y7673100D01*
X11732500Y7421200D02*
X11762500D01*
X11747500Y7406200D02*
Y7436200D01*
X11834100Y7279514D02*
X11864100D01*
X11849100Y7264514D02*
Y7294514D01*
X11923000Y7147767D02*
X11953000D01*
X11938000Y7132767D02*
Y7162766D01*
X13497800Y7710112D02*
X13527800D01*
X13512801Y7695112D02*
Y7725112D01*
X13269200Y7569200D02*
X13299200D01*
X13284200Y7554200D02*
Y7584200D01*
X12697700Y7213600D02*
X12727700D01*
X12712700Y7198600D02*
Y7228600D01*
X12672300Y7315200D02*
X12702300D01*
X12687300Y7300200D02*
Y7330200D01*
X14005800Y7874000D02*
X14035800D01*
X14020799Y7859000D02*
Y7889000D01*
X13662900Y7754443D02*
X13692900D01*
X13677901Y7739443D02*
Y7769443D01*
X12546256Y7734300D02*
X12576256D01*
X12561256Y7719300D02*
Y7749300D01*
X13218401Y7277100D02*
X13248399D01*
X13233400Y7262100D02*
Y7292100D01*
X13824500Y7150100D02*
X13854500D01*
X13839500Y7135100D02*
Y7165100D01*
X13824500Y7073900D02*
X13854500D01*
X13839500Y7058900D02*
Y7088900D01*
X13916901Y7092959D02*
X13946899D01*
X13931900Y7077959D02*
Y7107959D01*
X14143213Y7339000D02*
X14173213D01*
X14158212Y7324000D02*
Y7354000D01*
X14157800Y7053384D02*
X14187801D01*
X14172800Y7038384D02*
Y7068384D01*
X14221700Y7060153D02*
X14251700D01*
X14236700Y7045153D02*
Y7075153D01*
X14620915Y6464300D02*
X14650916D01*
X14635915Y6449300D02*
Y6479300D01*
X12596100Y7624373D02*
X12626100D01*
X12611100Y7609373D02*
Y7639373D01*
X12761200Y7325486D02*
X12791200D01*
X12776200Y7310486D02*
Y7340486D01*
X14285201Y7079270D02*
X14315199D01*
X14300200Y7064270D02*
Y7094270D01*
X14424899Y6782916D02*
X14454900D01*
X14439900Y6767916D02*
Y6797916D01*
X10872145Y6946098D02*
X10902145D01*
X10887145Y6931098D02*
Y6961098D01*
X10800673Y6995635D02*
X10830673D01*
X10815673Y6980635D02*
Y7010635D01*
X10907000Y6896100D02*
X10937000D01*
X10922000Y6881100D02*
Y6911100D01*
X10373600Y7188200D02*
X10403600D01*
X10388600Y7173200D02*
Y7203200D01*
X10708200Y7074252D02*
X10738200D01*
X10723200Y7059252D02*
Y7089252D01*
X10667596Y7121200D02*
X10697596D01*
X10682596Y7106200D02*
Y7136200D01*
X10678400Y6997700D02*
X10708400D01*
X10693400Y6982700D02*
Y7012700D01*
X10754600Y7035800D02*
X10784600D01*
X10769600Y7020800D02*
Y7050800D01*
X10945100Y6845300D02*
X10975100D01*
X10960100Y6830300D02*
Y6860300D01*
X10927655Y6756400D02*
X10957655D01*
X10942655Y6741400D02*
Y6771400D01*
X10767300Y6757749D02*
X10797300D01*
X10782300Y6742749D02*
Y6772749D01*
X10729200Y6819900D02*
X10759200D01*
X10744200Y6804900D02*
Y6834900D01*
X11161000Y6654800D02*
X11191000D01*
X11176000Y6639800D02*
Y6669800D01*
X11199100Y6718300D02*
X11229100D01*
X11214100Y6703300D02*
Y6733300D01*
X11262600Y6705600D02*
X11292600D01*
X11277600Y6690600D02*
Y6720600D01*
X11313400Y6757749D02*
X11343400D01*
X11328400Y6742749D02*
Y6772749D01*
X13192999Y6662800D02*
X13223000D01*
X13208000Y6647800D02*
Y6677800D01*
X13116800Y6662800D02*
X13146800D01*
X13131799Y6647800D02*
Y6677800D01*
X11453100Y6804130D02*
X11483100D01*
X11468100Y6789130D02*
Y6819130D01*
X11364200Y6819900D02*
X11394200D01*
X11379200Y6804900D02*
Y6834900D01*
X11402300Y6883400D02*
X11432300D01*
X11417300Y6868400D02*
Y6898400D01*
X11491200Y6870700D02*
X11521200D01*
X11506200Y6855700D02*
Y6885700D01*
X13421600Y7139000D02*
X13451601D01*
X13436600Y7124000D02*
Y7154000D01*
X13824500Y7225700D02*
X13854500D01*
X13839500Y7210700D02*
Y7240700D01*
X11961600Y7047000D02*
X11991600D01*
X11976600Y7032000D02*
Y7062000D01*
X11503900Y6992629D02*
X11533900D01*
X11518900Y6977629D02*
Y7007629D01*
X11618200Y6992629D02*
X11648200D01*
X11633200Y6977629D02*
Y7007629D01*
X13421600Y7214000D02*
X13451601D01*
X13436600Y7199000D02*
Y7229000D01*
X13421600Y7064270D02*
X13451601D01*
X13436600Y7049270D02*
Y7079270D01*
X13650200Y6982674D02*
X13680200D01*
X13665199Y6967674D02*
Y6997674D01*
X13574001Y6982674D02*
X13603999D01*
X13589000Y6967674D02*
Y6997674D01*
X11757900Y6985000D02*
X11787900D01*
X11772900Y6970000D02*
Y7000000D01*
X10576800Y7327900D02*
X10606800D01*
X10591800Y7312900D02*
Y7342900D01*
X10678400Y7353300D02*
X10708400D01*
X10693400Y7338300D02*
Y7368300D01*
X10729200Y7404100D02*
X10759200D01*
X10744200Y7389100D02*
Y7419100D01*
X10550563Y7510538D02*
X10580563D01*
X10565563Y7495538D02*
Y7525538D01*
X10780000Y7594600D02*
X10810000D01*
X10795000Y7579600D02*
Y7609600D01*
X11364200Y7899400D02*
X11394200D01*
X11379200Y7884400D02*
Y7914400D01*
X10849873Y7531100D02*
X10879873D01*
X10864873Y7516100D02*
Y7546100D01*
X10957800Y7632700D02*
X10987800D01*
X10972800Y7617700D02*
Y7647700D01*
X10995900Y7696200D02*
X11025900D01*
X11010900Y7681200D02*
Y7711200D01*
X11072100Y7747000D02*
X11102100D01*
X11087100Y7732000D02*
Y7762000D01*
X10864600Y7670800D02*
X10894600D01*
X10879600Y7655800D02*
Y7685800D01*
X11161000Y7810500D02*
X11191000D01*
X11176000Y7795500D02*
Y7825500D01*
X11330985Y7660007D02*
X11360985D01*
X11345985Y7645007D02*
Y7675007D01*
X11367062Y7611231D02*
X11397062D01*
X11382062Y7596231D02*
Y7626231D01*
X11503900Y7658100D02*
X11533900D01*
X11518900Y7643100D02*
Y7673100D01*
X11491200Y7528000D02*
X11521200D01*
X11506200Y7513000D02*
Y7543000D01*
X11567400Y7467600D02*
X11597400D01*
X11582400Y7452600D02*
Y7482600D01*
X11618200Y7378700D02*
X11648200D01*
X11633200Y7363700D02*
Y7393700D01*
X11567400Y7543800D02*
X11597400D01*
X11582400Y7528800D02*
Y7558800D01*
X11821400Y7416800D02*
X11851400D01*
X11836400Y7401800D02*
Y7431800D01*
X13027901Y7912100D02*
X13057899D01*
X13042900Y7897100D02*
Y7927100D01*
X12939000Y7899400D02*
X12969000D01*
X12953999Y7884400D02*
Y7914400D01*
X10424400Y7318549D02*
X10454400D01*
X10439400Y7303550D02*
Y7333549D01*
X10462500Y6870700D02*
X10492500D01*
X10477500Y6855700D02*
Y6885700D01*
X10833963Y6477000D02*
X10863963D01*
X10848963Y6462000D02*
Y6492000D01*
X10513300Y7950200D02*
X10543300D01*
X10528300Y7935200D02*
Y7965200D01*
X11719800Y7251700D02*
X11749800D01*
X11734800Y7236700D02*
Y7266700D01*
X11897600Y6804130D02*
X11927600D01*
X11912600Y6789130D02*
Y6819130D01*
X11479802Y6535072D02*
X11509802D01*
X11494802Y6520072D02*
Y6550071D01*
X11286837Y6527800D02*
X11316837D01*
X11301837Y6512800D02*
Y6542800D01*
X11338800Y7988300D02*
X11368800D01*
X11353800Y7973300D02*
Y8003300D01*
X15009100Y7213600D02*
X15039101D01*
X15024100Y7198600D02*
Y7228600D01*
X14104642Y6830097D02*
X14134641D01*
X14119641Y6815097D02*
Y6845097D01*
X13878799Y7442200D02*
X13908800D01*
X13893800Y7427200D02*
Y7457200D01*
X13612100Y7685000D02*
X13642101D01*
X13627100Y7670000D02*
Y7700000D01*
X13232800Y7730439D02*
X13262801D01*
X13247800Y7715439D02*
Y7745439D01*
X12024600Y8064500D02*
X12054600D01*
X12039600Y8049500D02*
Y8079500D01*
X12278693Y7899400D02*
X12308693D01*
X12293693Y7884400D02*
Y7914400D01*
X11968497Y7831900D02*
X11998496D01*
X11983496Y7816900D02*
Y7846900D01*
X12088100Y7618500D02*
X12118100D01*
X12103100Y7603500D02*
Y7633500D01*
X12443700Y6464300D02*
X12473700D01*
X12458700Y6449300D02*
Y6479300D01*
X12086600Y6722475D02*
X12116600D01*
X12101600Y6707475D02*
Y6737475D01*
X12316700Y6629400D02*
X12346700D01*
X12331700Y6614400D02*
Y6644400D01*
X12862801Y6527800D02*
X12892799D01*
X12877800Y6512800D02*
Y6542800D01*
X12978729Y6650000D02*
X13008730D01*
X12993729Y6635000D02*
Y6665000D01*
X13129500Y6818271D02*
X13159500D01*
X13144501Y6803271D02*
Y6833271D01*
X13231100Y7065759D02*
X13261099D01*
X13246100Y7050759D02*
Y7080759D01*
X12837308Y8001000D02*
X12867307D01*
X12852307Y7986000D02*
Y8016000D01*
X14234399Y6782916D02*
X14264400D01*
X14249400Y6767916D02*
Y6797916D01*
X14932899Y7772400D02*
X14962900D01*
X14947900Y7757400D02*
Y7787400D01*
X13192999Y7924800D02*
X13223000D01*
X13208000Y7909800D02*
Y7939800D01*
X13955000Y6947319D02*
X13985001D01*
X13970000Y6932319D02*
Y6962319D01*
X13650200Y6722475D02*
X13680200D01*
X13665199Y6707475D02*
Y6737475D01*
X13574001Y6722475D02*
X13603999D01*
X13589000Y6707475D02*
Y6737475D01*
X13650200Y6643600D02*
X13680200D01*
X13665199Y6628600D02*
Y6658600D01*
X13574001Y6643600D02*
X13603999D01*
X13589000Y6628600D02*
Y6658600D01*
X13737601Y6985000D02*
X13767599D01*
X13752600Y6970000D02*
Y7000000D01*
X13485100Y6985000D02*
X13515100D01*
X13500101Y6970000D02*
Y7000000D01*
X13332700Y6388100D02*
X13362700D01*
X13347701Y6373100D02*
Y6403100D01*
X13421600Y6689830D02*
X13451601D01*
X13436600Y6674830D02*
Y6704830D01*
X13332700Y6689830D02*
X13362700D01*
X13347701Y6674830D02*
Y6704830D01*
X13955000Y7950200D02*
X13985001D01*
X13970000Y7935200D02*
Y7965200D01*
X13382100Y7470900D02*
X13412100D01*
X13397099Y7455900D02*
Y7485900D01*
X13764500Y7442600D02*
X13794501D01*
X13779500Y7427600D02*
Y7457600D01*
X14564600Y7607300D02*
X14594600D01*
X14579601Y7592300D02*
Y7622300D01*
X14107401Y6438900D02*
X14137399D01*
X14122400Y6423900D02*
Y6453900D01*
X13993100Y6546641D02*
X14023100D01*
X14008099Y6531641D02*
Y6561641D01*
X14336000Y6464300D02*
X14366000D01*
X14350999Y6449300D02*
Y6479300D01*
X14513800Y6464300D02*
X14543800D01*
X14528799Y6449300D02*
Y6479300D01*
X14281548Y7810500D02*
X14311546D01*
X14296547Y7795500D02*
Y7825500D01*
X14777251Y7366000D02*
X14807249D01*
X14792250Y7351000D02*
Y7381000D01*
X14666200Y7835900D02*
X14696201D01*
X14681200Y7820900D02*
Y7850900D01*
X14348700Y7658100D02*
X14378700D01*
X14363699Y7643100D02*
Y7673100D01*
X14551900Y7086600D02*
X14581900D01*
X14566901Y7071600D02*
Y7101600D01*
X12304000Y7327900D02*
X12334000D01*
X12319000Y7312900D02*
Y7342900D01*
X11986500Y7316782D02*
X12016500D01*
X12001500Y7301782D02*
Y7331782D01*
X12532600Y7289800D02*
X12562600D01*
X12547600Y7274800D02*
Y7304800D01*
X10927655Y7316782D02*
X10957655D01*
X10942655Y7301782D02*
Y7331782D01*
X11083218Y7161218D02*
X11113218D01*
X11098218Y7146218D02*
Y7176218D01*
X11238782Y7005655D02*
X11268782D01*
X11253782Y6990655D02*
Y7020655D01*
X11005436Y7239000D02*
X11035436D01*
X11020436Y7224000D02*
Y7254000D01*
X11161000Y7083436D02*
X11191000D01*
X11176000Y7068436D02*
Y7098436D01*
X11083218Y7472345D02*
X11113218D01*
X11098218Y7457346D02*
Y7487345D01*
X11238782Y7316782D02*
X11268782D01*
X11253782Y7301782D02*
Y7331782D01*
X11394345Y7161218D02*
X11424345D01*
X11409345Y7146218D02*
Y7176218D01*
X11161000Y7394564D02*
X11191000D01*
X11176000Y7379564D02*
Y7409564D01*
X11316564Y7239000D02*
X11346564D01*
X11331564Y7224000D02*
Y7254000D01*
X11394345Y7316782D02*
X11424345D01*
X11409345Y7301782D02*
Y7331782D01*
X11238782Y7161218D02*
X11268782D01*
X11253782Y7146218D02*
Y7176218D01*
X11083218Y7005655D02*
X11113218D01*
X11098218Y6990655D02*
Y7020655D01*
X11238782Y7472345D02*
X11268782D01*
X11253782Y7457346D02*
Y7487345D01*
X11083218Y7316782D02*
X11113218D01*
X11098218Y7301782D02*
Y7331782D01*
X10927655Y7161218D02*
X10957655D01*
X10942655Y7146218D02*
Y7176218D01*
X11161000Y6927873D02*
X11191000D01*
X11176000Y6912873D02*
Y6942873D01*
X11005436Y7083436D02*
X11035436D01*
X11020436Y7068436D02*
Y7098436D01*
X10849873Y7239000D02*
X10879873D01*
X10864873Y7224000D02*
Y7254000D01*
X11316564Y7083436D02*
X11346564D01*
X11331564Y7068436D02*
Y7098436D01*
X11161000Y7239000D02*
X11191000D01*
X11176000Y7224000D02*
Y7254000D01*
X11005436Y7394564D02*
X11035436D01*
X11020436Y7379564D02*
Y7409564D01*
X11472127Y7239000D02*
X11502127D01*
X11487127Y7224000D02*
Y7254000D01*
X11316564Y7394564D02*
X11346564D01*
X11331564Y7379564D02*
Y7409564D01*
X11161000Y7550127D02*
X11191000D01*
X11176000Y7535127D02*
Y7565127D01*
%TF.MD5,aa445be57a50759923ab782fdfa46146*%
M02*
