%TF.GenerationSoftware,Altium Limited,Altium Designer,19.0.15 (446)*%
G04 Layer_Color=8388736*
%FSLAX45Y45*%
%MOMM*%
%TF.FileFunction,Soldermask,Top*%
%TF.Part,Single*%
G01*
G75*
%TA.AperFunction,ComponentPad*%
%ADD45C,1.87600*%
G04:AMPARAMS|DCode=46|XSize=1.076mm|YSize=1.876mm|CornerRadius=0.538mm|HoleSize=0mm|Usage=FLASHONLY|Rotation=90.000|XOffset=0mm|YOffset=0mm|HoleType=Round|Shape=RoundedRectangle|*
%AMROUNDEDRECTD46*
21,1,1.07600,0.80000,0,0,90.0*
21,1,0.00000,1.87600,0,0,90.0*
1,1,1.07600,0.40000,0.00000*
1,1,1.07600,0.40000,0.00000*
1,1,1.07600,-0.40000,0.00000*
1,1,1.07600,-0.40000,0.00000*
%
%ADD46ROUNDEDRECTD46*%
G04:AMPARAMS|DCode=47|XSize=1.076mm|YSize=2.176mm|CornerRadius=0.538mm|HoleSize=0mm|Usage=FLASHONLY|Rotation=90.000|XOffset=0mm|YOffset=0mm|HoleType=Round|Shape=RoundedRectangle|*
%AMROUNDEDRECTD47*
21,1,1.07600,1.10000,0,0,90.0*
21,1,0.00000,2.17600,0,0,90.0*
1,1,1.07600,0.55000,0.00000*
1,1,1.07600,0.55000,0.00000*
1,1,1.07600,-0.55000,0.00000*
1,1,1.07600,-0.55000,0.00000*
%
%ADD47ROUNDEDRECTD47*%
%ADD48C,0.07600*%
%TA.AperFunction,ViaPad*%
%ADD49C,0.57600*%
%TA.AperFunction,SMDPad,CuDef*%
%ADD56R,1.07600X0.67600*%
%ADD57P,8.31558X4X360.0*%
G04:AMPARAMS|DCode=58|XSize=0.38mm|YSize=0.68mm|CornerRadius=0mm|HoleSize=0mm|Usage=FLASHONLY|Rotation=315.000|XOffset=0mm|YOffset=0mm|HoleType=Round|Shape=Rectangle|*
%AMROTATEDRECTD58*
4,1,4,-0.37477,-0.10607,0.10607,0.37477,0.37477,0.10607,-0.10607,-0.37477,-0.37477,-0.10607,0.0*
%
%ADD58ROTATEDRECTD58*%

G04:AMPARAMS|DCode=59|XSize=0.38mm|YSize=0.68mm|CornerRadius=0mm|HoleSize=0mm|Usage=FLASHONLY|Rotation=45.000|XOffset=0mm|YOffset=0mm|HoleType=Round|Shape=Rectangle|*
%AMROTATEDRECTD59*
4,1,4,0.10607,-0.37477,-0.37477,0.10607,-0.10607,0.37477,0.37477,-0.10607,0.10607,-0.37477,0.0*
%
%ADD59ROTATEDRECTD59*%

%ADD60R,1.27600X1.27600*%
%ADD61R,1.02600X0.92600*%
G04:AMPARAMS|DCode=62|XSize=0.38mm|YSize=1.48mm|CornerRadius=0mm|HoleSize=0mm|Usage=FLASHONLY|Rotation=135.000|XOffset=0mm|YOffset=0mm|HoleType=Round|Shape=Rectangle|*
%AMROTATEDRECTD62*
4,1,4,0.65761,0.38891,-0.38891,-0.65761,-0.65761,-0.38891,0.38891,0.65761,0.65761,0.38891,0.0*
%
%ADD62ROTATEDRECTD62*%

G04:AMPARAMS|DCode=63|XSize=0.38mm|YSize=1.48mm|CornerRadius=0mm|HoleSize=0mm|Usage=FLASHONLY|Rotation=45.000|XOffset=0mm|YOffset=0mm|HoleType=Round|Shape=Rectangle|*
%AMROTATEDRECTD63*
4,1,4,0.38891,-0.65761,-0.65761,0.38891,-0.38891,0.65761,0.65761,-0.38891,0.38891,-0.65761,0.0*
%
%ADD63ROTATEDRECTD63*%

%ADD64R,0.92600X1.02600*%
%ADD65R,1.07600X0.97600*%
%ADD66R,1.22600X1.47600*%
G04:AMPARAMS|DCode=67|XSize=1.026mm|YSize=0.926mm|CornerRadius=0mm|HoleSize=0mm|Usage=FLASHONLY|Rotation=135.000|XOffset=0mm|YOffset=0mm|HoleType=Round|Shape=Rectangle|*
%AMROTATEDRECTD67*
4,1,4,0.69014,-0.03535,0.03535,-0.69014,-0.69014,0.03535,-0.03535,0.69014,0.69014,-0.03535,0.0*
%
%ADD67ROTATEDRECTD67*%

G04:AMPARAMS|DCode=68|XSize=1.076mm|YSize=0.976mm|CornerRadius=0mm|HoleSize=0mm|Usage=FLASHONLY|Rotation=225.000|XOffset=0mm|YOffset=0mm|HoleType=Round|Shape=Rectangle|*
%AMROTATEDRECTD68*
4,1,4,0.03535,0.72550,0.72550,0.03535,-0.03535,-0.72550,-0.72550,-0.03535,0.03535,0.72550,0.0*
%
%ADD68ROTATEDRECTD68*%

G04:AMPARAMS|DCode=69|XSize=1.026mm|YSize=0.926mm|CornerRadius=0mm|HoleSize=0mm|Usage=FLASHONLY|Rotation=225.000|XOffset=0mm|YOffset=0mm|HoleType=Round|Shape=Rectangle|*
%AMROTATEDRECTD69*
4,1,4,0.03535,0.69014,0.69014,0.03535,-0.03535,-0.69014,-0.69014,-0.03535,0.03535,0.69014,0.0*
%
%ADD69ROTATEDRECTD69*%

%ADD70R,1.47600X1.22600*%
%ADD71R,0.97600X1.07600*%
%TA.AperFunction,ConnectorPad*%
%ADD72R,1.37600X0.67600*%
%ADD73R,1.37600X0.37600*%
%TA.AperFunction,SMDPad,CuDef*%
%ADD74R,0.87600X0.97600*%
%ADD75R,1.27600X1.27600*%
G04:AMPARAMS|DCode=76|XSize=1.076mm|YSize=0.976mm|CornerRadius=0mm|HoleSize=0mm|Usage=FLASHONLY|Rotation=135.000|XOffset=0mm|YOffset=0mm|HoleType=Round|Shape=Rectangle|*
%AMROTATEDRECTD76*
4,1,4,0.72550,-0.03535,0.03535,-0.72550,-0.72550,0.03535,-0.03535,0.72550,0.72550,-0.03535,0.0*
%
%ADD76ROTATEDRECTD76*%

%ADD77R,3.87600X2.07600*%
%ADD78R,1.57600X2.07600*%
%ADD79R,1.37600X1.47600*%
%ADD80R,1.47600X1.37600*%
D45*
X14732001Y6096000D02*
D03*
X14478000D02*
D03*
X14986000D02*
D03*
X15239999D02*
D03*
X14224001D02*
D03*
X13970000D02*
D03*
X13462000D02*
D03*
X13716000D02*
D03*
X13208000D02*
D03*
X10922000D02*
D03*
X11430000D02*
D03*
X11176000D02*
D03*
X11684000D02*
D03*
X11938000D02*
D03*
X12953999D02*
D03*
X12700000D02*
D03*
X12192000D02*
D03*
X12446000D02*
D03*
X10414000D02*
D03*
X10668000D02*
D03*
X14732001Y8382000D02*
D03*
X14478000D02*
D03*
X14986000D02*
D03*
X15239999D02*
D03*
X14224001D02*
D03*
X13970000D02*
D03*
X13462000D02*
D03*
X13716000D02*
D03*
X13208000D02*
D03*
X10922000D02*
D03*
X11430000D02*
D03*
X11176000D02*
D03*
X11684000D02*
D03*
X11938000D02*
D03*
X12953999D02*
D03*
X12700000D02*
D03*
X12192000D02*
D03*
X12446000D02*
D03*
X10414000D02*
D03*
X10668000D02*
D03*
D46*
X15160249Y7671000D02*
D03*
Y6807000D02*
D03*
D47*
X14742250Y7671000D02*
D03*
Y6807000D02*
D03*
D48*
X14792250Y6950000D02*
D03*
Y7528000D02*
D03*
D49*
X14630400Y7768600D02*
D03*
X14592300Y6853627D02*
D03*
X10287000Y8280400D02*
D03*
X10274300Y7594600D02*
D03*
X10337800Y7252656D02*
D03*
X10287000Y8178800D02*
D03*
Y7023100D02*
D03*
X10160000Y6959600D02*
D03*
X10274300Y7896050D02*
D03*
X10325100Y7442200D02*
D03*
X10160000Y7531100D02*
D03*
X11658600Y7658100D02*
D03*
X11747500Y7421200D02*
D03*
X11849100Y7279514D02*
D03*
X11938000Y7147767D02*
D03*
X13512801Y7710112D02*
D03*
X13284200Y7569200D02*
D03*
X12712700Y7213600D02*
D03*
X12687300Y7315200D02*
D03*
X14020799Y7874000D02*
D03*
X13677901Y7754443D02*
D03*
X12561256Y7734300D02*
D03*
X13233400Y7277100D02*
D03*
X13839500Y7150100D02*
D03*
Y7073900D02*
D03*
X13931900Y7092959D02*
D03*
X14158212Y7339000D02*
D03*
X14172800Y7053384D02*
D03*
X14236700Y7060153D02*
D03*
X14635915Y6464300D02*
D03*
X12611100Y7624373D02*
D03*
X12776200Y7325486D02*
D03*
X14300200Y7079270D02*
D03*
X14439900Y6782916D02*
D03*
X10887145Y6946098D02*
D03*
X10815673Y6995635D02*
D03*
X10922000Y6896100D02*
D03*
X10388600Y7188200D02*
D03*
X10723200Y7074252D02*
D03*
X10682596Y7121200D02*
D03*
X10693400Y6997700D02*
D03*
X10769600Y7035800D02*
D03*
X10960100Y6845300D02*
D03*
X10942655Y6756400D02*
D03*
X10782300Y6757749D02*
D03*
X10744200Y6819900D02*
D03*
X11176000Y6654800D02*
D03*
X11214100Y6718300D02*
D03*
X11277600Y6705600D02*
D03*
X11328400Y6757749D02*
D03*
X13208000Y6662800D02*
D03*
X13131799D02*
D03*
X11468100Y6804130D02*
D03*
X11379200Y6819900D02*
D03*
X11417300Y6883400D02*
D03*
X11506200Y6870700D02*
D03*
X13436600Y7139000D02*
D03*
X13839500Y7225700D02*
D03*
X11976600Y7047000D02*
D03*
X11518900Y6992629D02*
D03*
X11633200D02*
D03*
X13436600Y7214000D02*
D03*
Y7064270D02*
D03*
X13665199Y6982674D02*
D03*
X13589000D02*
D03*
X11772900Y6985000D02*
D03*
X10591800Y7327900D02*
D03*
X10693400Y7353300D02*
D03*
X10744200Y7404100D02*
D03*
X10565563Y7510538D02*
D03*
X10795000Y7594600D02*
D03*
X11379200Y7899400D02*
D03*
X10864873Y7531100D02*
D03*
X10972800Y7632700D02*
D03*
X11010900Y7696200D02*
D03*
X11087100Y7747000D02*
D03*
X10879600Y7670800D02*
D03*
X11176000Y7810500D02*
D03*
X11345985Y7660007D02*
D03*
X11382062Y7611231D02*
D03*
X11518900Y7658100D02*
D03*
X11506200Y7528000D02*
D03*
X11582400Y7467600D02*
D03*
X11633200Y7378700D02*
D03*
X11582400Y7543800D02*
D03*
X11836400Y7416800D02*
D03*
X13042900Y7912100D02*
D03*
X12953999Y7899400D02*
D03*
X10439400Y7318549D02*
D03*
X10477500Y6870700D02*
D03*
X10848963Y6477000D02*
D03*
X10528300Y7950200D02*
D03*
X11734800Y7251700D02*
D03*
X11912600Y6804130D02*
D03*
X11494802Y6535072D02*
D03*
X11301837Y6527800D02*
D03*
X11353800Y7988300D02*
D03*
X15024100Y7213600D02*
D03*
X14119641Y6830097D02*
D03*
X13893800Y7442200D02*
D03*
X13627100Y7685000D02*
D03*
X13247800Y7730439D02*
D03*
X12039600Y8064500D02*
D03*
X12293693Y7899400D02*
D03*
X11983496Y7831900D02*
D03*
X12103100Y7618500D02*
D03*
X12458700Y6464300D02*
D03*
X12101600Y6722475D02*
D03*
X12331700Y6629400D02*
D03*
X12877800Y6527800D02*
D03*
X12993729Y6650000D02*
D03*
X13144501Y6818271D02*
D03*
X13246100Y7065759D02*
D03*
X12852307Y8001000D02*
D03*
X14249400Y6782916D02*
D03*
X14947900Y7772400D02*
D03*
X13208000Y7924800D02*
D03*
X13970000Y6947319D02*
D03*
X13665199Y6722475D02*
D03*
X13589000D02*
D03*
X13665199Y6643600D02*
D03*
X13589000D02*
D03*
X13752600Y6985000D02*
D03*
X13500101D02*
D03*
X13347701Y6388100D02*
D03*
X13436600Y6689830D02*
D03*
X13347701D02*
D03*
X13970000Y7950200D02*
D03*
X13397099Y7470900D02*
D03*
X13779500Y7442600D02*
D03*
X14579601Y7607300D02*
D03*
X14122400Y6438900D02*
D03*
X14008099Y6546641D02*
D03*
X14350999Y6464300D02*
D03*
X14528799D02*
D03*
X14296547Y7810500D02*
D03*
X14792250Y7366000D02*
D03*
X14681200Y7835900D02*
D03*
X14363699Y7658100D02*
D03*
X14566901Y7086600D02*
D03*
X12319000Y7327900D02*
D03*
X12001500Y7316782D02*
D03*
X12547600Y7289800D02*
D03*
X10942655Y7316782D02*
D03*
X11098218Y7161218D02*
D03*
X11253782Y7005655D02*
D03*
X11020436Y7239000D02*
D03*
X11176000Y7083436D02*
D03*
X11098218Y7472345D02*
D03*
X11253782Y7316782D02*
D03*
X11409345Y7161218D02*
D03*
X11176000Y7394564D02*
D03*
X11331564Y7239000D02*
D03*
X11409345Y7316782D02*
D03*
X11253782Y7161218D02*
D03*
X11098218Y7005655D02*
D03*
X11253782Y7472345D02*
D03*
X11098218Y7316782D02*
D03*
X10942655Y7161218D02*
D03*
X11176000Y6927873D02*
D03*
X11020436Y7083436D02*
D03*
X10864873Y7239000D02*
D03*
X11331564Y7083436D02*
D03*
X11176000Y7239000D02*
D03*
X11020436Y7394564D02*
D03*
X11487127Y7239000D02*
D03*
X11331564Y7394564D02*
D03*
X11176000Y7550127D02*
D03*
D56*
X14234500Y7740400D02*
D03*
X13959500Y7550400D02*
D03*
Y7740400D02*
D03*
X14234500Y7645400D02*
D03*
Y7550400D02*
D03*
X13959500Y7645400D02*
D03*
D57*
X11176000Y7239000D02*
D03*
D58*
X11220194Y7672103D02*
D03*
X11255549Y7636748D02*
D03*
X11290905Y7601392D02*
D03*
X11326260Y7566037D02*
D03*
X11361616Y7530681D02*
D03*
X11396971Y7495326D02*
D03*
X11432326Y7459971D02*
D03*
X11467682Y7424616D02*
D03*
X11503037Y7389260D02*
D03*
X11538392Y7353905D02*
D03*
X11573747Y7318549D02*
D03*
X11609103Y7283194D02*
D03*
X11131806Y6805897D02*
D03*
X11096451Y6841253D02*
D03*
X11061095Y6876608D02*
D03*
X11025740Y6911963D02*
D03*
X10990385Y6947319D02*
D03*
X10955029Y6982674D02*
D03*
X10919674Y7018029D02*
D03*
X10884319Y7053384D02*
D03*
X10848963Y7088740D02*
D03*
X10813608Y7124095D02*
D03*
X10778253Y7159451D02*
D03*
X10742897Y7194806D02*
D03*
D59*
X11609103D02*
D03*
X11573747Y7159451D02*
D03*
X11538392Y7124095D02*
D03*
X11503037Y7088740D02*
D03*
X11467681Y7053384D02*
D03*
X11432326Y7018029D02*
D03*
X11396971Y6982674D02*
D03*
X11361615Y6947319D02*
D03*
X11326260Y6911963D02*
D03*
X11290905Y6876608D02*
D03*
X11255549Y6841253D02*
D03*
X11220194Y6805897D02*
D03*
X10742897Y7283194D02*
D03*
X10778253Y7318549D02*
D03*
X10813608Y7353905D02*
D03*
X10848963Y7389260D02*
D03*
X10884318Y7424616D02*
D03*
X10919674Y7459971D02*
D03*
X10955029Y7495326D02*
D03*
X10990384Y7530681D02*
D03*
X11025740Y7566037D02*
D03*
X11061095Y7601392D02*
D03*
X11096451Y7636748D02*
D03*
X11131806Y7672103D02*
D03*
D60*
X10160000Y6455000D02*
D03*
Y6245000D02*
D03*
Y8233000D02*
D03*
Y8023000D02*
D03*
Y7156000D02*
D03*
Y7366000D02*
D03*
D61*
Y6729500D02*
D03*
Y6859500D02*
D03*
X13589000Y7428000D02*
D03*
Y7558000D02*
D03*
X13398500Y7555000D02*
D03*
Y7685000D02*
D03*
X10160000Y7748500D02*
D03*
Y7618500D02*
D03*
X10439400Y7659600D02*
D03*
Y7529600D02*
D03*
X14452600Y7177000D02*
D03*
Y7047000D02*
D03*
X14752863Y6513600D02*
D03*
Y6643600D02*
D03*
X14808200Y7834400D02*
D03*
Y7964400D02*
D03*
D62*
X12081561Y7136470D02*
D03*
X12116916Y7101114D02*
D03*
X12152272Y7065759D02*
D03*
X12187627Y7030404D02*
D03*
X12222982Y6995048D02*
D03*
X12258338Y6959693D02*
D03*
X12293693Y6924337D02*
D03*
X12329048Y6888982D02*
D03*
X12364404Y6853627D02*
D03*
X12399759Y6818271D02*
D03*
X12435114Y6782916D02*
D03*
X12470470Y6747561D02*
D03*
X13064439Y7341531D02*
D03*
X13029083Y7376886D02*
D03*
X12993729Y7412241D02*
D03*
X12958372Y7447597D02*
D03*
X12923018Y7482952D02*
D03*
X12887663Y7518307D02*
D03*
X12852307Y7553663D02*
D03*
X12816953Y7589018D02*
D03*
X12781597Y7624373D02*
D03*
X12746241Y7659729D02*
D03*
X12710886Y7695084D02*
D03*
X12675531Y7730439D02*
D03*
D63*
Y6747561D02*
D03*
X12710886Y6782916D02*
D03*
X12746241Y6818271D02*
D03*
X12781597Y6853627D02*
D03*
X12816953Y6888982D02*
D03*
X12852307Y6924337D02*
D03*
X12887663Y6959693D02*
D03*
X12923018Y6995048D02*
D03*
X12958372Y7030403D02*
D03*
X12993729Y7065759D02*
D03*
X13029083Y7101114D02*
D03*
X13064439Y7136469D02*
D03*
X12470470Y7730439D02*
D03*
X12435114Y7695084D02*
D03*
X12399759Y7659729D02*
D03*
X12364404Y7624373D02*
D03*
X12329048Y7589018D02*
D03*
X12293693Y7553663D02*
D03*
X12258338Y7518307D02*
D03*
X12222982Y7482952D02*
D03*
X12187627Y7447596D02*
D03*
X12152272Y7412241D02*
D03*
X12116916Y7376886D02*
D03*
X12081561Y7341530D02*
D03*
D64*
X11876000Y7937500D02*
D03*
X11746000D02*
D03*
X12101600Y7785100D02*
D03*
X12231600D02*
D03*
X12457200Y6578600D02*
D03*
X12587200D02*
D03*
X12038100Y7962900D02*
D03*
X12168100D02*
D03*
X14413000Y7772400D02*
D03*
X14542999D02*
D03*
X14644600Y7950200D02*
D03*
X14514600D02*
D03*
X12549100D02*
D03*
X12419100D02*
D03*
X14070100Y6946900D02*
D03*
X14200101D02*
D03*
X14133600Y7950200D02*
D03*
X14263600D02*
D03*
X13752600D02*
D03*
X13882600D02*
D03*
D65*
X13779500Y7552500D02*
D03*
Y7687500D02*
D03*
X11404600Y6527800D02*
D03*
Y6662800D02*
D03*
X14465900Y7585900D02*
D03*
Y7450900D02*
D03*
X10439400Y7966900D02*
D03*
Y7831900D02*
D03*
X14350999Y6696900D02*
D03*
Y6561900D02*
D03*
X14528799Y6696900D02*
D03*
Y6561900D02*
D03*
D66*
X11776700Y6574200D02*
D03*
X11616700D02*
D03*
X11776700Y6794200D02*
D03*
X11616700D02*
D03*
D67*
X12768338Y6608838D02*
D03*
X12860262Y6700762D02*
D03*
X11701538Y7510538D02*
D03*
X11793462Y7602462D02*
D03*
D68*
X12125430Y6546641D02*
D03*
X12029970Y6642100D02*
D03*
X10512530Y6619770D02*
D03*
X10417070Y6715230D02*
D03*
X10823470Y6639030D02*
D03*
X10918930Y6543570D02*
D03*
X11426930Y7699270D02*
D03*
X11331470Y7794730D02*
D03*
X11001270Y6689830D02*
D03*
X11096730Y6594370D02*
D03*
X10677630Y6730116D02*
D03*
X10582170Y6825575D02*
D03*
X10759970Y6931130D02*
D03*
X10855430Y6835670D02*
D03*
X10601430Y7153170D02*
D03*
X10505970Y7248630D02*
D03*
X12156970Y6804130D02*
D03*
X12252430Y6708670D02*
D03*
X12862030Y7826270D02*
D03*
X12766570Y7921730D02*
D03*
D69*
X10502062Y6989838D02*
D03*
X10410138Y7081762D02*
D03*
X13228561Y7434338D02*
D03*
X13136638Y7526262D02*
D03*
X11498338Y7856462D02*
D03*
X11590262Y7764538D02*
D03*
D70*
X10659600Y7768600D02*
D03*
Y7928600D02*
D03*
X10879600Y7768600D02*
D03*
Y7928600D02*
D03*
D71*
X11243500Y7975600D02*
D03*
X11108500D02*
D03*
X14359700Y6883400D02*
D03*
X14494701D02*
D03*
D72*
X14684750Y7559000D02*
D03*
Y7479000D02*
D03*
Y6919000D02*
D03*
Y6999000D02*
D03*
D73*
Y7414000D02*
D03*
Y7364000D02*
D03*
Y7314000D02*
D03*
Y7264000D02*
D03*
Y7214000D02*
D03*
Y7164000D02*
D03*
Y7114000D02*
D03*
Y7064000D02*
D03*
D74*
X14268201Y7339000D02*
D03*
X14078200D02*
D03*
X14173199Y7139000D02*
D03*
D75*
X15192599Y6553200D02*
D03*
X14982600D02*
D03*
X15008000Y7924800D02*
D03*
X15217999D02*
D03*
X13331599D02*
D03*
X13541600D02*
D03*
D76*
X11674370Y7064270D02*
D03*
X11769830Y7159730D02*
D03*
X10728430Y7540730D02*
D03*
X10632970Y7445270D02*
D03*
X12036530Y7553430D02*
D03*
X11941070Y7457970D02*
D03*
X13071370Y6895920D02*
D03*
X13166830Y6991379D02*
D03*
D77*
X13627100Y7173000D02*
D03*
D78*
X13857100Y6543000D02*
D03*
X13627100D02*
D03*
X13397099D02*
D03*
D79*
X13161000Y6527800D02*
D03*
X13000999D02*
D03*
D80*
X14122400Y6549400D02*
D03*
Y6709400D02*
D03*
%TF.MD5,effcccba9467f7c3d8f625aaaccf160d*%
M02*
