%TF.GenerationSoftware,Altium Limited,Altium Designer,19.0.15 (446)*%
G04 Layer_Color=255*
%FSLAX45Y45*%
%MOMM*%
%TF.FileFunction,Pads,Top*%
%TF.Part,Single*%
G01*
G75*
%TA.AperFunction,SMDPad,CuDef*%
%ADD10R,1.00000X0.60000*%
%ADD11P,8.20244X4X360.0*%
G04:AMPARAMS|DCode=12|XSize=0.3mm|YSize=0.6mm|CornerRadius=0mm|HoleSize=0mm|Usage=FLASHONLY|Rotation=315.000|XOffset=0mm|YOffset=0mm|HoleType=Round|Shape=Rectangle|*
%AMROTATEDRECTD12*
4,1,4,-0.31820,-0.10607,0.10607,0.31820,0.31820,0.10607,-0.10607,-0.31820,-0.31820,-0.10607,0.0*
%
%ADD12ROTATEDRECTD12*%

G04:AMPARAMS|DCode=13|XSize=0.3mm|YSize=0.6mm|CornerRadius=0mm|HoleSize=0mm|Usage=FLASHONLY|Rotation=45.000|XOffset=0mm|YOffset=0mm|HoleType=Round|Shape=Rectangle|*
%AMROTATEDRECTD13*
4,1,4,0.10607,-0.31820,-0.31820,0.10607,-0.10607,0.31820,0.31820,-0.10607,0.10607,-0.31820,0.0*
%
%ADD13ROTATEDRECTD13*%

%ADD14R,1.20000X1.20000*%
%ADD15R,0.95000X0.85000*%
G04:AMPARAMS|DCode=16|XSize=0.3mm|YSize=1.4mm|CornerRadius=0mm|HoleSize=0mm|Usage=FLASHONLY|Rotation=135.000|XOffset=0mm|YOffset=0mm|HoleType=Round|Shape=Rectangle|*
%AMROTATEDRECTD16*
4,1,4,0.60104,0.38891,-0.38891,-0.60104,-0.60104,-0.38891,0.38891,0.60104,0.60104,0.38891,0.0*
%
%ADD16ROTATEDRECTD16*%

G04:AMPARAMS|DCode=17|XSize=0.3mm|YSize=1.4mm|CornerRadius=0mm|HoleSize=0mm|Usage=FLASHONLY|Rotation=45.000|XOffset=0mm|YOffset=0mm|HoleType=Round|Shape=Rectangle|*
%AMROTATEDRECTD17*
4,1,4,0.38891,-0.60104,-0.60104,0.38891,-0.38891,0.60104,0.60104,-0.38891,0.38891,-0.60104,0.0*
%
%ADD17ROTATEDRECTD17*%

%ADD18R,0.85000X0.95000*%
%ADD19R,1.00000X0.90000*%
%ADD20R,1.15000X1.40000*%
G04:AMPARAMS|DCode=21|XSize=0.95mm|YSize=0.85mm|CornerRadius=0mm|HoleSize=0mm|Usage=FLASHONLY|Rotation=135.000|XOffset=0mm|YOffset=0mm|HoleType=Round|Shape=Rectangle|*
%AMROTATEDRECTD21*
4,1,4,0.63640,-0.03535,0.03535,-0.63640,-0.63640,0.03535,-0.03535,0.63640,0.63640,-0.03535,0.0*
%
%ADD21ROTATEDRECTD21*%

G04:AMPARAMS|DCode=22|XSize=1mm|YSize=0.9mm|CornerRadius=0mm|HoleSize=0mm|Usage=FLASHONLY|Rotation=225.000|XOffset=0mm|YOffset=0mm|HoleType=Round|Shape=Rectangle|*
%AMROTATEDRECTD22*
4,1,4,0.03535,0.67175,0.67175,0.03535,-0.03535,-0.67175,-0.67175,-0.03535,0.03535,0.67175,0.0*
%
%ADD22ROTATEDRECTD22*%

G04:AMPARAMS|DCode=23|XSize=0.95mm|YSize=0.85mm|CornerRadius=0mm|HoleSize=0mm|Usage=FLASHONLY|Rotation=225.000|XOffset=0mm|YOffset=0mm|HoleType=Round|Shape=Rectangle|*
%AMROTATEDRECTD23*
4,1,4,0.03535,0.63640,0.63640,0.03535,-0.03535,-0.63640,-0.63640,-0.03535,0.03535,0.63640,0.0*
%
%ADD23ROTATEDRECTD23*%

%ADD24R,1.40000X1.15000*%
%ADD25R,0.90000X1.00000*%
%TA.AperFunction,ConnectorPad*%
%ADD26R,1.30000X0.60000*%
%ADD27R,1.30000X0.30000*%
%TA.AperFunction,SMDPad,CuDef*%
%ADD28R,0.80000X0.90000*%
%ADD29R,1.20000X1.20000*%
G04:AMPARAMS|DCode=30|XSize=1mm|YSize=0.9mm|CornerRadius=0mm|HoleSize=0mm|Usage=FLASHONLY|Rotation=135.000|XOffset=0mm|YOffset=0mm|HoleType=Round|Shape=Rectangle|*
%AMROTATEDRECTD30*
4,1,4,0.67175,-0.03535,0.03535,-0.67175,-0.67175,0.03535,-0.03535,0.67175,0.67175,-0.03535,0.0*
%
%ADD30ROTATEDRECTD30*%

%ADD31R,3.80000X2.00000*%
%ADD32R,1.50000X2.00000*%
%ADD33R,1.30000X1.40000*%
%ADD34R,1.40000X1.30000*%
%TA.AperFunction,ComponentPad*%
%ADD38C,1.80000*%
G04:AMPARAMS|DCode=39|XSize=1mm|YSize=1.8mm|CornerRadius=0.5mm|HoleSize=0mm|Usage=FLASHONLY|Rotation=90.000|XOffset=0mm|YOffset=0mm|HoleType=Round|Shape=RoundedRectangle|*
%AMROUNDEDRECTD39*
21,1,1.00000,0.80000,0,0,90.0*
21,1,0.00000,1.80000,0,0,90.0*
1,1,1.00000,0.40000,0.00000*
1,1,1.00000,0.40000,0.00000*
1,1,1.00000,-0.40000,0.00000*
1,1,1.00000,-0.40000,0.00000*
%
%ADD39ROUNDEDRECTD39*%
G04:AMPARAMS|DCode=40|XSize=1mm|YSize=2.1mm|CornerRadius=0.5mm|HoleSize=0mm|Usage=FLASHONLY|Rotation=90.000|XOffset=0mm|YOffset=0mm|HoleType=Round|Shape=RoundedRectangle|*
%AMROUNDEDRECTD40*
21,1,1.00000,1.10000,0,0,90.0*
21,1,0.00000,2.10000,0,0,90.0*
1,1,1.00000,0.55000,0.00000*
1,1,1.00000,0.55000,0.00000*
1,1,1.00000,-0.55000,0.00000*
1,1,1.00000,-0.55000,0.00000*
%
%ADD40ROUNDEDRECTD40*%
D10*
X14234500Y7740400D02*
D03*
X13959500Y7550400D02*
D03*
Y7740400D02*
D03*
X14234500Y7645400D02*
D03*
Y7550400D02*
D03*
X13959500Y7645400D02*
D03*
D11*
X11176000Y7239000D02*
D03*
D12*
X11220194Y7672103D02*
D03*
X11255549Y7636748D02*
D03*
X11290905Y7601392D02*
D03*
X11326260Y7566037D02*
D03*
X11361616Y7530681D02*
D03*
X11396971Y7495326D02*
D03*
X11432326Y7459971D02*
D03*
X11467682Y7424616D02*
D03*
X11503037Y7389260D02*
D03*
X11538392Y7353905D02*
D03*
X11573747Y7318549D02*
D03*
X11609103Y7283194D02*
D03*
X11131806Y6805897D02*
D03*
X11096451Y6841253D02*
D03*
X11061095Y6876608D02*
D03*
X11025740Y6911963D02*
D03*
X10990385Y6947319D02*
D03*
X10955029Y6982674D02*
D03*
X10919674Y7018029D02*
D03*
X10884319Y7053384D02*
D03*
X10848963Y7088740D02*
D03*
X10813608Y7124095D02*
D03*
X10778253Y7159451D02*
D03*
X10742897Y7194806D02*
D03*
D13*
X11609103D02*
D03*
X11573747Y7159451D02*
D03*
X11538392Y7124095D02*
D03*
X11503037Y7088740D02*
D03*
X11467681Y7053384D02*
D03*
X11432326Y7018029D02*
D03*
X11396971Y6982674D02*
D03*
X11361615Y6947319D02*
D03*
X11326260Y6911963D02*
D03*
X11290905Y6876608D02*
D03*
X11255549Y6841253D02*
D03*
X11220194Y6805897D02*
D03*
X10742897Y7283194D02*
D03*
X10778253Y7318549D02*
D03*
X10813608Y7353905D02*
D03*
X10848963Y7389260D02*
D03*
X10884318Y7424616D02*
D03*
X10919674Y7459971D02*
D03*
X10955029Y7495326D02*
D03*
X10990384Y7530681D02*
D03*
X11025740Y7566037D02*
D03*
X11061095Y7601392D02*
D03*
X11096451Y7636748D02*
D03*
X11131806Y7672103D02*
D03*
D14*
X10160000Y6455000D02*
D03*
Y6245000D02*
D03*
Y8233000D02*
D03*
Y8023000D02*
D03*
Y7156000D02*
D03*
Y7366000D02*
D03*
D15*
Y6729500D02*
D03*
Y6859500D02*
D03*
X13589000Y7428000D02*
D03*
Y7558000D02*
D03*
X13398500Y7555000D02*
D03*
Y7685000D02*
D03*
X10160000Y7748500D02*
D03*
Y7618500D02*
D03*
X10439400Y7659600D02*
D03*
Y7529600D02*
D03*
X14452600Y7177000D02*
D03*
Y7047000D02*
D03*
X14752863Y6513600D02*
D03*
Y6643600D02*
D03*
X14808200Y7834400D02*
D03*
Y7964400D02*
D03*
D16*
X12081561Y7136470D02*
D03*
X12116916Y7101114D02*
D03*
X12152272Y7065759D02*
D03*
X12187627Y7030404D02*
D03*
X12222982Y6995048D02*
D03*
X12258338Y6959693D02*
D03*
X12293693Y6924337D02*
D03*
X12329048Y6888982D02*
D03*
X12364404Y6853627D02*
D03*
X12399759Y6818271D02*
D03*
X12435114Y6782916D02*
D03*
X12470470Y6747561D02*
D03*
X13064439Y7341531D02*
D03*
X13029083Y7376886D02*
D03*
X12993729Y7412241D02*
D03*
X12958372Y7447597D02*
D03*
X12923018Y7482952D02*
D03*
X12887663Y7518307D02*
D03*
X12852307Y7553663D02*
D03*
X12816953Y7589018D02*
D03*
X12781597Y7624373D02*
D03*
X12746241Y7659729D02*
D03*
X12710886Y7695084D02*
D03*
X12675531Y7730439D02*
D03*
D17*
Y6747561D02*
D03*
X12710886Y6782916D02*
D03*
X12746241Y6818271D02*
D03*
X12781597Y6853627D02*
D03*
X12816953Y6888982D02*
D03*
X12852307Y6924337D02*
D03*
X12887663Y6959693D02*
D03*
X12923018Y6995048D02*
D03*
X12958372Y7030403D02*
D03*
X12993729Y7065759D02*
D03*
X13029083Y7101114D02*
D03*
X13064439Y7136469D02*
D03*
X12470470Y7730439D02*
D03*
X12435114Y7695084D02*
D03*
X12399759Y7659729D02*
D03*
X12364404Y7624373D02*
D03*
X12329048Y7589018D02*
D03*
X12293693Y7553663D02*
D03*
X12258338Y7518307D02*
D03*
X12222982Y7482952D02*
D03*
X12187627Y7447596D02*
D03*
X12152272Y7412241D02*
D03*
X12116916Y7376886D02*
D03*
X12081561Y7341530D02*
D03*
D18*
X11876000Y7937500D02*
D03*
X11746000D02*
D03*
X12101600Y7785100D02*
D03*
X12231600D02*
D03*
X12457200Y6578600D02*
D03*
X12587200D02*
D03*
X12038100Y7962900D02*
D03*
X12168100D02*
D03*
X14413000Y7772400D02*
D03*
X14542999D02*
D03*
X14644600Y7950200D02*
D03*
X14514600D02*
D03*
X12549100D02*
D03*
X12419100D02*
D03*
X14070100Y6946900D02*
D03*
X14200101D02*
D03*
X14133600Y7950200D02*
D03*
X14263600D02*
D03*
X13752600D02*
D03*
X13882600D02*
D03*
D19*
X13779500Y7552500D02*
D03*
Y7687500D02*
D03*
X11404600Y6527800D02*
D03*
Y6662800D02*
D03*
X14465900Y7585900D02*
D03*
Y7450900D02*
D03*
X10439400Y7966900D02*
D03*
Y7831900D02*
D03*
X14350999Y6696900D02*
D03*
Y6561900D02*
D03*
X14528799Y6696900D02*
D03*
Y6561900D02*
D03*
D20*
X11776700Y6574200D02*
D03*
X11616700D02*
D03*
X11776700Y6794200D02*
D03*
X11616700D02*
D03*
D21*
X12768338Y6608838D02*
D03*
X12860262Y6700762D02*
D03*
X11701538Y7510538D02*
D03*
X11793462Y7602462D02*
D03*
D22*
X12125430Y6546641D02*
D03*
X12029970Y6642100D02*
D03*
X10512530Y6619770D02*
D03*
X10417070Y6715230D02*
D03*
X10823470Y6639030D02*
D03*
X10918930Y6543570D02*
D03*
X11426930Y7699270D02*
D03*
X11331470Y7794730D02*
D03*
X11001270Y6689830D02*
D03*
X11096730Y6594370D02*
D03*
X10677630Y6730116D02*
D03*
X10582170Y6825575D02*
D03*
X10759970Y6931130D02*
D03*
X10855430Y6835670D02*
D03*
X10601430Y7153170D02*
D03*
X10505970Y7248630D02*
D03*
X12156970Y6804130D02*
D03*
X12252430Y6708670D02*
D03*
X12862030Y7826270D02*
D03*
X12766570Y7921730D02*
D03*
D23*
X10502062Y6989838D02*
D03*
X10410138Y7081762D02*
D03*
X13228561Y7434338D02*
D03*
X13136638Y7526262D02*
D03*
X11498338Y7856462D02*
D03*
X11590262Y7764538D02*
D03*
D24*
X10659600Y7768600D02*
D03*
Y7928600D02*
D03*
X10879600Y7768600D02*
D03*
Y7928600D02*
D03*
D25*
X11243500Y7975600D02*
D03*
X11108500D02*
D03*
X14359700Y6883400D02*
D03*
X14494701D02*
D03*
D26*
X14684750Y7559000D02*
D03*
Y7479000D02*
D03*
Y6919000D02*
D03*
Y6999000D02*
D03*
D27*
Y7414000D02*
D03*
Y7364000D02*
D03*
Y7314000D02*
D03*
Y7264000D02*
D03*
Y7214000D02*
D03*
Y7164000D02*
D03*
Y7114000D02*
D03*
Y7064000D02*
D03*
D28*
X14268201Y7339000D02*
D03*
X14078200D02*
D03*
X14173199Y7139000D02*
D03*
D29*
X15192599Y6553200D02*
D03*
X14982600D02*
D03*
X15008000Y7924800D02*
D03*
X15217999D02*
D03*
X13331599D02*
D03*
X13541600D02*
D03*
D30*
X11674370Y7064270D02*
D03*
X11769830Y7159730D02*
D03*
X10728430Y7540730D02*
D03*
X10632970Y7445270D02*
D03*
X12036530Y7553430D02*
D03*
X11941070Y7457970D02*
D03*
X13071370Y6895920D02*
D03*
X13166830Y6991379D02*
D03*
D31*
X13627100Y7173000D02*
D03*
D32*
X13857100Y6543000D02*
D03*
X13627100D02*
D03*
X13397099D02*
D03*
D33*
X13161000Y6527800D02*
D03*
X13000999D02*
D03*
D34*
X14122400Y6549400D02*
D03*
Y6709400D02*
D03*
D38*
X14732001Y6096000D02*
D03*
X14478000D02*
D03*
X14986000D02*
D03*
X15239999D02*
D03*
X14224001D02*
D03*
X13970000D02*
D03*
X13462000D02*
D03*
X13716000D02*
D03*
X13208000D02*
D03*
X10922000D02*
D03*
X11430000D02*
D03*
X11176000D02*
D03*
X11684000D02*
D03*
X11938000D02*
D03*
X12953999D02*
D03*
X12700000D02*
D03*
X12192000D02*
D03*
X12446000D02*
D03*
X10414000D02*
D03*
X10668000D02*
D03*
X14732001Y8382000D02*
D03*
X14478000D02*
D03*
X14986000D02*
D03*
X15239999D02*
D03*
X14224001D02*
D03*
X13970000D02*
D03*
X13462000D02*
D03*
X13716000D02*
D03*
X13208000D02*
D03*
X10922000D02*
D03*
X11430000D02*
D03*
X11176000D02*
D03*
X11684000D02*
D03*
X11938000D02*
D03*
X12953999D02*
D03*
X12700000D02*
D03*
X12192000D02*
D03*
X12446000D02*
D03*
X10414000D02*
D03*
X10668000D02*
D03*
D39*
X15160249Y7671000D02*
D03*
Y6807000D02*
D03*
D40*
X14742250Y7671000D02*
D03*
Y6807000D02*
D03*
%TF.MD5,648ea82f9377dd2ada6541ace6c3effb*%
M02*
