%TF.GenerationSoftware,Altium Limited,Altium Designer,19.0.15 (446)*%
G04 Layer_Physical_Order=1*
G04 Layer_Color=255*
%FSLAX45Y45*%
%MOMM*%
%TF.FileFunction,Copper,L1,Top,Signal*%
%TF.Part,Single*%
G01*
G75*
%TA.AperFunction,SMDPad,CuDef*%
%ADD10R,1.00000X0.60000*%
%ADD11P,8.20244X4X360.0*%
G04:AMPARAMS|DCode=12|XSize=0.3mm|YSize=0.6mm|CornerRadius=0mm|HoleSize=0mm|Usage=FLASHONLY|Rotation=315.000|XOffset=0mm|YOffset=0mm|HoleType=Round|Shape=Rectangle|*
%AMROTATEDRECTD12*
4,1,4,-0.31820,-0.10607,0.10607,0.31820,0.31820,0.10607,-0.10607,-0.31820,-0.31820,-0.10607,0.0*
%
%ADD12ROTATEDRECTD12*%

G04:AMPARAMS|DCode=13|XSize=0.3mm|YSize=0.6mm|CornerRadius=0mm|HoleSize=0mm|Usage=FLASHONLY|Rotation=45.000|XOffset=0mm|YOffset=0mm|HoleType=Round|Shape=Rectangle|*
%AMROTATEDRECTD13*
4,1,4,0.10607,-0.31820,-0.31820,0.10607,-0.10607,0.31820,0.31820,-0.10607,0.10607,-0.31820,0.0*
%
%ADD13ROTATEDRECTD13*%

%ADD14R,1.20000X1.20000*%
%ADD15R,0.95000X0.85000*%
G04:AMPARAMS|DCode=16|XSize=0.3mm|YSize=1.4mm|CornerRadius=0mm|HoleSize=0mm|Usage=FLASHONLY|Rotation=135.000|XOffset=0mm|YOffset=0mm|HoleType=Round|Shape=Rectangle|*
%AMROTATEDRECTD16*
4,1,4,0.60104,0.38891,-0.38891,-0.60104,-0.60104,-0.38891,0.38891,0.60104,0.60104,0.38891,0.0*
%
%ADD16ROTATEDRECTD16*%

G04:AMPARAMS|DCode=17|XSize=0.3mm|YSize=1.4mm|CornerRadius=0mm|HoleSize=0mm|Usage=FLASHONLY|Rotation=45.000|XOffset=0mm|YOffset=0mm|HoleType=Round|Shape=Rectangle|*
%AMROTATEDRECTD17*
4,1,4,0.38891,-0.60104,-0.60104,0.38891,-0.38891,0.60104,0.60104,-0.38891,0.38891,-0.60104,0.0*
%
%ADD17ROTATEDRECTD17*%

%ADD18R,0.85000X0.95000*%
%ADD19R,1.00000X0.90000*%
%ADD20R,1.15000X1.40000*%
G04:AMPARAMS|DCode=21|XSize=0.95mm|YSize=0.85mm|CornerRadius=0mm|HoleSize=0mm|Usage=FLASHONLY|Rotation=135.000|XOffset=0mm|YOffset=0mm|HoleType=Round|Shape=Rectangle|*
%AMROTATEDRECTD21*
4,1,4,0.63640,-0.03535,0.03535,-0.63640,-0.63640,0.03535,-0.03535,0.63640,0.63640,-0.03535,0.0*
%
%ADD21ROTATEDRECTD21*%

G04:AMPARAMS|DCode=22|XSize=1mm|YSize=0.9mm|CornerRadius=0mm|HoleSize=0mm|Usage=FLASHONLY|Rotation=225.000|XOffset=0mm|YOffset=0mm|HoleType=Round|Shape=Rectangle|*
%AMROTATEDRECTD22*
4,1,4,0.03535,0.67175,0.67175,0.03535,-0.03535,-0.67175,-0.67175,-0.03535,0.03535,0.67175,0.0*
%
%ADD22ROTATEDRECTD22*%

G04:AMPARAMS|DCode=23|XSize=0.95mm|YSize=0.85mm|CornerRadius=0mm|HoleSize=0mm|Usage=FLASHONLY|Rotation=225.000|XOffset=0mm|YOffset=0mm|HoleType=Round|Shape=Rectangle|*
%AMROTATEDRECTD23*
4,1,4,0.03535,0.63640,0.63640,0.03535,-0.03535,-0.63640,-0.63640,-0.03535,0.03535,0.63640,0.0*
%
%ADD23ROTATEDRECTD23*%

%ADD24R,1.40000X1.15000*%
%ADD25R,0.90000X1.00000*%
%TA.AperFunction,ConnectorPad*%
%ADD26R,1.30000X0.60000*%
%ADD27R,1.30000X0.30000*%
%TA.AperFunction,SMDPad,CuDef*%
%ADD28R,0.80000X0.90000*%
%ADD29R,1.20000X1.20000*%
G04:AMPARAMS|DCode=30|XSize=1mm|YSize=0.9mm|CornerRadius=0mm|HoleSize=0mm|Usage=FLASHONLY|Rotation=135.000|XOffset=0mm|YOffset=0mm|HoleType=Round|Shape=Rectangle|*
%AMROTATEDRECTD30*
4,1,4,0.67175,-0.03535,0.03535,-0.67175,-0.67175,0.03535,-0.03535,0.67175,0.67175,-0.03535,0.0*
%
%ADD30ROTATEDRECTD30*%

%ADD31R,3.80000X2.00000*%
%ADD32R,1.50000X2.00000*%
%ADD33R,1.30000X1.40000*%
%ADD34R,1.40000X1.30000*%
%TA.AperFunction,Conductor*%
%ADD35C,0.50000*%
%ADD36C,0.15000*%
%ADD37C,0.40000*%
%TA.AperFunction,ComponentPad*%
%ADD38C,1.80000*%
G04:AMPARAMS|DCode=39|XSize=1mm|YSize=1.8mm|CornerRadius=0.5mm|HoleSize=0mm|Usage=FLASHONLY|Rotation=90.000|XOffset=0mm|YOffset=0mm|HoleType=Round|Shape=RoundedRectangle|*
%AMROUNDEDRECTD39*
21,1,1.00000,0.80000,0,0,90.0*
21,1,0.00000,1.80000,0,0,90.0*
1,1,1.00000,0.40000,0.00000*
1,1,1.00000,0.40000,0.00000*
1,1,1.00000,-0.40000,0.00000*
1,1,1.00000,-0.40000,0.00000*
%
%ADD39ROUNDEDRECTD39*%
G04:AMPARAMS|DCode=40|XSize=1mm|YSize=2.1mm|CornerRadius=0.5mm|HoleSize=0mm|Usage=FLASHONLY|Rotation=90.000|XOffset=0mm|YOffset=0mm|HoleType=Round|Shape=RoundedRectangle|*
%AMROUNDEDRECTD40*
21,1,1.00000,1.10000,0,0,90.0*
21,1,0.00000,2.10000,0,0,90.0*
1,1,1.00000,0.55000,0.00000*
1,1,1.00000,0.55000,0.00000*
1,1,1.00000,-0.55000,0.00000*
1,1,1.00000,-0.55000,0.00000*
%
%ADD40ROUNDEDRECTD40*%
%TA.AperFunction,ViaPad*%
%ADD41C,0.50000*%
G36*
X15367000Y5969000D02*
X9969500D01*
Y8509000D01*
X15367000D01*
Y5969000D01*
D02*
G37*
%LPC*%
G36*
X14492999Y8490974D02*
Y8397000D01*
X14586974D01*
X14585168Y8410716D01*
X14574084Y8437475D01*
X14556453Y8460453D01*
X14533475Y8478085D01*
X14506715Y8489168D01*
X14492999Y8490974D01*
D02*
G37*
G36*
X14239000D02*
Y8397000D01*
X14332974D01*
X14331168Y8410716D01*
X14320085Y8437475D01*
X14302454Y8460453D01*
X14279475Y8478085D01*
X14252716Y8489168D01*
X14239000Y8490974D01*
D02*
G37*
G36*
X14463000D02*
X14449284Y8489168D01*
X14422525Y8478085D01*
X14399547Y8460453D01*
X14381915Y8437475D01*
X14370831Y8410716D01*
X14369026Y8397000D01*
X14463000D01*
Y8490974D01*
D02*
G37*
G36*
X14209000D02*
X14195284Y8489168D01*
X14168526Y8478085D01*
X14145547Y8460453D01*
X14127914Y8437475D01*
X14116832Y8410716D01*
X14115025Y8397000D01*
X14209000D01*
Y8490974D01*
D02*
G37*
G36*
X14986000Y8482863D02*
X14959895Y8479426D01*
X14935568Y8469350D01*
X14914679Y8453321D01*
X14898650Y8432431D01*
X14888574Y8408105D01*
X14885136Y8382000D01*
X14888574Y8355895D01*
X14898650Y8331569D01*
X14914679Y8310679D01*
X14935568Y8294650D01*
X14959895Y8284574D01*
X14986000Y8281137D01*
X15012105Y8284574D01*
X15036430Y8294650D01*
X15057321Y8310679D01*
X15073351Y8331569D01*
X15083426Y8355895D01*
X15086864Y8382000D01*
X15083426Y8408105D01*
X15073351Y8432431D01*
X15057321Y8453321D01*
X15036430Y8469350D01*
X15012105Y8479426D01*
X14986000Y8482863D01*
D02*
G37*
G36*
X14732001D02*
X14705894Y8479426D01*
X14681569Y8469350D01*
X14660680Y8453321D01*
X14644650Y8432431D01*
X14634573Y8408105D01*
X14631137Y8382000D01*
X14634573Y8355895D01*
X14644650Y8331569D01*
X14660680Y8310679D01*
X14681569Y8294650D01*
X14705894Y8284574D01*
X14732001Y8281137D01*
X14758105Y8284574D01*
X14782431Y8294650D01*
X14803320Y8310679D01*
X14819350Y8331569D01*
X14829427Y8355895D01*
X14832863Y8382000D01*
X14829427Y8408105D01*
X14819350Y8432431D01*
X14803320Y8453321D01*
X14782431Y8469350D01*
X14758105Y8479426D01*
X14732001Y8482863D01*
D02*
G37*
G36*
X13970000D02*
X13943895Y8479426D01*
X13919569Y8469350D01*
X13898679Y8453321D01*
X13882651Y8432431D01*
X13872574Y8408105D01*
X13869138Y8382000D01*
X13872574Y8355895D01*
X13882651Y8331569D01*
X13898679Y8310679D01*
X13919569Y8294650D01*
X13943895Y8284574D01*
X13970000Y8281137D01*
X13996104Y8284574D01*
X14020432Y8294650D01*
X14041321Y8310679D01*
X14057350Y8331569D01*
X14067426Y8355895D01*
X14070863Y8382000D01*
X14067426Y8408105D01*
X14057350Y8432431D01*
X14041321Y8453321D01*
X14020432Y8469350D01*
X13996104Y8479426D01*
X13970000Y8482863D01*
D02*
G37*
G36*
X13716000D02*
X13689896Y8479426D01*
X13665569Y8469350D01*
X13644679Y8453321D01*
X13628650Y8432431D01*
X13618575Y8408105D01*
X13615137Y8382000D01*
X13618575Y8355895D01*
X13628650Y8331569D01*
X13644679Y8310679D01*
X13665569Y8294650D01*
X13689896Y8284574D01*
X13716000Y8281137D01*
X13742105Y8284574D01*
X13766431Y8294650D01*
X13787321Y8310679D01*
X13803349Y8331569D01*
X13813426Y8355895D01*
X13816862Y8382000D01*
X13813426Y8408105D01*
X13803349Y8432431D01*
X13787321Y8453321D01*
X13766431Y8469350D01*
X13742105Y8479426D01*
X13716000Y8482863D01*
D02*
G37*
G36*
X13462000D02*
X13435895Y8479426D01*
X13411569Y8469350D01*
X13390678Y8453321D01*
X13374651Y8432431D01*
X13364574Y8408105D01*
X13361137Y8382000D01*
X13364574Y8355895D01*
X13374651Y8331569D01*
X13390678Y8310679D01*
X13411569Y8294650D01*
X13435895Y8284574D01*
X13462000Y8281137D01*
X13488104Y8284574D01*
X13512431Y8294650D01*
X13533321Y8310679D01*
X13549350Y8331569D01*
X13559425Y8355895D01*
X13562863Y8382000D01*
X13559425Y8408105D01*
X13549350Y8432431D01*
X13533321Y8453321D01*
X13512431Y8469350D01*
X13488104Y8479426D01*
X13462000Y8482863D01*
D02*
G37*
G36*
X13208000D02*
X13181895Y8479426D01*
X13157568Y8469350D01*
X13136679Y8453321D01*
X13120650Y8432431D01*
X13110574Y8408105D01*
X13107137Y8382000D01*
X13110574Y8355895D01*
X13120650Y8331569D01*
X13136679Y8310679D01*
X13157568Y8294650D01*
X13181895Y8284574D01*
X13208000Y8281137D01*
X13234105Y8284574D01*
X13258430Y8294650D01*
X13279321Y8310679D01*
X13295351Y8331569D01*
X13305426Y8355895D01*
X13308862Y8382000D01*
X13305426Y8408105D01*
X13295351Y8432431D01*
X13279321Y8453321D01*
X13258430Y8469350D01*
X13234105Y8479426D01*
X13208000Y8482863D01*
D02*
G37*
G36*
X12953999D02*
X12927895Y8479426D01*
X12903569Y8469350D01*
X12882680Y8453321D01*
X12866650Y8432431D01*
X12856573Y8408105D01*
X12853137Y8382000D01*
X12856573Y8355895D01*
X12866650Y8331569D01*
X12882680Y8310679D01*
X12903569Y8294650D01*
X12927895Y8284574D01*
X12953999Y8281137D01*
X12980106Y8284574D01*
X13004431Y8294650D01*
X13025320Y8310679D01*
X13041350Y8331569D01*
X13051427Y8355895D01*
X13054863Y8382000D01*
X13051427Y8408105D01*
X13041350Y8432431D01*
X13025320Y8453321D01*
X13004431Y8469350D01*
X12980106Y8479426D01*
X12953999Y8482863D01*
D02*
G37*
G36*
X12700000D02*
X12673895Y8479426D01*
X12649569Y8469350D01*
X12628679Y8453321D01*
X12612650Y8432431D01*
X12602574Y8408105D01*
X12599137Y8382000D01*
X12602574Y8355895D01*
X12612650Y8331569D01*
X12628679Y8310679D01*
X12649569Y8294650D01*
X12673895Y8284574D01*
X12700000Y8281137D01*
X12726105Y8284574D01*
X12750431Y8294650D01*
X12771321Y8310679D01*
X12787350Y8331569D01*
X12797426Y8355895D01*
X12800864Y8382000D01*
X12797426Y8408105D01*
X12787350Y8432431D01*
X12771321Y8453321D01*
X12750431Y8469350D01*
X12726105Y8479426D01*
X12700000Y8482863D01*
D02*
G37*
G36*
X12446000D02*
X12419895Y8479426D01*
X12395569Y8469350D01*
X12374679Y8453321D01*
X12358650Y8432431D01*
X12348574Y8408105D01*
X12345137Y8382000D01*
X12348574Y8355895D01*
X12358650Y8331569D01*
X12374679Y8310679D01*
X12395569Y8294650D01*
X12419895Y8284574D01*
X12446000Y8281137D01*
X12472105Y8284574D01*
X12496431Y8294650D01*
X12517321Y8310679D01*
X12533350Y8331569D01*
X12543426Y8355895D01*
X12546863Y8382000D01*
X12543426Y8408105D01*
X12533350Y8432431D01*
X12517321Y8453321D01*
X12496431Y8469350D01*
X12472105Y8479426D01*
X12446000Y8482863D01*
D02*
G37*
G36*
X10922000D02*
X10895895Y8479426D01*
X10871569Y8469350D01*
X10850679Y8453321D01*
X10834650Y8432431D01*
X10824574Y8408105D01*
X10821137Y8382000D01*
X10824574Y8355895D01*
X10834650Y8331569D01*
X10850679Y8310679D01*
X10871569Y8294650D01*
X10895895Y8284574D01*
X10922000Y8281137D01*
X10948105Y8284574D01*
X10972431Y8294650D01*
X10993321Y8310679D01*
X11009350Y8331569D01*
X11019426Y8355895D01*
X11022863Y8382000D01*
X11019426Y8408105D01*
X11009350Y8432431D01*
X10993321Y8453321D01*
X10972431Y8469350D01*
X10948105Y8479426D01*
X10922000Y8482863D01*
D02*
G37*
G36*
X10668000D02*
X10641895Y8479426D01*
X10617569Y8469350D01*
X10596679Y8453321D01*
X10580650Y8432431D01*
X10570574Y8408105D01*
X10567137Y8382000D01*
X10570574Y8355895D01*
X10580650Y8331569D01*
X10596679Y8310679D01*
X10617569Y8294650D01*
X10641895Y8284574D01*
X10668000Y8281137D01*
X10694105Y8284574D01*
X10718431Y8294650D01*
X10739321Y8310679D01*
X10755350Y8331569D01*
X10765426Y8355895D01*
X10768863Y8382000D01*
X10765426Y8408105D01*
X10755350Y8432431D01*
X10739321Y8453321D01*
X10718431Y8469350D01*
X10694105Y8479426D01*
X10668000Y8482863D01*
D02*
G37*
G36*
X10414000D02*
X10387895Y8479426D01*
X10363569Y8469350D01*
X10342679Y8453321D01*
X10326650Y8432431D01*
X10316574Y8408105D01*
X10313137Y8382000D01*
X10316574Y8355895D01*
X10326650Y8331569D01*
X10342679Y8310679D01*
X10363569Y8294650D01*
X10387895Y8284574D01*
X10414000Y8281137D01*
X10440105Y8284574D01*
X10464431Y8294650D01*
X10485321Y8310679D01*
X10501350Y8331569D01*
X10511426Y8355895D01*
X10514863Y8382000D01*
X10511426Y8408105D01*
X10501350Y8432431D01*
X10485321Y8453321D01*
X10464431Y8469350D01*
X10440105Y8479426D01*
X10414000Y8482863D01*
D02*
G37*
G36*
X14586974Y8367000D02*
X14492999D01*
Y8273026D01*
X14506715Y8274832D01*
X14533475Y8285915D01*
X14556453Y8303547D01*
X14574084Y8326525D01*
X14585168Y8353284D01*
X14586974Y8367000D01*
D02*
G37*
G36*
X14332974D02*
X14239000D01*
Y8273026D01*
X14252716Y8274832D01*
X14279475Y8285915D01*
X14302454Y8303547D01*
X14320085Y8326525D01*
X14331168Y8353284D01*
X14332974Y8367000D01*
D02*
G37*
G36*
X14463000D02*
X14369026D01*
X14370831Y8353284D01*
X14381915Y8326525D01*
X14399547Y8303547D01*
X14422525Y8285915D01*
X14449284Y8274832D01*
X14463000Y8273026D01*
Y8367000D01*
D02*
G37*
G36*
X14209000D02*
X14115025D01*
X14116832Y8353284D01*
X14127914Y8326525D01*
X14145547Y8303547D01*
X14168526Y8285915D01*
X14195284Y8274832D01*
X14209000Y8273026D01*
Y8367000D01*
D02*
G37*
G36*
X15239999Y8482863D02*
X15213895Y8479426D01*
X15189569Y8469350D01*
X15168678Y8453321D01*
X15152650Y8432431D01*
X15142574Y8408105D01*
X15139137Y8382000D01*
X15142574Y8355895D01*
X15152650Y8331569D01*
X15167938Y8311646D01*
X15204314Y8238715D01*
Y8135062D01*
X15207031Y8121406D01*
X15214766Y8109829D01*
X15277315Y8047281D01*
Y7994800D01*
X15182555D01*
X15163361Y8004673D01*
X15111917Y8056117D01*
X15106128Y8059985D01*
X15099300Y8061343D01*
X14058900D01*
X14052072Y8059985D01*
X14046283Y8056117D01*
X14008183Y8018017D01*
X14004315Y8012228D01*
X14002957Y8005400D01*
Y7984994D01*
X13990257Y7978759D01*
X13983656Y7983169D01*
X13974504Y7984990D01*
X13974417Y7985082D01*
X13945100Y7998185D01*
Y8017700D01*
X13897600D01*
Y7950200D01*
Y7882700D01*
X13945100D01*
Y7902215D01*
X13974417Y7915318D01*
X13974504Y7915410D01*
X13983656Y7917231D01*
X13996315Y7910415D01*
X13998106Y7906121D01*
X13993529Y7896508D01*
X13993509Y7896155D01*
X13987831Y7887656D01*
X13985114Y7874000D01*
X13987831Y7860344D01*
X13992508Y7853343D01*
X13986604Y7840643D01*
X12997701D01*
X12990874Y7839285D01*
X12985085Y7835417D01*
X12842165Y7692497D01*
X12827812Y7691294D01*
X12792203Y7726904D01*
X12799274Y7733975D01*
X12787142Y7746107D01*
X12798198Y7757162D01*
X12810764D01*
X12817592Y7758520D01*
X12823381Y7762388D01*
X12825150Y7764156D01*
X12858495Y7730811D01*
X12897385Y7769702D01*
X12851424Y7815664D01*
X12803279Y7863807D01*
X12793373Y7867498D01*
X12793153Y7870531D01*
X12847887Y7925265D01*
X12831429Y7941724D01*
X12832652Y7956111D01*
X12835010Y7958469D01*
X12855676Y7965800D01*
X12855939Y7966037D01*
X12865964Y7968031D01*
X12877541Y7975766D01*
X12885275Y7987344D01*
X12887993Y8001000D01*
X12885616Y8012957D01*
X12888065Y8019870D01*
X12891158Y8025657D01*
X12904109D01*
X13000369Y7929398D01*
X13007700Y7908731D01*
X13007938Y7908469D01*
X13009930Y7898444D01*
X13017667Y7886866D01*
X13029243Y7879131D01*
X13042900Y7876414D01*
X13056557Y7879131D01*
X13068134Y7886866D01*
X13075870Y7898444D01*
X13078586Y7912100D01*
X13075870Y7925756D01*
X13068134Y7937334D01*
X13056557Y7945069D01*
X13046532Y7947063D01*
X13046269Y7947300D01*
X13025603Y7954631D01*
X12924117Y8056117D01*
X12918327Y8059985D01*
X12911501Y8061343D01*
X12753656D01*
X12746828Y8059985D01*
X12741039Y8056117D01*
X12692965Y8008043D01*
X12607457D01*
X12606295Y8008524D01*
X12606186Y8008479D01*
X12606075Y8008522D01*
X12591075Y8008217D01*
X12590678Y8008043D01*
X12584100D01*
X12582377Y8007700D01*
X12496600D01*
Y7892700D01*
X12601600D01*
Y7968345D01*
X12609787Y7972357D01*
X12700356D01*
X12707184Y7973715D01*
X12712973Y7977583D01*
X12761047Y8025657D01*
X12813458D01*
X12816551Y8019870D01*
X12819000Y8012957D01*
X12817345Y8004631D01*
X12817107Y8004369D01*
X12809776Y7983702D01*
X12807419Y7981345D01*
X12793031Y7980122D01*
X12770106Y8003047D01*
X12685253Y7918194D01*
X12738601Y7864847D01*
X12745192Y7844293D01*
Y7825334D01*
X12727316Y7807458D01*
X12714421Y7804686D01*
X12706767Y7797766D01*
X12706248Y7796512D01*
X12705441Y7795705D01*
X12601285Y7691548D01*
X12621992Y7670841D01*
X12615736Y7659137D01*
X12611100Y7660059D01*
X12597444Y7657343D01*
X12585866Y7649607D01*
X12578131Y7638030D01*
X12575414Y7624373D01*
X12578131Y7610717D01*
X12585866Y7599140D01*
X12597444Y7591404D01*
X12611100Y7588688D01*
X12611383Y7588744D01*
X12630272Y7582791D01*
X12633482Y7579581D01*
X12639271Y7575713D01*
X12646099Y7574355D01*
X12674600D01*
X12681428Y7575713D01*
X12687217Y7579581D01*
X12692429Y7584793D01*
X12706817Y7586016D01*
X12733726Y7559108D01*
X12742706Y7550127D01*
Y7550126D01*
X12742707Y7550127D01*
X12778061Y7514772D01*
X12776238Y7502827D01*
X12645159Y7371748D01*
X12522200D01*
X12515372Y7370389D01*
X12509583Y7366521D01*
X12488805Y7345743D01*
X12361305D01*
X12341508Y7355172D01*
X12341155Y7355191D01*
X12332656Y7360869D01*
X12319000Y7363586D01*
X12305344Y7360869D01*
X12293766Y7353134D01*
X12286031Y7341556D01*
X12283314Y7327900D01*
X12285788Y7315464D01*
X12285702Y7313051D01*
X12282618Y7301885D01*
X12276830Y7298017D01*
X12260582Y7281769D01*
X12167039D01*
X12161778Y7294469D01*
X12169949Y7302640D01*
X12106310Y7366279D01*
X12127523Y7387492D01*
X12191162Y7323853D01*
X12205305Y7337995D01*
X12198233Y7345066D01*
X12261873Y7408706D01*
Y7408706D01*
X12261873Y7408706D01*
X12323603Y7470436D01*
X12332472Y7479305D01*
X12341564Y7488397D01*
X12429669Y7576502D01*
X12438650Y7585482D01*
X12447630Y7594463D01*
X12536611Y7683444D01*
X12537896Y7683996D01*
X12537972Y7684188D01*
X12538159Y7684276D01*
X12545432Y7692292D01*
X12564625Y7699100D01*
X12564887Y7699336D01*
X12574913Y7701331D01*
X12586490Y7709066D01*
X12594226Y7720644D01*
X12596942Y7734300D01*
X12594226Y7747956D01*
X12586490Y7759534D01*
X12574913Y7767269D01*
X12561256Y7769986D01*
X12547600Y7767269D01*
X12536023Y7759534D01*
X12528287Y7747956D01*
X12526293Y7737931D01*
X12526056Y7737669D01*
X12523569Y7730656D01*
X12508919Y7727345D01*
X12431579Y7804685D01*
X12400343Y7773449D01*
X12387643Y7778710D01*
Y7810553D01*
X12396717Y7819627D01*
X12400585Y7825415D01*
X12401943Y7832243D01*
Y7884513D01*
X12405955Y7892700D01*
X12471600D01*
Y8007700D01*
X12366600D01*
Y7916923D01*
X12366257Y7915200D01*
Y7903622D01*
X12366083Y7903225D01*
X12365778Y7888225D01*
X12365822Y7888114D01*
X12365776Y7888005D01*
X12366257Y7886843D01*
Y7839634D01*
X12357183Y7830560D01*
X12353315Y7824771D01*
X12351957Y7817943D01*
Y7760584D01*
X12353315Y7753756D01*
X12357183Y7747968D01*
X12358213Y7746938D01*
X12359439Y7732545D01*
X12334493Y7707600D01*
X12325513Y7698620D01*
X12316533Y7689639D01*
X12228427Y7601533D01*
X12220937Y7594043D01*
X12210467Y7583573D01*
X12191723Y7564829D01*
X12178472Y7569452D01*
X12177417Y7575971D01*
X12177652Y7577348D01*
X12244217Y7643913D01*
X12248084Y7649701D01*
X12249443Y7656530D01*
Y7719414D01*
X12253454Y7727600D01*
X12284100D01*
Y7829900D01*
X12284100Y7831120D01*
X12284619Y7832410D01*
X12284100Y7842600D01*
X12283501Y7855300D01*
X12285170Y7859982D01*
X12297062Y7864200D01*
X12297324Y7864437D01*
X12307349Y7866431D01*
X12318927Y7874166D01*
X12326662Y7885744D01*
X12329379Y7899400D01*
X12326662Y7913056D01*
X12318927Y7924634D01*
X12307349Y7932369D01*
X12293693Y7935086D01*
X12280037Y7932369D01*
X12268459Y7924634D01*
X12260724Y7913056D01*
X12258730Y7903031D01*
X12258493Y7902769D01*
X12251162Y7882102D01*
X12247489Y7878429D01*
X12243621Y7872641D01*
X12242263Y7865813D01*
Y7850787D01*
X12238251Y7842600D01*
X12179100D01*
Y7727600D01*
X12209745D01*
X12213757Y7719414D01*
Y7663920D01*
X12144354Y7594517D01*
X12140486Y7588728D01*
X12139128Y7581900D01*
Y7565898D01*
X12130493Y7557140D01*
Y7557140D01*
X12130493Y7557140D01*
Y7557140D01*
X12126428Y7555456D01*
X12125080Y7556803D01*
X12109838Y7572046D01*
X12109236Y7576974D01*
X12110504Y7585848D01*
X12111073Y7587222D01*
X12111767Y7588076D01*
X12112622Y7588847D01*
X12112747Y7591264D01*
X12113674Y7593501D01*
X12112954Y7595241D01*
X12113051Y7597120D01*
X12115717Y7605884D01*
X12119585Y7611672D01*
X12120943Y7618500D01*
X12119585Y7625328D01*
X12115717Y7631117D01*
X12109928Y7634985D01*
X12103100Y7636343D01*
X12096272Y7634985D01*
X12090483Y7631117D01*
X12085412Y7626046D01*
X12083519Y7626830D01*
X12081720Y7628452D01*
X12079839Y7628355D01*
X12078101Y7629074D01*
X12075867Y7628149D01*
X12073447Y7628023D01*
X12072675Y7627167D01*
X12071821Y7626473D01*
X12070449Y7625904D01*
X12070448Y7625904D01*
X12061576Y7624637D01*
X12056645Y7625238D01*
X12032994Y7648889D01*
X11997639Y7613534D01*
X12047136Y7564036D01*
X12025923Y7542823D01*
X11976426Y7592320D01*
X11973132Y7589027D01*
X11950617Y7611543D01*
X11944828Y7615411D01*
X11938000Y7616769D01*
X11867543D01*
X11848263Y7636049D01*
X11804068Y7591855D01*
X11782855Y7613068D01*
X11827049Y7657263D01*
X11789926Y7694386D01*
X11755676Y7660135D01*
X11743943Y7664996D01*
Y7871813D01*
X11747954Y7880000D01*
X11798500D01*
Y7995000D01*
X11693500D01*
Y7880000D01*
X11704245D01*
X11708257Y7871813D01*
Y7853470D01*
X11696524Y7848609D01*
X11489416Y8055717D01*
X11483628Y8059585D01*
X11476800Y8060943D01*
X10814015D01*
X10809155Y8072676D01*
X10821236Y8084757D01*
X11833702D01*
X11840530Y8086115D01*
X11846318Y8089983D01*
X11950617Y8194282D01*
X11954485Y8200070D01*
X11955843Y8206898D01*
Y8234217D01*
X12009232Y8310612D01*
X12009321Y8310679D01*
X12025350Y8331569D01*
X12035426Y8355895D01*
X12038863Y8382000D01*
X12035426Y8408105D01*
X12025350Y8432431D01*
X12009321Y8453321D01*
X11988431Y8469350D01*
X11964105Y8479426D01*
X11938000Y8482863D01*
X11911895Y8479426D01*
X11887569Y8469350D01*
X11866679Y8453321D01*
X11850650Y8432431D01*
X11840574Y8408105D01*
X11837137Y8382000D01*
X11840574Y8355895D01*
X11850650Y8331569D01*
X11866679Y8310679D01*
X11866767Y8310612D01*
X11920157Y8234217D01*
Y8214289D01*
X11826311Y8120443D01*
X11613199D01*
X11607938Y8133143D01*
X11696617Y8221822D01*
X11700485Y8227610D01*
X11701781Y8234129D01*
X11755232Y8310612D01*
X11755321Y8310679D01*
X11771350Y8331569D01*
X11781426Y8355895D01*
X11784863Y8382000D01*
X11781426Y8408105D01*
X11771350Y8432431D01*
X11755321Y8453321D01*
X11734431Y8469350D01*
X11710105Y8479426D01*
X11684000Y8482863D01*
X11657895Y8479426D01*
X11633569Y8469350D01*
X11612679Y8453321D01*
X11596650Y8432431D01*
X11586574Y8408105D01*
X11583137Y8382000D01*
X11586574Y8355895D01*
X11596650Y8331569D01*
X11612679Y8310679D01*
X11612767Y8310612D01*
X11663026Y8238698D01*
X11582871Y8158543D01*
X10992039D01*
X10986778Y8171243D01*
X11004591Y8189056D01*
X11404364D01*
X11411192Y8190414D01*
X11416980Y8194282D01*
X11443082Y8220383D01*
X11446950Y8226172D01*
X11448308Y8233000D01*
Y8234270D01*
X11502034Y8311609D01*
X11517350Y8331569D01*
X11527426Y8355895D01*
X11530863Y8382000D01*
X11527426Y8408105D01*
X11517350Y8432431D01*
X11501321Y8453321D01*
X11480431Y8469350D01*
X11456105Y8479426D01*
X11430000Y8482863D01*
X11403895Y8479426D01*
X11379569Y8469350D01*
X11358679Y8453321D01*
X11342650Y8432431D01*
X11332574Y8408105D01*
X11329137Y8382000D01*
X11332574Y8355895D01*
X11342650Y8331569D01*
X11358679Y8310679D01*
X11359003Y8310431D01*
X11410053Y8237821D01*
X11396973Y8224741D01*
X11176235D01*
X11170975Y8237441D01*
X11188617Y8255083D01*
X11192485Y8260872D01*
X11192699Y8261950D01*
X11211986Y8288667D01*
X11226431Y8294650D01*
X11247321Y8310679D01*
X11263350Y8331569D01*
X11273426Y8355895D01*
X11276863Y8382000D01*
X11273426Y8408105D01*
X11263350Y8432431D01*
X11247321Y8453321D01*
X11226431Y8469350D01*
X11202105Y8479426D01*
X11176000Y8482863D01*
X11149895Y8479426D01*
X11125569Y8469350D01*
X11104679Y8453321D01*
X11088650Y8432431D01*
X11078574Y8408105D01*
X11075137Y8382000D01*
X11078574Y8355895D01*
X11088650Y8331569D01*
X11104679Y8310679D01*
X11125569Y8294650D01*
X11140014Y8288667D01*
X11153312Y8270246D01*
X11143209Y8260143D01*
X10977233D01*
X10970405Y8258785D01*
X10964617Y8254917D01*
X10944443Y8234743D01*
X10357891D01*
X10329531Y8263102D01*
X10322200Y8283769D01*
X10321963Y8284031D01*
X10319969Y8294056D01*
X10312234Y8305634D01*
X10300656Y8313369D01*
X10287000Y8316086D01*
X10273344Y8313369D01*
X10261766Y8305634D01*
X10254031Y8294056D01*
X10251314Y8280400D01*
X10254031Y8266744D01*
X10261766Y8255166D01*
X10273344Y8247431D01*
X10283369Y8245437D01*
X10283631Y8245200D01*
X10304298Y8237869D01*
X10324167Y8218000D01*
X10323030Y8201176D01*
X10321781Y8200226D01*
X10309508Y8206072D01*
X10309155Y8206091D01*
X10300656Y8211769D01*
X10287000Y8214486D01*
X10273344Y8211769D01*
X10261766Y8204034D01*
X10254031Y8192456D01*
X10252323Y8183871D01*
X10243066Y8179774D01*
X10239165Y8179738D01*
X10230000Y8197555D01*
Y8303000D01*
X10090000D01*
Y8163000D01*
X10195445D01*
X10214640Y8153127D01*
X10269157Y8098609D01*
Y7981241D01*
X10242700Y7954783D01*
X10230000Y7960044D01*
X10230000Y7962549D01*
X10230000Y7962549D01*
X10230000Y7962782D01*
Y8093000D01*
X10090000D01*
Y7953000D01*
X10138145D01*
X10142157Y7944813D01*
Y7932191D01*
X10071183Y7861217D01*
X10067315Y7855428D01*
X10065957Y7848600D01*
Y7709951D01*
X10067315Y7703123D01*
X10071183Y7697335D01*
X10092500Y7676018D01*
Y7633500D01*
X10227500D01*
Y7665657D01*
X10248900D01*
X10255728Y7667015D01*
X10261517Y7670883D01*
X10299617Y7708983D01*
X10303485Y7714772D01*
X10304843Y7721600D01*
Y7828509D01*
X10350417Y7874083D01*
X10354285Y7879872D01*
X10355643Y7886700D01*
Y7982725D01*
X10356700Y7983432D01*
X10359566Y7981900D01*
X10439400D01*
Y7966900D01*
X10454400D01*
Y7901900D01*
X10509400D01*
Y7910927D01*
X10514065Y7922499D01*
X10515864Y7924120D01*
X10518100Y7925046D01*
X10518820Y7926785D01*
X10520219Y7928045D01*
X10520344Y7930463D01*
X10521128Y7932357D01*
X10535472D01*
X10536256Y7930463D01*
X10536381Y7928045D01*
X10537780Y7926785D01*
X10538500Y7925046D01*
X10540737Y7924119D01*
X10542535Y7922498D01*
X10544414Y7922596D01*
X10546154Y7921875D01*
X10546727Y7922113D01*
X10546727D01*
X10548391Y7922802D01*
X10550808Y7922928D01*
X10558861Y7926763D01*
X10569600Y7919984D01*
Y7851100D01*
X10644600D01*
Y7928600D01*
X10674600D01*
Y7851100D01*
X10734968D01*
X10741473Y7838400D01*
X10739836Y7836126D01*
X10739600Y7836100D01*
Y7836100D01*
X10579600D01*
Y7790549D01*
X10571388Y7786443D01*
X10515091D01*
X10509278Y7792256D01*
X10499400Y7812012D01*
Y7886900D01*
X10379400D01*
Y7776900D01*
X10417451D01*
X10421557Y7768687D01*
Y7720287D01*
X10417546Y7712100D01*
X10381900D01*
Y7612443D01*
X10363293D01*
X10356465Y7611085D01*
X10350676Y7607217D01*
X10321718Y7578259D01*
X10308044Y7581237D01*
X10307474Y7581975D01*
X10309986Y7594600D01*
X10307269Y7608256D01*
X10299534Y7619834D01*
X10287956Y7627569D01*
X10274300Y7630286D01*
X10260644Y7627569D01*
X10249066Y7619834D01*
X10241331Y7608256D01*
X10240200Y7602572D01*
X10230774Y7603500D01*
X10092500D01*
Y7556000D01*
X10120848D01*
X10126692Y7552197D01*
X10132298Y7545335D01*
X10132298Y7545335D01*
X10133921Y7543535D01*
X10134846Y7541300D01*
X10136584Y7540580D01*
X10137845Y7539181D01*
X10140264Y7539056D01*
X10142157Y7538272D01*
Y7531100D01*
X10143515Y7524272D01*
X10147383Y7518483D01*
X10153172Y7514615D01*
X10160000Y7513257D01*
X10166828Y7514615D01*
X10172617Y7518483D01*
X10176485Y7524272D01*
X10177843Y7531100D01*
Y7538272D01*
X10179737Y7539056D01*
X10182155Y7539182D01*
X10182156Y7539183D01*
X10183414Y7540580D01*
X10185154Y7541300D01*
X10186080Y7543537D01*
X10187701Y7545335D01*
X10193308Y7552197D01*
X10199152Y7556000D01*
X10227500D01*
Y7585377D01*
X10240200Y7586628D01*
X10241331Y7580944D01*
X10249066Y7569366D01*
X10260644Y7561631D01*
X10274300Y7558914D01*
X10286925Y7561426D01*
X10287663Y7560856D01*
X10290641Y7547182D01*
X10274383Y7530924D01*
X10270515Y7525135D01*
X10269157Y7518307D01*
Y7500391D01*
X10214644Y7445878D01*
X10194888Y7436000D01*
X10090000D01*
Y7296000D01*
X10230000D01*
Y7400888D01*
X10239878Y7420645D01*
X10277430Y7458197D01*
X10291326Y7455429D01*
X10291902Y7454708D01*
X10289414Y7442200D01*
X10292131Y7428544D01*
X10297809Y7420045D01*
X10297828Y7419692D01*
X10307257Y7399895D01*
Y7328491D01*
X10214644Y7235878D01*
X10194888Y7226000D01*
X10090000D01*
Y7086000D01*
X10230000D01*
Y7190888D01*
X10239878Y7210644D01*
X10290972Y7261739D01*
X10302676Y7255482D01*
X10302114Y7252656D01*
X10304831Y7239000D01*
X10310509Y7230501D01*
X10310528Y7230148D01*
X10319957Y7210351D01*
Y7154100D01*
X10321315Y7147272D01*
X10325183Y7141483D01*
X10354591Y7112076D01*
X10357495Y7103365D01*
X10332357Y7078226D01*
X10382168Y7028414D01*
X10388760Y7007861D01*
Y6876368D01*
X10350583Y6838192D01*
X10346715Y6832403D01*
X10345357Y6825575D01*
Y6769100D01*
X10346715Y6762272D01*
X10350583Y6756483D01*
X10359756Y6747311D01*
X10362659Y6738600D01*
X10335753Y6711694D01*
X10413535Y6633913D01*
X10498387Y6718765D01*
X10420606Y6796547D01*
X10397371Y6773312D01*
X10383019Y6774515D01*
X10381043Y6776491D01*
Y6818184D01*
X10419219Y6856361D01*
X10423087Y6862149D01*
X10424445Y6868978D01*
Y6969544D01*
X10436179Y6974404D01*
X10474092Y6936491D01*
X10480684Y6915936D01*
Y6911447D01*
X10469536Y6904914D01*
X10469435Y6904781D01*
X10463844Y6903669D01*
X10452266Y6895934D01*
X10444531Y6884356D01*
X10441814Y6870700D01*
X10444531Y6857044D01*
X10452266Y6845466D01*
X10463844Y6837731D01*
X10473869Y6835736D01*
X10474131Y6835500D01*
X10494798Y6828169D01*
X10496717Y6826250D01*
X10497184Y6825102D01*
X10507727Y6814432D01*
X10507759Y6814419D01*
X10507773Y6814386D01*
X10509026Y6813867D01*
X10578635Y6744258D01*
X10641582Y6807205D01*
X10655362Y6803025D01*
X10655902Y6800312D01*
X10642274Y6786684D01*
X10688236Y6740723D01*
X10734198Y6694761D01*
X10765990Y6726553D01*
X10768644Y6724780D01*
X10782300Y6722064D01*
X10795956Y6724780D01*
X10807534Y6732516D01*
X10815269Y6744093D01*
X10817263Y6754118D01*
X10817500Y6754380D01*
X10821817Y6766549D01*
X10836038Y6770209D01*
X10851894Y6754353D01*
X10853357Y6755816D01*
X10866057Y6750556D01*
Y6706850D01*
X10859069Y6699861D01*
X10850443Y6696909D01*
X10827006Y6720347D01*
X10742153Y6635494D01*
X10819935Y6557713D01*
X10904787Y6642565D01*
X10881350Y6666002D01*
X10884302Y6674628D01*
X10892236Y6682562D01*
X10903913Y6684556D01*
X10909176Y6682929D01*
X10941166Y6650939D01*
X10990664Y6700436D01*
X11001270Y6689830D01*
X11011877Y6700436D01*
X11057839Y6654474D01*
X11096730Y6693365D01*
X11103576Y6698955D01*
X11104434Y6698302D01*
X11105566Y6681473D01*
X11104164Y6680071D01*
X11103002Y6679590D01*
X11102957Y6679480D01*
X11102848Y6679433D01*
X11092457Y6668611D01*
X11092300Y6668207D01*
X11084113Y6660020D01*
X11083136Y6658559D01*
X11015413Y6590835D01*
X11093194Y6513053D01*
X11178047Y6597906D01*
X11168244Y6607708D01*
X11174501Y6619412D01*
X11176000Y6619114D01*
X11189656Y6621831D01*
X11201234Y6629566D01*
X11208969Y6641144D01*
X11211686Y6654800D01*
X11208969Y6668456D01*
X11207251Y6671028D01*
X11214100Y6682614D01*
X11227756Y6685331D01*
X11232721Y6688648D01*
X11241755Y6691148D01*
X11248996Y6685411D01*
X11252366Y6680366D01*
X11263944Y6672631D01*
X11277600Y6669914D01*
X11291256Y6672631D01*
X11302834Y6680366D01*
X11310569Y6691944D01*
X11313286Y6705600D01*
X11311899Y6712569D01*
X11321614Y6722989D01*
X11323741Y6722990D01*
X11328400Y6722064D01*
X11333079Y6722994D01*
X11333362Y6722994D01*
X11342041Y6715018D01*
X11342042D01*
X11342042Y6715018D01*
D01*
X11344600Y6712368D01*
X11344600Y6710965D01*
Y6607800D01*
X11464600D01*
Y6640945D01*
X11472787Y6644957D01*
X11497800D01*
X11504628Y6646315D01*
X11510417Y6650183D01*
X11527961Y6667728D01*
X11539199Y6661006D01*
X11539200Y6652823D01*
Y6589200D01*
X11601700D01*
Y6664200D01*
X11551445D01*
X11542394Y6664200D01*
X11535672Y6675439D01*
X11564556Y6704323D01*
X11584311Y6714200D01*
X11684200D01*
Y6831606D01*
X11686500Y6833596D01*
X11699200Y6827791D01*
Y6809200D01*
X11776700D01*
Y6794200D01*
X11791700D01*
Y6704200D01*
X11854200D01*
Y6786287D01*
X11870295D01*
X11890092Y6776857D01*
X11892509Y6776732D01*
X11894747Y6775805D01*
X11896486Y6776525D01*
X11898365Y6776428D01*
X11900164Y6778049D01*
X11902400Y6778976D01*
X11903120Y6780714D01*
X11904519Y6781975D01*
X11904644Y6784394D01*
X11905428Y6786287D01*
X11912600D01*
X11919428Y6787645D01*
X11925217Y6791513D01*
X11929085Y6797302D01*
X11930443Y6804130D01*
X11929085Y6810958D01*
X11925217Y6816746D01*
X11919428Y6820614D01*
X11912600Y6821972D01*
X11905428D01*
X11904644Y6823866D01*
X11904519Y6826285D01*
X11903120Y6827545D01*
X11902400Y6829284D01*
X11900163Y6830211D01*
X11898365Y6831831D01*
X11896486Y6831734D01*
X11894746Y6832454D01*
X11894173Y6832216D01*
X11894173D01*
X11892509Y6831527D01*
X11890092Y6831402D01*
X11870295Y6821972D01*
X11854200D01*
Y6878077D01*
X12064183D01*
X12069444Y6865377D01*
X12020889Y6816823D01*
X12017021Y6811034D01*
X12015663Y6804206D01*
Y6719544D01*
X12008678Y6698590D01*
X11948653Y6638565D01*
X11972091Y6615127D01*
X11969139Y6606502D01*
X11954680Y6592043D01*
X11852386D01*
X11844200Y6596054D01*
Y6654200D01*
X11709200D01*
Y6494200D01*
X11844200D01*
Y6552346D01*
X11852386Y6556357D01*
X11962070D01*
X11968899Y6557715D01*
X11974687Y6561583D01*
X11994372Y6581268D01*
X12002998Y6584220D01*
X12026435Y6560783D01*
X12090349Y6624697D01*
X12104129Y6620517D01*
X12104669Y6617804D01*
X12090074Y6603209D01*
X12125430Y6567854D01*
X12164320Y6606745D01*
X12146808Y6624257D01*
Y6685639D01*
X12145450Y6692467D01*
X12144583Y6693765D01*
X12145302Y6699339D01*
X12153435Y6708670D01*
Y6708671D01*
X12192326Y6747561D01*
X12146364Y6793523D01*
X12167577Y6814736D01*
X12213539Y6768774D01*
X12227167Y6782402D01*
X12229879Y6781862D01*
X12234059Y6768082D01*
X12171113Y6705135D01*
X12248894Y6627353D01*
X12275800Y6654259D01*
X12284511Y6651356D01*
X12289169Y6646698D01*
X12296500Y6626031D01*
X12296737Y6625769D01*
X12298731Y6615744D01*
X12306466Y6604166D01*
X12318044Y6596431D01*
X12331700Y6593714D01*
X12345356Y6596431D01*
X12356934Y6604166D01*
X12364669Y6615744D01*
X12367386Y6629400D01*
X12364669Y6643056D01*
X12356934Y6654634D01*
X12345356Y6662369D01*
X12335331Y6664363D01*
X12335069Y6664600D01*
X12314402Y6671931D01*
X12309744Y6676589D01*
X12306841Y6685300D01*
X12333747Y6712206D01*
X12293818Y6752135D01*
X12296770Y6760760D01*
X12312618Y6776608D01*
X12317427Y6777642D01*
X12327042Y6777852D01*
X12360868Y6744025D01*
X12431579Y6673315D01*
X12544716Y6786452D01*
X12478310Y6852857D01*
X12483570Y6865557D01*
X12527509D01*
X12569357Y6823709D01*
Y6644286D01*
X12565345Y6636100D01*
X12534700D01*
Y6521100D01*
X12639700D01*
Y6590424D01*
X12647912Y6594531D01*
X12694434D01*
X12714991Y6587939D01*
X12771873Y6531056D01*
X12846120Y6605303D01*
X12764803Y6686620D01*
X12714991Y6636808D01*
X12694436Y6630216D01*
X12651096D01*
X12639700Y6636100D01*
X12629395Y6636620D01*
X12628142Y6636100D01*
X12627000Y6636100D01*
X12609054D01*
X12605043Y6644286D01*
Y6766100D01*
X12616776Y6770960D01*
X12714421Y6673315D01*
X12740796Y6699690D01*
X12749777Y6708670D01*
X12758757Y6717650D01*
X12846863Y6805756D01*
X12854353Y6813246D01*
X12864822Y6823716D01*
X12917574Y6876467D01*
X12926553Y6885446D01*
X12935535Y6894427D01*
X13025056Y6983950D01*
X13037756Y6978690D01*
Y6964724D01*
X13038326Y6961869D01*
X13032480Y6956024D01*
X13071370Y6917133D01*
X13106726Y6952489D01*
X13082091Y6977124D01*
X13082375Y6980093D01*
X13095586Y6984842D01*
X13170364Y6910062D01*
X13248148Y6987844D01*
X13223686Y7012304D01*
X13226590Y7021015D01*
X13228802Y7023228D01*
X13249469Y7030559D01*
X13249731Y7030795D01*
X13259756Y7032790D01*
X13271333Y7040525D01*
X13279070Y7052102D01*
X13281786Y7065759D01*
X13279070Y7079415D01*
X13271333Y7090992D01*
X13259756Y7098728D01*
X13246100Y7101445D01*
X13232443Y7098728D01*
X13220866Y7090992D01*
X13213132Y7079415D01*
X13211137Y7069390D01*
X13210899Y7069128D01*
X13203569Y7048461D01*
X13203326Y7048219D01*
X13188974Y7047016D01*
X13172275Y7063716D01*
X13171413Y7064578D01*
X13170869Y7065856D01*
X13163293Y7072697D01*
X13150500Y7075641D01*
X13139394Y7086748D01*
X13136392Y7095285D01*
X13138686Y7097579D01*
X13131766Y7105233D01*
X13130513Y7105752D01*
X13129704Y7106559D01*
X13034184Y7202080D01*
X13029745Y7206518D01*
X13031329Y7219655D01*
X13033040Y7221083D01*
X13119775D01*
X13126604Y7222441D01*
X13132393Y7226309D01*
X13185326Y7279242D01*
X13190089Y7278418D01*
X13198283Y7274239D01*
X13200430Y7263444D01*
X13208167Y7251866D01*
X13219743Y7244131D01*
X13233400Y7241414D01*
X13247057Y7244131D01*
X13258633Y7251866D01*
X13266370Y7263444D01*
X13269086Y7277100D01*
X13266370Y7290756D01*
X13261958Y7297357D01*
X13268195Y7310057D01*
X13379449D01*
X13386278Y7311415D01*
X13392067Y7315283D01*
X13512717Y7435933D01*
X13516585Y7441722D01*
X13517943Y7448550D01*
Y7491859D01*
X13531583Y7505500D01*
X13538147D01*
X13539668Y7505194D01*
X13540704Y7505397D01*
X13541673Y7504981D01*
X13542970Y7505500D01*
X13646500D01*
Y7575388D01*
X13656378Y7595145D01*
X13662978Y7601743D01*
X13667676Y7604883D01*
X13694949Y7632157D01*
X13713643D01*
X13714806Y7631676D01*
X13714915Y7631721D01*
X13715025Y7631678D01*
X13730025Y7631983D01*
X13730421Y7632157D01*
X13742000D01*
X13743724Y7632500D01*
X13784656D01*
X13791443Y7619800D01*
X13789906Y7617500D01*
X13709500D01*
Y7567500D01*
X13779500D01*
X13849966D01*
X13856834Y7574368D01*
X13857654Y7574531D01*
X13869231Y7582266D01*
X13884454Y7597490D01*
X13889500Y7595400D01*
X13899500Y7590400D01*
Y7510400D01*
X14019501D01*
Y7555289D01*
X14026457Y7569204D01*
X14039157Y7566206D01*
Y7548045D01*
X14040515Y7541217D01*
X14044383Y7535428D01*
X14107069Y7472743D01*
X14101808Y7460043D01*
X13936105D01*
X13916309Y7469472D01*
X13915955Y7469491D01*
X13907455Y7475169D01*
X13893800Y7477886D01*
X13880144Y7475169D01*
X13868565Y7467434D01*
X13860831Y7455856D01*
X13858115Y7442200D01*
X13860831Y7428544D01*
X13868565Y7416966D01*
X13880144Y7409231D01*
X13893800Y7406514D01*
X13907455Y7409231D01*
X13915955Y7414909D01*
X13916309Y7414928D01*
X13936105Y7424357D01*
X14107726D01*
X14125383Y7406700D01*
X14120123Y7394000D01*
X14119684Y7394000D01*
X14028200D01*
Y7284000D01*
X14128200D01*
Y7302306D01*
X14128261Y7302378D01*
X14140900Y7308474D01*
X14144556Y7306031D01*
X14158212Y7303314D01*
X14171869Y7306031D01*
X14183446Y7313766D01*
X14191182Y7325344D01*
X14193898Y7339000D01*
X14192514Y7345957D01*
X14201283Y7358657D01*
X14210014D01*
X14218201Y7354646D01*
Y7284000D01*
X14283089D01*
X14302844Y7274122D01*
X14377583Y7199383D01*
X14383372Y7195515D01*
X14385339Y7195124D01*
X14385641Y7194781D01*
X14395100Y7190146D01*
Y7169641D01*
X14386914Y7165630D01*
X14364137D01*
X14357309Y7164271D01*
X14351520Y7160404D01*
X14342732Y7151617D01*
X14338866Y7145828D01*
X14337508Y7139000D01*
Y7109294D01*
X14328326Y7105652D01*
X14324808Y7104923D01*
X14313857Y7112240D01*
X14300200Y7114956D01*
X14286543Y7112240D01*
X14274966Y7104504D01*
X14270686Y7098099D01*
X14256390Y7098577D01*
X14254543Y7102458D01*
Y7200826D01*
X14253185Y7207654D01*
X14249316Y7213443D01*
X14211217Y7251543D01*
X14205428Y7255411D01*
X14198599Y7256769D01*
X14071526D01*
X14064697Y7255411D01*
X14058910Y7251543D01*
X13944530Y7137162D01*
X13923180Y7127449D01*
X13922562Y7126787D01*
X13918243Y7125928D01*
X13906667Y7118193D01*
X13906123Y7117381D01*
X13893423Y7121233D01*
Y7238925D01*
X13893425Y7238926D01*
X13890254Y7246580D01*
X13890253Y7246581D01*
X13852679Y7284154D01*
X13845026Y7287324D01*
X13661557D01*
X13659950Y7286659D01*
X13658218Y7286796D01*
X13654469Y7285581D01*
X13645753Y7288555D01*
X13641592Y7291711D01*
X13624686Y7325527D01*
Y7333199D01*
X13643463Y7375499D01*
X13646501Y7375500D01*
X13647020Y7385805D01*
X13646501Y7387058D01*
X13646500Y7388200D01*
Y7480500D01*
X13531500D01*
Y7388200D01*
X13531499Y7387058D01*
X13530980Y7385805D01*
X13531499Y7375499D01*
X13534537D01*
X13553314Y7333199D01*
Y7325527D01*
X13536406Y7291711D01*
X13532246Y7288555D01*
X13523531Y7285581D01*
X13519781Y7286796D01*
X13518048Y7286659D01*
X13516443Y7287324D01*
X13438010D01*
X13436601Y7287325D01*
X13436600Y7287325D01*
X13428946Y7284155D01*
X13428944Y7284153D01*
X13428372Y7283580D01*
X13427100Y7283001D01*
X13427100Y7282307D01*
X13378146Y7233354D01*
X13374976Y7225700D01*
Y7026201D01*
X13374976Y7026200D01*
X13378146Y7018546D01*
X13540076Y6856616D01*
Y6438900D01*
X13542101Y6434013D01*
Y6433000D01*
X13542520D01*
X13543246Y6431246D01*
X13550900Y6428076D01*
X13703300D01*
X13710954Y6431246D01*
X13711681Y6433000D01*
X13712100D01*
Y6434013D01*
X13714124Y6438900D01*
Y6839417D01*
X13890254Y7015546D01*
X13893423Y7023200D01*
Y7064685D01*
X13906123Y7068537D01*
X13906667Y7067725D01*
X13918243Y7059990D01*
X13931900Y7057273D01*
X13945557Y7059990D01*
X13957133Y7067725D01*
X13964870Y7079303D01*
X13967586Y7092959D01*
X13967075Y7095524D01*
X13972137Y7114304D01*
X14078917Y7221083D01*
X14191209D01*
X14206560Y7205733D01*
X14201698Y7194000D01*
X14123199D01*
Y7084000D01*
X14137114D01*
Y7053384D01*
X14139832Y7039728D01*
X14147566Y7028151D01*
X14159145Y7020415D01*
X14172800Y7017699D01*
X14186456Y7020415D01*
X14198035Y7028151D01*
X14199374Y7030157D01*
X14211467Y7034920D01*
X14223044Y7027184D01*
X14234843Y7024837D01*
X14235052Y7024537D01*
X14237289Y7019413D01*
X14238129Y7012220D01*
X14222488Y7004400D01*
X14147600D01*
Y6889400D01*
X14252600D01*
Y6964019D01*
X14267487Y6988830D01*
X14267525Y6989092D01*
X14290994Y7012561D01*
X14325600D01*
X14332428Y7013919D01*
X14338217Y7017787D01*
X14367967Y7047537D01*
X14371835Y7053325D01*
X14373193Y7060153D01*
Y7123956D01*
X14385893Y7128858D01*
X14395100Y7124500D01*
X14405287Y7123981D01*
X14406580Y7124500D01*
X14407800Y7124500D01*
X14510100D01*
Y7229500D01*
X14419324D01*
X14417599Y7229843D01*
X14406023D01*
X14405624Y7230017D01*
X14397246Y7230187D01*
X14328078Y7299356D01*
X14318201Y7319112D01*
Y7381006D01*
X14330901Y7386267D01*
X14453284Y7263884D01*
X14459071Y7260016D01*
X14465900Y7258658D01*
X14532779D01*
X14556731Y7248736D01*
X14561757Y7243710D01*
Y7175500D01*
X14563115Y7168672D01*
X14566983Y7162883D01*
X14578484Y7151383D01*
X14584271Y7147516D01*
X14591100Y7146157D01*
X14592549Y7144543D01*
X14586885Y7131843D01*
X14575687D01*
X14568858Y7130485D01*
X14563071Y7126617D01*
X14560980Y7124527D01*
X14558347Y7120584D01*
X14553244Y7119569D01*
X14541666Y7111834D01*
X14533931Y7100256D01*
X14531213Y7086600D01*
X14533931Y7072944D01*
X14541666Y7061366D01*
X14553244Y7053631D01*
X14566901Y7050914D01*
X14580556Y7053631D01*
X14592134Y7061366D01*
X14597050Y7068724D01*
X14609750Y7064872D01*
Y7039000D01*
X14602785Y7029185D01*
X14591644Y7026969D01*
X14580066Y7019234D01*
X14538374Y6977542D01*
X14470091Y6943400D01*
X14439700D01*
Y6823400D01*
X14430717Y6817215D01*
X14426141Y6815952D01*
X14414700Y6823400D01*
X14415221Y6833705D01*
X14414700Y6834958D01*
X14414700Y6836100D01*
Y6899951D01*
X14415385Y6903400D01*
Y6958228D01*
X14415419Y6963200D01*
X14460931Y6994500D01*
X14510100D01*
Y7099500D01*
X14395100D01*
Y7060332D01*
X14361264Y7011131D01*
X14354466Y7004334D01*
X14346732Y6992757D01*
X14344917Y6983641D01*
X14344843Y6983571D01*
X14326622Y6943400D01*
X14304700D01*
Y6836100D01*
X14304700Y6834958D01*
X14304179Y6833705D01*
X14304700Y6823400D01*
X14306845D01*
X14317239Y6789534D01*
X14298602Y6752034D01*
X14298494Y6752048D01*
X14291000Y6751900D01*
X14286174Y6752094D01*
X14279570Y6765071D01*
X14282368Y6769260D01*
X14285086Y6782916D01*
X14282368Y6796572D01*
X14274634Y6808150D01*
X14263055Y6815885D01*
X14249400Y6818602D01*
X14235744Y6815885D01*
X14224165Y6808150D01*
X14216431Y6796572D01*
X14214787Y6788307D01*
X14214363Y6786178D01*
X14202400Y6784400D01*
X14201491Y6784400D01*
X14176590Y6784400D01*
X14155327Y6826926D01*
Y6830097D01*
X14152609Y6843753D01*
X14144875Y6855331D01*
X14133298Y6863066D01*
X14119641Y6865783D01*
X14105984Y6863066D01*
X14094408Y6855331D01*
X14086671Y6843753D01*
X14083955Y6830097D01*
Y6826926D01*
X14062692Y6784400D01*
X14042400D01*
Y6745114D01*
X13999886Y6723986D01*
X13977400D01*
X13963744Y6721269D01*
X13952167Y6713534D01*
X13925775Y6687142D01*
X13857491Y6653000D01*
X13772099D01*
Y6433000D01*
X13942101D01*
Y6568391D01*
X13976241Y6636674D01*
X13992181Y6652614D01*
X14000386D01*
X14024269Y6643732D01*
X14032401Y6634399D01*
Y6594059D01*
X14003770Y6581561D01*
X14003656Y6581442D01*
X13994444Y6579610D01*
X13982866Y6571874D01*
X13975131Y6560297D01*
X13972414Y6546641D01*
X13975131Y6532984D01*
X13982866Y6521407D01*
X13994444Y6513672D01*
X14003656Y6511839D01*
X14003770Y6511721D01*
X14032401Y6499222D01*
Y6464400D01*
X14074020D01*
X14087534Y6434448D01*
X14087614Y6434372D01*
X14089432Y6425244D01*
X14097166Y6413666D01*
X14108743Y6405931D01*
X14122400Y6403214D01*
X14136057Y6405931D01*
X14147633Y6413666D01*
X14155370Y6425244D01*
X14157185Y6434372D01*
X14157266Y6434448D01*
X14170779Y6464400D01*
X14212399D01*
Y6534400D01*
X14122400D01*
Y6564400D01*
X14212399D01*
Y6634400D01*
X14211063D01*
X14208446Y6639064D01*
X14212189Y6651200D01*
X14244914Y6667464D01*
X14248486D01*
X14291000Y6646336D01*
Y6641900D01*
X14411000D01*
Y6740364D01*
X14411519Y6741630D01*
X14411346Y6745043D01*
X14423700Y6751646D01*
X14426244Y6749947D01*
X14439900Y6747230D01*
X14453555Y6749947D01*
X14456100Y6751646D01*
X14467035Y6746623D01*
X14468449Y6744969D01*
X14468282Y6741635D01*
X14468800Y6740369D01*
Y6641900D01*
X14588800D01*
Y6751900D01*
X14568564D01*
X14548087Y6793105D01*
X14549689Y6823400D01*
X14549699Y6823400D01*
X14550092Y6830945D01*
X14556731Y6834614D01*
X14559669Y6835281D01*
X14562399Y6835377D01*
X14567065Y6828393D01*
X14578644Y6820657D01*
X14592300Y6817941D01*
X14605956Y6820657D01*
X14617442Y6813059D01*
X14616646Y6807000D01*
X14619052Y6788727D01*
X14626105Y6771698D01*
X14637325Y6757076D01*
X14651949Y6745855D01*
X14668976Y6738802D01*
X14687250Y6736396D01*
X14695798D01*
X14705048Y6717785D01*
X14701100Y6706100D01*
X14685362D01*
Y6667276D01*
X14666331Y6661449D01*
X14665862Y6661062D01*
X14655843Y6659069D01*
X14644266Y6651333D01*
X14610533Y6617600D01*
X14598801Y6622461D01*
Y6626900D01*
X14543800D01*
Y6561900D01*
X14528799D01*
Y6546900D01*
X14458800D01*
Y6496900D01*
X14477061D01*
X14493114Y6464398D01*
Y6464300D01*
X14495831Y6450644D01*
X14503566Y6439066D01*
X14515144Y6431331D01*
X14528799Y6428614D01*
X14542456Y6431331D01*
X14554034Y6439066D01*
X14561769Y6450644D01*
X14564487Y6464300D01*
Y6464398D01*
X14580539Y6496900D01*
X14598801D01*
Y6525619D01*
X14606020Y6526100D01*
X14606889Y6526531D01*
X14618956Y6528931D01*
X14630534Y6536666D01*
X14673337Y6579469D01*
X14685362Y6581100D01*
Y6581100D01*
X14737862D01*
Y6643599D01*
X14752863D01*
Y6658599D01*
X14820361D01*
Y6706100D01*
X14799506D01*
X14791846Y6721417D01*
X14799414Y6736681D01*
X14815524Y6738802D01*
X14832552Y6745855D01*
X14847176Y6757076D01*
X14858395Y6771698D01*
X14865448Y6788727D01*
X14865878Y6792000D01*
X14742249D01*
Y6822000D01*
X14865878D01*
X14865448Y6825274D01*
X14858395Y6842302D01*
X14847176Y6856925D01*
X14832552Y6868145D01*
X14815524Y6875198D01*
X14797250Y6877604D01*
X14769749D01*
Y6899808D01*
X14782449Y6908617D01*
X14792250Y6906667D01*
X14808832Y6909966D01*
X14822891Y6919359D01*
X14832285Y6933417D01*
X14835582Y6950000D01*
X14832285Y6966583D01*
X14822891Y6980641D01*
X14810103Y6989185D01*
X14807913Y6993065D01*
X14805145Y7002188D01*
X14855228Y7052271D01*
X14855229Y7052271D01*
X14861859Y7062195D01*
X14864188Y7073900D01*
X14864188Y7073901D01*
Y7144036D01*
X14893329Y7173177D01*
X14899959Y7183100D01*
X14902287Y7194806D01*
X14902287Y7194807D01*
Y7377200D01*
X14899959Y7388905D01*
X14893329Y7398829D01*
X14893327Y7398829D01*
X14814940Y7477217D01*
X14816817Y7493301D01*
X14822891Y7497359D01*
X14832285Y7511417D01*
X14835582Y7528000D01*
X14832285Y7544583D01*
X14822891Y7558641D01*
X14808832Y7568034D01*
X14792250Y7571333D01*
X14782449Y7569383D01*
X14769749Y7578192D01*
Y7600396D01*
X14797250D01*
X14815524Y7602802D01*
X14832552Y7609855D01*
X14847176Y7621075D01*
X14858395Y7635698D01*
X14865448Y7652726D01*
X14865878Y7656001D01*
X14742250D01*
X14618620D01*
X14619052Y7652726D01*
X14619614Y7651369D01*
X14610049Y7641275D01*
X14601450Y7642986D01*
X14579601D01*
X14572563Y7641586D01*
X14565929D01*
X14565594Y7641724D01*
X14565562Y7641710D01*
X14565529Y7641724D01*
X14548599Y7641620D01*
X14535899Y7650900D01*
Y7650900D01*
X14480901D01*
Y7585900D01*
X14450900D01*
Y7650900D01*
X14405295D01*
X14399387Y7658100D01*
X14396669Y7671756D01*
X14394479Y7675034D01*
X14394485Y7675043D01*
X14395844Y7681871D01*
Y7706714D01*
X14399854Y7714900D01*
X14465500D01*
Y7829900D01*
X14360500D01*
Y7739123D01*
X14360156Y7737400D01*
Y7725822D01*
X14359982Y7725424D01*
X14359679Y7710425D01*
X14359721Y7710314D01*
X14359676Y7710205D01*
X14360156Y7709043D01*
Y7693081D01*
X14350044Y7691069D01*
X14338466Y7683334D01*
X14331888Y7673488D01*
X14329224Y7671418D01*
X14317175Y7668711D01*
X14310204Y7673369D01*
X14296547Y7676086D01*
X14294501D01*
Y7685400D01*
X14220909D01*
X14215103Y7698100D01*
X14217093Y7700400D01*
X14294501D01*
Y7773134D01*
X14296548Y7774814D01*
X14310204Y7777531D01*
X14321780Y7785266D01*
X14329517Y7796844D01*
X14332233Y7810500D01*
X14329517Y7824156D01*
X14323837Y7832655D01*
X14323820Y7833008D01*
X14314391Y7852805D01*
Y7886019D01*
X14314799Y7886752D01*
X14315492Y7892699D01*
X14316100D01*
X14316618Y7902869D01*
X14316100Y7904167D01*
Y8007700D01*
X14211099D01*
Y7892700D01*
X14274693D01*
X14278705Y7884513D01*
Y7852805D01*
X14269275Y7833008D01*
X14269257Y7832655D01*
X14263577Y7824156D01*
X14260863Y7810500D01*
X14263577Y7796844D01*
X14266080Y7793100D01*
X14259291Y7780400D01*
X14213853D01*
X14209843Y7788586D01*
Y7821800D01*
X14208484Y7828628D01*
X14204616Y7834417D01*
X14159033Y7880000D01*
X14164294Y7892700D01*
X14186099D01*
Y8007700D01*
X14081100D01*
Y7892700D01*
X14111745D01*
X14115758Y7884513D01*
Y7880200D01*
X14117114Y7873372D01*
X14120982Y7867583D01*
X14174158Y7814410D01*
Y7786257D01*
X14173676Y7785095D01*
X14173721Y7784986D01*
X14173679Y7784875D01*
X14173982Y7769875D01*
X14174158Y7769478D01*
Y7762900D01*
X14174500Y7761176D01*
Y7734955D01*
X14164627Y7715761D01*
X14159602Y7710736D01*
X14146902Y7715997D01*
Y7788795D01*
X14145544Y7795623D01*
X14141676Y7801412D01*
X14107672Y7835417D01*
X14101883Y7839285D01*
X14095055Y7840643D01*
X14054996D01*
X14049092Y7853343D01*
X14053769Y7860344D01*
X14056487Y7874000D01*
X14053769Y7887656D01*
X14048091Y7896155D01*
X14048071Y7896508D01*
X14038643Y7916305D01*
Y7998009D01*
X14066290Y8025657D01*
X14442696D01*
X14452100Y8017700D01*
X14452100Y8012957D01*
Y7965200D01*
X14514600D01*
X14577100D01*
Y8012957D01*
X14577100Y8017700D01*
X14586504Y8025657D01*
X14741628D01*
X14750700Y8016900D01*
X14750700Y8012957D01*
Y7911900D01*
X14865700D01*
Y7942545D01*
X14873886Y7946557D01*
X14929814D01*
X14938000Y7942545D01*
Y7854800D01*
X15078000D01*
Y7994800D01*
X14938000D01*
Y7986254D01*
X14929814Y7982243D01*
X14876738D01*
X14865700Y7991552D01*
X14865700Y8016900D01*
X14874773Y8025657D01*
X15091908D01*
X15138127Y7979440D01*
X15148000Y7960245D01*
Y7889355D01*
X15138127Y7870160D01*
X14922583Y7654617D01*
X14918715Y7648828D01*
X14917357Y7642000D01*
Y6778400D01*
X14918715Y6771572D01*
X14922583Y6765783D01*
X14964757Y6723609D01*
Y6631387D01*
X14960745Y6623200D01*
X14912601D01*
Y6483200D01*
X15052600D01*
Y6623200D01*
X15004456D01*
X15000443Y6631387D01*
Y6731000D01*
X14999084Y6737828D01*
X14995216Y6743617D01*
X14953043Y6785791D01*
Y7634609D01*
X15163361Y7844927D01*
X15182555Y7854800D01*
X15277315D01*
Y7701054D01*
X15264613Y7698528D01*
X15261394Y7706302D01*
X15250174Y7720924D01*
X15235551Y7732145D01*
X15218523Y7739198D01*
X15200250Y7741604D01*
X15175250D01*
Y7671000D01*
Y7600396D01*
X15200250D01*
X15218523Y7602802D01*
X15235551Y7609855D01*
X15250174Y7621075D01*
X15261394Y7635698D01*
X15264613Y7643472D01*
X15277315Y7640945D01*
Y7625132D01*
X14998866Y7346684D01*
X14991132Y7335106D01*
X14988414Y7321450D01*
Y7213600D01*
X14991132Y7199944D01*
X14998866Y7188366D01*
X15010445Y7180631D01*
X15024100Y7177914D01*
X15037756Y7180631D01*
X15049335Y7188366D01*
X15057069Y7199944D01*
X15059785Y7213600D01*
Y7306668D01*
X15338234Y7585116D01*
X15345969Y7596694D01*
X15348686Y7610350D01*
Y8062062D01*
X15345969Y8075718D01*
X15338234Y8087296D01*
X15275687Y8149844D01*
Y8238715D01*
X15312064Y8311646D01*
X15327350Y8331569D01*
X15337427Y8355895D01*
X15340863Y8382000D01*
X15337427Y8408105D01*
X15327350Y8432431D01*
X15311320Y8453321D01*
X15290431Y8469350D01*
X15266106Y8479426D01*
X15239999Y8482863D01*
D02*
G37*
G36*
X13867599Y8017700D02*
X13820100D01*
Y7965200D01*
X13867599D01*
Y8017700D01*
D02*
G37*
G36*
X11938500Y8005000D02*
X11891000D01*
Y7952499D01*
X11938500D01*
Y8005000D01*
D02*
G37*
G36*
X11861000D02*
X11813500D01*
Y7952499D01*
X11861000D01*
Y8005000D01*
D02*
G37*
G36*
X13805099Y8007700D02*
X13700101D01*
Y7946655D01*
X13691913Y7942643D01*
X13619814D01*
X13611600Y7946749D01*
Y7994800D01*
X13471600D01*
Y7854800D01*
X13611600D01*
Y7902851D01*
X13619814Y7906957D01*
X13691913D01*
X13700101Y7902946D01*
Y7892700D01*
X13805099D01*
Y8007700D01*
D02*
G37*
G36*
X12192000Y8482863D02*
X12165895Y8479426D01*
X12141569Y8469350D01*
X12120679Y8453321D01*
X12104650Y8432431D01*
X12094574Y8408105D01*
X12091137Y8382000D01*
X12094574Y8355895D01*
X12104650Y8331569D01*
X12119938Y8311646D01*
X12156314Y8238715D01*
Y8149936D01*
X12142866Y8136488D01*
X12135131Y8124911D01*
X12132414Y8111255D01*
Y8062306D01*
X12118002Y8020401D01*
X12115599Y8020400D01*
X12115080Y8010095D01*
X12115599Y8008843D01*
X12115600Y8007700D01*
Y7905400D01*
X12220600D01*
Y8007700D01*
X12220600Y8008843D01*
X12221120Y8010095D01*
X12220600Y8020401D01*
X12218197D01*
X12203786Y8062306D01*
Y8096473D01*
X12217234Y8109921D01*
X12224969Y8121499D01*
X12227686Y8135155D01*
Y8238715D01*
X12264063Y8311646D01*
X12279350Y8331569D01*
X12289426Y8355895D01*
X12292863Y8382000D01*
X12289426Y8408105D01*
X12279350Y8432431D01*
X12263321Y8453321D01*
X12242431Y8469350D01*
X12218105Y8479426D01*
X12192000Y8482863D01*
D02*
G37*
G36*
X12039600Y8100186D02*
X12025944Y8097469D01*
X12014366Y8089734D01*
X12006631Y8078156D01*
X12003914Y8064500D01*
X12006631Y8050844D01*
X12012309Y8042345D01*
X12012328Y8041992D01*
X12016563Y8033100D01*
X12008545Y8020400D01*
X11985600D01*
Y7905400D01*
X12090600D01*
Y8020400D01*
X12070655D01*
X12062637Y8033100D01*
X12066872Y8041992D01*
X12066891Y8042345D01*
X12072569Y8050844D01*
X12075286Y8064500D01*
X12072569Y8078156D01*
X12064834Y8089734D01*
X12053256Y8097469D01*
X12039600Y8100186D01*
D02*
G37*
G36*
X10424400Y7951900D02*
X10369400D01*
Y7901900D01*
X10424400D01*
Y7951900D01*
D02*
G37*
G36*
X13867599Y7935200D02*
X13820100D01*
Y7882700D01*
X13867599D01*
Y7935200D01*
D02*
G37*
G36*
X11861000Y7922500D02*
X11813500D01*
Y7870000D01*
X11861000D01*
Y7922500D01*
D02*
G37*
G36*
X13401601Y7994800D02*
X13261600D01*
Y7981614D01*
X13219086Y7960486D01*
X13208000D01*
X13194344Y7957769D01*
X13182767Y7950034D01*
X13175031Y7938456D01*
X13172314Y7924800D01*
X13175031Y7911144D01*
X13182767Y7899566D01*
X13194344Y7891831D01*
X13208000Y7889114D01*
X13219086D01*
X13261600Y7867986D01*
Y7854800D01*
X13401601D01*
Y7994800D01*
D02*
G37*
G36*
X14697099Y8007700D02*
X14592101D01*
Y7892700D01*
X14622745D01*
X14626756Y7884513D01*
Y7872500D01*
X14628116Y7865672D01*
X14631982Y7859883D01*
X14638669Y7853198D01*
X14646001Y7832531D01*
X14646237Y7832269D01*
X14648232Y7822244D01*
X14655966Y7810666D01*
X14667545Y7802931D01*
X14681200Y7800214D01*
X14694856Y7802931D01*
X14706435Y7810666D01*
X14714169Y7822244D01*
X14716885Y7835900D01*
X14714169Y7849556D01*
X14706435Y7861134D01*
X14694856Y7868869D01*
X14684831Y7870863D01*
X14684569Y7871100D01*
X14679613Y7872858D01*
X14674660Y7888017D01*
X14677902Y7892700D01*
X14697099D01*
Y8007700D01*
D02*
G37*
G36*
X12164100Y7852600D02*
X12116600D01*
Y7800099D01*
X12164100D01*
Y7852600D01*
D02*
G37*
G36*
X12865565Y7921730D02*
X12826674Y7882839D01*
X12872636Y7836877D01*
X12918597Y7790915D01*
X12957489Y7829806D01*
X12942017Y7845278D01*
X12945328Y7859928D01*
X12957368Y7864200D01*
X12959167Y7865821D01*
X12960831Y7866510D01*
Y7866510D01*
X12961404Y7866747D01*
X12962125Y7868487D01*
X12963522Y7869747D01*
X12963647Y7872165D01*
X12964575Y7874401D01*
X12963853Y7876139D01*
X12963953Y7878020D01*
X12962331Y7879819D01*
X12961546Y7881712D01*
X12966617Y7886783D01*
X12970485Y7892572D01*
X12971843Y7899400D01*
X12970485Y7906228D01*
X12966617Y7912017D01*
X12960828Y7915885D01*
X12953999Y7917243D01*
X12947173Y7915885D01*
X12941383Y7912017D01*
X12936311Y7906946D01*
X12934419Y7907730D01*
X12932620Y7909352D01*
X12930739Y7909254D01*
X12929001Y7909975D01*
X12926765Y7909048D01*
X12924347Y7908923D01*
X12923087Y7907525D01*
X12921347Y7906804D01*
X12920421Y7904567D01*
X12918800Y7902769D01*
X12914528Y7890727D01*
X12899878Y7887416D01*
X12865565Y7921730D01*
D02*
G37*
G36*
X14865700Y7886900D02*
X14750700D01*
Y7781900D01*
X14822253D01*
X14825700Y7781214D01*
X14881609D01*
X14888663Y7781169D01*
X14922665Y7747166D01*
X14934244Y7739431D01*
X14947900Y7736714D01*
X14961555Y7739431D01*
X14973134Y7747166D01*
X14980869Y7758744D01*
X14983586Y7772400D01*
X14980869Y7786056D01*
X14973134Y7797634D01*
X14928635Y7842133D01*
X14917056Y7849869D01*
X14908067Y7851657D01*
X14908054Y7851672D01*
X14865700Y7871841D01*
Y7886900D01*
D02*
G37*
G36*
X12164100Y7770100D02*
X12116600D01*
Y7717600D01*
X12164100D01*
Y7770100D01*
D02*
G37*
G36*
X11938500Y7922500D02*
X11891000D01*
Y7870000D01*
X11913267D01*
X11939180Y7844087D01*
X11949113Y7822708D01*
X11951280Y7820717D01*
X11952915Y7818269D01*
X11954228Y7818008D01*
X11955213Y7817102D01*
X11958154Y7817227D01*
X11961040Y7816653D01*
X11963933Y7814952D01*
X11972922Y7806901D01*
X11973849Y7804663D01*
X11973974Y7802247D01*
X11975371Y7800988D01*
X11976092Y7799247D01*
X11978330Y7798321D01*
X11980128Y7796700D01*
X12000794Y7789369D01*
X12017680Y7772483D01*
X12023468Y7768615D01*
X12030296Y7767257D01*
X12039100D01*
Y7717600D01*
X12086600D01*
Y7785099D01*
Y7852600D01*
X12039100D01*
Y7832394D01*
X12026400Y7824144D01*
X12021939Y7826129D01*
X12018696Y7835269D01*
X12017075Y7837067D01*
X12016386Y7838730D01*
X12016386D01*
X12016149Y7839304D01*
X12014410Y7840025D01*
X12013150Y7841422D01*
X12010732Y7841548D01*
X12008495Y7842475D01*
X12006757Y7841754D01*
X12004876Y7841852D01*
X11993614Y7847647D01*
X11989790Y7852435D01*
X11988992Y7858480D01*
X11988992Y7858481D01*
X11987971Y7860010D01*
X11987722Y7861828D01*
X11985760Y7863318D01*
X11984389Y7865370D01*
X11982587Y7865728D01*
X11981126Y7866838D01*
X11981125Y7866839D01*
X11980774Y7866931D01*
X11961825Y7871909D01*
X11938500Y7895233D01*
Y7922500D01*
D02*
G37*
G36*
X14528000Y7757400D02*
X14480499D01*
Y7704900D01*
X14528000D01*
Y7757400D01*
D02*
G37*
G36*
X14797250Y7741604D02*
X14757249D01*
Y7686001D01*
X14865878D01*
X14865448Y7689273D01*
X14858395Y7706302D01*
X14847176Y7720924D01*
X14832552Y7732145D01*
X14815524Y7739198D01*
X14797250Y7741604D01*
D02*
G37*
G36*
X14577100Y7935200D02*
X14514600D01*
X14452100D01*
Y7882700D01*
X14476956D01*
X14491936Y7852557D01*
X14491177Y7839900D01*
X14480499D01*
Y7787400D01*
X14542999D01*
Y7772400D01*
X14558000D01*
Y7704900D01*
X14605499D01*
Y7721782D01*
X14631219Y7732248D01*
X14637593Y7721130D01*
X14637325Y7720924D01*
X14626105Y7706302D01*
X14619052Y7689273D01*
X14618620Y7686001D01*
X14727251D01*
Y7741604D01*
X14687250D01*
X14668976Y7739198D01*
X14667796Y7738709D01*
X14659377Y7748968D01*
X14663370Y7754944D01*
X14666086Y7768600D01*
X14663370Y7782256D01*
X14655634Y7793834D01*
X14644057Y7801569D01*
X14634904Y7803390D01*
X14634818Y7803482D01*
X14605499Y7816585D01*
Y7839900D01*
X14580644D01*
X14565665Y7870043D01*
X14566422Y7882700D01*
X14577100D01*
Y7935200D01*
D02*
G37*
G36*
X15145250Y7741604D02*
X15120250D01*
X15101976Y7739198D01*
X15084949Y7732145D01*
X15070325Y7720924D01*
X15059105Y7706302D01*
X15052052Y7689273D01*
X15051620Y7686000D01*
X15145250D01*
Y7741604D01*
D02*
G37*
G36*
Y7656000D02*
X15051620D01*
X15052052Y7652726D01*
X15059105Y7635698D01*
X15070325Y7621075D01*
X15084949Y7609855D01*
X15101976Y7602802D01*
X15120250Y7600396D01*
X15145250D01*
Y7656000D01*
D02*
G37*
G36*
X13849500Y7537500D02*
X13779500D01*
X13709500D01*
Y7487500D01*
X13727760D01*
X13743814Y7454998D01*
Y7442600D01*
X13746532Y7428944D01*
X13754266Y7417366D01*
X13765845Y7409631D01*
X13779500Y7406914D01*
X13793156Y7409631D01*
X13804733Y7417366D01*
X13812469Y7428944D01*
X13815186Y7442600D01*
Y7454998D01*
X13831239Y7487500D01*
X13849500D01*
Y7537500D01*
D02*
G37*
G36*
X14132600Y7014400D02*
X14085100D01*
Y6961899D01*
X14132600D01*
Y7014400D01*
D02*
G37*
G36*
Y6931900D02*
X14085100D01*
Y6879400D01*
X14132600D01*
Y6931900D01*
D02*
G37*
G36*
X14055099Y7014400D02*
X14007600D01*
Y6997058D01*
X13975333Y6983004D01*
X13970000D01*
X13956345Y6980288D01*
X13944766Y6972552D01*
X13937032Y6960975D01*
X13934314Y6947319D01*
X13937032Y6933662D01*
X13944766Y6922085D01*
X13956345Y6914349D01*
X13970000Y6911633D01*
X13975266D01*
X14007600Y6897009D01*
Y6879400D01*
X14055099D01*
Y6946899D01*
Y7014400D01*
D02*
G37*
G36*
X10160000Y6977443D02*
X10153172Y6976085D01*
X10147383Y6972217D01*
X10143515Y6966428D01*
X10142157Y6959600D01*
Y6952428D01*
X10140263Y6951644D01*
X10137845Y6951519D01*
X10136585Y6950120D01*
X10134846Y6949400D01*
X10133919Y6947163D01*
X10132298Y6945365D01*
X10132396Y6943486D01*
X10131675Y6941746D01*
X10131913Y6941173D01*
Y6941173D01*
X10132602Y6939509D01*
X10132728Y6937092D01*
X10134801Y6932739D01*
X10128021Y6922000D01*
X10092500D01*
Y6874499D01*
X10160000D01*
X10227500D01*
Y6922000D01*
X10191979D01*
X10185199Y6932739D01*
X10187272Y6937092D01*
X10187398Y6939509D01*
X10188325Y6941747D01*
X10187604Y6943486D01*
X10187702Y6945365D01*
X10186081Y6947164D01*
X10185154Y6949400D01*
X10183416Y6950120D01*
X10182155Y6951519D01*
X10179736Y6951644D01*
X10177843Y6952428D01*
Y6959600D01*
X10176485Y6966428D01*
X10172617Y6972217D01*
X10166828Y6976085D01*
X10160000Y6977443D01*
D02*
G37*
G36*
X13011266Y6934811D02*
X12975911Y6899456D01*
X13014803Y6860565D01*
X13050157Y6895920D01*
X13011266Y6934811D01*
D02*
G37*
G36*
X15200250Y6877604D02*
X15175250D01*
Y6822000D01*
X15268880D01*
X15268448Y6825274D01*
X15261394Y6842302D01*
X15250174Y6856925D01*
X15235551Y6868145D01*
X15218523Y6875198D01*
X15200250Y6877604D01*
D02*
G37*
G36*
X15145250D02*
X15120250D01*
X15101976Y6875198D01*
X15084949Y6868145D01*
X15070325Y6856925D01*
X15059105Y6842302D01*
X15052052Y6825274D01*
X15051620Y6822000D01*
X15145250D01*
Y6877604D01*
D02*
G37*
G36*
X13127939Y6931275D02*
X13081976Y6885314D01*
X13036015Y6839352D01*
X13074905Y6800461D01*
X13095663Y6821220D01*
X13108052Y6818420D01*
X13109300Y6814903D01*
X13110921Y6813104D01*
X13111610Y6811441D01*
X13111610D01*
X13111847Y6810867D01*
X13113586Y6810147D01*
X13114847Y6808749D01*
X13117265Y6808623D01*
X13119501Y6807697D01*
X13121239Y6808417D01*
X13123120Y6808319D01*
X13124919Y6809941D01*
X13126813Y6810726D01*
X13131883Y6805655D01*
X13137672Y6801787D01*
X13144501Y6800429D01*
X13151328Y6801787D01*
X13157117Y6805655D01*
X13160985Y6811443D01*
X13162343Y6818271D01*
X13160985Y6825100D01*
X13157117Y6830888D01*
X13152046Y6835959D01*
X13152831Y6837852D01*
X13154453Y6839651D01*
X13154353Y6841532D01*
X13155075Y6843270D01*
X13154147Y6845507D01*
X13154024Y6847925D01*
X13152625Y6849184D01*
X13151904Y6850924D01*
X13149667Y6851851D01*
X13147868Y6853471D01*
X13144351Y6854719D01*
X13141553Y6867107D01*
X13166830Y6892385D01*
X13127939Y6931275D01*
D02*
G37*
G36*
X10227500Y6844499D02*
X10175000D01*
Y6797000D01*
X10227500D01*
Y6844499D01*
D02*
G37*
G36*
X10145000D02*
X10092500D01*
Y6797000D01*
X10145000D01*
Y6844499D01*
D02*
G37*
G36*
X15268880Y6792000D02*
X15175250D01*
Y6736396D01*
X15200250D01*
X15218523Y6738802D01*
X15235551Y6745855D01*
X15250174Y6757076D01*
X15261394Y6771698D01*
X15268448Y6788727D01*
X15268880Y6792000D01*
D02*
G37*
G36*
X15145250D02*
X15051620D01*
X15052052Y6788727D01*
X15059105Y6771698D01*
X15070325Y6757076D01*
X15084949Y6745855D01*
X15101976Y6738802D01*
X15120250Y6736396D01*
X15145250D01*
Y6792000D01*
D02*
G37*
G36*
X11761700Y6779200D02*
X11699200D01*
Y6704200D01*
X11761700D01*
Y6779200D01*
D02*
G37*
G36*
X10516065Y6715230D02*
X10477174Y6676339D01*
X10512530Y6640983D01*
X10551420Y6679874D01*
X10516065Y6715230D01*
D02*
G37*
G36*
X10621061Y6765471D02*
X10582170Y6726580D01*
X10606763Y6701987D01*
X10605674Y6685115D01*
X10575927Y6655368D01*
X10572634Y6658661D01*
X10533743Y6619770D01*
X10569098Y6584415D01*
X10607989Y6623306D01*
X10601160Y6630135D01*
X10631264Y6660239D01*
X10646344Y6662407D01*
X10674094Y6634657D01*
X10712985Y6673547D01*
X10667023Y6719510D01*
X10621061Y6765471D01*
D02*
G37*
G36*
X11001270Y6668617D02*
X10962380Y6629726D01*
X10997735Y6594370D01*
X11036626Y6633261D01*
X11001270Y6668617D01*
D02*
G37*
G36*
X12519700Y6646100D02*
X12472200D01*
Y6593599D01*
X12519700D01*
Y6646100D01*
D02*
G37*
G36*
X12442200D02*
X12394700D01*
Y6593599D01*
X12442200D01*
Y6646100D01*
D02*
G37*
G36*
X11631700Y6664200D02*
Y6589200D01*
X11694200D01*
Y6664200D01*
X11631700D01*
D02*
G37*
G36*
X14820361Y6628599D02*
X14767860D01*
Y6581100D01*
X14820361D01*
Y6628599D01*
D02*
G37*
G36*
X10455961Y6655126D02*
X10417070Y6616235D01*
X10452426Y6580880D01*
X10491317Y6619770D01*
X10455961Y6655126D01*
D02*
G37*
G36*
X14513800Y6626900D02*
X14458800D01*
Y6576900D01*
X14513800D01*
Y6626900D01*
D02*
G37*
G36*
X14421001D02*
X14366000D01*
Y6576900D01*
X14421001D01*
Y6626900D01*
D02*
G37*
G36*
X14336000D02*
X14281000D01*
Y6576900D01*
X14336000D01*
Y6626900D01*
D02*
G37*
G36*
X10922465Y6639030D02*
X10883574Y6600139D01*
X10918930Y6564783D01*
X10957820Y6603674D01*
X10922465Y6639030D01*
D02*
G37*
G36*
X13492101Y6663000D02*
X13487399D01*
Y6558001D01*
X13492101D01*
Y6663000D01*
D02*
G37*
G36*
X11389600Y6592800D02*
X11334600D01*
Y6561547D01*
X11332716Y6560357D01*
X11321927Y6555198D01*
X11319690Y6556125D01*
X11317950Y6555404D01*
X11316071Y6555502D01*
X11314273Y6553881D01*
X11312036Y6552954D01*
X11311316Y6551216D01*
X11309917Y6549955D01*
X11309792Y6547536D01*
X11309008Y6545643D01*
X11301837D01*
X11295009Y6544285D01*
X11289220Y6540417D01*
X11285352Y6534628D01*
X11283994Y6527800D01*
X11285352Y6520972D01*
X11289220Y6515183D01*
X11295009Y6511315D01*
X11301837Y6509957D01*
X11309008D01*
X11309793Y6508063D01*
X11309918Y6505645D01*
X11311316Y6504385D01*
X11312036Y6502646D01*
X11314274Y6501719D01*
X11316072Y6500098D01*
X11317950Y6500196D01*
X11319690Y6499475D01*
X11320263Y6499713D01*
X11320264D01*
X11321927Y6500402D01*
X11332716Y6495243D01*
X11334600Y6494053D01*
Y6462800D01*
X11389600D01*
Y6527800D01*
Y6592800D01*
D02*
G37*
G36*
X10512530Y6598557D02*
X10473639Y6559666D01*
X10508994Y6524311D01*
X10547885Y6563202D01*
X10512530Y6598557D01*
D02*
G37*
G36*
X12185534Y6585531D02*
X12146643Y6546641D01*
X12181998Y6511285D01*
X12220889Y6550176D01*
X12185534Y6585531D01*
D02*
G37*
G36*
X10979034Y6582461D02*
X10940143Y6543570D01*
X10975498Y6508215D01*
X11014389Y6547106D01*
X10979034Y6582461D01*
D02*
G37*
G36*
X12068861Y6581996D02*
X12029970Y6543105D01*
X12065326Y6507750D01*
X12104217Y6546641D01*
X12068861Y6581996D01*
D02*
G37*
G36*
X11694200Y6559200D02*
X11631700D01*
Y6484200D01*
X11694200D01*
Y6559200D01*
D02*
G37*
G36*
X11474600Y6592800D02*
X11419600D01*
Y6527800D01*
Y6462800D01*
X11474600D01*
Y6495014D01*
X11475044Y6497234D01*
X11480567Y6507370D01*
X11482366Y6508991D01*
X11484602Y6509918D01*
X11485322Y6511656D01*
X11486721Y6512917D01*
X11486846Y6515335D01*
X11487631Y6517229D01*
X11501974D01*
X11502758Y6515335D01*
X11502884Y6512916D01*
X11504282Y6511656D01*
X11505002Y6509917D01*
X11507239Y6508991D01*
X11509037Y6507370D01*
X11510916Y6507468D01*
X11512656Y6506747D01*
X11513229Y6506985D01*
X11513229D01*
X11514893Y6507674D01*
X11517310Y6507799D01*
X11526500Y6512176D01*
X11539200Y6504158D01*
Y6484200D01*
X11601700D01*
Y6559200D01*
X11528453D01*
X11526500Y6557967D01*
X11517310Y6562344D01*
X11514893Y6562469D01*
X11512656Y6563396D01*
X11510916Y6562676D01*
X11509037Y6562774D01*
X11507238Y6561152D01*
X11505002Y6560226D01*
X11504282Y6558488D01*
X11502883Y6557226D01*
X11502758Y6554808D01*
X11501974Y6552914D01*
X11487631D01*
X11486846Y6554809D01*
X11486721Y6557226D01*
X11486719Y6557227D01*
X11485323Y6558486D01*
X11484602Y6560225D01*
X11482365Y6561152D01*
X11480567Y6562773D01*
X11475044Y6572909D01*
X11474600Y6575129D01*
Y6592800D01*
D02*
G37*
G36*
X15262601Y6623200D02*
X15122600D01*
Y6517755D01*
X15112727Y6498560D01*
X15070909Y6456743D01*
X14879091D01*
X14844617Y6491217D01*
X14838828Y6495085D01*
X14832001Y6496443D01*
X14818549D01*
X14810362Y6500454D01*
Y6566100D01*
X14695361D01*
Y6461100D01*
X14786139D01*
X14787862Y6460757D01*
X14799438D01*
X14799837Y6460583D01*
X14814838Y6460278D01*
X14814948Y6460322D01*
X14815057Y6460276D01*
X14816219Y6460757D01*
X14824609D01*
X14859084Y6426283D01*
X14864873Y6422415D01*
X14871700Y6421057D01*
X15078300D01*
X15085127Y6422415D01*
X15090916Y6426283D01*
X15137959Y6473327D01*
X15157155Y6483200D01*
X15262601D01*
Y6623200D01*
D02*
G37*
G36*
X12125430Y6525428D02*
X12086539Y6486537D01*
X12121894Y6451181D01*
X12160785Y6490072D01*
X12125430Y6525428D01*
D02*
G37*
G36*
X10862361Y6578926D02*
X10823470Y6540035D01*
X10841117Y6522388D01*
X10842817Y6516660D01*
X10842048Y6506926D01*
X10842048Y6506926D01*
X10841846Y6504792D01*
X10840839Y6502899D01*
X10840839Y6502898D01*
X10841329Y6499336D01*
X10841267Y6498678D01*
X10836346Y6489616D01*
X10832478Y6483828D01*
X10831120Y6477000D01*
X10832478Y6470172D01*
X10836346Y6464383D01*
X10842135Y6460515D01*
X10848963Y6459157D01*
X10852359D01*
X10859188Y6460515D01*
X10864976Y6464383D01*
X10867501Y6466908D01*
X10867885Y6466704D01*
X10869796Y6464818D01*
X10871409Y6464830D01*
X10872830Y6464073D01*
X10875395Y6464857D01*
X10878081Y6464875D01*
X10879212Y6466023D01*
X10880753Y6466494D01*
X10888917Y6468445D01*
X10895456Y6468049D01*
X10915394Y6448111D01*
X10954285Y6487002D01*
X10908323Y6532964D01*
X10862361Y6578926D01*
D02*
G37*
G36*
X12519700Y6563600D02*
X12457200D01*
X12394700D01*
Y6511100D01*
X12428931D01*
X12436949Y6498400D01*
X12431428Y6486808D01*
X12431302Y6484391D01*
X12430375Y6482153D01*
X12431096Y6480414D01*
X12430998Y6478535D01*
X12432619Y6476736D01*
X12433546Y6474500D01*
X12435284Y6473780D01*
X12436545Y6472381D01*
X12438964Y6472256D01*
X12440857Y6471472D01*
Y6464300D01*
X12442215Y6457472D01*
X12446083Y6451683D01*
X12451872Y6447815D01*
X12458700Y6446457D01*
X12465528Y6447815D01*
X12471317Y6451683D01*
X12475185Y6457472D01*
X12476543Y6464300D01*
Y6471472D01*
X12478437Y6472256D01*
X12480855Y6472381D01*
X12482115Y6473780D01*
X12483854Y6474500D01*
X12484781Y6476737D01*
X12486402Y6478535D01*
X12486304Y6480414D01*
X12487025Y6482154D01*
X12486787Y6482727D01*
Y6482727D01*
X12486098Y6484391D01*
X12485972Y6486808D01*
X12480451Y6498400D01*
X12488469Y6511100D01*
X12519700D01*
Y6563600D01*
D02*
G37*
G36*
X13195300Y6455000D02*
X13175999D01*
Y6437800D01*
X13212500D01*
X13195300Y6455000D01*
D02*
G37*
G36*
X12856726Y6778543D02*
X12782480Y6704297D01*
X12863797Y6622980D01*
X12913216Y6672399D01*
X12934169Y6679383D01*
X12936354D01*
X12956654Y6647519D01*
X12936914Y6607800D01*
X12925999D01*
Y6584749D01*
X12883475Y6563486D01*
X12877800D01*
X12864143Y6560769D01*
X12852567Y6553034D01*
X12844830Y6541456D01*
X12842114Y6527800D01*
X12844830Y6514144D01*
X12852567Y6502566D01*
X12864143Y6494831D01*
X12877800Y6492114D01*
X12883475D01*
X12925999Y6470851D01*
Y6447800D01*
X13069482Y6447800D01*
X13075999Y6437800D01*
X13082520D01*
X13082520Y6437800D01*
X13146001D01*
Y6455000D01*
X13093700D01*
Y6617800D01*
X13082520D01*
X13082520Y6617800D01*
X13075999Y6617801D01*
X13069482Y6607800D01*
X13050543Y6607800D01*
X13029311Y6650524D01*
X13026698Y6663656D01*
X13018962Y6675234D01*
X13007385Y6682969D01*
X13000505Y6684338D01*
X12957622Y6711658D01*
X12955965Y6711950D01*
X12953331Y6713711D01*
X12946503Y6715069D01*
X12934171D01*
X12913216Y6722054D01*
X12856726Y6778543D01*
D02*
G37*
G36*
X14635915Y6499986D02*
X14622260Y6497269D01*
X14610683Y6489534D01*
X14602946Y6477956D01*
X14600230Y6464300D01*
X14602946Y6450644D01*
X14610683Y6439066D01*
X14622260Y6431331D01*
X14635915Y6428614D01*
X14649573Y6431331D01*
X14661150Y6439066D01*
X14668884Y6450644D01*
X14671600Y6464300D01*
X14668884Y6477956D01*
X14661150Y6489534D01*
X14649573Y6497269D01*
X14635915Y6499986D01*
D02*
G37*
G36*
X14421001Y6546900D02*
X14281000D01*
Y6496900D01*
X14299261D01*
X14315314Y6464398D01*
Y6464300D01*
X14318031Y6450644D01*
X14325766Y6439066D01*
X14337344Y6431331D01*
X14350999Y6428614D01*
X14364656Y6431331D01*
X14376234Y6439066D01*
X14383969Y6450644D01*
X14386687Y6464300D01*
Y6464398D01*
X14402739Y6496900D01*
X14421001D01*
Y6546900D01*
D02*
G37*
G36*
X13492101Y6528001D02*
X13487399D01*
Y6438900D01*
X13471500Y6423000D01*
X13492101D01*
Y6528001D01*
D02*
G37*
G36*
X10217500Y6782000D02*
X10102500D01*
Y6677000D01*
X10138145D01*
X10142157Y6668813D01*
Y6533213D01*
X10138051Y6525000D01*
X10090000D01*
Y6385000D01*
X10230000D01*
Y6525000D01*
X10181949D01*
X10177843Y6533213D01*
Y6668813D01*
X10181854Y6677000D01*
X10217500D01*
Y6782000D01*
D02*
G37*
G36*
X10287000Y7058786D02*
X10273344Y7056069D01*
X10261766Y7048334D01*
X10254031Y7036756D01*
X10251314Y7023100D01*
X10254031Y7009444D01*
X10259709Y7000945D01*
X10259728Y7000592D01*
X10269157Y6980795D01*
Y6379391D01*
X10214644Y6324878D01*
X10194888Y6315000D01*
X10090000D01*
Y6175000D01*
X10230000D01*
Y6279888D01*
X10239878Y6299644D01*
X10299617Y6359383D01*
X10303485Y6365172D01*
X10304843Y6372000D01*
Y6980795D01*
X10314272Y7000592D01*
X10314291Y7000945D01*
X10319969Y7009444D01*
X10322686Y7023100D01*
X10319969Y7036756D01*
X10312234Y7048334D01*
X10300656Y7056069D01*
X10287000Y7058786D01*
D02*
G37*
G36*
X15000999Y6204974D02*
Y6111000D01*
X15094974D01*
X15093169Y6124716D01*
X15082085Y6151475D01*
X15064453Y6174453D01*
X15041475Y6192085D01*
X15014716Y6203168D01*
X15000999Y6204974D01*
D02*
G37*
G36*
X14971001D02*
X14957285Y6203168D01*
X14930525Y6192085D01*
X14907547Y6174453D01*
X14889915Y6151475D01*
X14878831Y6124716D01*
X14877026Y6111000D01*
X14971001D01*
Y6204974D01*
D02*
G37*
G36*
X15239999Y6196863D02*
X15213895Y6193426D01*
X15189569Y6183350D01*
X15168678Y6167321D01*
X15152650Y6146431D01*
X15142574Y6122105D01*
X15139137Y6096000D01*
X15142574Y6069895D01*
X15152650Y6045569D01*
X15168678Y6024679D01*
X15189569Y6008650D01*
X15213895Y5998574D01*
X15239999Y5995137D01*
X15266106Y5998574D01*
X15290431Y6008650D01*
X15311320Y6024679D01*
X15327350Y6045569D01*
X15337427Y6069895D01*
X15340863Y6096000D01*
X15337427Y6122105D01*
X15327350Y6146431D01*
X15311320Y6167321D01*
X15290431Y6183350D01*
X15266106Y6193426D01*
X15239999Y6196863D01*
D02*
G37*
G36*
X14732001D02*
X14705894Y6193426D01*
X14681569Y6183350D01*
X14660680Y6167321D01*
X14644650Y6146431D01*
X14634573Y6122105D01*
X14631137Y6096000D01*
X14634573Y6069895D01*
X14644650Y6045569D01*
X14660680Y6024679D01*
X14681569Y6008650D01*
X14705894Y5998574D01*
X14732001Y5995137D01*
X14758105Y5998574D01*
X14782431Y6008650D01*
X14803320Y6024679D01*
X14819350Y6045569D01*
X14829427Y6069895D01*
X14832863Y6096000D01*
X14829427Y6122105D01*
X14819350Y6146431D01*
X14803320Y6167321D01*
X14782431Y6183350D01*
X14758105Y6193426D01*
X14732001Y6196863D01*
D02*
G37*
G36*
X14478000D02*
X14451895Y6193426D01*
X14427570Y6183350D01*
X14406679Y6167321D01*
X14390649Y6146431D01*
X14380574Y6122105D01*
X14377138Y6096000D01*
X14380574Y6069895D01*
X14390649Y6045569D01*
X14406679Y6024679D01*
X14427570Y6008650D01*
X14451895Y5998574D01*
X14478000Y5995137D01*
X14504105Y5998574D01*
X14528432Y6008650D01*
X14549321Y6024679D01*
X14565350Y6045569D01*
X14575426Y6069895D01*
X14578864Y6096000D01*
X14575426Y6122105D01*
X14565350Y6146431D01*
X14549321Y6167321D01*
X14528432Y6183350D01*
X14504105Y6193426D01*
X14478000Y6196863D01*
D02*
G37*
G36*
X14224001D02*
X14197894Y6193426D01*
X14173569Y6183350D01*
X14152679Y6167321D01*
X14136650Y6146431D01*
X14126575Y6122105D01*
X14123137Y6096000D01*
X14126575Y6069895D01*
X14136650Y6045569D01*
X14152679Y6024679D01*
X14173569Y6008650D01*
X14197894Y5998574D01*
X14224001Y5995137D01*
X14250105Y5998574D01*
X14274431Y6008650D01*
X14295322Y6024679D01*
X14311349Y6045569D01*
X14321426Y6069895D01*
X14324863Y6096000D01*
X14321426Y6122105D01*
X14311349Y6146431D01*
X14295322Y6167321D01*
X14274431Y6183350D01*
X14250105Y6193426D01*
X14224001Y6196863D01*
D02*
G37*
G36*
X13970000D02*
X13943895Y6193426D01*
X13919569Y6183350D01*
X13898679Y6167321D01*
X13882651Y6146431D01*
X13872574Y6122105D01*
X13869138Y6096000D01*
X13872574Y6069895D01*
X13882651Y6045569D01*
X13898679Y6024679D01*
X13919569Y6008650D01*
X13943895Y5998574D01*
X13970000Y5995137D01*
X13996104Y5998574D01*
X14020432Y6008650D01*
X14041321Y6024679D01*
X14057350Y6045569D01*
X14067426Y6069895D01*
X14070863Y6096000D01*
X14067426Y6122105D01*
X14057350Y6146431D01*
X14041321Y6167321D01*
X14020432Y6183350D01*
X13996104Y6193426D01*
X13970000Y6196863D01*
D02*
G37*
G36*
X13716000D02*
X13689896Y6193426D01*
X13665569Y6183350D01*
X13644679Y6167321D01*
X13628650Y6146431D01*
X13618575Y6122105D01*
X13615137Y6096000D01*
X13618575Y6069895D01*
X13628650Y6045569D01*
X13644679Y6024679D01*
X13665569Y6008650D01*
X13689896Y5998574D01*
X13716000Y5995137D01*
X13742105Y5998574D01*
X13766431Y6008650D01*
X13787321Y6024679D01*
X13803349Y6045569D01*
X13813426Y6069895D01*
X13816862Y6096000D01*
X13813426Y6122105D01*
X13803349Y6146431D01*
X13787321Y6167321D01*
X13766431Y6183350D01*
X13742105Y6193426D01*
X13716000Y6196863D01*
D02*
G37*
G36*
X13462000D02*
X13435895Y6193426D01*
X13411569Y6183350D01*
X13390678Y6167321D01*
X13374651Y6146431D01*
X13364574Y6122105D01*
X13361137Y6096000D01*
X13364574Y6069895D01*
X13374651Y6045569D01*
X13390678Y6024679D01*
X13411569Y6008650D01*
X13435895Y5998574D01*
X13462000Y5995137D01*
X13488104Y5998574D01*
X13512431Y6008650D01*
X13533321Y6024679D01*
X13549350Y6045569D01*
X13559425Y6069895D01*
X13562863Y6096000D01*
X13559425Y6122105D01*
X13549350Y6146431D01*
X13533321Y6167321D01*
X13512431Y6183350D01*
X13488104Y6193426D01*
X13462000Y6196863D01*
D02*
G37*
G36*
X13208000D02*
X13181895Y6193426D01*
X13157568Y6183350D01*
X13136679Y6167321D01*
X13120650Y6146431D01*
X13110574Y6122105D01*
X13107137Y6096000D01*
X13110574Y6069895D01*
X13120650Y6045569D01*
X13136679Y6024679D01*
X13157568Y6008650D01*
X13181895Y5998574D01*
X13208000Y5995137D01*
X13234105Y5998574D01*
X13258430Y6008650D01*
X13279321Y6024679D01*
X13295351Y6045569D01*
X13305426Y6069895D01*
X13308862Y6096000D01*
X13305426Y6122105D01*
X13295351Y6146431D01*
X13279321Y6167321D01*
X13258430Y6183350D01*
X13234105Y6193426D01*
X13208000Y6196863D01*
D02*
G37*
G36*
X12953999D02*
X12927895Y6193426D01*
X12903569Y6183350D01*
X12882680Y6167321D01*
X12866650Y6146431D01*
X12856573Y6122105D01*
X12853137Y6096000D01*
X12856573Y6069895D01*
X12866650Y6045569D01*
X12882680Y6024679D01*
X12903569Y6008650D01*
X12927895Y5998574D01*
X12953999Y5995137D01*
X12980106Y5998574D01*
X13004431Y6008650D01*
X13025320Y6024679D01*
X13041350Y6045569D01*
X13051427Y6069895D01*
X13054863Y6096000D01*
X13051427Y6122105D01*
X13041350Y6146431D01*
X13025320Y6167321D01*
X13004431Y6183350D01*
X12980106Y6193426D01*
X12953999Y6196863D01*
D02*
G37*
G36*
X12700000D02*
X12673895Y6193426D01*
X12649569Y6183350D01*
X12628679Y6167321D01*
X12612650Y6146431D01*
X12602574Y6122105D01*
X12599137Y6096000D01*
X12602574Y6069895D01*
X12612650Y6045569D01*
X12628679Y6024679D01*
X12649569Y6008650D01*
X12673895Y5998574D01*
X12700000Y5995137D01*
X12726105Y5998574D01*
X12750431Y6008650D01*
X12771321Y6024679D01*
X12787350Y6045569D01*
X12797426Y6069895D01*
X12800864Y6096000D01*
X12797426Y6122105D01*
X12787350Y6146431D01*
X12771321Y6167321D01*
X12750431Y6183350D01*
X12726105Y6193426D01*
X12700000Y6196863D01*
D02*
G37*
G36*
X12446000D02*
X12419895Y6193426D01*
X12395569Y6183350D01*
X12374679Y6167321D01*
X12358650Y6146431D01*
X12348574Y6122105D01*
X12345137Y6096000D01*
X12348574Y6069895D01*
X12358650Y6045569D01*
X12374679Y6024679D01*
X12395569Y6008650D01*
X12419895Y5998574D01*
X12446000Y5995137D01*
X12472105Y5998574D01*
X12496431Y6008650D01*
X12517321Y6024679D01*
X12533350Y6045569D01*
X12543426Y6069895D01*
X12546863Y6096000D01*
X12543426Y6122105D01*
X12533350Y6146431D01*
X12517321Y6167321D01*
X12496431Y6183350D01*
X12472105Y6193426D01*
X12446000Y6196863D01*
D02*
G37*
G36*
X12192000D02*
X12165895Y6193426D01*
X12141569Y6183350D01*
X12120679Y6167321D01*
X12104650Y6146431D01*
X12094574Y6122105D01*
X12091137Y6096000D01*
X12094574Y6069895D01*
X12104650Y6045569D01*
X12120679Y6024679D01*
X12141569Y6008650D01*
X12165895Y5998574D01*
X12192000Y5995137D01*
X12218105Y5998574D01*
X12242431Y6008650D01*
X12263321Y6024679D01*
X12279350Y6045569D01*
X12289426Y6069895D01*
X12292863Y6096000D01*
X12289426Y6122105D01*
X12279350Y6146431D01*
X12263321Y6167321D01*
X12242431Y6183350D01*
X12218105Y6193426D01*
X12192000Y6196863D01*
D02*
G37*
G36*
X11938000D02*
X11911895Y6193426D01*
X11887569Y6183350D01*
X11866679Y6167321D01*
X11850650Y6146431D01*
X11840574Y6122105D01*
X11837137Y6096000D01*
X11840574Y6069895D01*
X11850650Y6045569D01*
X11866679Y6024679D01*
X11887569Y6008650D01*
X11911895Y5998574D01*
X11938000Y5995137D01*
X11964105Y5998574D01*
X11988431Y6008650D01*
X12009321Y6024679D01*
X12025350Y6045569D01*
X12035426Y6069895D01*
X12038863Y6096000D01*
X12035426Y6122105D01*
X12025350Y6146431D01*
X12009321Y6167321D01*
X11988431Y6183350D01*
X11964105Y6193426D01*
X11938000Y6196863D01*
D02*
G37*
G36*
X11684000D02*
X11657895Y6193426D01*
X11633569Y6183350D01*
X11612679Y6167321D01*
X11596650Y6146431D01*
X11586574Y6122105D01*
X11583137Y6096000D01*
X11586574Y6069895D01*
X11596650Y6045569D01*
X11612679Y6024679D01*
X11633569Y6008650D01*
X11657895Y5998574D01*
X11684000Y5995137D01*
X11710105Y5998574D01*
X11734431Y6008650D01*
X11755321Y6024679D01*
X11771350Y6045569D01*
X11781426Y6069895D01*
X11784863Y6096000D01*
X11781426Y6122105D01*
X11771350Y6146431D01*
X11755321Y6167321D01*
X11734431Y6183350D01*
X11710105Y6193426D01*
X11684000Y6196863D01*
D02*
G37*
G36*
X11430000D02*
X11403895Y6193426D01*
X11379569Y6183350D01*
X11358679Y6167321D01*
X11342650Y6146431D01*
X11332574Y6122105D01*
X11329137Y6096000D01*
X11332574Y6069895D01*
X11342650Y6045569D01*
X11358679Y6024679D01*
X11379569Y6008650D01*
X11403895Y5998574D01*
X11430000Y5995137D01*
X11456105Y5998574D01*
X11480431Y6008650D01*
X11501321Y6024679D01*
X11517350Y6045569D01*
X11527426Y6069895D01*
X11530863Y6096000D01*
X11527426Y6122105D01*
X11517350Y6146431D01*
X11501321Y6167321D01*
X11480431Y6183350D01*
X11456105Y6193426D01*
X11430000Y6196863D01*
D02*
G37*
G36*
X11176000D02*
X11149895Y6193426D01*
X11125569Y6183350D01*
X11104679Y6167321D01*
X11088650Y6146431D01*
X11078574Y6122105D01*
X11075137Y6096000D01*
X11078574Y6069895D01*
X11088650Y6045569D01*
X11104679Y6024679D01*
X11125569Y6008650D01*
X11149895Y5998574D01*
X11176000Y5995137D01*
X11202105Y5998574D01*
X11226431Y6008650D01*
X11247321Y6024679D01*
X11263350Y6045569D01*
X11273426Y6069895D01*
X11276863Y6096000D01*
X11273426Y6122105D01*
X11263350Y6146431D01*
X11247321Y6167321D01*
X11226431Y6183350D01*
X11202105Y6193426D01*
X11176000Y6196863D01*
D02*
G37*
G36*
X10922000D02*
X10895895Y6193426D01*
X10871569Y6183350D01*
X10850679Y6167321D01*
X10834650Y6146431D01*
X10824574Y6122105D01*
X10821137Y6096000D01*
X10824574Y6069895D01*
X10834650Y6045569D01*
X10850679Y6024679D01*
X10871569Y6008650D01*
X10895895Y5998574D01*
X10922000Y5995137D01*
X10948105Y5998574D01*
X10972431Y6008650D01*
X10993321Y6024679D01*
X11009350Y6045569D01*
X11019426Y6069895D01*
X11022863Y6096000D01*
X11019426Y6122105D01*
X11009350Y6146431D01*
X10993321Y6167321D01*
X10972431Y6183350D01*
X10948105Y6193426D01*
X10922000Y6196863D01*
D02*
G37*
G36*
X10668000D02*
X10641895Y6193426D01*
X10617569Y6183350D01*
X10596679Y6167321D01*
X10580650Y6146431D01*
X10570574Y6122105D01*
X10567137Y6096000D01*
X10570574Y6069895D01*
X10580650Y6045569D01*
X10596679Y6024679D01*
X10617569Y6008650D01*
X10641895Y5998574D01*
X10668000Y5995137D01*
X10694105Y5998574D01*
X10718431Y6008650D01*
X10739321Y6024679D01*
X10755350Y6045569D01*
X10765426Y6069895D01*
X10768863Y6096000D01*
X10765426Y6122105D01*
X10755350Y6146431D01*
X10739321Y6167321D01*
X10718431Y6183350D01*
X10694105Y6193426D01*
X10668000Y6196863D01*
D02*
G37*
G36*
X10414000D02*
X10387895Y6193426D01*
X10363569Y6183350D01*
X10342679Y6167321D01*
X10326650Y6146431D01*
X10316574Y6122105D01*
X10313137Y6096000D01*
X10316574Y6069895D01*
X10326650Y6045569D01*
X10342679Y6024679D01*
X10363569Y6008650D01*
X10387895Y5998574D01*
X10414000Y5995137D01*
X10440105Y5998574D01*
X10464431Y6008650D01*
X10485321Y6024679D01*
X10501350Y6045569D01*
X10511426Y6069895D01*
X10514863Y6096000D01*
X10511426Y6122105D01*
X10501350Y6146431D01*
X10485321Y6167321D01*
X10464431Y6183350D01*
X10440105Y6193426D01*
X10414000Y6196863D01*
D02*
G37*
G36*
X15094974Y6081000D02*
X15000999D01*
Y5987026D01*
X15014716Y5988832D01*
X15041475Y5999915D01*
X15064453Y6017547D01*
X15082085Y6040525D01*
X15093169Y6067284D01*
X15094974Y6081000D01*
D02*
G37*
G36*
X14971001D02*
X14877026D01*
X14878831Y6067284D01*
X14889915Y6040525D01*
X14907547Y6017547D01*
X14930525Y5999915D01*
X14957285Y5988832D01*
X14971001Y5987026D01*
Y6081000D01*
D02*
G37*
%LPD*%
G36*
X11183500Y8267700D02*
X11168500D01*
X11147650Y8296582D01*
X11204350D01*
X11183500Y8267700D01*
D02*
G37*
G36*
X10319773Y8258233D02*
X10309167Y8247627D01*
X10287250Y8255401D01*
X10311999Y8280150D01*
X10319773Y8258233D01*
D02*
G37*
G36*
X15264999Y8241542D02*
X15214999D01*
X15177000Y8317727D01*
X15303000D01*
X15264999Y8241542D01*
D02*
G37*
G36*
X11945500Y8238313D02*
X11930500D01*
X11875000Y8317727D01*
X12001000D01*
X11945500Y8238313D01*
D02*
G37*
G36*
X11691500D02*
X11676500D01*
X11621000Y8317727D01*
X11747000D01*
X11691500Y8238313D01*
D02*
G37*
G36*
X11437965Y8238353D02*
X11422965Y8238275D01*
X11367333Y8317402D01*
X11493331Y8318053D01*
X11437965Y8238353D01*
D02*
G37*
G36*
X10230302Y8173305D02*
X10219695Y8162698D01*
X10198482Y8173610D01*
X10219390Y8194518D01*
X10230302Y8173305D01*
D02*
G37*
G36*
X10325848Y8186300D02*
Y8171300D01*
X10304854Y8161300D01*
Y8196300D01*
X10325848Y8186300D01*
D02*
G37*
G36*
X10798914Y8148257D02*
X10771099Y8120443D01*
X10404045D01*
X10397217Y8119085D01*
X10391428Y8115217D01*
X10316576Y8040364D01*
X10304843Y8045225D01*
Y8106000D01*
X10303485Y8112828D01*
X10299617Y8118617D01*
X10287103Y8131131D01*
X10292071Y8144123D01*
X10300656Y8145831D01*
X10309155Y8151509D01*
X10309508Y8151528D01*
X10329305Y8160957D01*
X10793653D01*
X10798914Y8148257D01*
D02*
G37*
G36*
X12606295Y7982700D02*
X12590991Y7975200D01*
X12591295Y7997395D01*
X12606295Y7997700D01*
Y7982700D01*
D02*
G37*
G36*
X11303195Y7995800D02*
Y7980800D01*
X11287890Y7973300D01*
Y8003300D01*
X11303195Y7995800D01*
D02*
G37*
G36*
X11335946Y7970800D02*
X11314952Y7980800D01*
Y7995800D01*
X11335946Y8005800D01*
Y7970800D01*
D02*
G37*
G36*
X12852057Y7976001D02*
X12830141Y7968227D01*
X12819534Y7978833D01*
X12827309Y8000750D01*
X12852057Y7976001D01*
D02*
G37*
G36*
X15179518Y7984190D02*
X15158611Y7963282D01*
X15147697Y7984495D01*
X15158305Y7995102D01*
X15179518Y7984190D01*
D02*
G37*
G36*
X10510446Y7932700D02*
X10496877Y7939163D01*
X10488790Y7935200D01*
Y7965200D01*
X10496877Y7961237D01*
X10510446Y7967700D01*
Y7932700D01*
D02*
G37*
G36*
X11683257Y7811409D02*
Y7696950D01*
X11677470Y7693856D01*
X11670557Y7691407D01*
X11658600Y7693786D01*
X11644944Y7691069D01*
X11633366Y7683334D01*
X11625631Y7671756D01*
X11625395Y7670568D01*
X11621354Y7668957D01*
X11620697Y7668318D01*
X11618534Y7667888D01*
X11612746Y7664020D01*
X11590976Y7642250D01*
X11579243Y7647111D01*
Y7678788D01*
X11582827Y7682372D01*
X11583989Y7682854D01*
X11584034Y7682963D01*
X11584143Y7683011D01*
X11594534Y7693833D01*
X11594692Y7694238D01*
X11602878Y7702424D01*
X11603855Y7703885D01*
X11668043Y7768074D01*
X11593797Y7842320D01*
X11533419Y7781942D01*
X11519638Y7786122D01*
X11519099Y7788834D01*
X11531925Y7801661D01*
X11498338Y7835249D01*
X11461215Y7798126D01*
X11476960Y7782381D01*
Y7766196D01*
X11464895Y7760300D01*
X11430465Y7794730D01*
X11391574Y7755839D01*
X11437536Y7709877D01*
X11416323Y7688664D01*
X11370361Y7734626D01*
X11362539Y7726803D01*
X11359826Y7727343D01*
X11355646Y7741123D01*
X11412787Y7798265D01*
X11372929Y7838123D01*
X11372805Y7840789D01*
X11374852Y7852222D01*
X11396431Y7868146D01*
X11397111Y7869273D01*
X11404434Y7874166D01*
X11412169Y7885744D01*
X11414886Y7899400D01*
X11412169Y7913056D01*
X11404434Y7924634D01*
X11392856Y7932369D01*
X11379200Y7935086D01*
X11365544Y7932369D01*
X11353966Y7924634D01*
X11346231Y7913056D01*
X11343514Y7899400D01*
X11346110Y7886353D01*
X11345631Y7883383D01*
X11335006Y7876047D01*
X11335006D01*
X11250153Y7791194D01*
X11279941Y7761407D01*
X11276989Y7752781D01*
X11244342Y7720134D01*
X11230801Y7718065D01*
X11230801D01*
X11183071Y7670335D01*
X11176000Y7677406D01*
X11168929Y7670335D01*
X11129372Y7709892D01*
X11128853Y7711146D01*
X11121200Y7718065D01*
X11117258Y7729132D01*
X11117258Y7729136D01*
X11120069Y7733344D01*
X11122786Y7747000D01*
X11120069Y7760656D01*
X11112334Y7772234D01*
X11102197Y7779007D01*
X11101664Y7780124D01*
X11106254Y7792657D01*
X11133695D01*
X11153492Y7783228D01*
X11153845Y7783209D01*
X11162344Y7777531D01*
X11176000Y7774814D01*
X11189656Y7777531D01*
X11201234Y7785266D01*
X11208969Y7796844D01*
X11211686Y7810500D01*
X11208969Y7824156D01*
X11201234Y7835734D01*
X11189656Y7843469D01*
X11176000Y7846186D01*
X11162344Y7843469D01*
X11153845Y7837791D01*
X11153492Y7837772D01*
X11133695Y7828343D01*
X11090496D01*
X11083668Y7826985D01*
X11077879Y7823117D01*
X11031983Y7777221D01*
X11028115Y7771432D01*
X11026757Y7764604D01*
Y7741680D01*
X11014057Y7731258D01*
X11010900Y7731886D01*
X10997643Y7729249D01*
X10997211Y7729188D01*
X10984943Y7736225D01*
Y7853600D01*
X10983585Y7860428D01*
X10979717Y7866217D01*
X10969473Y7876461D01*
X10959600Y7895655D01*
Y7916245D01*
X10967787Y7920257D01*
X11045613D01*
X11053500Y7917789D01*
Y7915600D01*
X11063805Y7915080D01*
X11065059Y7915600D01*
X11163500D01*
Y8025258D01*
X11178500D01*
Y7990600D01*
X11243500D01*
Y7975600D01*
X11258500D01*
Y7905600D01*
X11308500D01*
Y7957817D01*
X11321200Y7965835D01*
X11331292Y7961028D01*
X11333709Y7960902D01*
X11335947Y7959975D01*
X11337686Y7960696D01*
X11339565Y7960598D01*
X11341364Y7962219D01*
X11343600Y7963146D01*
X11344320Y7964884D01*
X11345719Y7966145D01*
X11345844Y7968564D01*
X11346628Y7970457D01*
X11353800D01*
X11360628Y7971815D01*
X11366417Y7975683D01*
X11370285Y7981472D01*
X11371643Y7988300D01*
X11370285Y7995128D01*
X11366417Y8000917D01*
X11360628Y8004785D01*
X11353800Y8006143D01*
X11352856D01*
X11349043Y8012558D01*
X11355996Y8025258D01*
X11469409D01*
X11683257Y7811409D01*
D02*
G37*
G36*
X14948610Y7949400D02*
X14933305Y7956900D01*
Y7971900D01*
X14948610Y7979400D01*
Y7949400D01*
D02*
G37*
G36*
X14870395Y7971900D02*
Y7956900D01*
X14855090Y7949400D01*
Y7979400D01*
X14870395Y7971900D01*
D02*
G37*
G36*
X10167500Y7948305D02*
X10152500D01*
X10145000Y7963610D01*
X10175000D01*
X10167500Y7948305D01*
D02*
G37*
G36*
X12820853Y7958939D02*
X12815334Y7942814D01*
X12794121Y7964027D01*
X12810246Y7969546D01*
X12820853Y7958939D01*
D02*
G37*
G36*
X10589905Y7935200D02*
X10574905Y7942700D01*
Y7957700D01*
X10589905Y7965200D01*
Y7935200D01*
D02*
G37*
G36*
X10567148Y7957700D02*
Y7942700D01*
X10546154Y7932700D01*
Y7967700D01*
X10567148Y7957700D01*
D02*
G37*
G36*
X11063805Y7925905D02*
X11048805Y7930600D01*
Y7945600D01*
X11063805Y7953100D01*
Y7925905D01*
D02*
G37*
G36*
X10964295Y7945600D02*
Y7930600D01*
X10948990Y7923100D01*
Y7953100D01*
X10964295Y7945600D01*
D02*
G37*
G36*
X13042650Y7937099D02*
X13017902Y7912350D01*
X13010127Y7934267D01*
X13020734Y7944873D01*
X13042650Y7937099D01*
D02*
G37*
G36*
X13970000Y7975200D02*
Y7925200D01*
X13924796Y7904995D01*
Y7995405D01*
X13970000Y7975200D01*
D02*
G37*
G36*
X10307073Y7918216D02*
X10299299Y7896300D01*
X10274550Y7921048D01*
X10296467Y7928823D01*
X10307073Y7918216D01*
D02*
G37*
G36*
X14038300Y7891854D02*
X14003300D01*
X14013300Y7912848D01*
X14028300D01*
X14038300Y7891854D01*
D02*
G37*
G36*
X14305795Y7903005D02*
X14304048Y7888005D01*
X14289047D01*
X14281548Y7903310D01*
X14305795Y7903005D01*
D02*
G37*
G36*
X14141100Y7888005D02*
X14126100D01*
X14118600Y7903310D01*
X14148599D01*
X14141100Y7888005D01*
D02*
G37*
G36*
X12391600D02*
X12376600D01*
X12376905Y7903005D01*
X12399100Y7903310D01*
X12391600Y7888005D01*
D02*
G37*
G36*
X11733600Y7875305D02*
X11718600D01*
X11711100Y7890610D01*
X11741100D01*
X11733600Y7875305D01*
D02*
G37*
G36*
X12293443Y7874401D02*
X12271526Y7866627D01*
X12260920Y7877233D01*
X12268694Y7899150D01*
X12293443Y7874401D01*
D02*
G37*
G36*
X10959902Y7871405D02*
X10949295Y7860798D01*
X10928082Y7871710D01*
X10948990Y7892618D01*
X10959902Y7871405D01*
D02*
G37*
G36*
X11390004Y7876855D02*
X11366594Y7859580D01*
X11354173Y7868372D01*
X11357248Y7887437D01*
X11390004Y7876855D01*
D02*
G37*
G36*
X15179518Y7865410D02*
X15158305Y7854498D01*
X15147697Y7865105D01*
X15158611Y7886318D01*
X15179518Y7865410D01*
D02*
G37*
G36*
X12770535Y7847486D02*
X12755535D01*
X12748251Y7870201D01*
X12777819D01*
X12770535Y7847486D01*
D02*
G37*
G36*
X11362353Y7855339D02*
X11356835Y7839214D01*
X11335621Y7860427D01*
X11351747Y7865946D01*
X11362353Y7855339D01*
D02*
G37*
G36*
X12273795Y7832295D02*
X12245106Y7831990D01*
X12252605Y7847295D01*
X12267606D01*
X12273795Y7832295D01*
D02*
G37*
G36*
X14314047Y7828354D02*
X14279047D01*
X14289047Y7849348D01*
X14304048D01*
X14314047Y7828354D01*
D02*
G37*
G36*
X11158146Y7793000D02*
X11137152Y7803000D01*
Y7818000D01*
X11158146Y7828000D01*
Y7793000D01*
D02*
G37*
G36*
X10207195Y7790695D02*
X10185000Y7790391D01*
X10192500Y7805695D01*
X10207500D01*
X10207195Y7790695D01*
D02*
G37*
G36*
X11502303Y7785753D02*
X11487302D01*
X11479803Y7808253D01*
X11509802D01*
X11502303Y7785753D01*
D02*
G37*
G36*
X10499702Y7787205D02*
X10489095Y7776598D01*
X10467882Y7787205D01*
X10489095Y7808418D01*
X10499702Y7787205D01*
D02*
G37*
G36*
X12837712Y7780740D02*
X12821587Y7775221D01*
X12810980Y7785827D01*
X12816499Y7801953D01*
X12837712Y7780740D01*
D02*
G37*
G36*
X10446900Y7772205D02*
X10431900D01*
X10424400Y7787205D01*
X10454400D01*
X10446900Y7772205D01*
D02*
G37*
G36*
X14207001Y7769790D02*
X14184805Y7770095D01*
X14184500Y7785095D01*
X14199500D01*
X14207001Y7769790D01*
D02*
G37*
G36*
X12740722Y7785024D02*
X12735204Y7769330D01*
X12714421Y7790112D01*
X12730116Y7795631D01*
X12740722Y7785024D01*
D02*
G37*
G36*
X10589905Y7753600D02*
X10574905Y7761100D01*
Y7776100D01*
X10589905Y7783600D01*
Y7753600D01*
D02*
G37*
G36*
X13341782Y7767257D02*
X13338747Y7765229D01*
X13321800Y7748282D01*
X13290105D01*
X13270308Y7757711D01*
X13269955Y7757730D01*
X13261456Y7763408D01*
X13247800Y7766125D01*
X13234145Y7763408D01*
X13222566Y7755673D01*
X13214832Y7744096D01*
X13212114Y7730439D01*
X13214832Y7716783D01*
X13222566Y7705206D01*
X13222620Y7705170D01*
X13218767Y7692470D01*
X13043983D01*
X13037155Y7691112D01*
X13031366Y7687244D01*
X12938498Y7594376D01*
X12926553Y7592554D01*
X12917574Y7601533D01*
X12880202Y7638905D01*
X12883105Y7647616D01*
X13015446Y7779957D01*
X13338992D01*
X13341782Y7767257D01*
D02*
G37*
G36*
X11313503Y7742849D02*
X11297377Y7737330D01*
X11286771Y7747937D01*
X11292290Y7764062D01*
X11313503Y7742849D01*
D02*
G37*
G36*
X12776078Y7749669D02*
X12770559Y7733975D01*
X12749777Y7754757D01*
X12765471Y7760276D01*
X12776078Y7749669D01*
D02*
G37*
G36*
X12396224Y7754757D02*
X12375441Y7733975D01*
X12370016Y7749762D01*
X12380622Y7760369D01*
X12396224Y7754757D01*
D02*
G37*
G36*
X12239100Y7722905D02*
X12224100D01*
X12216600Y7738210D01*
X12246600D01*
X12239100Y7722905D01*
D02*
G37*
G36*
X11484329Y7733363D02*
X11478810Y7717238D01*
X11457597Y7738451D01*
X11473723Y7743970D01*
X11484329Y7733363D01*
D02*
G37*
G36*
X13685400Y7715595D02*
X13670399D01*
X13660400Y7736589D01*
X13695399D01*
X13685400Y7715595D01*
D02*
G37*
G36*
X13286649Y7737939D02*
Y7722939D01*
X13265654Y7712939D01*
Y7747939D01*
X13286649Y7737939D01*
D02*
G37*
G36*
X14385500Y7710205D02*
X14370500D01*
X14370805Y7725205D01*
X14392999Y7725510D01*
X14385500Y7710205D01*
D02*
G37*
G36*
X11101297Y7711422D02*
X11086297Y7710112D01*
X11078081Y7723684D01*
X11106860Y7731685D01*
X11101297Y7711422D01*
D02*
G37*
G36*
X10454400Y7701491D02*
X10424400D01*
X10431900Y7716795D01*
X10446900D01*
X10454400Y7701491D01*
D02*
G37*
G36*
X14206018Y7711010D02*
X14184805Y7700098D01*
X14174197Y7710705D01*
X14185110Y7731918D01*
X14206018Y7711010D01*
D02*
G37*
G36*
X14019801Y7710705D02*
X14009195Y7700098D01*
X13987982Y7710705D01*
X14009195Y7731918D01*
X14019801Y7710705D01*
D02*
G37*
G36*
X12561006Y7709301D02*
X12539246Y7701582D01*
X12530143Y7691548D01*
X12513502Y7707759D01*
X12528787Y7712990D01*
X12536258Y7734050D01*
X12561006Y7709301D01*
D02*
G37*
G36*
X11586726Y7701330D02*
X11576335Y7690508D01*
X11565729Y7701114D01*
X11571247Y7717240D01*
X11586726Y7701330D01*
D02*
G37*
G36*
X10890299Y7702932D02*
X10897100Y7688654D01*
X10862100D01*
X10868901Y7702932D01*
X10864600Y7711709D01*
X10894600D01*
X10890299Y7702932D01*
D02*
G37*
G36*
X13626849Y7709999D02*
X13602101Y7685250D01*
X13594327Y7707166D01*
X13604933Y7717773D01*
X13626849Y7709999D01*
D02*
G37*
G36*
X11257777Y7697729D02*
X11251583Y7682710D01*
X11231045Y7702817D01*
X11247170Y7708336D01*
X11257777Y7697729D01*
D02*
G37*
G36*
X11121199Y7703492D02*
X11100417Y7682710D01*
X11094898Y7698404D01*
X11105505Y7709010D01*
X11121199Y7703492D01*
D02*
G37*
G36*
X13505862Y7686094D02*
X13485094Y7681269D01*
X13477605Y7694993D01*
X13488647Y7716568D01*
X13505862Y7686094D01*
D02*
G37*
G36*
X13460695Y7692500D02*
Y7677500D01*
X13445390Y7670000D01*
Y7700000D01*
X13460695Y7692500D01*
D02*
G37*
G36*
X12855627Y7670120D02*
X12841270Y7663264D01*
X12829111Y7675423D01*
X12845021Y7680726D01*
X12855627Y7670120D01*
D02*
G37*
G36*
X11022800Y7659214D02*
X11007800Y7656393D01*
X10996815Y7675545D01*
X11031269Y7681705D01*
X11022800Y7659214D01*
D02*
G37*
G36*
X11516250Y7682959D02*
X11493993Y7655948D01*
X11485060Y7677938D01*
X11494593Y7689618D01*
X11516250Y7682959D01*
D02*
G37*
G36*
X11292457Y7663049D02*
X11286938Y7647354D01*
X11266156Y7668137D01*
X11281850Y7673655D01*
X11292457Y7663049D01*
D02*
G37*
G36*
X11085844Y7668137D02*
X11065062Y7647354D01*
X11059543Y7663049D01*
X11070150Y7673655D01*
X11085844Y7668137D01*
D02*
G37*
G36*
X13729805Y7642805D02*
X13714806Y7642500D01*
Y7657500D01*
X13730110Y7665000D01*
X13729805Y7642805D01*
D02*
G37*
G36*
X11639681Y7641758D02*
X11625362Y7643903D01*
Y7658903D01*
X11633961Y7662331D01*
X11639681Y7641758D01*
D02*
G37*
G36*
X12873305Y7652442D02*
X12868001Y7636532D01*
X12855843Y7648691D01*
X12862698Y7663049D01*
X12873305Y7652442D01*
D02*
G37*
G36*
X14742046Y7622502D02*
X14763499Y7621181D01*
X14748807Y7591614D01*
X14749445Y7588695D01*
X14747353Y7588688D01*
X14738499Y7570876D01*
X14688499D01*
X14680753Y7588452D01*
X14663499Y7588390D01*
X14672658Y7606818D01*
X14663617Y7627329D01*
X14682281Y7626181D01*
X14688499Y7638695D01*
X14738499D01*
X14742046Y7622502D01*
D02*
G37*
G36*
X13909805Y7615705D02*
X13876898Y7615400D01*
Y7665400D01*
X13910110Y7673307D01*
X13909805Y7615705D01*
D02*
G37*
G36*
X11346985Y7635027D02*
X11326460Y7627208D01*
X11321410Y7612451D01*
X11301511Y7632781D01*
X11314384Y7638345D01*
X11321030Y7658508D01*
X11346985Y7635027D01*
D02*
G37*
G36*
X11050489Y7632781D02*
X11029706Y7611999D01*
X11024188Y7627693D01*
X11034794Y7638300D01*
X11050489Y7632781D01*
D02*
G37*
G36*
X11002857Y7606388D02*
X10990042Y7597990D01*
X10968193Y7608128D01*
X10997275Y7627603D01*
X11002857Y7606388D01*
D02*
G37*
G36*
X12705727Y7602111D02*
X12689601Y7596592D01*
X12678995Y7607199D01*
X12686568Y7620838D01*
X12705727Y7602111D01*
D02*
G37*
G36*
X12644774Y7604129D02*
X12635059Y7592631D01*
X12613345Y7599475D01*
X12636039Y7626120D01*
X12644774Y7604129D01*
D02*
G37*
G36*
X11864170Y7606426D02*
Y7591427D01*
X11841671Y7583926D01*
Y7613926D01*
X11864170Y7606426D01*
D02*
G37*
G36*
X11015133Y7597426D02*
X10997782Y7579643D01*
X10992263Y7595769D01*
X11002870Y7606375D01*
X11015133Y7597426D01*
D02*
G37*
G36*
X13646802Y7600195D02*
X13636195Y7578982D01*
X13614983Y7600195D01*
X13636195Y7610802D01*
X13646802Y7600195D01*
D02*
G37*
G36*
X13317947Y7607383D02*
X13323735Y7603515D01*
X13330563Y7602157D01*
X13331000D01*
Y7578423D01*
X13318300Y7577172D01*
X13317169Y7582856D01*
X13309435Y7594434D01*
X13297856Y7602169D01*
X13284200Y7604886D01*
X13270544Y7602169D01*
X13258966Y7594434D01*
X13251231Y7582856D01*
X13248514Y7569200D01*
X13251231Y7555544D01*
X13256909Y7547045D01*
X13256927Y7546692D01*
X13266357Y7526895D01*
Y7513632D01*
X13267715Y7506804D01*
X13271584Y7501015D01*
X13329857Y7442741D01*
Y7401954D01*
X13298944Y7371041D01*
X13256105D01*
X13251245Y7382774D01*
X13306345Y7437873D01*
X13232097Y7512120D01*
X13167908Y7447930D01*
X13166447Y7446955D01*
X13158261Y7438768D01*
X13157857Y7438610D01*
X13147035Y7428219D01*
X13146986Y7428111D01*
X13146878Y7428065D01*
X13146396Y7426903D01*
X13144273Y7424781D01*
X13129848D01*
X13123018Y7423423D01*
X13117230Y7419555D01*
X13114162Y7416486D01*
X13105623Y7413484D01*
X13067975Y7451132D01*
X13070747Y7464026D01*
X13086346Y7479626D01*
X13100735Y7480848D01*
X13133102Y7448480D01*
X13214420Y7529797D01*
X13140173Y7604043D01*
X13058858Y7522726D01*
X13066081Y7515501D01*
X13063130Y7506875D01*
X13044563Y7488310D01*
X13031090Y7488017D01*
X12961909Y7557198D01*
X12963731Y7569143D01*
X13051373Y7656785D01*
X13268546D01*
X13317947Y7607383D01*
D02*
G37*
G36*
X11378064Y7586552D02*
X11360800Y7581674D01*
X11357649Y7576643D01*
X11339088Y7594774D01*
X11350250Y7598594D01*
X11357308Y7614734D01*
X11378064Y7586552D01*
D02*
G37*
G36*
X12102850Y7593501D02*
X12083823Y7586752D01*
X12079275Y7573462D01*
X12058061Y7594675D01*
X12071352Y7599224D01*
X12078101Y7618250D01*
X12102850Y7593501D01*
D02*
G37*
G36*
X11698003Y7573747D02*
X11687538Y7562851D01*
X11682019Y7568948D01*
X11692625Y7579555D01*
X11698003Y7573747D01*
D02*
G37*
G36*
X14206018Y7579791D02*
X14185110Y7558882D01*
X14174197Y7580095D01*
X14184805Y7590702D01*
X14206018Y7579791D01*
D02*
G37*
G36*
X14019801Y7580095D02*
X14009195Y7558882D01*
X13987982Y7580095D01*
X14009195Y7590702D01*
X14019801Y7580095D01*
D02*
G37*
G36*
X12952853Y7572892D02*
X12947336Y7557198D01*
X12926553Y7577980D01*
X12942249Y7583499D01*
X12952853Y7572892D01*
D02*
G37*
G36*
X11985696Y7572444D02*
X11969786Y7556965D01*
X11958964Y7567356D01*
X11969570Y7577962D01*
X11985696Y7572444D01*
D02*
G37*
G36*
X14565594Y7580900D02*
X14515289Y7555900D01*
X14515594Y7630595D01*
X14565594Y7630900D01*
Y7580900D01*
D02*
G37*
G36*
X10794750Y7569601D02*
X10779916Y7564339D01*
X10776775Y7555162D01*
X10755562Y7576375D01*
X10764739Y7579516D01*
X10770001Y7594350D01*
X10794750Y7569601D01*
D02*
G37*
G36*
X14657265Y7588390D02*
X14620360Y7551486D01*
X14584700Y7588695D01*
X14620055Y7624051D01*
X14657265Y7588390D01*
D02*
G37*
G36*
X10169609Y7565522D02*
X10177500Y7548954D01*
X10142500D01*
X10150391Y7565522D01*
X10145000Y7576305D01*
X10175000D01*
X10169609Y7565522D01*
D02*
G37*
G36*
X11398524Y7556982D02*
X11393004Y7541288D01*
X11372222Y7562070D01*
X11387917Y7567589D01*
X11398524Y7556982D01*
D02*
G37*
G36*
X10979778Y7562070D02*
X10958996Y7541288D01*
X10953477Y7556982D01*
X10964083Y7567589D01*
X10979778Y7562070D01*
D02*
G37*
G36*
X13291701Y7530352D02*
X13276700D01*
X13266701Y7551346D01*
X13301700D01*
X13291701Y7530352D01*
D02*
G37*
G36*
X12184092Y7542625D02*
X12163309Y7521843D01*
X12157791Y7537537D01*
X12168397Y7548144D01*
X12184092Y7542625D01*
D02*
G37*
G36*
X13541805Y7515805D02*
X13527112Y7518762D01*
Y7533762D01*
X13542110Y7540955D01*
X13541805Y7515805D01*
D02*
G37*
G36*
X10501400Y7537100D02*
Y7522100D01*
X10486290Y7514795D01*
Y7544405D01*
X10501400Y7537100D01*
D02*
G37*
G36*
X11583730Y7518835D02*
X11561743Y7510303D01*
X11550432Y7520205D01*
X11557467Y7541971D01*
X11583730Y7518835D01*
D02*
G37*
G36*
X10944423Y7526715D02*
X10926501Y7508362D01*
X10920982Y7524488D01*
X10931589Y7535094D01*
X10944423Y7526715D01*
D02*
G37*
G36*
X11433878Y7521627D02*
X11428360Y7505933D01*
X11407577Y7526715D01*
X11423272Y7532234D01*
X11433878Y7521627D01*
D02*
G37*
G36*
X11503885Y7503107D02*
X11482180Y7496296D01*
X11472497Y7507825D01*
X11481266Y7529817D01*
X11503885Y7503107D01*
D02*
G37*
G36*
X10894336Y7504079D02*
X10881075Y7496128D01*
X10859343Y7506719D01*
X10889138Y7525084D01*
X10894336Y7504079D01*
D02*
G37*
G36*
X13099644Y7496943D02*
X13083517Y7491424D01*
X13072913Y7502031D01*
X13078432Y7518156D01*
X13099644Y7496943D01*
D02*
G37*
G36*
X12813417Y7493990D02*
X12797722Y7488471D01*
X12787116Y7499077D01*
X12792634Y7514772D01*
X12813417Y7493990D01*
D02*
G37*
G36*
X10783109Y7510130D02*
X10768109Y7495130D01*
X10745394Y7487845D01*
X10775393Y7517845D01*
X10783109Y7510130D01*
D02*
G37*
G36*
X12047565Y7479186D02*
X12032565D01*
X12025065Y7501686D01*
X12055065D01*
X12047565Y7479186D01*
D02*
G37*
G36*
X10909067Y7491360D02*
X10892367Y7474228D01*
X10886848Y7490354D01*
X10897455Y7500960D01*
X10909067Y7491360D01*
D02*
G37*
G36*
X13422099Y7470900D02*
X13372099D01*
X13355196Y7513109D01*
X13439005D01*
X13422099Y7470900D01*
D02*
G37*
G36*
X11470695Y7484811D02*
X11463715Y7470577D01*
X11443963Y7489898D01*
X11460088Y7495417D01*
X11470695Y7484811D01*
D02*
G37*
G36*
X10596509Y7493521D02*
X10607583Y7489731D01*
X10586369Y7468518D01*
X10582580Y7479591D01*
X10565813Y7485539D01*
X10590561Y7510288D01*
X10596509Y7493521D01*
D02*
G37*
G36*
X13058920Y7466826D02*
X13053403Y7451132D01*
X13032619Y7471914D01*
X13048314Y7477433D01*
X13058920Y7466826D01*
D02*
G37*
G36*
X14620055Y7449305D02*
X14570055Y7454000D01*
Y7504000D01*
X14620055Y7508695D01*
Y7449305D01*
D02*
G37*
G36*
X11890021Y7445812D02*
X11874111Y7440508D01*
X11863504Y7451115D01*
X11874327Y7461506D01*
X11890021Y7445812D01*
D02*
G37*
G36*
X14416205Y7495595D02*
X14416508Y7440495D01*
X14385800Y7445900D01*
Y7495900D01*
X14416205Y7495595D01*
D02*
G37*
G36*
X11503473Y7452033D02*
X11497954Y7435907D01*
X11478288Y7456004D01*
X11492866Y7462639D01*
X11503473Y7452033D01*
D02*
G37*
G36*
X10873712Y7456004D02*
X10852930Y7435222D01*
X10847411Y7450917D01*
X10858017Y7461523D01*
X10873712Y7456004D01*
D02*
G37*
G36*
X11581788Y7442607D02*
X11559899Y7435004D01*
X11549453Y7445772D01*
X11557400Y7467712D01*
X11581788Y7442607D01*
D02*
G37*
G36*
X14565594Y7454000D02*
X14515289Y7429000D01*
X14515594Y7495595D01*
X14565594Y7504000D01*
Y7454000D01*
D02*
G37*
G36*
X10707214Y7449235D02*
Y7434235D01*
X10684498Y7426951D01*
Y7456519D01*
X10707214Y7449235D01*
D02*
G37*
G36*
X13932648Y7449700D02*
Y7434700D01*
X13911655Y7424700D01*
Y7459700D01*
X13932648Y7449700D01*
D02*
G37*
G36*
X11780273Y7443367D02*
X11772499Y7421450D01*
X11747750Y7446199D01*
X11769667Y7453973D01*
X11780273Y7443367D01*
D02*
G37*
G36*
X12004145Y7429553D02*
X11993538Y7418946D01*
X11977413Y7424465D01*
X11998626Y7445678D01*
X12004145Y7429553D01*
D02*
G37*
G36*
X12078026Y7436559D02*
X12057243Y7415777D01*
X12051725Y7431471D01*
X12062331Y7442078D01*
X12078026Y7436559D01*
D02*
G37*
G36*
X11870240Y7436638D02*
X11861307Y7414648D01*
X11839050Y7441659D01*
X11860707Y7448318D01*
X11870240Y7436638D01*
D02*
G37*
G36*
X13181264Y7415323D02*
X13165138Y7409805D01*
X13154530Y7420411D01*
X13165353Y7430803D01*
X13181264Y7415323D01*
D02*
G37*
G36*
X10230302Y7425695D02*
X10219695Y7404482D01*
X10198482Y7425695D01*
X10219695Y7436302D01*
X10230302Y7425695D01*
D02*
G37*
G36*
X10332600Y7403352D02*
X10317600D01*
X10307600Y7424346D01*
X10342600D01*
X10332600Y7403352D01*
D02*
G37*
G36*
X11540200Y7415305D02*
X11534426Y7399867D01*
X11513468Y7420393D01*
X11529594Y7425912D01*
X11540200Y7415305D01*
D02*
G37*
G36*
X10838357Y7420649D02*
X10817574Y7399867D01*
X10812056Y7415561D01*
X10822662Y7426168D01*
X10838357Y7420649D01*
D02*
G37*
G36*
X13129631Y7396116D02*
X13124112Y7380421D01*
X13103329Y7401204D01*
X13119025Y7406722D01*
X13129631Y7396116D01*
D02*
G37*
G36*
X12042670Y7401203D02*
X12021888Y7380421D01*
X12016369Y7396116D01*
X12026975Y7406722D01*
X12042670Y7401203D01*
D02*
G37*
G36*
X14794366Y7390910D02*
X14767387Y7368614D01*
X14760712Y7390277D01*
X14772375Y7399825D01*
X14794366Y7390910D01*
D02*
G37*
G36*
X11575300Y7380206D02*
X11569781Y7364511D01*
X11548999Y7385294D01*
X11564693Y7390812D01*
X11575300Y7380206D01*
D02*
G37*
G36*
X10779396Y7388981D02*
X10772095Y7375600D01*
X10782436Y7385942D01*
X10798561Y7380423D01*
X10782219Y7364511D01*
X10771903Y7375258D01*
X10751138Y7380082D01*
X10768352Y7410556D01*
X10779396Y7388981D01*
D02*
G37*
G36*
X14228505Y7383695D02*
X14228810Y7361500D01*
X14213506Y7369000D01*
Y7384000D01*
X14228505Y7383695D01*
D02*
G37*
G36*
X14140359Y7321500D02*
X14126225Y7328232D01*
X14117590Y7324000D01*
Y7354000D01*
X14126225Y7349768D01*
X14140359Y7356500D01*
Y7321500D01*
D02*
G37*
G36*
X12954839Y7352568D02*
X12939143Y7347050D01*
X12928537Y7357656D01*
X12934056Y7373351D01*
X12954839Y7352568D01*
D02*
G37*
G36*
X11633197Y7353700D02*
X11611264Y7345808D01*
X11600547Y7356305D01*
X11608205Y7378203D01*
X11633197Y7353700D01*
D02*
G37*
G36*
X13614000Y7335805D02*
X13564000D01*
X13541805Y7385805D01*
X13636195D01*
X13614000Y7335805D01*
D02*
G37*
G36*
X10732248Y7360800D02*
Y7345800D01*
X10711254Y7335800D01*
Y7370800D01*
X10732248Y7360800D01*
D02*
G37*
G36*
X11610480Y7345025D02*
X11605136Y7329156D01*
X11584354Y7349938D01*
X11599874Y7355631D01*
X11610480Y7345025D01*
D02*
G37*
G36*
X10766776Y7348637D02*
X10746864Y7329156D01*
X10740044Y7343549D01*
X10750650Y7354156D01*
X10766776Y7348637D01*
D02*
G37*
G36*
X12986707Y7321130D02*
X12970583Y7315611D01*
X12959975Y7326218D01*
X12969411Y7337995D01*
X12986707Y7321130D01*
D02*
G37*
G36*
X10381900Y7573175D02*
Y7477100D01*
X10496900D01*
Y7507902D01*
X10506111Y7512356D01*
X10506478Y7512768D01*
X10508228Y7513116D01*
X10514017Y7516983D01*
X10519252Y7522218D01*
X10530956Y7515962D01*
X10529877Y7510538D01*
X10532594Y7496882D01*
X10540329Y7485304D01*
X10551907Y7477569D01*
X10560705Y7475818D01*
X10563735Y7470936D01*
X10565587Y7462740D01*
X10551653Y7448806D01*
X10636506Y7363953D01*
X10656530Y7383977D01*
X10666394Y7375881D01*
X10660431Y7366956D01*
X10657714Y7353300D01*
X10660431Y7339644D01*
X10668166Y7328066D01*
X10673738Y7324343D01*
X10669885Y7311643D01*
X10633962D01*
X10627000Y7331269D01*
X10626763Y7331531D01*
X10624769Y7341556D01*
X10617034Y7353134D01*
X10605456Y7360869D01*
X10591800Y7363586D01*
X10578144Y7360869D01*
X10566566Y7353134D01*
X10558831Y7341556D01*
X10556114Y7327900D01*
X10558831Y7314244D01*
X10566566Y7302666D01*
X10578144Y7294931D01*
X10588169Y7292937D01*
X10588431Y7292700D01*
X10609098Y7285369D01*
X10613283Y7281184D01*
X10619071Y7277316D01*
X10625899Y7275958D01*
X10700815D01*
X10721370Y7269366D01*
X10744665Y7246071D01*
X10737594Y7239000D01*
X10744665Y7231929D01*
X10705109Y7192372D01*
X10703855Y7191853D01*
X10696783Y7190947D01*
X10690226Y7191770D01*
X10630454Y7251543D01*
X10624665Y7255411D01*
X10617837Y7256769D01*
X10587329D01*
X10583454Y7255998D01*
X10509506Y7329947D01*
X10490435Y7310876D01*
X10476046Y7314448D01*
X10474967Y7317951D01*
X10475086Y7318549D01*
X10472369Y7332206D01*
X10464634Y7343783D01*
X10453056Y7351519D01*
X10439400Y7354235D01*
X10425744Y7351519D01*
X10414166Y7343783D01*
X10406431Y7332206D01*
X10403714Y7318549D01*
X10406431Y7304893D01*
X10414166Y7293316D01*
X10425744Y7285580D01*
X10432596Y7284217D01*
X10433213Y7283609D01*
X10441747Y7280149D01*
X10444775Y7265216D01*
X10424653Y7245094D01*
X10452248Y7217500D01*
X10447724Y7205393D01*
X10446947Y7204840D01*
X10440900Y7206043D01*
X10430905D01*
X10411108Y7215472D01*
X10410755Y7215491D01*
X10402256Y7221169D01*
X10388600Y7223886D01*
X10374944Y7221169D01*
X10374825Y7221090D01*
X10364862Y7229707D01*
X10365072Y7230148D01*
X10365091Y7230501D01*
X10370769Y7239000D01*
X10373486Y7252656D01*
X10370769Y7266313D01*
X10363034Y7277890D01*
X10351456Y7285626D01*
X10337800Y7288342D01*
X10334974Y7287780D01*
X10328718Y7299484D01*
X10337717Y7308483D01*
X10341585Y7314272D01*
X10342943Y7321100D01*
Y7399895D01*
X10352372Y7419692D01*
X10352391Y7420045D01*
X10358069Y7428544D01*
X10360786Y7442200D01*
X10358069Y7455856D01*
X10350334Y7467434D01*
X10338756Y7475169D01*
X10325100Y7477886D01*
X10311444Y7475169D01*
X10311377Y7475125D01*
X10302221Y7484281D01*
X10303485Y7486172D01*
X10304843Y7493000D01*
Y7510916D01*
X10369200Y7575274D01*
X10381900Y7573175D01*
D02*
G37*
G36*
X12357848Y7335400D02*
Y7320400D01*
X12336854Y7310400D01*
Y7345400D01*
X12357848Y7335400D01*
D02*
G37*
G36*
X14764445Y7322700D02*
Y7307700D01*
X14749445Y7300200D01*
Y7328695D01*
X14764445Y7322700D01*
D02*
G37*
G36*
X10624573Y7305733D02*
X10613967Y7295127D01*
X10592050Y7302901D01*
X10616799Y7327650D01*
X10624573Y7305733D01*
D02*
G37*
G36*
X14620055Y7299305D02*
X14605055Y7294000D01*
Y7309000D01*
X14620360Y7316500D01*
X14620055Y7299305D01*
D02*
G37*
G36*
X11646010Y7309495D02*
X11640492Y7293801D01*
X11619709Y7314583D01*
X11635404Y7320102D01*
X11646010Y7309495D01*
D02*
G37*
G36*
X11997947Y7292036D02*
X11981403Y7284497D01*
X11970797Y7295103D01*
X11977171Y7311031D01*
X11997947Y7292036D01*
D02*
G37*
G36*
X14318501Y7294305D02*
X14307895Y7283698D01*
X14286682Y7294305D01*
X14307895Y7315518D01*
X14318501Y7294305D01*
D02*
G37*
G36*
X10726724Y7279016D02*
X10704009Y7286301D01*
Y7301301D01*
X10726724Y7308585D01*
Y7279016D01*
D02*
G37*
G36*
X12848772Y7444061D02*
X12919482Y7373351D01*
X12917661Y7361406D01*
X12830197Y7273943D01*
X12711412D01*
X12707560Y7286643D01*
X12712534Y7289966D01*
X12720269Y7301544D01*
X12722986Y7315200D01*
X12720269Y7328856D01*
X12712534Y7340434D01*
X12700956Y7348169D01*
X12691825Y7349986D01*
X12686858Y7362044D01*
X12686822Y7362944D01*
X12800522Y7476644D01*
X12805330Y7477678D01*
X12814946Y7477887D01*
X12848772Y7444061D01*
D02*
G37*
G36*
X13639000Y7272695D02*
X13539000D01*
X13564000Y7322695D01*
X13614000D01*
X13639000Y7272695D01*
D02*
G37*
G36*
X10470508Y7295662D02*
X10484973Y7290840D01*
X10463760Y7269627D01*
X10458643Y7284977D01*
X10437281Y7293639D01*
X10464263Y7315932D01*
X10470508Y7295662D01*
D02*
G37*
G36*
X12533105Y7269431D02*
X12510614Y7277900D01*
X12507793Y7292900D01*
X12526945Y7303885D01*
X12533105Y7269431D01*
D02*
G37*
G36*
X14620055Y7278695D02*
X14620360Y7261500D01*
X14605055Y7269000D01*
Y7284000D01*
X14620055Y7278695D01*
D02*
G37*
G36*
X14587308Y7269000D02*
X14582913Y7258394D01*
X14561700D01*
X14536093Y7269000D01*
X14554201Y7284000D01*
X14587308Y7269000D01*
D02*
G37*
G36*
X10345300Y7213808D02*
X10330300D01*
X10320300Y7234803D01*
X10355300D01*
X10345300Y7213808D01*
D02*
G37*
G36*
X11766114Y7227086D02*
X11765882Y7226902D01*
X11766294Y7226473D01*
X11750815Y7210564D01*
X11747392Y7220567D01*
X11732286Y7226827D01*
X11759618Y7248689D01*
X11766114Y7227086D01*
D02*
G37*
G36*
X14764445Y7221500D02*
Y7206500D01*
X14749445Y7199305D01*
Y7228695D01*
X14764445Y7221500D01*
D02*
G37*
G36*
X14405405Y7219195D02*
X14405710Y7197000D01*
X14390405Y7204500D01*
Y7219500D01*
X14405405Y7219195D01*
D02*
G37*
G36*
X12676944Y7232470D02*
X12679393Y7225557D01*
X12677014Y7213600D01*
X12679731Y7199944D01*
X12683339Y7194543D01*
X12676551Y7181843D01*
X12184845D01*
X12178017Y7180485D01*
X12172228Y7176617D01*
X12171167Y7175555D01*
X12159680Y7174593D01*
X12155807Y7175361D01*
X12122784Y7208383D01*
X12126082Y7221083D01*
X12270937D01*
X12290637Y7201383D01*
X12296426Y7197515D01*
X12303254Y7196157D01*
X12531904D01*
X12538732Y7197515D01*
X12544521Y7201383D01*
X12581395Y7238257D01*
X12673850D01*
X12676944Y7232470D01*
D02*
G37*
G36*
X12751548Y7221100D02*
Y7206100D01*
X12730554Y7196100D01*
Y7231100D01*
X12751548Y7221100D01*
D02*
G37*
G36*
X10230302Y7215695D02*
X10219695Y7194482D01*
X10198482Y7215695D01*
X10219695Y7226302D01*
X10230302Y7215695D01*
D02*
G37*
G36*
X13019768Y7219655D02*
X13021352Y7206518D01*
X13017534Y7202701D01*
X12997264Y7182431D01*
X12990193Y7189502D01*
X12976051Y7175360D01*
X13039691Y7111720D01*
X13018477Y7090507D01*
X12954839Y7154147D01*
X12940697Y7140005D01*
X12947768Y7132934D01*
X12928464Y7113630D01*
X12919594Y7104761D01*
X12910503Y7095669D01*
X12822397Y7007564D01*
X12813417Y6998584D01*
X12804436Y6989603D01*
X12751686Y6936853D01*
X12742818Y6927985D01*
X12733726Y6918892D01*
X12645620Y6830787D01*
X12636640Y6821807D01*
X12627660Y6812827D01*
X12616776Y6801943D01*
X12605043Y6806803D01*
Y6831100D01*
X12603684Y6837928D01*
X12599817Y6843717D01*
X12547517Y6896017D01*
X12541728Y6899885D01*
X12534900Y6901243D01*
X12465445D01*
X12458617Y6899885D01*
X12452829Y6896017D01*
X12451767Y6894955D01*
X12438656Y6892519D01*
X12438649Y6892518D01*
X12410365Y6920802D01*
X12417436Y6927873D01*
X12395785Y6949524D01*
X12400645Y6961258D01*
X12518162D01*
X12524990Y6962616D01*
X12530778Y6966484D01*
X12682921Y7118627D01*
X12851543D01*
X12858372Y7119985D01*
X12864160Y7123853D01*
X12961391Y7221083D01*
X13019768Y7219655D01*
D02*
G37*
G36*
X10427448Y7195700D02*
Y7180700D01*
X10406454Y7170700D01*
Y7205700D01*
X10427448Y7195700D01*
D02*
G37*
G36*
X11649006Y7171501D02*
X11638400Y7160894D01*
X11622490Y7166197D01*
X11640492Y7184199D01*
X11649006Y7171501D01*
D02*
G37*
G36*
X10729510Y7166197D02*
X10713600Y7160894D01*
X10702994Y7171501D01*
X10711508Y7184199D01*
X10729510Y7166197D01*
D02*
G37*
G36*
X11831880Y7321660D02*
X11833205Y7310988D01*
X11823866Y7304748D01*
X11816131Y7293171D01*
X11813414Y7279514D01*
X11816131Y7265858D01*
X11823866Y7254281D01*
X11835444Y7246545D01*
X11849100Y7243829D01*
X11862756Y7246545D01*
X11874334Y7254281D01*
X11882069Y7265858D01*
X11884095Y7276041D01*
X11893836Y7280643D01*
X11897053Y7281044D01*
X11926788Y7251309D01*
X11925107Y7237157D01*
X11847646Y7159696D01*
X11779887Y7227454D01*
X11778911Y7228915D01*
X11775987Y7231839D01*
X11770298Y7250758D01*
X11770486Y7251700D01*
X11767769Y7265356D01*
X11760034Y7276934D01*
X11748456Y7284669D01*
X11734800Y7287386D01*
X11721144Y7284669D01*
X11709566Y7276934D01*
X11701831Y7265356D01*
X11699114Y7251700D01*
X11701831Y7238044D01*
X11709566Y7226466D01*
X11721144Y7218731D01*
X11725209Y7217922D01*
X11729477Y7210113D01*
X11730453Y7205205D01*
X11712947Y7187699D01*
X11692393Y7181108D01*
X11666484D01*
X11655065Y7184199D01*
X11648146Y7191853D01*
X11646892Y7192372D01*
X11646084Y7193180D01*
X11607335Y7231929D01*
X11614406Y7239000D01*
X11607335Y7246071D01*
X11646084Y7284820D01*
X11646892Y7285628D01*
X11648146Y7286146D01*
X11655065Y7293800D01*
X11657837Y7306696D01*
X11674830Y7323688D01*
X11831092D01*
X11831880Y7321660D01*
D02*
G37*
G36*
X14620055Y7149305D02*
X14605055Y7156500D01*
Y7171500D01*
X14620055Y7178695D01*
Y7149305D01*
D02*
G37*
G36*
X11718301Y7148481D02*
X11695586Y7155765D01*
Y7170765D01*
X11718301Y7178049D01*
Y7148481D01*
D02*
G37*
G36*
X12184629Y7153178D02*
X12176589Y7140005D01*
X12158113Y7158481D01*
X12174023Y7163785D01*
X12184629Y7153178D01*
D02*
G37*
G36*
X13882600Y7238926D02*
Y7023200D01*
X13703300Y6843900D01*
Y6438900D01*
X13550900D01*
Y6861100D01*
X13385800Y7026200D01*
Y7225700D01*
X13436600Y7276500D01*
X13516443D01*
X13520190Y7275285D01*
X13528731Y7269272D01*
X13530382Y7267369D01*
X13531346Y7265042D01*
X13532993Y7264360D01*
X13534158Y7263015D01*
X13534158Y7263014D01*
X13535027Y7262952D01*
X13536671Y7262836D01*
X13539000Y7261871D01*
X13553314D01*
Y7211100D01*
X13556030Y7197444D01*
X13563766Y7185867D01*
X13601866Y7147767D01*
X13613445Y7140031D01*
X13627100Y7137314D01*
X13640756Y7140031D01*
X13652335Y7147767D01*
X13660069Y7159344D01*
X13662785Y7173000D01*
X13660069Y7186656D01*
X13652335Y7198234D01*
X13624686Y7225882D01*
Y7261871D01*
X13639000D01*
X13641327Y7262835D01*
X13643842Y7263014D01*
X13645007Y7264360D01*
X13646654Y7265042D01*
X13647617Y7267368D01*
X13649269Y7269272D01*
X13657808Y7275285D01*
X13661557Y7276500D01*
X13845026D01*
X13882600Y7238926D01*
D02*
G37*
G36*
X14405405Y7134805D02*
X14390405Y7140287D01*
Y7155287D01*
X14405710Y7162787D01*
X14405405Y7134805D01*
D02*
G37*
G36*
X10762558Y7133150D02*
X10746648Y7127846D01*
X10736042Y7138453D01*
X10746864Y7148844D01*
X10762558Y7133150D01*
D02*
G37*
G36*
X11610655D02*
X11600048Y7122543D01*
X11584354Y7128062D01*
X11605136Y7148844D01*
X11610655Y7133150D01*
D02*
G37*
G36*
X11931800Y7123548D02*
X11917903Y7117063D01*
X11907297Y7127670D01*
X11913781Y7141566D01*
X11931800Y7123548D01*
D02*
G37*
G36*
X10721212Y7129400D02*
X10721653Y7114400D01*
X10700933Y7104207D01*
X10699952Y7139193D01*
X10721212Y7129400D01*
D02*
G37*
G36*
X10390908Y7122205D02*
X10369695Y7100992D01*
X10364392Y7116902D01*
X10374998Y7127508D01*
X10390908Y7122205D01*
D02*
G37*
G36*
X14620055Y7099305D02*
X14605055Y7106500D01*
Y7121500D01*
X14620055Y7128695D01*
Y7099305D01*
D02*
G37*
G36*
X13962189Y7118981D02*
X13956448Y7097688D01*
X13927663Y7117597D01*
X13949547Y7127554D01*
X13962189Y7118981D01*
D02*
G37*
G36*
X10799496Y7096211D02*
X10783586Y7090908D01*
X10772980Y7101515D01*
X10782219Y7113489D01*
X10799496Y7096211D01*
D02*
G37*
G36*
X11647332Y7107080D02*
X11626118Y7085866D01*
X11620600Y7101992D01*
X11631206Y7112598D01*
X11647332Y7107080D01*
D02*
G37*
G36*
X11573532Y7096026D02*
X11562926Y7085420D01*
X11548999Y7092706D01*
X11568229Y7111937D01*
X11573532Y7096026D01*
D02*
G37*
G36*
X14254201Y7078007D02*
X14219200D01*
X14229201Y7099002D01*
X14244200D01*
X14254201Y7078007D01*
D02*
G37*
G36*
X10618892Y7086211D02*
X10608285Y7075604D01*
X10597894Y7086427D01*
X10613373Y7102336D01*
X10618892Y7086211D01*
D02*
G37*
G36*
X12039228Y7080670D02*
X12023103Y7075151D01*
X12012496Y7085757D01*
X12021888Y7097579D01*
X12039228Y7080670D01*
D02*
G37*
G36*
X13129631Y7081884D02*
X13119025Y7071278D01*
X13103329Y7076796D01*
X13124112Y7097579D01*
X13129631Y7081884D01*
D02*
G37*
G36*
X11539944Y7062439D02*
X11529338Y7051832D01*
X11513643Y7057351D01*
X11534426Y7078133D01*
X11539944Y7062439D01*
D02*
G37*
G36*
X10838357Y7057351D02*
X10822662Y7051832D01*
X10812056Y7062439D01*
X10817574Y7078133D01*
X10838357Y7057351D01*
D02*
G37*
G36*
X12011492Y7063540D02*
X12001046Y7041767D01*
X11982321Y7071337D01*
X12003396Y7076657D01*
X12011492Y7063540D01*
D02*
G37*
G36*
X13163293Y7058123D02*
X13142648Y7037047D01*
X13137131Y7053172D01*
X13147736Y7063779D01*
X13163293Y7058123D01*
D02*
G37*
G36*
X13086304Y7043894D02*
X13075697Y7033288D01*
X13067975Y7041441D01*
X13081000Y7054466D01*
X13086304Y7043894D01*
D02*
G37*
G36*
X13245850Y7040760D02*
X13223933Y7032985D01*
X13213327Y7043592D01*
X13221101Y7065509D01*
X13245850Y7040760D01*
D02*
G37*
G36*
X10802720Y7049997D02*
Y7034997D01*
X10794265Y7031719D01*
X10788618Y7052027D01*
X10802720Y7049997D01*
D02*
G37*
G36*
X10871204Y7024504D02*
X10855294Y7019201D01*
X10844687Y7029807D01*
X10852930Y7042778D01*
X10871204Y7024504D01*
D02*
G37*
G36*
X11652548Y7023316D02*
X11638503Y7017797D01*
X11627897Y7028403D01*
X11633416Y7042448D01*
X11652548Y7023316D01*
D02*
G37*
G36*
X10414103Y7011053D02*
X10399103D01*
X10391818Y7033769D01*
X10421387D01*
X10414103Y7011053D01*
D02*
G37*
G36*
X13216789Y7025841D02*
X13211485Y7009932D01*
X13190273Y7031145D01*
X13206183Y7036448D01*
X13216789Y7025841D01*
D02*
G37*
G36*
X12113381Y7006086D02*
X12097686Y7000567D01*
X12087080Y7011174D01*
X12092599Y7026868D01*
X12113381Y7006086D01*
D02*
G37*
G36*
X10695552Y7022607D02*
X10668541Y7000350D01*
X10661882Y7022007D01*
X10673562Y7031540D01*
X10695552Y7022607D01*
D02*
G37*
G36*
X11501729Y7026128D02*
X11522024Y7017433D01*
X11494163Y6996248D01*
X11488459Y7015957D01*
X11478288Y7021996D01*
X11496902Y7040609D01*
X11501729Y7026128D01*
D02*
G37*
G36*
X12648252Y7134424D02*
X12510771Y6996943D01*
X12348456D01*
X12344259Y6996108D01*
X12332583Y6998584D01*
X12297228Y7033939D01*
X12261873Y7069294D01*
Y7069294D01*
X12261873Y7069294D01*
X12197710Y7133457D01*
X12202970Y7146157D01*
X12643392D01*
X12648252Y7134424D01*
D02*
G37*
G36*
X10850057Y7013964D02*
X10840412Y6992030D01*
X10819772Y7020297D01*
X10841189Y7026309D01*
X10850057Y7013964D01*
D02*
G37*
G36*
X10903979Y6991728D02*
X10888069Y6986425D01*
X10877463Y6997031D01*
X10888285Y7007423D01*
X10903979Y6991728D01*
D02*
G37*
G36*
X11469234D02*
X11458627Y6981122D01*
X11442933Y6986640D01*
X11463715Y7007423D01*
X11469234Y6991728D01*
D02*
G37*
G36*
X14456815Y7004805D02*
X14405405Y6969450D01*
X14404642Y6970213D01*
X14404395Y6933095D01*
X14333694Y6932790D01*
X14354700Y6979100D01*
X14395753D01*
X14370049Y7004805D01*
X14405405Y7056214D01*
X14456815Y7004805D01*
D02*
G37*
G36*
X12353759Y6973797D02*
X12348456Y6968138D01*
X12337494Y6979100D01*
X12343153Y6984404D01*
X12353759Y6973797D01*
D02*
G37*
G36*
X14258205Y6994399D02*
X14242294Y6967882D01*
X14226082Y6994095D01*
X14247295Y7004702D01*
X14258205Y6994399D01*
D02*
G37*
G36*
X11772650Y6960001D02*
X11750733Y6952227D01*
X11740127Y6962833D01*
X11747901Y6984750D01*
X11772650Y6960001D01*
D02*
G37*
G36*
X10725347Y6977862D02*
X10739188Y6973125D01*
X10717975Y6951912D01*
X10713238Y6965753D01*
X10693650Y6972701D01*
X10718399Y6997450D01*
X10725347Y6977862D01*
D02*
G37*
G36*
X10939335Y6956373D02*
X10923425Y6951070D01*
X10912818Y6961676D01*
X10923640Y6972067D01*
X10939335Y6956373D01*
D02*
G37*
G36*
X13067834Y6962664D02*
X13055817Y6950213D01*
X13050298Y6959420D01*
X13060902Y6970027D01*
X13067834Y6962664D01*
D02*
G37*
G36*
X11433878Y6956373D02*
X11423272Y6945766D01*
X11407577Y6951285D01*
X11428360Y6972067D01*
X11433878Y6956373D01*
D02*
G37*
G36*
X12184092Y6935375D02*
X12168397Y6929856D01*
X12157791Y6940463D01*
X12163309Y6956157D01*
X12184092Y6935375D01*
D02*
G37*
G36*
X10506027Y6919129D02*
X10491027D01*
X10483742Y6941845D01*
X10513311D01*
X10506027Y6919129D01*
D02*
G37*
G36*
X10975702Y6920006D02*
X10959792Y6914702D01*
X10949405Y6925090D01*
X10957049Y6911959D01*
X10946312Y6890273D01*
X10928312Y6920290D01*
X10949234Y6925364D01*
X10958996Y6936712D01*
X10975702Y6920006D01*
D02*
G37*
G36*
X11898003Y7141625D02*
X11900088Y7137819D01*
X11897488Y7132247D01*
X11897441Y7131179D01*
X11896115Y7129195D01*
X11894757Y7122367D01*
Y6995048D01*
X11896115Y6988220D01*
X11899983Y6982431D01*
X11938173Y6944242D01*
X11943961Y6940374D01*
X11950789Y6939016D01*
X12043371D01*
X12050200Y6940374D01*
X12055988Y6944242D01*
X12102550Y6990804D01*
X12111088Y6993806D01*
X12148736Y6956158D01*
X12148127Y6952166D01*
X12144470Y6943881D01*
X12107818D01*
X12100990Y6942523D01*
X12095202Y6938655D01*
X12070309Y6913763D01*
X11743490D01*
X11738630Y6925496D01*
X11755602Y6942469D01*
X11776269Y6949800D01*
X11776531Y6950037D01*
X11786556Y6952031D01*
X11798134Y6959766D01*
X11805869Y6971344D01*
X11808586Y6985000D01*
X11805869Y6998656D01*
X11798134Y7010234D01*
X11786556Y7017969D01*
X11776372Y7019995D01*
X11771771Y7029735D01*
X11771370Y7032953D01*
X11882289Y7143872D01*
X11898003Y7141625D01*
D02*
G37*
G36*
X11396464Y6918959D02*
X11385858Y6908353D01*
X11372222Y6915930D01*
X11391161Y6934869D01*
X11396464Y6918959D01*
D02*
G37*
G36*
X12216409Y6903489D02*
X12200283Y6897970D01*
X12189677Y6908577D01*
X12198665Y6920802D01*
X12216409Y6903489D01*
D02*
G37*
G36*
X14747353Y6889312D02*
X14749445Y6889305D01*
X14748807Y6886386D01*
X14763499Y6856819D01*
X14742046Y6855498D01*
X14738499Y6839305D01*
X14688499D01*
X14682281Y6851819D01*
X14663617Y6850671D01*
X14672658Y6871183D01*
X14663499Y6889610D01*
X14680753Y6889549D01*
X14688499Y6907124D01*
X14738499D01*
X14747353Y6889312D01*
D02*
G37*
G36*
X11523700Y6888554D02*
X11488700D01*
X11498700Y6909548D01*
X11513700D01*
X11523700Y6888554D01*
D02*
G37*
G36*
X11419963Y6908258D02*
X11392500Y6886560D01*
X11386071Y6908139D01*
X11397984Y6917440D01*
X11419963Y6908258D01*
D02*
G37*
G36*
X10503830Y6895894D02*
X10500092Y6881406D01*
X10475009Y6895575D01*
X10492619Y6905896D01*
X10503830Y6895894D01*
D02*
G37*
G36*
X11363168Y6885662D02*
X11352561Y6875056D01*
X11336867Y6880575D01*
X11357649Y6901357D01*
X11363168Y6885662D01*
D02*
G37*
G36*
X11015133Y6880575D02*
X10999695Y6874800D01*
X10989088Y6885407D01*
X10994392Y6901316D01*
X11015133Y6880575D01*
D02*
G37*
G36*
X10753331Y6867921D02*
X10737205Y6862403D01*
X10726599Y6873009D01*
X10732117Y6889135D01*
X10753331Y6867921D01*
D02*
G37*
G36*
X14574750Y6928095D02*
X14539395Y6857385D01*
X14473685Y6933095D01*
X14544395Y6968450D01*
X14574750Y6928095D01*
D02*
G37*
G36*
X12465230Y6872578D02*
X12459432Y6857162D01*
X12438713Y6877881D01*
X12454623Y6883184D01*
X12465230Y6872578D01*
D02*
G37*
G36*
X10992696Y6867801D02*
X10985093Y6845912D01*
X10959988Y6870300D01*
X10981928Y6878247D01*
X10992696Y6867801D01*
D02*
G37*
G36*
X11684502Y6863895D02*
X11673590Y6842682D01*
X11652682Y6863590D01*
X11673895Y6874502D01*
X11684502Y6863895D01*
D02*
G37*
G36*
X11327812Y6850307D02*
X11317206Y6839700D01*
X11301511Y6845219D01*
X11322294Y6866001D01*
X11327812Y6850307D01*
D02*
G37*
G36*
X11050489Y6845219D02*
X11034794Y6839700D01*
X11024188Y6850307D01*
X11029706Y6866001D01*
X11050489Y6845219D01*
D02*
G37*
G36*
X10510273Y6848533D02*
X10499667Y6837927D01*
X10477750Y6845701D01*
X10502499Y6870450D01*
X10510273Y6848533D01*
D02*
G37*
G36*
X11549200Y6849196D02*
Y6749312D01*
X11539322Y6729555D01*
X11490409Y6680643D01*
X11472787D01*
X11464600Y6684654D01*
Y6717800D01*
X11355072D01*
X11354470Y6717800D01*
X11353306Y6721635D01*
D01*
X11353306Y6721636D01*
X11353306Y6721636D01*
X11354380Y6733632D01*
X11361369Y6744093D01*
X11364086Y6757749D01*
X11361369Y6771406D01*
X11357980Y6776478D01*
X11357981Y6776710D01*
X11360865Y6780607D01*
X11368018Y6786439D01*
X11379200Y6784214D01*
X11392856Y6786931D01*
X11404434Y6794666D01*
X11412169Y6806244D01*
X11414886Y6819900D01*
X11412169Y6833556D01*
X11410451Y6836128D01*
X11417300Y6847714D01*
X11430956Y6850431D01*
X11433157Y6851901D01*
X11445857Y6845113D01*
Y6844363D01*
X11437601Y6822439D01*
X11437631Y6821528D01*
X11435131Y6817786D01*
X11432414Y6804130D01*
X11435131Y6790473D01*
X11442866Y6778896D01*
X11454444Y6771160D01*
X11468100Y6768444D01*
X11481756Y6771160D01*
X11493334Y6778896D01*
X11501069Y6790473D01*
X11503786Y6804130D01*
X11501069Y6817786D01*
X11496985Y6823898D01*
X11504622Y6835328D01*
X11506200Y6835014D01*
X11519856Y6837731D01*
X11531434Y6845466D01*
X11536500Y6853049D01*
X11549200Y6849196D01*
D02*
G37*
G36*
X11391278Y6841789D02*
X11357557Y6832413D01*
X11365003Y6855478D01*
X11380003Y6859887D01*
X11391278Y6841789D01*
D02*
G37*
G36*
X10452529Y7151337D02*
X10458318Y7147470D01*
X10465146Y7146111D01*
X10509494D01*
X10541326Y7114280D01*
X10590823Y7163777D01*
X10612036Y7142564D01*
X10562539Y7093066D01*
X10597894Y7057711D01*
X10604723Y7064540D01*
X10652024Y7017238D01*
X10658195Y6997169D01*
X10659561Y6995517D01*
X10660187Y6993466D01*
X10662097Y6992450D01*
X10663474Y6990785D01*
X10665608Y6990583D01*
X10667501Y6989575D01*
X10667503Y6989576D01*
X10671063Y6990066D01*
X10671722Y6990004D01*
X10676869Y6987209D01*
X10679928Y6982649D01*
X10683448Y6976320D01*
X10683546Y6974440D01*
X10682826Y6972701D01*
X10683752Y6970465D01*
X10683878Y6968047D01*
X10685276Y6966787D01*
X10685996Y6965047D01*
X10687998Y6957388D01*
X10687770Y6950853D01*
X10664511Y6927594D01*
X10715534Y6876571D01*
X10673811Y6834848D01*
X10666362Y6830708D01*
X10657175Y6835423D01*
X10585706Y6906892D01*
X10531756Y6852943D01*
X10518932Y6856501D01*
X10512700Y6874069D01*
X10512463Y6874331D01*
X10511149Y6880938D01*
X10514310Y6893190D01*
X10514295Y6893298D01*
X10515011Y6894369D01*
X10516369Y6901197D01*
Y6915934D01*
X10522961Y6936491D01*
X10579844Y6993373D01*
X10505597Y7067620D01*
X10436179Y6998201D01*
X10424445Y7003061D01*
Y7007859D01*
X10431037Y7028414D01*
X10487920Y7085297D01*
X10421437Y7151780D01*
X10423512Y7163834D01*
X10435911Y7167956D01*
X10452529Y7151337D01*
D02*
G37*
G36*
X12290158Y6829309D02*
X12274463Y6823791D01*
X12263857Y6834397D01*
X12269375Y6850091D01*
X12290158Y6829309D01*
D02*
G37*
G36*
X10531400Y6838013D02*
X10515427Y6822040D01*
X10504884Y6832710D01*
X10515490Y6843317D01*
X10531400Y6838013D01*
D02*
G37*
G36*
X10776973Y6842067D02*
X10769199Y6820150D01*
X10744450Y6844899D01*
X10766367Y6852673D01*
X10776973Y6842067D01*
D02*
G37*
G36*
X11482185Y6824784D02*
X11447731Y6818624D01*
X11456200Y6841116D01*
X11471200Y6843937D01*
X11482185Y6824784D01*
D02*
G37*
G36*
X11085844Y6809864D02*
X11071754Y6802740D01*
X11061148Y6813347D01*
X11066451Y6829257D01*
X11085844Y6809864D01*
D02*
G37*
G36*
X11290550Y6813044D02*
X11279943Y6802438D01*
X11266156Y6809864D01*
X11285246Y6828954D01*
X11290550Y6813044D01*
D02*
G37*
G36*
X12231214Y6815165D02*
Y6800165D01*
X12208714Y6792665D01*
Y6822665D01*
X12231214Y6815165D01*
D02*
G37*
G36*
X11848895Y6811630D02*
Y6796630D01*
X11833591Y6789130D01*
Y6819130D01*
X11848895Y6811630D01*
D02*
G37*
G36*
X12325513Y6793954D02*
X12309818Y6788435D01*
X12299212Y6799042D01*
X12304731Y6814736D01*
X12325513Y6793954D01*
D02*
G37*
G36*
X11894746Y6786630D02*
X11873752Y6796630D01*
Y6811630D01*
X11894746Y6821630D01*
Y6786630D01*
D02*
G37*
G36*
X10833508Y6787744D02*
X10817382Y6782225D01*
X10806776Y6792832D01*
X10812295Y6808957D01*
X10833508Y6787744D01*
D02*
G37*
G36*
X10696165Y6781860D02*
X10666165D01*
X10673665Y6804360D01*
X10688665D01*
X10696165Y6781860D01*
D02*
G37*
G36*
X14169641Y6774095D02*
X14069641D01*
X14094641Y6824095D01*
X14144641D01*
X14169641Y6774095D01*
D02*
G37*
G36*
X11338970Y6795404D02*
X11347960Y6773318D01*
X11313225Y6777617D01*
X11323970Y6797354D01*
X11338970Y6795404D01*
D02*
G37*
G36*
X11121199Y6774508D02*
X11107110Y6767385D01*
X11096503Y6777991D01*
X11101806Y6793901D01*
X11121199Y6774508D01*
D02*
G37*
G36*
X11253683Y6776177D02*
X11243076Y6765571D01*
X11230801Y6774508D01*
X11248379Y6792087D01*
X11253683Y6776177D01*
D02*
G37*
G36*
X10815073Y6779916D02*
X10807299Y6757999D01*
X10782550Y6782748D01*
X10804467Y6790523D01*
X10815073Y6779916D01*
D02*
G37*
G36*
X12286988Y6765605D02*
X12281469Y6749479D01*
X12260256Y6770692D01*
X12276381Y6776211D01*
X12286988Y6765605D01*
D02*
G37*
G36*
X14539395Y6833705D02*
X14537128Y6790836D01*
X14561749Y6741290D01*
X14479105Y6741595D01*
X14485828Y6785561D01*
X14461749Y6834010D01*
X14539395Y6833705D01*
D02*
G37*
G36*
X14382089Y6787321D02*
X14400694Y6741595D01*
X14305350Y6741290D01*
X14328853Y6788583D01*
X14315005Y6833705D01*
X14404395D01*
X14382089Y6787321D01*
D02*
G37*
G36*
X11025803Y6756789D02*
X11020285Y6740664D01*
X11004806Y6756573D01*
X11015197Y6767396D01*
X11025803Y6756789D01*
D02*
G37*
G36*
X10396073Y6757440D02*
X10374860Y6736227D01*
X10369556Y6752137D01*
X10380163Y6762744D01*
X10396073Y6757440D01*
D02*
G37*
G36*
X12145795Y6745457D02*
X12133124Y6741120D01*
X12126599Y6722725D01*
X12101850Y6747474D01*
X12120245Y6753999D01*
X12124582Y6766670D01*
X12145795Y6745457D01*
D02*
G37*
G36*
X10973546Y6739539D02*
X10984466Y6735802D01*
X10963252Y6714589D01*
X10959515Y6725509D01*
X10942905Y6731401D01*
X10967653Y6756150D01*
X10973546Y6739539D01*
D02*
G37*
G36*
X11580718Y6724505D02*
X11559505Y6713898D01*
X11548898Y6724505D01*
X11559505Y6745718D01*
X11580718Y6724505D01*
D02*
G37*
G36*
X11249345Y6733145D02*
X11238190Y6711616D01*
X11221264Y6742251D01*
X11241973Y6746987D01*
X11249345Y6733145D01*
D02*
G37*
G36*
X12048506Y6693844D02*
X12018506D01*
X12026006Y6716344D01*
X12041006D01*
X12048506Y6693844D01*
D02*
G37*
G36*
X12130443Y6694768D02*
X12116718Y6687279D01*
X12095144Y6698323D01*
X12125618Y6715537D01*
X12130443Y6694768D01*
D02*
G37*
G36*
X14779755Y6721397D02*
X14797556Y6685795D01*
X14705666D01*
X14716740Y6718578D01*
X14697556Y6757181D01*
X14797516Y6757219D01*
X14779755Y6721397D01*
D02*
G37*
G36*
X10874520Y6679473D02*
X10869001Y6663347D01*
X10847788Y6684560D01*
X10863913Y6690079D01*
X10874520Y6679473D01*
D02*
G37*
G36*
X12299944Y6671763D02*
X12289337Y6661156D01*
X12273427Y6666460D01*
X12294640Y6687673D01*
X12299944Y6671763D01*
D02*
G37*
G36*
X14301610Y6653150D02*
X14251305Y6678150D01*
Y6728150D01*
X14301305Y6741595D01*
X14301610Y6653150D01*
D02*
G37*
G36*
X14242094Y6728150D02*
Y6678150D01*
X14191789Y6653150D01*
Y6753150D01*
X14242094Y6728150D01*
D02*
G37*
G36*
X11469295Y6670300D02*
Y6655300D01*
X11453990Y6647800D01*
Y6677800D01*
X11469295Y6670300D01*
D02*
G37*
G36*
X11121262Y6661330D02*
X11115744Y6645204D01*
X11100265Y6661114D01*
X11110656Y6671936D01*
X11121262Y6661330D01*
D02*
G37*
G36*
X14052705Y6644705D02*
X14002705Y6663300D01*
Y6713300D01*
X14053011Y6738300D01*
X14052705Y6644705D01*
D02*
G37*
G36*
X12331450Y6654399D02*
X12306701Y6629650D01*
X12298927Y6651567D01*
X12309533Y6662173D01*
X12331450Y6654399D01*
D02*
G37*
G36*
X12602200Y6625490D02*
X12572200D01*
X12579700Y6640795D01*
X12594700D01*
X12602200Y6625490D01*
D02*
G37*
G36*
X11147779Y6634813D02*
X11142260Y6618688D01*
X11121047Y6639901D01*
X11137173Y6645420D01*
X11147779Y6634813D01*
D02*
G37*
G36*
X14997600Y6612590D02*
X14967599D01*
X14975101Y6627895D01*
X14990100D01*
X14997600Y6612590D01*
D02*
G37*
G36*
X14705666Y6601405D02*
X14669501Y6601100D01*
Y6651100D01*
X14705971Y6662266D01*
X14705666Y6601405D01*
D02*
G37*
G36*
X12143965Y6598385D02*
X12113965D01*
X12121465Y6620884D01*
X12136465D01*
X12143965Y6598385D01*
D02*
G37*
G36*
X12720345Y6597589D02*
X12697629Y6604873D01*
Y6619873D01*
X12720345Y6627158D01*
Y6597589D01*
D02*
G37*
G36*
X12644395Y6619873D02*
Y6604874D01*
X12629395Y6597374D01*
Y6625795D01*
X12644395Y6619873D01*
D02*
G37*
G36*
X12005653Y6596569D02*
X11989527Y6591051D01*
X11978921Y6601657D01*
X11984440Y6617783D01*
X12005653Y6596569D01*
D02*
G37*
G36*
X13967149Y6642695D02*
X13931795Y6571985D01*
X13861086Y6642695D01*
X13931795Y6678051D01*
X13967149Y6642695D01*
D02*
G37*
G36*
X11848895Y6581700D02*
Y6566700D01*
X11833591Y6559200D01*
Y6589200D01*
X11848895Y6581700D01*
D02*
G37*
G36*
X14605299Y6586900D02*
Y6536900D01*
X14578191Y6535095D01*
Y6588705D01*
X14605299Y6586900D01*
D02*
G37*
G36*
X14053011Y6502036D02*
X14008099Y6521641D01*
Y6571641D01*
X14053011Y6591246D01*
Y6502036D01*
D02*
G37*
G36*
X14553799Y6467205D02*
X14503799D01*
X14479105Y6517205D01*
X14578494D01*
X14553799Y6467205D01*
D02*
G37*
G36*
X14147400Y6438900D02*
X14097400D01*
X14076595Y6485010D01*
X14168205D01*
X14147400Y6438900D01*
D02*
G37*
%LPC*%
G36*
X11228500Y7960600D02*
X11178500D01*
Y7905600D01*
X11228500D01*
Y7960600D01*
D02*
G37*
G36*
X11501873Y7948386D02*
X11464750Y7911263D01*
X11498338Y7877675D01*
X11535461Y7914798D01*
X11501873Y7948386D01*
D02*
G37*
G36*
X11556674Y7893585D02*
X11519551Y7856462D01*
X11553138Y7822874D01*
X11590262Y7859997D01*
X11556674Y7893585D01*
D02*
G37*
G36*
X11443537Y7890049D02*
X11406414Y7852927D01*
X11440002Y7819339D01*
X11477125Y7856462D01*
X11443537Y7890049D01*
D02*
G37*
G36*
X12776200Y7361171D02*
X12762544Y7358455D01*
X12750966Y7350719D01*
X12743231Y7339142D01*
X12740514Y7325486D01*
X12743231Y7311829D01*
X12750966Y7300252D01*
X12762544Y7292517D01*
X12776200Y7289800D01*
X12789856Y7292517D01*
X12801434Y7300252D01*
X12809169Y7311829D01*
X12811887Y7325486D01*
X12809169Y7339142D01*
X12801434Y7350719D01*
X12789856Y7358455D01*
X12776200Y7361171D01*
D02*
G37*
%LPD*%
G36*
X13710709Y7909800D02*
X13695406Y7917300D01*
Y7932300D01*
X13710709Y7939800D01*
Y7909800D01*
D02*
G37*
G36*
X13616295Y7932300D02*
Y7917300D01*
X13601295Y7909800D01*
Y7939800D01*
X13616295Y7932300D01*
D02*
G37*
G36*
X12217000Y8241542D02*
X12167000D01*
X12129000Y8317727D01*
X12255000D01*
X12217000Y8241542D01*
D02*
G37*
G36*
X12210295Y8010095D02*
X12125905D01*
X12143100Y8060095D01*
X12193100D01*
X12210295Y8010095D01*
D02*
G37*
G36*
X12047100Y8025652D02*
X12032100D01*
X12022100Y8046646D01*
X12057100D01*
X12047100Y8025652D01*
D02*
G37*
G36*
X12054600Y8009790D02*
X12024600D01*
X12032100Y8025095D01*
X12047100D01*
X12054600Y8009790D01*
D02*
G37*
G36*
X13272211Y7874800D02*
X13221906Y7899800D01*
Y7949800D01*
X13272211Y7974800D01*
Y7874800D01*
D02*
G37*
G36*
X14652100Y7888005D02*
X14637100D01*
X14629601Y7903310D01*
X14659599D01*
X14652100Y7888005D01*
D02*
G37*
G36*
X14680949Y7860899D02*
X14656201Y7836150D01*
X14648427Y7858067D01*
X14659033Y7868673D01*
X14680949Y7860899D01*
D02*
G37*
G36*
X12953751Y7874401D02*
X12931833Y7866627D01*
X12921227Y7877233D01*
X12929001Y7899150D01*
X12953751Y7874401D01*
D02*
G37*
G36*
X12922499Y7857293D02*
X12916982Y7841167D01*
X12895767Y7862381D01*
X12911893Y7867899D01*
X12922499Y7857293D01*
D02*
G37*
G36*
X14903400Y7841900D02*
Y7791900D01*
X14855396Y7792205D01*
X14855090Y7864905D01*
X14903400Y7841900D01*
D02*
G37*
G36*
X11928802Y7890305D02*
X11918195Y7879698D01*
X11896982Y7890610D01*
X11917891Y7911518D01*
X11928802Y7890305D01*
D02*
G37*
G36*
X11978375Y7856370D02*
X11958929Y7827269D01*
X11948779Y7849115D01*
X11957165Y7861942D01*
X11978375Y7856370D01*
D02*
G37*
G36*
X12016270Y7809733D02*
X12005663Y7799127D01*
X11983746Y7806901D01*
X12008495Y7831650D01*
X12016270Y7809733D01*
D02*
G37*
G36*
X12059709Y7770100D02*
X12044405Y7777600D01*
Y7792600D01*
X12059709Y7800100D01*
Y7770100D01*
D02*
G37*
G36*
X14556795Y7903005D02*
X14554688Y7867810D01*
X14578799Y7819290D01*
X14500806Y7819595D01*
X14502913Y7854790D01*
X14478799Y7903310D01*
X14556795Y7903005D01*
D02*
G37*
G36*
X14630400Y7793600D02*
Y7743600D01*
X14585194Y7725205D01*
Y7813805D01*
X14630400Y7793600D01*
D02*
G37*
G36*
X13804500Y7457805D02*
X13754500D01*
X13729805Y7507805D01*
X13829195D01*
X13804500Y7457805D01*
D02*
G37*
G36*
X14027905Y6899705D02*
X13977905Y6922319D01*
Y6972319D01*
X14027905Y6994095D01*
Y6899705D01*
D02*
G37*
G36*
X10167500Y6920752D02*
X10152500D01*
X10142500Y6941746D01*
X10177500D01*
X10167500Y6920752D01*
D02*
G37*
G36*
X10175000Y6901695D02*
X10145000D01*
X10152500Y6916695D01*
X10167500D01*
X10175000Y6901695D01*
D02*
G37*
G36*
X13120160Y6853218D02*
X13109554Y6842611D01*
X13093428Y6848130D01*
X13114642Y6869343D01*
X13120160Y6853218D01*
D02*
G37*
G36*
X13144250Y6843270D02*
X13119501Y6818521D01*
X13111726Y6840438D01*
X13122333Y6851045D01*
X13144250Y6843270D01*
D02*
G37*
G36*
X10653312Y6684585D02*
X10637187Y6679066D01*
X10626580Y6689673D01*
X10632099Y6705798D01*
X10653312Y6684585D01*
D02*
G37*
G36*
X10590096Y6633697D02*
X10579273Y6623306D01*
X10563364Y6638785D01*
X10579489Y6644303D01*
X10590096Y6633697D01*
D02*
G37*
G36*
X11340289Y6535489D02*
X11355210Y6542800D01*
Y6512800D01*
X11340289Y6520111D01*
X11319690Y6510300D01*
Y6545300D01*
X11340289Y6535489D01*
D02*
G37*
G36*
X11476949Y6517571D02*
X11462719Y6524349D01*
X11453990Y6520072D01*
Y6550071D01*
X11462719Y6545794D01*
X11476949Y6552572D01*
Y6517571D01*
D02*
G37*
G36*
X11559809Y6520072D02*
X11544505Y6527571D01*
Y6542572D01*
X11559809Y6550071D01*
Y6520072D01*
D02*
G37*
G36*
X11533651Y6542572D02*
Y6527571D01*
X11512656Y6517571D01*
Y6552572D01*
X11533651Y6542572D01*
D02*
G37*
G36*
X15154118Y6493810D02*
X15132906Y6482898D01*
X15122298Y6493505D01*
X15133211Y6514718D01*
X15154118Y6493810D01*
D02*
G37*
G36*
X14815057Y6486100D02*
Y6471100D01*
X14800056Y6471405D01*
X14799751Y6493600D01*
X14815057Y6486100D01*
D02*
G37*
G36*
X10894612Y6498040D02*
X10881463Y6493540D01*
X10873870Y6474847D01*
X10851613Y6501859D01*
X10869308Y6507299D01*
X10873399Y6519253D01*
X10894612Y6498040D01*
D02*
G37*
G36*
X12466200Y6516405D02*
X12451200D01*
X12443700Y6531710D01*
X12473700D01*
X12466200Y6516405D01*
D02*
G37*
G36*
X12476200Y6482154D02*
X12441200D01*
X12451200Y6503148D01*
X12466200D01*
X12476200Y6482154D01*
D02*
G37*
G36*
X12930969Y6704726D02*
Y6689727D01*
X12908472Y6682226D01*
Y6712226D01*
X12930969Y6704726D01*
D02*
G37*
G36*
X12995074Y6674964D02*
X12968765Y6648654D01*
X12941199Y6691923D01*
X12951807Y6702529D01*
X12995074Y6674964D01*
D02*
G37*
G36*
X13043729Y6597190D02*
X12943729D01*
X12968729Y6647495D01*
X13018729D01*
X13043729Y6597190D01*
D02*
G37*
G36*
X12936305Y6477800D02*
X12886305Y6502800D01*
Y6552800D01*
X12936305Y6577800D01*
Y6477800D01*
D02*
G37*
G36*
X14375999Y6467205D02*
X14325999D01*
X14301305Y6517205D01*
X14400694D01*
X14375999Y6467205D01*
D02*
G37*
G36*
X10167500Y6672305D02*
X10152500D01*
X10145000Y6687609D01*
X10175000D01*
X10167500Y6672305D01*
D02*
G37*
G36*
X10175000Y6514695D02*
X10145000D01*
X10152500Y6529695D01*
X10167500D01*
X10175000Y6514695D01*
D02*
G37*
G36*
X10294500Y6984252D02*
X10279500D01*
X10269500Y7005246D01*
X10304500D01*
X10294500Y6984252D01*
D02*
G37*
G36*
X10230302Y6304695D02*
X10219695Y6283482D01*
X10198482Y6304695D01*
X10219695Y6315302D01*
X10230302Y6304695D01*
D02*
G37*
D10*
X14234500Y7740400D02*
D03*
X13959500Y7550400D02*
D03*
Y7740400D02*
D03*
X14234500Y7645400D02*
D03*
Y7550400D02*
D03*
X13959500Y7645400D02*
D03*
D11*
X11176000Y7239000D02*
D03*
D12*
X11220194Y7672103D02*
D03*
X11255549Y7636748D02*
D03*
X11290905Y7601392D02*
D03*
X11326260Y7566037D02*
D03*
X11361616Y7530681D02*
D03*
X11396971Y7495326D02*
D03*
X11432326Y7459971D02*
D03*
X11467682Y7424616D02*
D03*
X11503037Y7389260D02*
D03*
X11538392Y7353905D02*
D03*
X11573747Y7318549D02*
D03*
X11609103Y7283194D02*
D03*
X11131806Y6805897D02*
D03*
X11096451Y6841253D02*
D03*
X11061095Y6876608D02*
D03*
X11025740Y6911963D02*
D03*
X10990385Y6947319D02*
D03*
X10955029Y6982674D02*
D03*
X10919674Y7018029D02*
D03*
X10884319Y7053384D02*
D03*
X10848963Y7088740D02*
D03*
X10813608Y7124095D02*
D03*
X10778253Y7159451D02*
D03*
X10742897Y7194806D02*
D03*
D13*
X11609103D02*
D03*
X11573747Y7159451D02*
D03*
X11538392Y7124095D02*
D03*
X11503037Y7088740D02*
D03*
X11467681Y7053384D02*
D03*
X11432326Y7018029D02*
D03*
X11396971Y6982674D02*
D03*
X11361615Y6947319D02*
D03*
X11326260Y6911963D02*
D03*
X11290905Y6876608D02*
D03*
X11255549Y6841253D02*
D03*
X11220194Y6805897D02*
D03*
X10742897Y7283194D02*
D03*
X10778253Y7318549D02*
D03*
X10813608Y7353905D02*
D03*
X10848963Y7389260D02*
D03*
X10884318Y7424616D02*
D03*
X10919674Y7459971D02*
D03*
X10955029Y7495326D02*
D03*
X10990384Y7530681D02*
D03*
X11025740Y7566037D02*
D03*
X11061095Y7601392D02*
D03*
X11096451Y7636748D02*
D03*
X11131806Y7672103D02*
D03*
D14*
X10160000Y6455000D02*
D03*
Y6245000D02*
D03*
Y8233000D02*
D03*
Y8023000D02*
D03*
Y7156000D02*
D03*
Y7366000D02*
D03*
D15*
Y6729500D02*
D03*
Y6859500D02*
D03*
X13589000Y7428000D02*
D03*
Y7558000D02*
D03*
X13398500Y7555000D02*
D03*
Y7685000D02*
D03*
X10160000Y7748500D02*
D03*
Y7618500D02*
D03*
X10439400Y7659600D02*
D03*
Y7529600D02*
D03*
X14452600Y7177000D02*
D03*
Y7047000D02*
D03*
X14752863Y6513600D02*
D03*
Y6643600D02*
D03*
X14808200Y7834400D02*
D03*
Y7964400D02*
D03*
D16*
X12081561Y7136470D02*
D03*
X12116916Y7101114D02*
D03*
X12152272Y7065759D02*
D03*
X12187627Y7030404D02*
D03*
X12222982Y6995048D02*
D03*
X12258338Y6959693D02*
D03*
X12293693Y6924337D02*
D03*
X12329048Y6888982D02*
D03*
X12364404Y6853627D02*
D03*
X12399759Y6818271D02*
D03*
X12435114Y6782916D02*
D03*
X12470470Y6747561D02*
D03*
X13064439Y7341531D02*
D03*
X13029083Y7376886D02*
D03*
X12993729Y7412241D02*
D03*
X12958372Y7447597D02*
D03*
X12923018Y7482952D02*
D03*
X12887663Y7518307D02*
D03*
X12852307Y7553663D02*
D03*
X12816953Y7589018D02*
D03*
X12781597Y7624373D02*
D03*
X12746241Y7659729D02*
D03*
X12710886Y7695084D02*
D03*
X12675531Y7730439D02*
D03*
D17*
Y6747561D02*
D03*
X12710886Y6782916D02*
D03*
X12746241Y6818271D02*
D03*
X12781597Y6853627D02*
D03*
X12816953Y6888982D02*
D03*
X12852307Y6924337D02*
D03*
X12887663Y6959693D02*
D03*
X12923018Y6995048D02*
D03*
X12958372Y7030403D02*
D03*
X12993729Y7065759D02*
D03*
X13029083Y7101114D02*
D03*
X13064439Y7136469D02*
D03*
X12470470Y7730439D02*
D03*
X12435114Y7695084D02*
D03*
X12399759Y7659729D02*
D03*
X12364404Y7624373D02*
D03*
X12329048Y7589018D02*
D03*
X12293693Y7553663D02*
D03*
X12258338Y7518307D02*
D03*
X12222982Y7482952D02*
D03*
X12187627Y7447596D02*
D03*
X12152272Y7412241D02*
D03*
X12116916Y7376886D02*
D03*
X12081561Y7341530D02*
D03*
D18*
X11876000Y7937500D02*
D03*
X11746000D02*
D03*
X12101600Y7785100D02*
D03*
X12231600D02*
D03*
X12457200Y6578600D02*
D03*
X12587200D02*
D03*
X12038100Y7962900D02*
D03*
X12168100D02*
D03*
X14413000Y7772400D02*
D03*
X14542999D02*
D03*
X14644600Y7950200D02*
D03*
X14514600D02*
D03*
X12549100D02*
D03*
X12419100D02*
D03*
X14070100Y6946900D02*
D03*
X14200101D02*
D03*
X14133600Y7950200D02*
D03*
X14263600D02*
D03*
X13752600D02*
D03*
X13882600D02*
D03*
D19*
X13779500Y7552500D02*
D03*
Y7687500D02*
D03*
X11404600Y6527800D02*
D03*
Y6662800D02*
D03*
X14465900Y7585900D02*
D03*
Y7450900D02*
D03*
X10439400Y7966900D02*
D03*
Y7831900D02*
D03*
X14350999Y6696900D02*
D03*
Y6561900D02*
D03*
X14528799Y6696900D02*
D03*
Y6561900D02*
D03*
D20*
X11776700Y6574200D02*
D03*
X11616700D02*
D03*
X11776700Y6794200D02*
D03*
X11616700D02*
D03*
D21*
X12768338Y6608838D02*
D03*
X12860262Y6700762D02*
D03*
X11701538Y7510538D02*
D03*
X11793462Y7602462D02*
D03*
D22*
X12125430Y6546641D02*
D03*
X12029970Y6642100D02*
D03*
X10512530Y6619770D02*
D03*
X10417070Y6715230D02*
D03*
X10823470Y6639030D02*
D03*
X10918930Y6543570D02*
D03*
X11426930Y7699270D02*
D03*
X11331470Y7794730D02*
D03*
X11001270Y6689830D02*
D03*
X11096730Y6594370D02*
D03*
X10677630Y6730116D02*
D03*
X10582170Y6825575D02*
D03*
X10759970Y6931130D02*
D03*
X10855430Y6835670D02*
D03*
X10601430Y7153170D02*
D03*
X10505970Y7248630D02*
D03*
X12156970Y6804130D02*
D03*
X12252430Y6708670D02*
D03*
X12862030Y7826270D02*
D03*
X12766570Y7921730D02*
D03*
D23*
X10502062Y6989838D02*
D03*
X10410138Y7081762D02*
D03*
X13228561Y7434338D02*
D03*
X13136638Y7526262D02*
D03*
X11498338Y7856462D02*
D03*
X11590262Y7764538D02*
D03*
D24*
X10659600Y7768600D02*
D03*
Y7928600D02*
D03*
X10879600Y7768600D02*
D03*
Y7928600D02*
D03*
D25*
X11243500Y7975600D02*
D03*
X11108500D02*
D03*
X14359700Y6883400D02*
D03*
X14494701D02*
D03*
D26*
X14684750Y7559000D02*
D03*
Y7479000D02*
D03*
Y6919000D02*
D03*
Y6999000D02*
D03*
D27*
Y7414000D02*
D03*
Y7364000D02*
D03*
Y7314000D02*
D03*
Y7264000D02*
D03*
Y7214000D02*
D03*
Y7164000D02*
D03*
Y7114000D02*
D03*
Y7064000D02*
D03*
D28*
X14268201Y7339000D02*
D03*
X14078200D02*
D03*
X14173199Y7139000D02*
D03*
D29*
X15192599Y6553200D02*
D03*
X14982600D02*
D03*
X15008000Y7924800D02*
D03*
X15217999D02*
D03*
X13331599D02*
D03*
X13541600D02*
D03*
D30*
X11674370Y7064270D02*
D03*
X11769830Y7159730D02*
D03*
X10728430Y7540730D02*
D03*
X10632970Y7445270D02*
D03*
X12036530Y7553430D02*
D03*
X11941070Y7457970D02*
D03*
X13071370Y6895920D02*
D03*
X13166830Y6991379D02*
D03*
D31*
X13627100Y7173000D02*
D03*
D32*
X13857100Y6543000D02*
D03*
X13627100D02*
D03*
X13397099D02*
D03*
D33*
X13161000Y6527800D02*
D03*
X13000999D02*
D03*
D34*
X14122400Y6549400D02*
D03*
Y6709400D02*
D03*
D35*
X14546800Y7768600D02*
X14630400D01*
X14592300Y6853627D02*
X14609750Y6871077D01*
Y6879001D01*
X14649750Y6919000D01*
X12192000Y8135155D02*
Y8382000D01*
X12168100Y8111255D02*
X12192000Y8135155D01*
X12168100Y7962900D02*
Y8111255D01*
X14172800Y7053384D02*
Y7138600D01*
X14173199Y7139000D01*
X14379700Y6979100D02*
X14447600Y7047000D01*
X14379700Y6903400D02*
Y6979100D01*
X14511749Y6713950D02*
Y6866350D01*
X12986456Y6527800D02*
X12993729Y6535072D01*
X15024100Y7321450D02*
X15313000Y7610350D01*
X15024100Y7213600D02*
Y7321450D01*
X15313000Y7610350D02*
Y8062062D01*
X15239999Y8135062D02*
X15313000Y8062062D01*
X15239999Y8135062D02*
Y8382000D01*
X14119641Y6712159D02*
Y6830097D01*
Y6712159D02*
X14122400Y6709400D01*
X12877800Y6527800D02*
X12986456D01*
X12993729Y6535072D02*
Y6650000D01*
Y6535072D02*
X13000999Y6527800D01*
X14903400Y7816900D02*
X14947900Y7772400D01*
X14825700Y7816900D02*
X14903400D01*
X14808200Y7834400D02*
X14825700Y7816900D01*
X13208000Y7924800D02*
X13331599D01*
X13589000Y7211100D02*
X13627100Y7173000D01*
X13589000Y7211100D02*
Y7428000D01*
X13970000Y6947319D02*
X14069681D01*
X14070100Y6946900D01*
X13882600Y7950200D02*
X13970000D01*
X13397099Y7470900D02*
Y7553600D01*
X13398500Y7555000D01*
X13954500Y7640400D02*
X13959500Y7645400D01*
X13876898Y7640400D02*
X13954500D01*
X13843997Y7607500D02*
X13876898Y7640400D01*
X13839500Y7607500D02*
X13843997D01*
X13784500Y7552500D02*
X13839500Y7607500D01*
X13779500Y7552500D02*
X13784500D01*
X13779500Y7442600D02*
Y7552500D01*
X14528799Y7786600D02*
X14542999Y7772400D01*
X14528799Y7786600D02*
Y7936000D01*
X14514600Y7950200D02*
X14528799Y7936000D01*
X14542999Y7772400D02*
X14546800Y7768600D01*
X14649750Y6919000D02*
X14684750D01*
X14601450Y7607300D02*
X14649750Y7559000D01*
X14578200Y7605900D02*
X14579601Y7607300D01*
X14485899Y7605900D02*
X14578200D01*
X14465900Y7585900D02*
X14485899Y7605900D01*
X14579601Y7607300D02*
X14601450D01*
X14649750Y7559000D02*
X14684750D01*
X14736597Y7671000D02*
X14742250D01*
X14713499Y7647903D02*
X14736597Y7671000D01*
X14713499Y7564000D02*
Y7647903D01*
X14708501Y7559000D02*
X14713499Y7564000D01*
X14684750Y7559000D02*
X14708501D01*
X14736597Y6807000D02*
X14742250D01*
X14713499Y6830097D02*
X14736597Y6807000D01*
X14713499Y6830097D02*
Y6914000D01*
X14708501Y6919000D02*
X14713499Y6914000D01*
X14684750Y6919000D02*
X14708501D01*
X14008099Y6546641D02*
X14119641D01*
X14122400Y6549400D01*
Y6438900D02*
Y6549400D01*
X14742250Y6807000D02*
X14747556Y6801694D01*
Y6648906D02*
Y6801694D01*
Y6648906D02*
X14752863Y6643600D01*
X14605299Y6561900D02*
X14669501Y6626100D01*
X14735361D01*
X14752863Y6643600D01*
X14528799Y6561900D02*
X14605299D01*
X14350999Y6464300D02*
Y6561900D01*
X14528799Y6464300D02*
Y6561900D01*
X14296547Y7640400D02*
X14344749Y7592197D01*
X14239500Y7640400D02*
X14296547D01*
X14344749Y7511950D02*
Y7592197D01*
X14234500Y7645400D02*
X14239500Y7640400D01*
X14344749Y7511950D02*
X14385800Y7470900D01*
X14445898D01*
X14465900Y7450900D01*
X14470900D01*
X14499001Y7479000D01*
X14684750D01*
X14101300Y6688300D02*
X14122400Y6709400D01*
X13977400Y6688300D02*
X14101300D01*
X13857100Y6568000D02*
X13977400Y6688300D01*
X13857100Y6543000D02*
Y6568000D01*
X14344749Y6703150D02*
X14350999Y6696900D01*
X14128650Y6703150D02*
X14344749D01*
X14122400Y6709400D02*
X14128650Y6703150D01*
X14355350Y6879050D02*
X14359700Y6883400D01*
X14355350Y6701250D02*
Y6879050D01*
X14350999Y6696900D02*
X14355350Y6701250D01*
X14511749Y6713950D02*
X14528799Y6696900D01*
X14494701Y6883400D02*
X14511749Y6866350D01*
X14447600Y7047000D02*
X14452600D01*
X14359700Y6883400D02*
X14379700Y6903400D01*
X14494701Y6883400D02*
Y6888400D01*
X14514700Y6908400D01*
X14519701D01*
X14605299Y6994000D01*
X14679750D01*
X14684750Y6999000D01*
D36*
X11176000Y8267700D02*
Y8382000D01*
X11150600Y8242300D02*
X11176000Y8267700D01*
X10977233Y8242300D02*
X11150600D01*
X10951833Y8216900D02*
X10977233Y8242300D01*
X10350500Y8216900D02*
X10951833D01*
X10287000Y8280400D02*
X10350500Y8216900D01*
X10337800Y7154100D02*
Y7252656D01*
X10501400Y7529600D02*
X10621800Y7650000D01*
X10439400Y7529600D02*
X10501400D01*
X10531045Y7594600D02*
X10611445Y7675000D01*
X10363293Y7594600D02*
X10531045D01*
X10287000Y7518307D02*
X10363293Y7594600D01*
X10337800Y7154100D02*
X10410138Y7081762D01*
X11404364Y8206898D02*
X11430465Y8233000D01*
X10997201Y8206898D02*
X11404364D01*
X10969102Y8178800D02*
X10997201Y8206898D01*
X11430465Y8233000D02*
Y8381535D01*
X11430000Y8382000D02*
X11430465Y8381535D01*
X10287000Y8178800D02*
X10969102D01*
X10287000Y6372000D02*
Y7023100D01*
X10160000Y6245000D02*
X10287000Y6372000D01*
X10160000Y6859500D02*
Y6959600D01*
X11590262Y8140700D02*
X11684000Y8234438D01*
Y8382000D01*
X10816590Y8140700D02*
X11590262D01*
X10778490Y8102600D02*
X10816590Y8140700D01*
X10404045Y8102600D02*
X10778490D01*
X10312800Y8011355D02*
X10404045Y8102600D01*
X10312800Y7934550D02*
Y8011355D01*
X10274300Y7896050D02*
X10312800Y7934550D01*
X10325100Y7321100D02*
Y7442200D01*
X10160000Y7156000D02*
X10325100Y7321100D01*
X10287000Y7493000D02*
Y7518307D01*
X11833702Y8102600D02*
X11938000Y8206898D01*
X10813845Y8102600D02*
X11833702D01*
X10775745Y8064500D02*
X10813845Y8102600D01*
X11938000Y8206898D02*
Y8382000D01*
X10401300Y8064500D02*
X10775745D01*
X10337800Y8001000D02*
X10401300Y8064500D01*
X10337800Y7886700D02*
Y8001000D01*
X10287000Y7835900D02*
X10337800Y7886700D01*
X10287000Y7721600D02*
Y7835900D01*
X10248900Y7683500D02*
X10287000Y7721600D01*
X10110251Y7683500D02*
X10248900D01*
X10083800Y7709951D02*
X10110251Y7683500D01*
X10083800Y7709951D02*
Y7848600D01*
X10160000Y7924800D01*
Y8023000D01*
Y7531100D02*
Y7618500D01*
Y8233000D02*
X10287000Y8106000D01*
Y7973850D02*
Y8106000D01*
X10200000Y7886850D02*
X10287000Y7973850D01*
X10200000Y7783500D02*
Y7886850D01*
X10165000Y7748500D02*
X10200000Y7783500D01*
X10160000Y7748500D02*
X10165000D01*
X10160000Y7366000D02*
X10287000Y7493000D01*
X10611445Y7675000D02*
X10726702D01*
X10769600Y7717898D01*
Y8023000D01*
X10789700Y8043100D01*
X11476800D01*
X11701100Y7818800D01*
X11544459Y7570500D02*
X11625362Y7651403D01*
X11712322Y7591678D02*
X11782678Y7521322D01*
X11701100Y7640496D02*
Y7818800D01*
X11687322Y7626718D02*
X11701100Y7640496D01*
X11687322Y7574251D02*
Y7626718D01*
Y7574251D02*
X11701538Y7560035D01*
Y7510538D02*
Y7560035D01*
X11625362Y7651403D02*
X11651903D01*
X11658600Y7658100D01*
X11712322Y7591678D02*
Y7616363D01*
X11726100Y7630141D01*
Y7917600D01*
X11746000Y7937500D01*
X10160000Y6455000D02*
Y6729500D01*
X12587200Y6578600D02*
Y6831100D01*
X12534900Y6883400D02*
X12587200Y6831100D01*
X12465445Y6883400D02*
X12534900D01*
X12400317Y6818271D02*
X12465445Y6883400D01*
X12399759Y6818271D02*
X12400317D01*
X11782678Y7456378D02*
Y7521322D01*
X11747500Y7421200D02*
X11782678Y7456378D01*
X11667439Y7341530D02*
X11861800D01*
X11707056Y7366530D02*
X11872155D01*
X11948885Y7289800D01*
X11652386Y7421200D02*
X11707056Y7366530D01*
X11609103Y7283194D02*
X11667439Y7341530D01*
X11861800D02*
X11939404Y7263926D01*
X11912600Y7122367D02*
X11938000Y7147767D01*
X11912600Y6995048D02*
Y7122367D01*
Y6995048D02*
X11950789Y6956859D01*
X12043371D01*
X12152272Y7065759D01*
X13398500Y7685000D02*
X13478217D01*
X13503329Y7710112D01*
X13512801D01*
X13329192Y7730439D02*
X13351363Y7752612D01*
X13559488D02*
X13627100Y7685000D01*
X13351363Y7752612D02*
X13559488D01*
X13284200Y7513632D02*
Y7569200D01*
Y7513632D02*
X13347701Y7450132D01*
Y7394564D02*
Y7450132D01*
X13306335Y7353198D02*
X13347701Y7394564D01*
X13178799Y7353198D02*
X13306335D01*
X13089528Y7263926D02*
X13178799Y7353198D01*
X12943645Y7263926D02*
X13089528D01*
X12843719Y7164000D02*
X12943645Y7263926D01*
X12184845Y7164000D02*
X12843719D01*
X12857964Y7213600D02*
X13021249Y7376886D01*
X13029083D01*
X12712700Y7213600D02*
X12857964D01*
X12851543Y7136469D02*
X12953999Y7238926D01*
X12675531Y7136469D02*
X12851543D01*
X12953999Y7238926D02*
X13119775D01*
X12121959Y7101114D02*
X12184845Y7164000D01*
X12116916Y7101114D02*
X12121959D01*
X12348456Y6979100D02*
X12518162D01*
X12293693Y6924337D02*
X12348456Y6979100D01*
X12518162D02*
X12675531Y7136469D01*
X13527112Y7526262D02*
X13557262D01*
X13500101Y7499250D02*
X13527112Y7526262D01*
X13500101Y7448550D02*
Y7499250D01*
X13557262Y7526262D02*
X13589000Y7558000D01*
X13379449Y7327900D02*
X13500101Y7448550D01*
X13208749Y7327900D02*
X13379449D01*
X13119775Y7238926D02*
X13208749Y7327900D01*
X12837587Y7256100D02*
X12993729Y7412241D01*
X12574004Y7256100D02*
X12837587D01*
X12531904Y7214000D02*
X12574004Y7256100D01*
X15099300Y8043500D02*
X15217999Y7924800D01*
X14058900Y8043500D02*
X15099300D01*
X14020799Y8005400D02*
X14058900Y8043500D01*
X14020799Y7874000D02*
Y8005400D01*
X13330563Y7620000D02*
X13523051D01*
X13545552Y7642500D01*
X13644704D01*
X13677901Y7675696D01*
Y7754443D01*
X13687560Y7650000D02*
X13742000D01*
X13655058Y7617500D02*
X13687560Y7650000D01*
X13653500Y7617500D02*
X13655058D01*
X13594000Y7558000D02*
X13653500Y7617500D01*
X13275935Y7674627D02*
X13330563Y7620000D01*
X13043983Y7674627D02*
X13275935D01*
X12887663Y7518307D02*
X13043983Y7674627D01*
X13008057Y7797800D02*
X14084700D01*
X12997701Y7822800D02*
X14095055D01*
X12838165Y7663264D02*
X12997701Y7822800D01*
X14095055D02*
X14129060Y7788795D01*
X12855843Y7645587D02*
X13008057Y7797800D01*
X14084700D02*
X14104060Y7778440D01*
X12561256Y7734300D02*
X12561256D01*
X12519236Y7692280D02*
X12561256Y7734300D01*
X12508629Y7692280D02*
X12519236D01*
X12470470Y7730439D02*
X12508629Y7692280D01*
X13931900Y7092959D02*
Y7099300D01*
X14071526Y7238926D01*
X14198599D01*
X14180817Y7376500D02*
X14235699D01*
X14115117Y7442200D02*
X14180817Y7376500D01*
X14268201Y7334000D02*
Y7339000D01*
X14235699Y7376500D02*
X14268201Y7344000D01*
Y7339000D02*
Y7344000D01*
X13893800Y7442200D02*
X14115117D01*
X14078200Y7339000D02*
X14158212D01*
X14198599Y7238926D02*
X14236700Y7200826D01*
Y7060153D02*
Y7200826D01*
X12674600Y7592197D02*
X12742131Y7659729D01*
X12746241D01*
X12646099Y7592197D02*
X12674600D01*
X12613923Y7624373D02*
X12646099Y7592197D01*
X12611100Y7624373D02*
X12613923D01*
X10887145Y6946098D02*
X10893842Y6952794D01*
X10914543D01*
X10944422Y6982674D01*
X10844646Y6920346D02*
Y6941914D01*
X10744200Y6819900D02*
X10844646Y6920346D01*
X10837000Y6956859D02*
X10869541Y6989400D01*
X10837000Y6949560D02*
Y6956859D01*
Y6949560D02*
X10844646Y6941914D01*
X10815673Y6995635D02*
X10821121D01*
X10878871Y7053384D01*
X10869541Y6989400D02*
X10880438D01*
X10922000Y6896100D02*
X10930583D01*
X10981802Y6947319D01*
X10880438Y6989400D02*
X10909067Y7018029D01*
X10919674D01*
X10388600Y7188200D02*
X10440900D01*
X10465146Y7163954D01*
X10512357D01*
X10587329Y7238926D01*
X10617837D01*
X10692763Y7164000D01*
X10706100D01*
X10736906Y7194806D01*
X10742897D01*
X10728409Y7074252D02*
X10744850Y7090693D01*
X10723200Y7074252D02*
X10728409D01*
X10682596Y7121200D02*
X10683296Y7121900D01*
X10730095D01*
X10767646Y7159451D01*
X10778253D01*
X10744850Y7090693D02*
X10772764D01*
X10597894Y7096602D02*
X10693400Y7001096D01*
Y6997700D02*
Y7001096D01*
X10597894Y7096602D02*
Y7149635D01*
X10601430Y7153170D01*
X10693400Y6997700D02*
X10759970Y6931130D01*
X10769600Y7035800D02*
X10776297Y7042497D01*
X10772764Y7090693D02*
X10806167Y7124095D01*
X10813608D01*
X10776297Y7042497D02*
X10802720D01*
X10960100Y6845300D02*
Y6845812D01*
X10987287Y6802800D02*
X11061095Y6876608D01*
X10928951Y6802800D02*
X10987287D01*
X10942655Y6756400D02*
X11001270Y6697784D01*
Y6742863D02*
X11096451Y6838043D01*
X10802720Y7042497D02*
X10848963Y7088740D01*
X10782300Y6757749D02*
X10855430Y6830879D01*
Y6835670D01*
X10878871Y7053384D02*
X10884319D01*
X10681165Y6816969D02*
X10759970Y6895774D01*
X10626364Y6678850D02*
X10681165Y6733652D01*
X10759970Y6895774D02*
Y6931130D01*
X10681165Y6733652D02*
Y6816969D01*
X10944422Y6982674D02*
X10955029D01*
X10981802Y6947319D02*
X10990385D01*
X11169303Y6648103D02*
X11176000Y6654800D01*
X11150463Y6648103D02*
X11169303D01*
X11214100Y6718300D02*
X11223893D01*
X11277600Y6705600D02*
Y6767053D01*
X11328400Y6757749D02*
X11331470Y6760820D01*
X10960100Y6845812D02*
X11025740Y6911452D01*
Y6911963D01*
X10883900Y6757749D02*
X10928951Y6802800D01*
X11223893Y6718300D02*
X11252200Y6746607D01*
Y6767053D01*
X11220194Y6799059D02*
X11252200Y6767053D01*
X11220194Y6799059D02*
Y6805897D01*
X11290300Y6779753D02*
Y6802687D01*
X11277600Y6767053D02*
X11290300Y6779753D01*
X11255549Y6837438D02*
X11290300Y6802687D01*
X11331470Y6760820D02*
Y6836042D01*
X11255549Y6837438D02*
Y6841253D01*
X11290905Y6876608D02*
X11331470Y6836042D01*
X11463700Y6808530D02*
X11468100Y6804130D01*
X11372503Y6826597D02*
X11379200Y6819900D01*
X11372503Y6826597D02*
Y6865720D01*
X11326260Y6911963D02*
X11372503Y6865720D01*
X11432326Y7018029D02*
X11506200Y6944155D01*
X11396971Y6982674D02*
X11463700Y6915945D01*
X11417300Y6883400D02*
Y6887517D01*
X11361615Y6943202D02*
X11417300Y6887517D01*
X11361615Y6943202D02*
Y6947319D01*
X11463700Y6808530D02*
Y6915945D01*
X11506200Y6870700D02*
Y6944155D01*
X11976600Y7047000D02*
X11984346D01*
X12073815Y7136470D01*
X11503037Y7088740D02*
X11561400Y7030377D01*
X11518900Y6992629D02*
Y6997397D01*
X11467681Y7048616D02*
X11518900Y6997397D01*
X11467681Y7048616D02*
Y7053384D01*
X11561400Y6968970D02*
Y7030377D01*
Y6968970D02*
X11605241Y6925129D01*
X11590700Y6975025D02*
Y7045219D01*
Y6975025D02*
X11615596Y6950129D01*
X11633200Y6992629D02*
Y7023100D01*
X11663312Y6950129D02*
X11952109Y7238926D01*
X11615596Y6950129D02*
X11663312D01*
X11952109Y7238926D02*
X12278328D01*
X11573747Y7062171D02*
X11590700Y7045219D01*
X11633200Y7023100D02*
X11674370Y7064270D01*
X11605241Y6925129D02*
X11713029D01*
X11772900Y6985000D01*
X11573747Y7062171D02*
Y7085205D01*
X10591800Y7327900D02*
X10625899Y7293801D01*
X10732291D01*
X10742897Y7283194D01*
X10740900Y7353300D02*
X10775650Y7318549D01*
X10778253D01*
X10693400Y7353300D02*
X10740900D01*
X10791623Y7446600D02*
X10848963Y7389260D01*
X10744200Y7404100D02*
X10753671D01*
X10803866Y7353905D01*
X10813608D01*
X10726596Y7446600D02*
X10791623D01*
X10721731Y7441735D02*
X10726596Y7446600D01*
X10680234Y7441735D02*
X10721731D01*
X10645670Y7407170D02*
X10680234Y7441735D01*
X12769501Y7918194D02*
X12852307Y8001000D01*
X12763035Y7918194D02*
X12769501D01*
X11331470Y7794730D02*
Y7835063D01*
Y7782030D02*
Y7794730D01*
X10565563Y7510538D02*
X10630830Y7445270D01*
X10621800Y7650000D02*
X10806077D01*
X10630830Y7445270D02*
X10632970D01*
X10806077Y7650000D02*
X10955029Y7501048D01*
X10795000Y7594600D02*
X10795000D01*
X10741129Y7540730D02*
X10795000Y7594600D01*
X10728430Y7540730D02*
X10741129D01*
X10728430D02*
Y7546870D01*
X10794163Y7502630D02*
X10835054Y7461739D01*
X11372503Y7892703D02*
X11379200Y7899400D01*
X11331470Y7835063D02*
X11372503Y7876096D01*
Y7892703D01*
X10864873Y7522936D02*
Y7531100D01*
Y7522936D02*
X10919674Y7468135D01*
Y7459971D02*
Y7468135D01*
X10955029Y7495326D02*
Y7501048D01*
X10972800Y7625838D02*
Y7632700D01*
Y7625838D02*
X11025740Y7572898D01*
Y7566037D02*
Y7572898D01*
X11015300Y7647187D02*
Y7691800D01*
X11010900Y7696200D02*
X11015300Y7691800D01*
X10930300Y7590766D02*
X10990384Y7530681D01*
X10930300Y7590766D02*
Y7667051D01*
X10967100Y7703851D01*
Y7853600D01*
X11015300Y7647187D02*
X11061095Y7601392D01*
X11053400Y7679798D02*
X11096451Y7636748D01*
X11053400Y7679798D02*
Y7720596D01*
X11044600Y7729396D02*
X11053400Y7720596D01*
X11044600Y7729396D02*
Y7764604D01*
X11087100Y7747000D02*
X11093797Y7740303D01*
X11044600Y7764604D02*
X11090496Y7810500D01*
X11131806Y7672103D02*
Y7672569D01*
X11093797Y7710112D02*
Y7740303D01*
X10879600Y7670800D02*
Y7768600D01*
X11093797Y7710112D02*
X11131806Y7672103D01*
X11090496Y7810500D02*
X11176000D01*
X10892100Y7928600D02*
X10967100Y7853600D01*
X11255549Y7636748D02*
X11321309Y7702507D01*
X11345985Y7658240D02*
Y7660007D01*
X11290905Y7603159D02*
X11345985Y7658240D01*
X11290905Y7601392D02*
Y7603159D01*
X11321309Y7702507D02*
X11363589D01*
X11370361Y7695735D01*
X11395109D01*
X11405720Y7685124D01*
X11430465Y7690106D02*
X11483498D01*
X11376758Y7611231D02*
X11382062D01*
X11515504Y7658100D02*
X11518900D01*
X11561400Y7686179D02*
X11590262Y7715041D01*
X11561400Y7622796D02*
Y7686179D01*
X11331564Y7566037D02*
X11376758Y7611231D01*
X11483498Y7690106D02*
X11515504Y7658100D01*
X11534104Y7595500D02*
X11561400Y7622796D01*
X11426435Y7595500D02*
X11534104D01*
X11361616Y7530681D02*
X11426435Y7595500D01*
X11361616Y7530681D02*
X11361616D01*
X11472145Y7570500D02*
X11544459D01*
X11396971Y7495326D02*
X11472145Y7570500D01*
X11503278Y7528000D02*
X11506200D01*
X11467682Y7426848D02*
X11582400Y7541567D01*
X11581888Y7467600D02*
X11582400D01*
X11605687Y7421200D02*
X11652386D01*
X11538392Y7353905D02*
X11605687Y7421200D01*
X11633200Y7378351D02*
Y7378700D01*
X11494802Y7754443D02*
Y7852926D01*
X11426930Y7686570D02*
X11494802Y7754443D01*
X11573747Y7318898D02*
X11633200Y7378351D01*
X11503548Y7389260D02*
X11581888Y7467600D01*
X11435249Y7459971D02*
X11503278Y7528000D01*
X11582400Y7541567D02*
Y7543800D01*
X11326260Y7566037D02*
X11331564D01*
X11590262Y7715041D02*
Y7764538D01*
X11221544Y7672103D02*
X11331470Y7782030D01*
X11836400Y7416800D02*
X11839796D01*
X11573747Y7318549D02*
Y7318898D01*
X11467682Y7424616D02*
Y7426848D01*
X11503037Y7389260D02*
X11503548D01*
X11839796Y7416800D02*
X11884502Y7461506D01*
X12753656Y8043500D02*
X12911501D01*
X13042900Y7912100D01*
X12880870Y7826270D02*
X12953999Y7899400D01*
X12862030Y7826270D02*
X12880870D01*
X11432326Y7459971D02*
X11435249D01*
X10363200Y6825575D02*
X10406603Y6868978D01*
Y7078226D01*
X10410138Y7081762D01*
X10363200Y6769100D02*
Y6825575D01*
Y6769100D02*
X10417070Y6715230D01*
X10439400Y7315200D02*
Y7318549D01*
Y7315200D02*
X10505970Y7248630D01*
X10477500Y6870700D02*
Y6880171D01*
X10498526Y6901197D01*
Y6986302D01*
X10502062Y6989838D01*
X10477500Y6870700D02*
X10477500D01*
X10525881Y6822319D01*
X10578914D01*
X10582170Y6825575D01*
X10624643Y6678850D02*
X10626364D01*
X10565563Y6619770D02*
X10624643Y6678850D01*
X10512530Y6619770D02*
X10565563D01*
X10883900Y6699459D02*
Y6757749D01*
X10823470Y6639030D02*
X10883900Y6699459D01*
X10848963Y6477000D02*
X10852359D01*
X10918930Y6543570D01*
X11001270Y6697784D02*
Y6742863D01*
Y6689830D02*
Y6697784D01*
X11096730Y6594370D02*
X11150463Y6648103D01*
X11131806Y6682480D02*
Y6700762D01*
X11096730Y6647404D02*
X11131806Y6682480D01*
X11096730Y6594370D02*
Y6647404D01*
X11098218Y6734349D02*
X11131806Y6700762D01*
X11098218Y6734349D02*
Y6769100D01*
X11131806Y6802687D01*
Y6805897D01*
X11096451Y6838043D02*
Y6841253D01*
X10638000Y7950200D02*
X10659600Y7928600D01*
X10528300Y7950200D02*
X10638000D01*
X10456100D02*
X10528300D01*
X10439400Y7966900D02*
X10456100Y7950200D01*
X10879600Y7928600D02*
X10892100D01*
X10439400Y7659600D02*
Y7831900D01*
X10507700Y7768600D02*
X10659600D01*
X10444400Y7831900D02*
X10507700Y7768600D01*
X10439400Y7831900D02*
X10444400D01*
X11071000Y7938100D02*
X11108500Y7975600D01*
X10889100Y7938100D02*
X11071000D01*
X10879600Y7928600D02*
X10889100Y7938100D01*
X10835054Y7461739D02*
X10847195D01*
X10741130Y7502630D02*
X10794163D01*
X10847195Y7461739D02*
X10884318Y7424616D01*
X11734800Y7247792D02*
Y7251700D01*
Y7247792D02*
X11766294Y7216298D01*
Y7163265D02*
Y7216298D01*
X11538392Y7120560D02*
X11573747Y7085205D01*
X11668928Y7064270D02*
X11674370D01*
X11573747Y7159451D02*
X11668928Y7064270D01*
X11615094Y7194806D02*
X11646635Y7163265D01*
X11766294D01*
X11769830Y7159730D01*
X11609103Y7194806D02*
X11615094D01*
X11962070Y6574200D02*
X12029970Y6642100D01*
X11776700Y6574200D02*
X11962070D01*
X11776700Y6794200D02*
X11786630Y6804130D01*
X11912600D01*
X11404600Y6527800D02*
X11411872Y6535072D01*
X11494802D01*
X11577571D02*
X11616700Y6574200D01*
X11494802Y6535072D02*
X11577571D01*
X11301837Y6527800D02*
X11404600D01*
Y6662800D02*
X11497800D01*
X11616700Y6781700D01*
Y6794200D01*
X11705920Y6895920D02*
X12077700D01*
X11616700Y6806700D02*
X11705920Y6895920D01*
X11616700Y6794200D02*
Y6806700D01*
X12077700Y6895920D02*
X12107818Y6926038D01*
X12153973D01*
X12222982Y6995048D01*
X11494802Y7852926D02*
X11498338Y7856462D01*
X11243500Y7975600D02*
X11256200Y7988300D01*
X11353800D01*
X11220194Y7672103D02*
X11221544D01*
X14935201Y7642000D02*
X15217999Y7924800D01*
X14935201Y6778400D02*
Y7642000D01*
X12156970Y7581900D02*
X12231600Y7656530D01*
X12156970Y7548964D02*
Y7581900D01*
X12231600Y7656530D02*
Y7785100D01*
X13247800Y7730439D02*
X13329192D01*
X12700356Y7990200D02*
X12753656Y8043500D01*
X12584100Y7990200D02*
X12700356D01*
X12549100Y7955200D02*
X12584100Y7990200D01*
X12549100Y7950200D02*
Y7955200D01*
X12073815Y7136470D02*
X12081561D01*
X12038100Y7962900D02*
X12039600Y7964400D01*
Y8064500D01*
X12260106Y7813606D02*
Y7865813D01*
X12231600Y7785100D02*
X12260106Y7813606D01*
Y7865813D02*
X12293693Y7899400D01*
X12369800Y7817943D02*
X12384100Y7832243D01*
Y7915200D01*
X12419100Y7950200D01*
X12369800Y7760584D02*
Y7817943D01*
Y7760584D02*
X12435114Y7695270D01*
Y7695084D02*
Y7695270D01*
X12156970Y7548964D02*
X12222982Y7482952D01*
X11976600Y7831900D02*
X11983496D01*
X11876000Y7932500D02*
X11976600Y7831900D01*
X11876000Y7932500D02*
Y7937500D01*
X11983496Y7831900D02*
X12030296Y7785100D01*
X12101600D01*
X11983496Y7553430D02*
X12036530D01*
X11938000Y7598926D02*
X11983496Y7553430D01*
X11796997Y7598926D02*
X11938000D01*
X11793462Y7602462D02*
X11796997Y7598926D01*
X12103100Y7618500D02*
X12103100D01*
X12038029Y7553430D02*
X12103100Y7618500D01*
X12036530Y7553430D02*
X12038029D01*
X11884502Y7461506D02*
X11937535D01*
X11941070Y7457970D01*
X12036530Y7553430D02*
X12040065Y7549894D01*
Y7453737D02*
Y7549894D01*
Y7453737D02*
X12116916Y7376886D01*
X12081561Y7341530D02*
X12081561D01*
X11965121Y7457970D02*
X12081561Y7341530D01*
X11941070Y7457970D02*
X11965121D01*
X12457200Y6578600D02*
X12458700Y6577100D01*
Y6464300D02*
Y6577100D01*
X12187627Y6895920D02*
X12251400Y6959693D01*
X12258338D01*
X12125220Y6895920D02*
X12187627D01*
X12033506Y6804206D02*
X12125220Y6895920D01*
X12033506Y6645636D02*
Y6804206D01*
X12029970Y6642100D02*
X12033506Y6645636D01*
X12101600Y6713004D02*
Y6722475D01*
Y6713004D02*
X12128965Y6685639D01*
Y6550176D02*
Y6685639D01*
X12125430Y6546641D02*
X12128965Y6550176D01*
X12101600Y6722475D02*
X12156970Y6777845D01*
Y6804130D01*
X12252430Y6708670D02*
X12331700Y6629400D01*
X12160506Y6807665D02*
X12247731D01*
X12156970Y6804130D02*
X12160506Y6807665D01*
X12247731D02*
X12329048Y6888982D01*
X12252430Y6708670D02*
Y6741653D01*
X12364404Y6853627D01*
X12764802Y6612374D02*
X12768338Y6608838D01*
X12620973Y6612374D02*
X12764802D01*
X12587200Y6578600D02*
X12620973Y6612374D01*
X12863797Y6697226D02*
X12946503D01*
X12860262Y6700762D02*
X12863797Y6697226D01*
X12946503D02*
X12993729Y6650000D01*
X13171721Y6991379D02*
X13246100Y7065759D01*
X13166830Y6991379D02*
X13171721D01*
X13071370Y6891401D02*
Y6895920D01*
Y6891401D02*
X13144501Y6818271D01*
X13166830Y6991379D02*
Y7034079D01*
X13064439Y7136469D02*
X13166830Y7034079D01*
X13055600Y6964724D02*
Y6992629D01*
Y6964724D02*
X13071370Y6948953D01*
Y6895920D02*
Y6948953D01*
X13055600Y6992629D02*
X13081000Y7018029D01*
Y7038591D01*
X13029083Y7090507D02*
X13081000Y7038591D01*
X13029083Y7090507D02*
Y7101114D01*
X12790807Y7775005D02*
X12810764D01*
X12710886Y7695084D02*
X12790807Y7775005D01*
X12810764D02*
X12862030Y7826270D01*
X12675531Y7730439D02*
X12763035Y7817943D01*
Y7918194D01*
X12766570Y7921730D01*
X13129848Y7406938D02*
X13151665D01*
X13179065Y7434338D01*
X13228561D01*
X13064439Y7341531D02*
X13129848Y7406938D01*
X13107750Y7526262D02*
X13136638D01*
X12993729Y7412241D02*
X13107750Y7526262D01*
X12993729Y7412241D02*
X12993729D01*
X13727200Y7924800D02*
X13752600Y7950200D01*
X13541600Y7924800D02*
X13727200D01*
X13589000Y7558000D02*
X13594000D01*
X13742000Y7650000D02*
X13779500Y7687500D01*
X15078300Y6438900D02*
X15192599Y6553200D01*
X14871700Y6438900D02*
X15078300D01*
X14832001Y6478600D02*
X14871700Y6438900D01*
X14787862Y6478600D02*
X14832001D01*
X14752863Y6513600D02*
X14787862Y6478600D01*
X14982600Y6553200D02*
Y6731000D01*
X14935201Y6778400D02*
X14982600Y6731000D01*
X14968401Y7964400D02*
X15008000Y7924800D01*
X14808200Y7964400D02*
X14968401D01*
X14355350Y7139000D02*
X14364137Y7147787D01*
X14423387D01*
X14452600Y7177000D01*
X14355350Y7060153D02*
Y7139000D01*
X14325600Y7030403D02*
X14355350Y7060153D01*
X14283603Y7030403D02*
X14325600D01*
X14240100Y6986900D02*
X14283603Y7030403D01*
X14235100Y6986900D02*
X14240100D01*
X14200101Y6951900D02*
X14235100Y6986900D01*
X14200101Y6946900D02*
Y6951900D01*
X14263600Y7950200D02*
X14296547Y7917252D01*
Y7810500D02*
Y7917252D01*
X14417599Y7212000D02*
X14452600Y7177000D01*
X14390199Y7212000D02*
X14417599D01*
X14268201Y7334000D02*
X14390199Y7212000D01*
X14755093Y7406500D02*
X14792250Y7369345D01*
X14692250Y7406500D02*
X14755093D01*
X14684750Y7414000D02*
X14692250Y7406500D01*
X14792250Y7366000D02*
Y7369345D01*
X14782800Y7315200D02*
X14808200Y7289800D01*
X14681200Y7315200D02*
X14782800D01*
X14644600Y7872500D02*
X14681200Y7835900D01*
X14644600Y7872500D02*
Y7950200D01*
X14363699Y7658100D02*
Y7667571D01*
X14378000Y7681871D01*
Y7737400D01*
X14413000Y7772400D01*
X14573598Y7111910D02*
X14575687Y7114000D01*
X14573598Y7093297D02*
Y7111910D01*
X14566901Y7086600D02*
X14573598Y7093297D01*
X14575687Y7114000D02*
X14684750D01*
X14133600Y7880200D02*
X14192000Y7821800D01*
Y7762900D02*
Y7821800D01*
Y7762900D02*
X14214500Y7740400D01*
X14234500D01*
X14133600Y7880200D02*
Y7950200D01*
X12522200Y7353905D02*
X12652549D01*
X12852307Y7553663D01*
X12496195Y7327900D02*
X12522200Y7353905D01*
X12319000Y7327900D02*
X12496195D01*
X12289447Y7285400D02*
X12543200D01*
X12547600Y7289800D01*
X12267973Y7263926D02*
X12289447Y7285400D01*
X11976100Y7289800D02*
X12001500Y7315200D01*
Y7316782D01*
X11948885Y7289800D02*
X11976100D01*
X11939404Y7263926D02*
X12267973D01*
X12278328Y7238926D02*
X12303254Y7214000D01*
X12531904D01*
X11538392Y7120560D02*
Y7124095D01*
X14554201Y7276500D02*
X14622249D01*
X14465900D02*
X14554201D01*
X14579601Y7251100D01*
Y7175500D02*
Y7251100D01*
Y7175500D02*
X14591100Y7164000D01*
X14684750D01*
X14808200Y7239000D02*
Y7289800D01*
X14783200Y7214000D02*
X14808200Y7239000D01*
X14684750Y7214000D02*
X14783200D01*
X12855843Y7627909D02*
Y7645587D01*
X12816953Y7589018D02*
X12855843Y7627909D01*
X12820488Y7663264D02*
X12838165D01*
X12781597Y7624373D02*
X12820488Y7663264D01*
X14214500Y7550400D02*
X14234500D01*
X14167000Y7597900D02*
X14214500Y7550400D01*
X14167000Y7597900D02*
Y7624114D01*
X14158212Y7632900D02*
X14167000Y7624114D01*
X14135431Y7632900D02*
X14158212D01*
X14104060Y7664272D02*
X14135431Y7632900D01*
X14104060Y7664272D02*
Y7778440D01*
X14167000Y7692900D02*
X14214500Y7740400D01*
X14167000Y7666687D02*
Y7692900D01*
X14158212Y7657900D02*
X14167000Y7666687D01*
X14145787Y7657900D02*
X14158212D01*
X14129060Y7674627D02*
X14145787Y7657900D01*
X14129060Y7674627D02*
Y7788795D01*
X14634750Y7264000D02*
X14684750D01*
X14622249Y7276500D02*
X14634750Y7264000D01*
X14299800Y7442600D02*
X14465900Y7276500D01*
X14634750Y7314000D02*
X14684750D01*
X14622250Y7301500D02*
X14634750Y7314000D01*
X14476254Y7301500D02*
X14622250D01*
X14310155Y7467600D02*
X14476254Y7301500D01*
X14162445Y7442600D02*
X14299800D01*
X14172800Y7467600D02*
X14310155D01*
X14057001Y7548045D02*
X14162445Y7442600D01*
X14082001Y7558400D02*
X14172800Y7467600D01*
X14057001Y7548045D02*
Y7624114D01*
X14048213Y7632900D02*
X14057001Y7624114D01*
X14035786Y7632900D02*
X14048213D01*
X14027000Y7624114D02*
X14035786Y7632900D01*
X14027000Y7597900D02*
Y7624114D01*
X13979500Y7550400D02*
X14027000Y7597900D01*
X13959500Y7550400D02*
X13979500D01*
X14082001Y7558400D02*
Y7634469D01*
X14058568Y7657900D02*
X14082001Y7634469D01*
X14035786Y7657900D02*
X14058568D01*
X14027000Y7666687D02*
X14035786Y7657900D01*
X14027000Y7666687D02*
Y7692900D01*
X13979500Y7740400D02*
X14027000Y7692900D01*
X13959500Y7740400D02*
X13979500D01*
D37*
X14783400Y7465500D02*
X14871700Y7377200D01*
X14766362Y7465500D02*
X14783400D01*
X14752863Y7479000D02*
X14766362Y7465500D01*
X14684750Y7479000D02*
X14752863D01*
X14871700Y7194806D02*
Y7377200D01*
X14833600Y7156706D02*
X14871700Y7194806D01*
X14833600Y7073900D02*
Y7156706D01*
X14768700Y7009000D02*
X14833600Y7073900D01*
X14694749Y7009000D02*
X14768700D01*
X14684750Y6999000D02*
X14694749Y7009000D01*
D38*
X14732001Y6096000D02*
D03*
X14478000D02*
D03*
X14986000D02*
D03*
X15239999D02*
D03*
X14224001D02*
D03*
X13970000D02*
D03*
X13462000D02*
D03*
X13716000D02*
D03*
X13208000D02*
D03*
X10922000D02*
D03*
X11430000D02*
D03*
X11176000D02*
D03*
X11684000D02*
D03*
X11938000D02*
D03*
X12953999D02*
D03*
X12700000D02*
D03*
X12192000D02*
D03*
X12446000D02*
D03*
X10414000D02*
D03*
X10668000D02*
D03*
X14732001Y8382000D02*
D03*
X14478000D02*
D03*
X14986000D02*
D03*
X15239999D02*
D03*
X14224001D02*
D03*
X13970000D02*
D03*
X13462000D02*
D03*
X13716000D02*
D03*
X13208000D02*
D03*
X10922000D02*
D03*
X11430000D02*
D03*
X11176000D02*
D03*
X11684000D02*
D03*
X11938000D02*
D03*
X12953999D02*
D03*
X12700000D02*
D03*
X12192000D02*
D03*
X12446000D02*
D03*
X10414000D02*
D03*
X10668000D02*
D03*
D39*
X15160249Y7671000D02*
D03*
Y6807000D02*
D03*
D40*
X14742250Y7671000D02*
D03*
Y6807000D02*
D03*
D41*
X14630400Y7768600D02*
D03*
X14592300Y6853627D02*
D03*
X10287000Y8280400D02*
D03*
X10274300Y7594600D02*
D03*
X10337800Y7252656D02*
D03*
X10287000Y8178800D02*
D03*
Y7023100D02*
D03*
X10160000Y6959600D02*
D03*
X10274300Y7896050D02*
D03*
X10325100Y7442200D02*
D03*
X10160000Y7531100D02*
D03*
X11658600Y7658100D02*
D03*
X11747500Y7421200D02*
D03*
X11849100Y7279514D02*
D03*
X11938000Y7147767D02*
D03*
X13512801Y7710112D02*
D03*
X13284200Y7569200D02*
D03*
X12712700Y7213600D02*
D03*
X12687300Y7315200D02*
D03*
X14020799Y7874000D02*
D03*
X13677901Y7754443D02*
D03*
X12561256Y7734300D02*
D03*
X13233400Y7277100D02*
D03*
X13839500Y7150100D02*
D03*
Y7073900D02*
D03*
X13931900Y7092959D02*
D03*
X14158212Y7339000D02*
D03*
X14172800Y7053384D02*
D03*
X14236700Y7060153D02*
D03*
X14635915Y6464300D02*
D03*
X12611100Y7624373D02*
D03*
X12776200Y7325486D02*
D03*
X14300200Y7079270D02*
D03*
X14439900Y6782916D02*
D03*
X10887145Y6946098D02*
D03*
X10815673Y6995635D02*
D03*
X10922000Y6896100D02*
D03*
X10388600Y7188200D02*
D03*
X10723200Y7074252D02*
D03*
X10682596Y7121200D02*
D03*
X10693400Y6997700D02*
D03*
X10769600Y7035800D02*
D03*
X10960100Y6845300D02*
D03*
X10942655Y6756400D02*
D03*
X10782300Y6757749D02*
D03*
X10744200Y6819900D02*
D03*
X11176000Y6654800D02*
D03*
X11214100Y6718300D02*
D03*
X11277600Y6705600D02*
D03*
X11328400Y6757749D02*
D03*
X13208000Y6662800D02*
D03*
X13131799D02*
D03*
X11468100Y6804130D02*
D03*
X11379200Y6819900D02*
D03*
X11417300Y6883400D02*
D03*
X11506200Y6870700D02*
D03*
X13436600Y7139000D02*
D03*
X13839500Y7225700D02*
D03*
X11976600Y7047000D02*
D03*
X11518900Y6992629D02*
D03*
X11633200D02*
D03*
X13436600Y7214000D02*
D03*
Y7064270D02*
D03*
X13665199Y6982674D02*
D03*
X13589000D02*
D03*
X11772900Y6985000D02*
D03*
X10591800Y7327900D02*
D03*
X10693400Y7353300D02*
D03*
X10744200Y7404100D02*
D03*
X10565563Y7510538D02*
D03*
X10795000Y7594600D02*
D03*
X11379200Y7899400D02*
D03*
X10864873Y7531100D02*
D03*
X10972800Y7632700D02*
D03*
X11010900Y7696200D02*
D03*
X11087100Y7747000D02*
D03*
X10879600Y7670800D02*
D03*
X11176000Y7810500D02*
D03*
X11345985Y7660007D02*
D03*
X11382062Y7611231D02*
D03*
X11518900Y7658100D02*
D03*
X11506200Y7528000D02*
D03*
X11582400Y7467600D02*
D03*
X11633200Y7378700D02*
D03*
X11582400Y7543800D02*
D03*
X11836400Y7416800D02*
D03*
X13042900Y7912100D02*
D03*
X12953999Y7899400D02*
D03*
X10439400Y7318549D02*
D03*
X10477500Y6870700D02*
D03*
X10848963Y6477000D02*
D03*
X10528300Y7950200D02*
D03*
X11734800Y7251700D02*
D03*
X11912600Y6804130D02*
D03*
X11494802Y6535072D02*
D03*
X11301837Y6527800D02*
D03*
X11353800Y7988300D02*
D03*
X15024100Y7213600D02*
D03*
X14119641Y6830097D02*
D03*
X13893800Y7442200D02*
D03*
X13627100Y7685000D02*
D03*
X13247800Y7730439D02*
D03*
X12039600Y8064500D02*
D03*
X12293693Y7899400D02*
D03*
X11983496Y7831900D02*
D03*
X12103100Y7618500D02*
D03*
X12458700Y6464300D02*
D03*
X12101600Y6722475D02*
D03*
X12331700Y6629400D02*
D03*
X12877800Y6527800D02*
D03*
X12993729Y6650000D02*
D03*
X13144501Y6818271D02*
D03*
X13246100Y7065759D02*
D03*
X12852307Y8001000D02*
D03*
X14249400Y6782916D02*
D03*
X14947900Y7772400D02*
D03*
X13208000Y7924800D02*
D03*
X13970000Y6947319D02*
D03*
X13665199Y6722475D02*
D03*
X13589000D02*
D03*
X13665199Y6643600D02*
D03*
X13589000D02*
D03*
X13752600Y6985000D02*
D03*
X13500101D02*
D03*
X13347701Y6388100D02*
D03*
X13436600Y6689830D02*
D03*
X13347701D02*
D03*
X13970000Y7950200D02*
D03*
X13397099Y7470900D02*
D03*
X13779500Y7442600D02*
D03*
X14579601Y7607300D02*
D03*
X14122400Y6438900D02*
D03*
X14008099Y6546641D02*
D03*
X14350999Y6464300D02*
D03*
X14528799D02*
D03*
X14296547Y7810500D02*
D03*
X14792250Y7366000D02*
D03*
X14681200Y7835900D02*
D03*
X14363699Y7658100D02*
D03*
X14566901Y7086600D02*
D03*
X12319000Y7327900D02*
D03*
X12001500Y7316782D02*
D03*
X12547600Y7289800D02*
D03*
X10942655Y7316782D02*
D03*
X11098218Y7161218D02*
D03*
X11253782Y7005655D02*
D03*
X11020436Y7239000D02*
D03*
X11176000Y7083436D02*
D03*
X11098218Y7472345D02*
D03*
X11253782Y7316782D02*
D03*
X11409345Y7161218D02*
D03*
X11176000Y7394564D02*
D03*
X11331564Y7239000D02*
D03*
X11409345Y7316782D02*
D03*
X11253782Y7161218D02*
D03*
X11098218Y7005655D02*
D03*
X11253782Y7472345D02*
D03*
X11098218Y7316782D02*
D03*
X10942655Y7161218D02*
D03*
X11176000Y6927873D02*
D03*
X11020436Y7083436D02*
D03*
X10864873Y7239000D02*
D03*
X11331564Y7083436D02*
D03*
X11176000Y7239000D02*
D03*
X11020436Y7394564D02*
D03*
X11487127Y7239000D02*
D03*
X11331564Y7394564D02*
D03*
X11176000Y7550127D02*
D03*
%TF.MD5,a88feddf29056a91e7a3f9cd5c03e431*%
M02*
